<svg id="Layer_1" data-name="Layer 1" xmlns="http://www.w3.org/2000/svg" viewBox="0 0 1079 596"><defs><style>.cls-1,.cls-5{fill:none;}.cls-1,.cls-2,.cls-5{stroke:#000;stroke-miterlimit:10;}.cls-1,.cls-2{stroke-width:7.64px;}.cls-2{fill:#e25f5f;}.cls-3{fill:#a2a2a1;}.cls-4{fill:#231f20;}.cls-5{stroke-width:6.11px;}</style></defs><path class="cls-1" d="M969,592.18h13.11l73.72,0H1069c0-2.14,0-4.28,0-6.42s0-4.48,0-6.74A532.24,532.24,0,0,0,1039.78,411c-.23-.69-.5-1.38-.73-2.07l-2.4-6.77c-.11-.35-.26-.69-.38-1a1.26,1.26,0,0,0-.15-.34l-.8-2.18A531.14,531.14,0,0,0,950,249.82c-.3-.38-.64-.8-1-1.22s-.68-.77-1-1.19c-1.41-1.72-2.78-3.4-4.19-5-.23-.27-.42-.53-.65-.76a2.11,2.11,0,0,0-.19-.23,1.77,1.77,0,0,1-.19-.23,1.28,1.28,0,0,1-.19-.23l-.08-.08c-.15-.19-.34-.38-.49-.57s-.19-.23-.27-.31a1.68,1.68,0,0,1-.23-.27A531.4,531.4,0,0,0,810.8,128.91c-.35-.23-.65-.39-1-.62s-.61-.38-1-.57l-.26-.15c-1.87-1.07-3.74-2.18-5.61-3.26-1.18-.68-2.36-1.37-3.54-2A523.38,523.38,0,0,0,638.78,63.2c-1.22-.26-2.44-.49-3.7-.68-1.07-.23-2.17-.42-3.31-.62-1.95-.34-3.93-.68-5.91-1a520.58,520.58,0,0,0-80.5-7c-2-.08-4-.08-6-.08-2.86,0-5.71,0-8.57.08h-.31a529.25,529.25,0,0,0-75.62,6.65c-3.09.5-6.18,1-9.22,1.57l-3.74.69a524.27,524.27,0,0,0-160.82,58.43c-3.66,2.07-7.27,4.17-10.86,6.28a3.23,3.23,0,0,1-.49.3A532,532,0,0,0,138.68,238c-1.3,1.49-2.59,3-3.85,4.52-1.56,1.83-3.09,3.67-4.61,5.54A531.47,531.47,0,0,0,44,397.41c-.12.27-.23.58-.34.84a5.82,5.82,0,0,0-.31.89.25.25,0,0,0-.08.15l-3,8.3c-.19.46-.34.92-.49,1.38-.08.27-.19.53-.27.8A532.47,532.47,0,0,0,9.86,579.13c0,2.19,0,4.41,0,6.59s0,4.4,0,6.62H192.63Zm54-189-69.38,25.22a441.09,441.09,0,0,0-70.22-122.6l56.58-47.45A519.26,519.26,0,0,1,1022.94,403.15ZM215.14,302.67a431.73,431.73,0,0,1,104.51-87.74L360.91,287a350.1,350.1,0,0,0-82.44,69.26ZM270,366.3a348.07,348.07,0,0,0-54.26,93.94L138,431.78a431.4,431.4,0,0,1,68.74-119Zm61-158a424,424,0,0,1,128.17-46.56l14.21,81.92a343.24,343.24,0,0,0-101.07,36.74Zm141.13-48.82a431,431,0,0,1,136.2.27l-14.51,81.88a343.78,343.78,0,0,0-48.46-4.21c-2-.07-4-.07-6-.07-3,0-5.94,0-8.88.11a350.55,350.55,0,0,0-44.19,3.94Zm3.54,97.15L526.61,549.9l-147.75-258A329.43,329.43,0,0,1,475.67,256.67Zm12.95-2.25a334.26,334.26,0,0,1,102.91.23l-51.93,293Zm115.83,2.52a328.17,328.17,0,0,1,96.77,35.63L552.44,550.28Zm2.28-13,14.52-81.89a424.8,424.8,0,0,1,128.09,47.11l-41.53,71.94A342.28,342.28,0,0,0,606.73,244Zm153.93-28.16A431.46,431.46,0,0,1,864.9,304.08l-63.51,53.35a348.64,348.64,0,0,0-82.26-69.69Zm112.62,98.41a429.41,429.41,0,0,1,68,118.63l-77.84,28.27a347.13,347.13,0,0,0-53.64-93.59ZM804.21,140.39A520,520,0,0,1,931.5,248.18L875,295.67A443.43,443.43,0,0,0,767.21,204.4ZM636.45,76.29a509.39,509.39,0,0,1,156.4,57.51l-37,64a435.15,435.15,0,0,0-132.36-48.67Zm-97-9.18A516.39,516.39,0,0,1,623.54,74l-12.92,72.89a431.87,431.87,0,0,0-65.26-5.7c-2-.08-4-.08-6-.08-3,0-5.94,0-8.88.12a432.65,432.65,0,0,0-60.65,5.36h0l-12.65-72.9A516.26,516.26,0,0,1,539.41,67.11Zm-95.17,8.8,12.69,72.93a435.15,435.15,0,0,0-132.44,48.1l-36.77-64.17A511.48,511.48,0,0,1,444.24,75.91Zm-167.87,63.4,36.77,64.21a443.63,443.63,0,0,0-108,90.65l-56.35-47.64A521,521,0,0,1,276.37,139.31Zm-136,117.29,56.34,47.68a443.15,443.15,0,0,0-71,123L56.34,401.93A519,519,0,0,1,140.32,256.6ZM23,579.13a519.45,519.45,0,0,1,28.85-164.8l69.26,25.33A444.51,444.51,0,0,0,96.77,579.13Zm86.83,0a432.32,432.32,0,0,1,23.59-135l77.8,28.46a347.89,347.89,0,0,0-18.63,106.53Zm95.9,0a336,336,0,0,1,17.83-102l279,102ZM228.1,464.76a333.71,333.71,0,0,1,52-89.92l226.84,191.9Zm60.42-100a333.22,333.22,0,0,1,79-66.27l147.75,258Zm424-65.58a335.91,335.91,0,0,1,78.79,66.69l-227.57,191ZM799.71,376A334,334,0,0,1,851,465.6L572.25,566.89ZM576.9,579.25,855.53,478a335.94,335.94,0,0,1,17.52,101.1Zm309.3-.19a350.5,350.5,0,0,0-18.29-105.58l77.8-28.27A430.78,430.78,0,0,1,969,579Zm95.86,0a443.89,443.89,0,0,0-24-138.29l69.34-25.18A519.9,519.9,0,0,1,1055.78,579Z"/><path class="cls-2" d="M741.55,579.34H337.27c0-112.12,90.5-203,202.14-203S741.55,467.22,741.55,579.34Z"/><line class="cls-3" x1="952.67" y1="401.84" x2="977.4" y2="411.31"/><path class="cls-4" d="M952.67,401.84a19.5,19.5,0,0,1,7.25-.42A26.49,26.49,0,0,1,966.4,403a26.09,26.09,0,0,1,5.89,3.13,19.2,19.2,0,0,1,5.11,5.17,19.16,19.16,0,0,1-7.26.43,26,26,0,0,1-6.47-1.6,26.54,26.54,0,0,1-5.89-3.14A19.45,19.45,0,0,1,952.67,401.84Z"/><line class="cls-3" x1="941.89" y1="378.69" x2="1001.85" y2="401.64"/><path class="cls-4" d="M941.89,378.69A90.89,90.89,0,0,1,958,381.64a156.66,156.66,0,0,1,30,11.46,89.17,89.17,0,0,1,13.91,8.54,90,90,0,0,1-16.06-2.94,148.88,148.88,0,0,1-15.28-5,154.94,154.94,0,0,1-14.7-6.51A90.43,90.43,0,0,1,941.89,378.69Z"/><line class="cls-3" x1="928.96" y1="354.72" x2="1006.1" y2="384.23"/><path class="cls-4" d="M929,354.72a147.55,147.55,0,0,1,20.35,4.58c6.63,1.94,13.15,4.16,19.58,6.61s12.77,5.16,19,8.14a147.11,147.11,0,0,1,18.21,10.18,145.9,145.9,0,0,1-20.36-4.57q-9.94-2.91-19.58-6.62t-19-8.15A147.76,147.76,0,0,1,929,354.72Z"/><line class="cls-3" x1="913.35" y1="329.72" x2="995.67" y2="361.21"/><path class="cls-4" d="M913.35,329.72A168.75,168.75,0,0,1,935,334.8q10.59,3.15,20.87,7.1t20.29,8.64a165.43,165.43,0,0,1,19.51,10.67A165.41,165.41,0,0,1,974,356.15Q963.43,353,953.15,349c-6.86-2.63-13.63-5.49-20.29-8.64A169.22,169.22,0,0,1,913.35,329.72Z"/><line class="cls-3" x1="896.46" y1="304.23" x2="983.39" y2="337.49"/><path class="cls-4" d="M896.46,304.23a187.58,187.58,0,0,1,22.8,5.52q11.18,3.38,22,7.55t21.44,9.07a184.86,184.86,0,0,1,20.66,11.12,185.71,185.71,0,0,1-22.8-5.51q-11.18-3.37-22-7.55c-7.24-2.78-14.39-5.79-21.43-9.09A185.67,185.67,0,0,1,896.46,304.23Z"/><line class="cls-3" x1="911.87" y1="291.1" x2="968.9" y2="312.92"/><path class="cls-4" d="M911.87,291.1a82.84,82.84,0,0,1,15.33,2.66,140.14,140.14,0,0,1,14.55,4.69,137.86,137.86,0,0,1,14,6.21,81.83,81.83,0,0,1,13.18,8.26,82,82,0,0,1-15.33-2.65A140.14,140.14,0,0,1,939,305.58a142.45,142.45,0,0,1-14-6.23A82.56,82.56,0,0,1,911.87,291.1Z"/><line class="cls-3" x1="926.37" y1="277.62" x2="951.68" y2="287.3"/><path class="cls-4" d="M926.37,277.62a20.22,20.22,0,0,1,7.4-.37,28.36,28.36,0,0,1,12.65,4.83,20,20,0,0,1,5.26,5.22,19.83,19.83,0,0,1-7.4.39,28.39,28.39,0,0,1-12.65-4.85A20.17,20.17,0,0,1,926.37,277.62Z"/><line class="cls-3" x1="915.17" y1="434.95" x2="919.94" y2="407.32"/><path class="cls-4" d="M915.17,435a21.32,21.32,0,0,1-1.75-7.42,30.41,30.41,0,0,1,2.37-13.81,21.34,21.34,0,0,1,4.15-6.4,20.93,20.93,0,0,1,1.77,7.42,28.94,28.94,0,0,1-.39,7,30,30,0,0,1-2,6.77A21.11,21.11,0,0,1,915.17,435Z"/><line class="cls-3" x1="896.06" y1="441.19" x2="906.51" y2="380.66"/><path class="cls-4" d="M896.06,441.19a83.77,83.77,0,0,1-.34-15.64,141.35,141.35,0,0,1,1.8-15.27,139,139,0,0,1,3.42-15,82.18,82.18,0,0,1,5.57-14.62,82.09,82.09,0,0,1,.34,15.64A138.9,138.9,0,0,1,905,411.57a141.38,141.38,0,0,1-3.42,15A83.7,83.7,0,0,1,896.06,441.19Z"/><line class="cls-3" x1="876.79" y1="448.31" x2="892.53" y2="357.13"/><path class="cls-4" d="M876.79,448.31a183.9,183.9,0,0,1,1-23.3q1.14-11.55,3.12-22.94t4.74-22.65a182.34,182.34,0,0,1,6.89-22.29,180.5,180.5,0,0,1-1,23.31q-1.14,11.54-3.13,22.93T883.67,426A184,184,0,0,1,876.79,448.31Z"/><line class="cls-3" x1="861.97" y1="429.65" x2="878.13" y2="336.07"/><path class="cls-4" d="M862,429.65a195.69,195.69,0,0,1,1.09-23.91q1.2-11.83,3.23-23.53T871.13,359a191.7,191.7,0,0,1,7-22.88,191.53,191.53,0,0,1-1.08,23.9q-1.2,11.85-3.24,23.54c-1.35,7.8-2.95,15.55-4.85,23.25A193.65,193.65,0,0,1,862,429.65Z"/><line class="cls-3" x1="848.43" y1="403.61" x2="860.22" y2="335.33"/><path class="cls-4" d="M848.43,403.61a105.3,105.3,0,0,1,0-17.58q.65-8.67,2.13-17.21t3.75-16.93a104.32,104.32,0,0,1,5.91-16.56,103.21,103.21,0,0,1,0,17.58c-.43,5.79-1.16,11.52-2.14,17.21s-2.23,11.34-3.77,16.93A105.22,105.22,0,0,1,848.43,403.61Z"/><line class="cls-3" x1="834.29" y1="381" x2="839.21" y2="352.54"/><path class="cls-4" d="M834.29,381a22.29,22.29,0,0,1-1.72-7.62,31.87,31.87,0,0,1,.42-7.26,31.4,31.4,0,0,1,2-7,22.12,22.12,0,0,1,4.19-6.6,22.08,22.08,0,0,1,1.73,7.63,31.26,31.26,0,0,1-.43,7.25,32,32,0,0,1-2,7A22.08,22.08,0,0,1,834.29,381Z"/><line class="cls-3" x1="940.64" y1="463.97" x2="931.06" y2="458.6"/><path class="cls-4" d="M940.64,464a8.24,8.24,0,0,1-3.85,1.27,5,5,0,0,1-4.8-2.68,8.11,8.11,0,0,1-.93-4,8.08,8.08,0,0,1,3.86-1.27,5,5,0,0,1,2.8.63,5.14,5.14,0,0,1,2,2.06A8.1,8.1,0,0,1,940.64,464Z"/><line class="cls-3" x1="947.34" y1="488.26" x2="906.68" y2="465.49"/><path class="cls-4" d="M947.34,488.26a50.09,50.09,0,0,1-11.63-3.08,82.9,82.9,0,0,1-10.57-5,79.61,79.61,0,0,1-9.76-6.41,49.3,49.3,0,0,1-8.7-8.31,49.6,49.6,0,0,1,11.63,3.08,79.59,79.59,0,0,1,10.56,5,80.79,80.79,0,0,1,9.76,6.41A50,50,0,0,1,947.34,488.26Z"/><line class="cls-3" x1="951.85" y1="511.33" x2="885.59" y2="474.23"/><path class="cls-4" d="M951.85,511.33a126.74,126.74,0,0,1-18-6.66q-8.69-3.92-17-8.56t-16.17-10a123.22,123.22,0,0,1-15.1-11.89,123.88,123.88,0,0,1,18,6.65q8.7,3.92,17,8.57t16.16,10A125.67,125.67,0,0,1,951.85,511.33Z"/><line class="cls-3" x1="954.93" y1="533.6" x2="884.91" y2="494.39"/><path class="cls-4" d="M954.93,533.6a141,141,0,0,1-19-7.19q-9.16-4.17-17.91-9.09T901,506.81a139,139,0,0,1-16-12.42,137.81,137.81,0,0,1,19,7.18q9.17,4.17,17.9,9.09t17.11,10.53A139.81,139.81,0,0,1,954.93,533.6Z"/><line class="cls-3" x1="957.45" y1="555.55" x2="889.84" y2="517.69"/><path class="cls-4" d="M957.45,555.55a130.54,130.54,0,0,1-18.37-6.85q-8.85-4-17.3-8.75t-16.5-10.17a129,129,0,0,1-15.44-12.09,129.62,129.62,0,0,1,18.37,6.85q8.87,4,17.3,8.75c5.63,3.16,11.14,6.54,16.5,10.19A131.73,131.73,0,0,1,957.45,555.55Z"/><line class="cls-3" x1="951.08" y1="571.78" x2="893.06" y2="540.09"/><path class="cls-4" d="M951.08,571.78a95.52,95.52,0,0,1-15.94-5.3,164.78,164.78,0,0,1-14.9-7.2,157.12,157.12,0,0,1-14.11-8.64,94.79,94.79,0,0,1-13.07-10.55,95.28,95.28,0,0,1,16,5.28,163.4,163.4,0,0,1,14.89,7.21c4.83,2.65,9.54,5.52,14.11,8.65A95.53,95.53,0,0,1,951.08,571.78Z"/><line class="cls-3" x1="914.29" y1="572.47" x2="894.8" y2="561.55"/><path class="cls-4" d="M914.29,572.47a15.54,15.54,0,0,1-6.34-.12,19.24,19.24,0,0,1-5.27-2,18.86,18.86,0,0,1-4.48-3.44,15.24,15.24,0,0,1-3.4-5.35,15.38,15.38,0,0,1,6.34.11,19.45,19.45,0,0,1,9.74,5.47A15.45,15.45,0,0,1,914.29,572.47Z"/><line class="cls-3" x1="992.13" y1="437.25" x2="974.41" y2="464.92"/><path class="cls-4" d="M992.13,437.25a27.31,27.31,0,0,1-1.91,8.53,41.14,41.14,0,0,1-3.74,7.37,39.94,39.94,0,0,1-5.11,6.47,26.94,26.94,0,0,1-7,5.3,27.1,27.1,0,0,1,1.9-8.54,41.39,41.39,0,0,1,8.87-13.82A27.31,27.31,0,0,1,992.13,437.25Z"/><line class="cls-3" x1="1021.2" y1="424.76" x2="980.02" y2="489.04"/><path class="cls-4" d="M1021.2,424.76a126.27,126.27,0,0,1-7.78,17.68q-4.44,8.49-9.6,16.52t-11,15.63A125.29,125.29,0,0,1,980,489a124.69,124.69,0,0,1,7.77-17.69q4.44-8.49,9.61-16.51t11-15.63A126.24,126.24,0,0,1,1021.2,424.76Z"/><line class="cls-3" x1="1027.88" y1="447.2" x2="984.5" y2="514.92"/><path class="cls-4" d="M1027.88,447.2a141,141,0,0,1-8.32,18.55q-4.72,8.91-10.15,17.37t-11.53,16.49a137.72,137.72,0,0,1-13.38,15.31,139.58,139.58,0,0,1,8.32-18.54q4.71-8.92,10.16-17.37c3.62-5.65,7.45-11.15,11.54-16.49A140.52,140.52,0,0,1,1027.88,447.2Z"/><line class="cls-3" x1="1033.72" y1="470.97" x2="987.61" y2="542.96"/><path class="cls-4" d="M1033.72,471a159.27,159.27,0,0,1-9,19.61q-5.07,9.45-10.84,18.44t-12.21,17.56A157.22,157.22,0,0,1,987.61,543a155.85,155.85,0,0,1,9-19.62c3.37-6.3,7-12.44,10.84-18.44s7.91-11.85,12.23-17.55A158.23,158.23,0,0,1,1033.72,471Z"/><line class="cls-3" x1="1038.6" y1="496.24" x2="989.02" y2="573.64"/><path class="cls-4" d="M1038.6,496.24a181.74,181.74,0,0,1-9.88,21q-5.49,10.14-11.7,19.8t-13.08,18.91A178.37,178.37,0,0,1,989,573.64a180.18,180.18,0,0,1,9.87-21q5.49-10.12,11.7-19.79t13.09-18.9A182.42,182.42,0,0,1,1038.6,496.24Z"/><line class="cls-3" x1="1042.34" y1="523.29" x2="1012.42" y2="570"/><path class="cls-4" d="M1042.34,523.29a69.16,69.16,0,0,1-5,13.29,117.51,117.51,0,0,1-6.79,12.12,114.44,114.44,0,0,1-8.16,11.24,68.94,68.94,0,0,1-10,10.06,68.09,68.09,0,0,1,5-13.3,113.89,113.89,0,0,1,6.79-12.12,115.72,115.72,0,0,1,8.18-11.23A68.37,68.37,0,0,1,1042.34,523.29Z"/><line class="cls-3" x1="1044.7" y1="552.48" x2="1033.02" y2="570.72"/><path class="cls-4" d="M1044.7,552.48a14.71,14.71,0,0,1-.4,6.17,17.86,17.86,0,0,1-2.23,5,17.52,17.52,0,0,1-3.6,4.12,14.74,14.74,0,0,1-5.45,2.94,14.6,14.6,0,0,1,.39-6.18,17.8,17.8,0,0,1,2.23-5,18.25,18.25,0,0,1,3.62-4.11A14.85,14.85,0,0,1,1044.7,552.48Z"/><line class="cls-3" x1="739.4" y1="178.4" x2="764.32" y2="169.45"/><path class="cls-4" d="M739.4,178.4a19.56,19.56,0,0,1,5.22-5.05,27,27,0,0,1,12.46-4.49,19.49,19.49,0,0,1,7.24.59,19.13,19.13,0,0,1-5.21,5.06,26.28,26.28,0,0,1-6,3,26.55,26.55,0,0,1-6.51,1.46A19.46,19.46,0,0,1,739.4,178.4Z"/><line class="cls-3" x1="716.23" y1="167.84" x2="776.65" y2="146.14"/><path class="cls-4" d="M716.23,167.84a91,91,0,0,1,14.09-8.24,154.33,154.33,0,0,1,14.83-6.2,150.64,150.64,0,0,1,15.38-4.66,89.77,89.77,0,0,1,16.12-2.6,89.8,89.8,0,0,1-14.09,8.25,153.2,153.2,0,0,1-14.83,6.19,153.94,153.94,0,0,1-15.38,4.65A90.67,90.67,0,0,1,716.23,167.84Z"/><line class="cls-3" x1="690.88" y1="158.06" x2="768.61" y2="130.14"/><path class="cls-4" d="M690.88,158.06a148.9,148.9,0,0,1,18.43-9.79c6.28-2.86,12.67-5.43,19.15-7.76s13-4.41,19.71-6.22a146.82,146.82,0,0,1,20.44-4.15A147.48,147.48,0,0,1,750.2,140q-9.44,4.28-19.16,7.74t-19.71,6.21A148.45,148.45,0,0,1,690.88,158.06Z"/><line class="cls-3" x1="662.85" y1="149.25" x2="745.79" y2="119.45"/><path class="cls-4" d="M662.85,149.25A167.2,167.2,0,0,1,682.57,139q10.09-4.52,20.46-8.23t21-6.68a166.65,166.65,0,0,1,21.75-4.63,165.11,165.11,0,0,1-19.72,10.28Q716,134.25,705.61,138c-6.91,2.47-13.91,4.71-21,6.67A167,167,0,0,1,662.85,149.25Z"/><line class="cls-3" x1="633.52" y1="140.9" x2="721.11" y2="109.44"/><path class="cls-4" d="M633.52,140.9a186.73,186.73,0,0,1,20.88-10.68c7.11-3.15,14.32-6,21.62-8.64s14.69-5,22.17-7.1a183.6,183.6,0,0,1,22.92-5,184.47,184.47,0,0,1-20.89,10.69q-10.66,4.73-21.62,8.63c-7.3,2.62-14.68,5-22.17,7.09A185.68,185.68,0,0,1,633.52,140.9Z"/><line class="cls-3" x1="636.73" y1="120.87" x2="694.19" y2="100.22"/><path class="cls-4" d="M636.73,120.87a81.72,81.72,0,0,1,13.36-8A141.87,141.87,0,0,1,664.17,107a139.31,139.31,0,0,1,14.64-4.39,81.64,81.64,0,0,1,15.38-2.34,81.28,81.28,0,0,1-13.35,8,138.66,138.66,0,0,1-14.09,5.93,141,141,0,0,1-14.64,4.38A82.46,82.46,0,0,1,636.73,120.87Z"/><line class="cls-3" x1="639.03" y1="101.16" x2="664.53" y2="92"/><path class="cls-4" d="M639,101.16a20.12,20.12,0,0,1,5.36-5.11,28.37,28.37,0,0,1,6.1-3.07,27.74,27.74,0,0,1,6.65-1.52,20,20,0,0,1,7.39.54,20,20,0,0,1-5.36,5.11,28.3,28.3,0,0,1-12.75,4.57A20.36,20.36,0,0,1,639,101.16Z"/><line class="cls-3" x1="729.58" y1="225.74" x2="715.32" y2="201.63"/><path class="cls-4" d="M729.58,225.74a21.35,21.35,0,0,1-6.14-4.51,30.23,30.23,0,0,1-7.14-12,21.18,21.18,0,0,1-1-7.55,21,21,0,0,1,6.15,4.49,29.46,29.46,0,0,1,4.27,5.62,29.9,29.9,0,0,1,2.85,6.45A21.37,21.37,0,0,1,729.58,225.74Z"/><line class="cls-3" x1="719.09" y1="242.96" x2="687.86" y2="190.13"/><path class="cls-4" d="M719.09,243a82.54,82.54,0,0,1-10.38-11.69,143.79,143.79,0,0,1-15.63-26.4,82.48,82.48,0,0,1-5.22-14.74,82.54,82.54,0,0,1,10.39,11.68,139.82,139.82,0,0,1,8.51,12.79,141.94,141.94,0,0,1,7.1,13.63A83.71,83.71,0,0,1,719.09,243Z"/><line class="cls-3" x1="709.05" y1="260.95" x2="662.01" y2="181.38"/><path class="cls-4" d="M709.05,261a183.76,183.76,0,0,1-14.33-18.37q-6.62-9.53-12.47-19.48t-11.06-20.3A181.11,181.11,0,0,1,662,181.38a182.71,182.71,0,0,1,14.35,18.36q6.6,9.52,12.46,19.48t11,20.31A184.5,184.5,0,0,1,709.05,261Z"/><line class="cls-3" x1="685.71" y1="256.43" x2="637.44" y2="174.77"/><path class="cls-4" d="M685.71,256.43a194.82,194.82,0,0,1-14.64-18.89c-4.51-6.52-8.75-13.19-12.78-20s-7.83-13.74-11.37-20.83a190.42,190.42,0,0,1-9.48-21.94,191,191,0,0,1,14.65,18.89q6.76,9.78,12.77,20t11.36,20.83A193,193,0,0,1,685.71,256.43Z"/><line class="cls-3" x1="658.57" y1="245.49" x2="623.35" y2="185.9"/><path class="cls-4" d="M658.57,245.49a105.22,105.22,0,0,1-11.38-13.38q-5.13-7-9.52-14.48t-8.1-15.31a103.54,103.54,0,0,1-6.22-16.42,103.85,103.85,0,0,1,11.39,13.37q5.12,7,9.51,14.48c2.93,5,5.64,10.07,8.09,15.32A104.56,104.56,0,0,1,658.57,245.49Z"/><line class="cls-3" x1="633.2" y1="237.53" x2="618.51" y2="212.69"/><path class="cls-4" d="M633.2,237.53a22.17,22.17,0,0,1-6.25-4.69,31.6,31.6,0,0,1-4.38-5.79,31.12,31.12,0,0,1-3-6.62,22.21,22.21,0,0,1-1.09-7.74,22.05,22.05,0,0,1,6.26,4.68,30.74,30.74,0,0,1,4.37,5.8,31.17,31.17,0,0,1,3,6.63A22.15,22.15,0,0,1,633.2,237.53Z"/><line class="cls-3" x1="770.71" y1="232.15" x2="759.95" y2="234.33"/><path class="cls-4" d="M770.71,232.15a8.27,8.27,0,0,1-2.1,3.48,5,5,0,0,1-5.38,1.1,8.16,8.16,0,0,1-3.28-2.4,8.15,8.15,0,0,1,2.09-3.49,5,5,0,0,1,5.38-1.08A8.17,8.17,0,0,1,770.71,232.15Z"/><line class="cls-3" x1="791.51" y1="246.24" x2="745.88" y2="255.48"/><path class="cls-4" d="M791.51,246.24a50.08,50.08,0,0,1-10.81,5.25,82.7,82.7,0,0,1-11.25,3.11,79.61,79.61,0,0,1-11.57,1.51,49.38,49.38,0,0,1-12-.63,49.4,49.4,0,0,1,10.81-5.25,79.54,79.54,0,0,1,11.25-3.11,81.19,81.19,0,0,1,11.57-1.5A50.39,50.39,0,0,1,791.51,246.24Z"/><line class="cls-3" x1="809.87" y1="260.83" x2="735.5" y2="275.88"/><path class="cls-4" d="M809.87,260.83a125.8,125.8,0,0,1-18,6.7c-6.08,1.8-12.23,3.31-18.43,4.57s-12.44,2.26-18.75,3a123.4,123.4,0,0,1-19.19.82,124.61,124.61,0,0,1,18-6.7c6.09-1.81,12.23-3.32,18.43-4.57s12.45-2.24,18.76-2.95A127.12,127.12,0,0,1,809.87,260.83Z"/><line class="cls-3" x1="826.62" y1="275.74" x2="748.03" y2="291.65"/><path class="cls-4" d="M826.62,275.74a138.52,138.52,0,0,1-19,6.91c-6.44,1.88-12.94,3.46-19.49,4.79s-13.15,2.4-19.81,3.18a140,140,0,0,1-20.24,1,137.28,137.28,0,0,1,19.05-6.92q9.66-2.81,19.49-4.77c6.55-1.33,13.15-2.4,19.81-3.17A140.1,140.1,0,0,1,826.62,275.74Z"/><line class="cls-3" x1="842.74" y1="290.79" x2="766.86" y2="306.14"/><path class="cls-4" d="M842.74,290.79a130.76,130.76,0,0,1-18.38,6.77c-6.21,1.83-12.48,3.36-18.8,4.64s-12.7,2.31-19.13,3a128.35,128.35,0,0,1-19.57.9,128.37,128.37,0,0,1,18.38-6.78c6.21-1.83,12.48-3.36,18.8-4.64s12.7-2.3,19.14-3A130.83,130.83,0,0,1,842.74,290.79Z"/><line class="cls-3" x1="848.4" y1="307.27" x2="783.8" y2="321.06"/><path class="cls-4" d="M848.4,307.27a96.35,96.35,0,0,1-15.53,6.38,164.81,164.81,0,0,1-16,4.25,162.21,162.21,0,0,1-16.32,2.65,95.46,95.46,0,0,1-16.78.51,94.82,94.82,0,0,1,15.52-6.38,162.92,162.92,0,0,1,16-4.25c5.39-1.14,10.83-2,16.33-2.64A96.28,96.28,0,0,1,848.4,307.27Z"/><line class="cls-3" x1="820.89" y1="331.81" x2="799.01" y2="336.24"/><path class="cls-4" d="M820.89,331.81a15.28,15.28,0,0,1-4.88,4,19.4,19.4,0,0,1-10.94,2.23,15.32,15.32,0,0,1-6.06-1.84,15.4,15.4,0,0,1,4.87-4.05,18.58,18.58,0,0,1,5.31-1.9,18.87,18.87,0,0,1,5.63-.3A15.47,15.47,0,0,1,820.89,331.81Z"/><line class="cls-3" x1="792.55" y1="178.24" x2="796.98" y2="210.83"/><path class="cls-4" d="M792.55,178.24a27.36,27.36,0,0,1,4.07,7.74,41.55,41.55,0,0,1,2.23,16.3,27.06,27.06,0,0,1-1.87,8.55,27,27,0,0,1-4.08-7.74,39.86,39.86,0,0,1-1.92-8,40.59,40.59,0,0,1-.29-8.26A27,27,0,0,1,792.55,178.24Z"/><line class="cls-3" x1="806.55" y1="149.77" x2="816.86" y2="225.5"/><path class="cls-4" d="M806.55,149.77a126.67,126.67,0,0,1,5.54,18.53c1.41,6.23,2.53,12.51,3.4,18.82s1.46,12.65,1.76,19a126.56,126.56,0,0,1-.39,19.34A126.76,126.76,0,0,1,811.3,207q-2.12-9.36-3.38-18.82c-.85-6.31-1.45-12.66-1.76-19.05A127.69,127.69,0,0,1,806.55,149.77Z"/><line class="cls-3" x1="826.16" y1="162.47" x2="837.01" y2="242.25"/><path class="cls-4" d="M826.16,162.47A141,141,0,0,1,831.84,182c1.46,6.57,2.62,13.18,3.53,19.83s1.55,13.33,1.9,20.06a137.13,137.13,0,0,1-.26,20.35,140.08,140.08,0,0,1-5.69-19.54q-2.18-9.87-3.52-19.84t-1.89-20.05A139.87,139.87,0,0,1,826.16,162.47Z"/><line class="cls-3" x1="845.97" y1="176.71" x2="857.52" y2="261.52"/><path class="cls-4" d="M846,176.71a157.66,157.66,0,0,1,5.85,20.8c1.52,7,2.74,14,3.71,21.09s1.67,14.17,2.07,21.32a157.36,157.36,0,0,1-.08,21.6,156.05,156.05,0,0,1-5.86-20.79q-2.28-10.5-3.7-21.1c-1-7.07-1.66-14.17-2.07-21.31A160.74,160.74,0,0,1,846,176.71Z"/><line class="cls-3" x1="866.03" y1="192.74" x2="878.44" y2="283.93"/><path class="cls-4" d="M866,192.74a182.76,182.76,0,0,1,6.07,22.39c1.59,7.52,2.88,15.09,3.92,22.69s1.82,15.23,2.3,22.9a179.63,179.63,0,0,1,.12,23.21,179.86,179.86,0,0,1-6.07-22.4q-2.39-11.28-3.91-22.68c-1-7.6-1.81-15.24-2.29-22.91A183.12,183.12,0,0,1,866,192.74Z"/><line class="cls-3" x1="886.38" y1="210.85" x2="893.87" y2="265.88"/><path class="cls-4" d="M886.38,210.85a68.92,68.92,0,0,1,4.83,13.36A118.2,118.2,0,0,1,895,251.72a69,69,0,0,1-1.1,14.16A67.85,67.85,0,0,1,889,252.53a114.28,114.28,0,0,1-2.68-13.65A116.27,116.27,0,0,1,885.28,225,69.05,69.05,0,0,1,886.38,210.85Z"/><line class="cls-3" x1="907.07" y1="231.5" x2="909.99" y2="252.98"/><path class="cls-4" d="M907.07,231.5a14.89,14.89,0,0,1,3.69,5,18.27,18.27,0,0,1,1.47,10.74A14.7,14.7,0,0,1,910,253a14.7,14.7,0,0,1-3.71-5,18.28,18.28,0,0,1-1.45-10.75A14.7,14.7,0,0,1,907.07,231.5Z"/><line class="cls-3" x1="431.01" y1="143.72" x2="444.15" y2="120.65"/><path class="cls-4" d="M431,143.72a19.52,19.52,0,0,1,.68-7.25,27.44,27.44,0,0,1,6.56-11.54,19.65,19.65,0,0,1,5.9-4.28,19.34,19.34,0,0,1-.68,7.26,26.29,26.29,0,0,1-2.58,6.17,26.66,26.66,0,0,1-4,5.35A19.4,19.4,0,0,1,431,143.72Z"/><line class="cls-3" x1="406.56" y1="150.82" x2="438.43" y2="94.89"/><path class="cls-4" d="M406.56,150.82a91.15,91.15,0,0,1,5.37-15.47A158.71,158.71,0,0,1,419.18,121a152.89,152.89,0,0,1,8.68-13.58,89.89,89.89,0,0,1,10.57-12.49,90.26,90.26,0,0,1-5.36,15.47,152.38,152.38,0,0,1-7.26,14.38,157.57,157.57,0,0,1-8.68,13.58A92,92,0,0,1,406.56,150.82Z"/><line class="cls-3" x1="380.97" y1="159.93" x2="421.97" y2="87.97"/><path class="cls-4" d="M381,159.93a149.08,149.08,0,0,1,7.65-19.47q4.39-9.41,9.54-18.4t10.95-17.58A147.11,147.11,0,0,1,422,88a145.87,145.87,0,0,1-7.64,19.48q-4.4,9.4-9.54,18.39t-11,17.58A148.19,148.19,0,0,1,381,159.93Z"/><line class="cls-3" x1="353.96" y1="171.54" x2="397.71" y2="94.75"/><path class="cls-4" d="M354,171.54a168.51,168.51,0,0,1,8.34-20.68q4.74-10,10.22-19.61t11.65-18.79a166.7,166.7,0,0,1,13.54-17.71,165.36,165.36,0,0,1-8.33,20.68q-4.74,10-10.23,19.6T367.5,153.82A169.19,169.19,0,0,1,354,171.54Z"/><line class="cls-3" x1="326.27" y1="184.34" x2="372.47" y2="103.25"/><path class="cls-4" d="M326.27,184.34a186.39,186.39,0,0,1,9-21.76c3.36-7,7-13.92,10.83-20.68S354,128.52,358.31,122a185.5,185.5,0,0,1,14.16-18.79A185.63,185.63,0,0,1,363.53,125q-5,10.54-10.84,20.67c-3.86,6.76-7.93,13.39-12.27,19.87A189.19,189.19,0,0,1,326.27,184.34Z"/><line class="cls-3" x1="315.74" y1="167.01" x2="346.06" y2="113.81"/><path class="cls-4" d="M315.74,167a83.64,83.64,0,0,1,5-14.78,142.52,142.52,0,0,1,6.86-13.71,139,139,0,0,1,8.29-12.89,81.94,81.94,0,0,1,10.19-11.82,82.65,82.65,0,0,1-5,14.79,139,139,0,0,1-6.87,13.7,141.23,141.23,0,0,1-8.3,12.89A81.86,81.86,0,0,1,315.74,167Z"/><line class="cls-3" x1="304.73" y1="150.53" x2="318.19" y2="126.92"/><path class="cls-4" d="M304.73,150.53a20.39,20.39,0,0,1,.77-7.38,28.35,28.35,0,0,1,6.72-11.81,20.06,20.06,0,0,1,6-4.42,20,20,0,0,1-.76,7.39,27.34,27.34,0,0,1-2.65,6.31,27.94,27.94,0,0,1-4.08,5.49A20.32,20.32,0,0,1,304.73,150.53Z"/><line class="cls-3" x1="455.73" y1="188.07" x2="429.29" y2="179.05"/><path class="cls-4" d="M455.73,188.07a21.23,21.23,0,0,1-7.58.57,29.7,29.7,0,0,1-6.87-1.47,29.1,29.1,0,0,1-6.35-3,20.89,20.89,0,0,1-5.64-5.09,20.83,20.83,0,0,1,7.58-.59,29.2,29.2,0,0,1,6.87,1.48,29.53,29.53,0,0,1,6.34,3A21.09,21.09,0,0,1,455.73,188.07Z"/><line class="cls-3" x1="458.9" y1="208" x2="400.98" y2="188.24"/><path class="cls-4" d="M458.9,208a83.34,83.34,0,0,1-15.45-2.11,143.15,143.15,0,0,1-14.74-4.16A137.86,137.86,0,0,1,414.49,196,82.6,82.6,0,0,1,401,188.24a81.57,81.57,0,0,1,15.45,2.1,134.75,134.75,0,0,1,14.74,4.17,140.22,140.22,0,0,1,14.22,5.72A82.54,82.54,0,0,1,458.9,208Z"/><line class="cls-3" x1="462.91" y1="228.22" x2="375.67" y2="198.45"/><path class="cls-4" d="M462.91,228.22a182.87,182.87,0,0,1-22.77-4.61Q429,220.69,418.06,217t-21.55-8.21a181.43,181.43,0,0,1-20.84-10.29,182.63,182.63,0,0,1,22.78,4.6q11.18,2.94,22.07,6.68T442.07,218A184.6,184.6,0,0,1,462.91,228.22Z"/><line class="cls-3" x1="442.26" y1="240.03" x2="352.72" y2="209.47"/><path class="cls-4" d="M442.26,240a192.63,192.63,0,0,1-23.36-4.81q-11.46-3-22.65-6.86T374.13,220a189,189,0,0,1-21.41-10.48,190.56,190.56,0,0,1,23.35,4.8q11.46,3,22.65,6.87t22.12,8.42A191.65,191.65,0,0,1,442.26,240Z"/><line class="cls-3" x1="414.55" y1="249.42" x2="349.21" y2="227.13"/><path class="cls-4" d="M414.55,249.42a103.49,103.49,0,0,1-17.3-2.74c-5.63-1.33-11.16-2.94-16.6-4.79s-10.81-4-16.08-6.35a102.84,102.84,0,0,1-15.36-8.41,103.48,103.48,0,0,1,17.3,2.73q8.44,2,16.6,4.8c5.44,1.87,10.8,4,16.07,6.36A104.71,104.71,0,0,1,414.55,249.42Z"/><line class="cls-3" x1="390.11" y1="259.94" x2="362.88" y2="250.65"/><path class="cls-4" d="M390.11,259.94a22.18,22.18,0,0,1-7.77.51,32.13,32.13,0,0,1-7.08-1.54,30.77,30.77,0,0,1-6.54-3.1,21.9,21.9,0,0,1-5.84-5.16,21.77,21.77,0,0,1,7.78-.52,31,31,0,0,1,7.07,1.55,31.51,31.51,0,0,1,6.54,3.1A22.26,22.26,0,0,1,390.11,259.94Z"/><line class="cls-3" x1="488.36" y1="165.95" x2="481.59" y2="174.62"/><path class="cls-4" d="M488.36,166a8.32,8.32,0,0,1,.67,4,5.22,5.22,0,0,1-1,2.67,5.14,5.14,0,0,1-2.34,1.67,8.11,8.11,0,0,1-4.06.32,8.12,8.12,0,0,1-.67-4,5,5,0,0,1,1.05-2.67,5,5,0,0,1,2.34-1.66A8.18,8.18,0,0,1,488.36,166Z"/><line class="cls-3" x1="513.29" y1="163.08" x2="484.59" y2="199.88"/><path class="cls-4" d="M513.29,163.08a50.14,50.14,0,0,1-4.82,11,83.11,83.11,0,0,1-14.34,18.41,49.84,49.84,0,0,1-9.54,7.35,49.7,49.7,0,0,1,4.8-11,83.88,83.88,0,0,1,14.36-18.39A50.2,50.2,0,0,1,513.29,163.08Z"/><line class="cls-3" x1="536.68" y1="162.18" x2="489.9" y2="222.16"/><path class="cls-4" d="M536.68,162.18A126.4,126.4,0,0,1,527.35,179q-5.19,8-11.05,15.51T504,209a124.66,124.66,0,0,1-14.06,13.15,124.79,124.79,0,0,1,9.33-16.84q5.19-8,11-15.5c3.91-5,8-9.83,12.35-14.49A126.35,126.35,0,0,1,536.68,162.18Z"/><line class="cls-3" x1="559.06" y1="162.58" x2="509.63" y2="225.97"/><path class="cls-4" d="M559.06,162.58a139.51,139.51,0,0,1-10,17.69c-3.67,5.62-7.59,11.07-11.71,16.35s-8.44,10.41-13,15.35a139.63,139.63,0,0,1-14.72,14,138.36,138.36,0,0,1,10-17.7q5.52-8.43,11.71-16.34c4.13-5.28,8.45-10.41,13-15.34A140.59,140.59,0,0,1,559.06,162.58Z"/><line class="cls-3" x1="581.05" y1="163.49" x2="533.32" y2="224.69"/><path class="cls-4" d="M581.05,163.49a130.36,130.36,0,0,1-9.58,17.14q-5.29,8.16-11.28,15.81t-12.57,14.79a129.65,129.65,0,0,1-14.3,13.46,129.73,129.73,0,0,1,9.56-17.15q5.31-8.16,11.29-15.8T566.76,177A130.5,130.5,0,0,1,581.05,163.49Z"/><line class="cls-3" x1="596.02" y1="172.33" x2="555.84" y2="224.97"/><path class="cls-4" d="M596,172.33a96.74,96.74,0,0,1-7.67,15A165,165,0,0,1,579,201a162.88,162.88,0,0,1-10.7,12.67A95.58,95.58,0,0,1,555.84,225a95.91,95.91,0,0,1,7.66-15,158.85,158.85,0,0,1,9.4-13.66,164.62,164.62,0,0,1,10.7-12.66A96.14,96.14,0,0,1,596,172.33Z"/><line class="cls-3" x1="590.99" y1="208.94" x2="577.23" y2="226.58"/><path class="cls-4" d="M591,208.94a15.52,15.52,0,0,1-1.08,6.25,19.17,19.17,0,0,1-2.79,4.92A18.8,18.8,0,0,1,583,224a15.39,15.39,0,0,1-5.8,2.56,15.37,15.37,0,0,1,1.07-6.26,18.69,18.69,0,0,1,2.8-4.91,19,19,0,0,1,4.09-3.9A15.25,15.25,0,0,1,591,208.94Z"/><line class="cls-3" x1="471.34" y1="113.6" x2="495.81" y2="135.47"/><path class="cls-4" d="M471.34,113.6a27,27,0,0,1,8.11,3.24,40.36,40.36,0,0,1,6.67,4.85,39.78,39.78,0,0,1,5.57,6.08,27.07,27.07,0,0,1,4.12,7.7,26.84,26.84,0,0,1-8.12-3.23,39.76,39.76,0,0,1-6.66-4.86,40.23,40.23,0,0,1-5.56-6.08A27.48,27.48,0,0,1,471.34,113.6Z"/><line class="cls-3" x1="463.56" y1="82.82" x2="520.4" y2="133.65"/><path class="cls-4" d="M463.56,82.82A126.24,126.24,0,0,1,479.77,93.3c5.11,3.81,10,7.86,14.76,12.09s9.3,8.66,13.66,13.31a124.24,124.24,0,0,1,12.21,15,126.18,126.18,0,0,1-16.21-10.47q-7.67-5.73-14.75-12.1T475.78,97.76A128.82,128.82,0,0,1,463.56,82.82Z"/><line class="cls-3" x1="486.68" y1="79.67" x2="546.56" y2="133.22"/><path class="cls-4" d="M486.68,79.67a140.36,140.36,0,0,1,17,11.16q8,6.06,15.52,12.77t14.42,14a138.44,138.44,0,0,1,13,15.63,139.52,139.52,0,0,1-17-11.15q-8-6.07-15.51-12.78c-5-4.47-9.81-9.12-14.42-14A140.39,140.39,0,0,1,486.68,79.67Z"/><line class="cls-3" x1="510.96" y1="77.56" x2="574.62" y2="134.49"/><path class="cls-4" d="M511,77.56a159.26,159.26,0,0,1,17.91,12q8.52,6.5,16.46,13.62T560.7,118a155.84,155.84,0,0,1,13.92,16.47,155.85,155.85,0,0,1-17.92-12q-8.52-6.48-16.46-13.62T524.88,94A158,158,0,0,1,511,77.56Z"/><line class="cls-3" x1="536.58" y1="76.65" x2="605.02" y2="137.85"/><path class="cls-4" d="M536.58,76.65a182.78,182.78,0,0,1,19.1,13.07q9.12,7,17.66,14.68t16.57,15.91A180.53,180.53,0,0,1,605,137.85a178.26,178.26,0,0,1-19.11-13.06q-9.12-7-17.66-14.69T551.69,94.18A181.8,181.8,0,0,1,536.58,76.65Z"/><line class="cls-3" x1="563.76" y1="77.14" x2="605.06" y2="114.07"/><path class="cls-4" d="M563.76,77.14a68.86,68.86,0,0,1,12.32,7A115,115,0,0,1,587,92.76a113.55,113.55,0,0,1,9.78,9.84,68.28,68.28,0,0,1,8.32,11.47,67.33,67.33,0,0,1-12.32-7,112.38,112.38,0,0,1-10.87-8.62,115.1,115.1,0,0,1-9.78-9.85A69.22,69.22,0,0,1,563.76,77.14Z"/><line class="cls-3" x1="592.85" y1="79.32" x2="608.97" y2="93.74"/><path class="cls-4" d="M592.85,79.32a15,15,0,0,1,6,1.38,17.67,17.67,0,0,1,4.58,3,17.45,17.45,0,0,1,3.49,4.21,14.61,14.61,0,0,1,2,5.84,14.57,14.57,0,0,1-6-1.36,18.23,18.23,0,0,1-8.06-7.22A14.66,14.66,0,0,1,592.85,79.32Z"/><line class="cls-3" x1="173.58" y1="317.4" x2="168.64" y2="291.29"/><path class="cls-4" d="M173.58,317.4a19.56,19.56,0,0,1-4.18-6,27,27,0,0,1-2-6.37,26.53,26.53,0,0,1-.44-6.68,19.48,19.48,0,0,1,1.72-7.09,19.33,19.33,0,0,1,4.18,6,26.05,26.05,0,0,1,2,6.38,27,27,0,0,1,.42,6.68A19.54,19.54,0,0,1,173.58,317.4Z"/><line class="cls-3" x1="159.59" y1="338.75" x2="147.62" y2="275.44"/><path class="cls-4" d="M159.59,338.75a92.11,92.11,0,0,1-5.93-15.27,155.39,155.39,0,0,1-3.8-15.67,150.06,150.06,0,0,1-2.19-16,89.67,89.67,0,0,1,0-16.39,90.81,90.81,0,0,1,5.95,15.27,154.88,154.88,0,0,1,3.79,15.68,158.16,158.16,0,0,1,2.18,16A91.39,91.39,0,0,1,159.59,338.75Z"/><line class="cls-3" x1="146.04" y1="362.39" x2="130.64" y2="280.93"/><path class="cls-4" d="M146,362.39a150,150,0,0,1-6.79-19.81q-2.75-10-4.66-20.21c-1.29-6.79-2.32-13.63-3.05-20.52a146.74,146.74,0,0,1-.9-20.92,146.69,146.69,0,0,1,6.8,19.81q2.75,10,4.65,20.21c1.28,6.79,2.31,13.62,3,20.52A148.15,148.15,0,0,1,146,362.39Z"/><line class="cls-3" x1="133.02" y1="388.83" x2="116.59" y2="301.92"/><path class="cls-4" d="M133,388.83A170,170,0,0,1,126,367.66c-1.92-7.14-3.54-14.33-4.92-21.58s-2.48-14.53-3.3-21.88a164.7,164.7,0,0,1-1.16-22.28,167.37,167.37,0,0,1,7.06,21.17c1.92,7.14,3.54,14.33,4.91,21.58s2.47,14.53,3.29,21.88A168.1,168.1,0,0,1,133,388.83Z"/><line class="cls-3" x1="120.26" y1="416.64" x2="102.91" y2="324.85"/><path class="cls-4" d="M120.26,416.64A189.08,189.08,0,0,1,113,394.25q-3-11.33-5.15-22.79t-3.54-23.1a187,187,0,0,1-1.38-23.51,187.27,187.27,0,0,1,7.28,22.39q3,11.33,5.14,22.8t3.53,23.1A186.87,186.87,0,0,1,120.26,416.64Z"/><line class="cls-3" x1="101.05" y1="410.34" x2="89.66" y2="350.12"/><path class="cls-4" d="M101.05,410.34a83,83,0,0,1-5.79-14.5,140.09,140.09,0,0,1-3.65-14.9,138.08,138.08,0,0,1-2-15.2,83.27,83.27,0,0,1,.1-15.62,81.55,81.55,0,0,1,5.8,14.5,140.09,140.09,0,0,1,3.65,14.9,143.2,143.2,0,0,1,2,15.21A83.15,83.15,0,0,1,101.05,410.34Z"/><line class="cls-3" x1="82.02" y1="405" x2="76.97" y2="378.28"/><path class="cls-4" d="M82,405a20.32,20.32,0,0,1-4.2-6.12,28.48,28.48,0,0,1-2.54-13.36A19.94,19.94,0,0,1,77,378.28a20.36,20.36,0,0,1,4.21,6.12,28.8,28.8,0,0,1,2.52,13.37A20.28,20.28,0,0,1,82,405Z"/><line class="cls-3" x1="218.71" y1="333.61" x2="192.79" y2="344.01"/><path class="cls-4" d="M218.71,333.61a21.23,21.23,0,0,1-5.36,5.38,30,30,0,0,1-6.18,3.36,28.66,28.66,0,0,1-6.78,1.84,20.83,20.83,0,0,1-7.6-.18,20.8,20.8,0,0,1,5.36-5.39,29.25,29.25,0,0,1,6.18-3.36,30.23,30.23,0,0,1,6.79-1.83A21,21,0,0,1,218.71,333.61Z"/><line class="cls-3" x1="234.02" y1="346.69" x2="177.22" y2="369.47"/><path class="cls-4" d="M234,346.69a82.17,82.17,0,0,1-13.08,8.47,139.93,139.93,0,0,1-13.9,6.46,137.47,137.47,0,0,1-14.5,4.94,81.85,81.85,0,0,1-15.32,2.91A82,82,0,0,1,190.3,361a138.65,138.65,0,0,1,13.9-6.45,140.72,140.72,0,0,1,14.51-4.93A82.72,82.72,0,0,1,234,346.69Z"/><line class="cls-3" x1="250.16" y1="359.44" x2="164.59" y2="393.76"/><path class="cls-4" d="M250.16,359.44a181.62,181.62,0,0,1-20.28,11.35q-10.38,5.07-21.08,9.35T187.1,388a179.39,179.39,0,0,1-22.51,5.8,181.79,181.79,0,0,1,20.28-11.37q10.38-5.07,21.09-9.33t21.7-7.82A183.21,183.21,0,0,1,250.16,359.44Z"/><line class="cls-3" x1="242.1" y1="381.89" x2="154.28" y2="417.12"/><path class="cls-4" d="M242.1,381.89a192.84,192.84,0,0,1-20.84,11.59q-10.66,5.17-21.65,9.57t-22.26,8.05a190.47,190.47,0,0,1-23.07,6,189.56,189.56,0,0,1,20.84-11.6q10.66-5.17,21.65-9.56t22.26-8A192.86,192.86,0,0,1,242.1,381.89Z"/><line class="cls-3" x1="227.12" y1="407.12" x2="163.04" y2="432.82"/><path class="cls-4" d="M227.12,407.12a103.88,103.88,0,0,1-14.9,9.2c-5.14,2.67-10.38,5.05-15.72,7.2s-10.77,4-16.32,5.67A103.68,103.68,0,0,1,163,432.82a103.4,103.4,0,0,1,14.9-9.21c5.13-2.66,10.38-5,15.72-7.18s10.78-4,16.33-5.66A103.81,103.81,0,0,1,227.12,407.12Z"/><line class="cls-3" x1="215.36" y1="431.06" x2="188.64" y2="441.78"/><path class="cls-4" d="M215.36,431.06a22.12,22.12,0,0,1-5.57,5.46,31.19,31.19,0,0,1-6.37,3.44,30.79,30.79,0,0,1-7,1.92,22.07,22.07,0,0,1-7.8-.1,21.83,21.83,0,0,1,5.57-5.47,30.66,30.66,0,0,1,6.37-3.43,31.55,31.55,0,0,1,7-1.92A22.25,22.25,0,0,1,215.36,431.06Z"/><line class="cls-3" x1="231.35" y1="296.13" x2="231.82" y2="307.15"/><path class="cls-4" d="M231.35,296.13a8.32,8.32,0,0,1,3.11,2.63,5.21,5.21,0,0,1,.94,2.72,5,5,0,0,1-.7,2.78,8.14,8.14,0,0,1-2.88,2.89,8.2,8.2,0,0,1-3.12-2.63,5,5,0,0,1-.22-5.5A8.19,8.19,0,0,1,231.35,296.13Z"/><line class="cls-3" x1="248.44" y1="277.68" x2="250.44" y2="324.39"/><path class="cls-4" d="M248.44,277.68a50.76,50.76,0,0,1,3.49,11.55,83.46,83.46,0,0,1,1.32,11.64,80.45,80.45,0,0,1-.31,11.71,49.75,49.75,0,0,1-2.5,11.81,49.8,49.8,0,0,1-3.5-11.55,80.53,80.53,0,0,1-1.31-11.64,81.9,81.9,0,0,1,.32-11.71A50.22,50.22,0,0,1,248.44,277.68Z"/><line class="cls-3" x1="265.64" y1="261.73" x2="268.9" y2="337.85"/><path class="cls-4" d="M265.64,261.73a126.54,126.54,0,0,1,3.8,18.9c.83,6.32,1.36,12.65,1.64,19s.29,12.69,0,19.06a124.26,124.26,0,0,1-2.18,19.16,125.36,125.36,0,0,1-3.82-18.9c-.83-6.32-1.36-12.65-1.63-19s-.28-12.7,0-19.06A126.77,126.77,0,0,1,265.64,261.73Z"/><line class="cls-3" x1="282.91" y1="247.43" x2="286.35" y2="327.87"/><path class="cls-4" d="M282.91,247.43a142.2,142.2,0,0,1,3.85,20q1.26,10,1.68,20.07c.29,6.71.32,13.42.05,20.15a139.62,139.62,0,0,1-2.14,20.24,138.32,138.32,0,0,1-3.86-20c-.85-6.68-1.39-13.38-1.68-20.08s-.31-13.42,0-20.15A139.61,139.61,0,0,1,282.91,247.43Z"/><line class="cls-3" x1="300.2" y1="233.77" x2="303.53" y2="311.43"/><path class="cls-4" d="M300.2,233.77A130.42,130.42,0,0,1,304,253.05c.84,6.45,1.38,12.91,1.66,19.39s.3,12.95,0,19.45a130.54,130.54,0,0,1-2.17,19.54,129.06,129.06,0,0,1-3.83-19.29q-1.26-9.66-1.65-19.38c-.27-6.47-.29-12.95,0-19.45A133,133,0,0,1,300.2,233.77Z"/><line class="cls-3" x1="317.3" y1="230.71" x2="320.83" y2="296.94"/><path class="cls-4" d="M317.3,230.71a97.25,97.25,0,0,1,3.87,16.4q1.27,8.23,1.71,16.51a164.1,164.1,0,0,1,.07,16.6,96.23,96.23,0,0,1-2.12,16.72,95.17,95.17,0,0,1-3.88-16.4,164,164,0,0,1-1.7-16.51c-.29-5.52-.32-11-.06-16.6A97.3,97.3,0,0,1,317.3,230.71Z"/><line class="cls-3" x1="337.17" y1="261.82" x2="338.12" y2="284.21"/><path class="cls-4" d="M337.17,261.82a15.49,15.49,0,0,1,3.22,5.47,19,19,0,0,1,1.07,5.56,18.68,18.68,0,0,1-.58,5.63,15.23,15.23,0,0,1-2.76,5.73,15.41,15.41,0,0,1-3.24-5.47,19.54,19.54,0,0,1-.46-11.2A15.31,15.31,0,0,1,337.17,261.82Z"/><line class="cls-3" x1="184.62" y1="265.24" x2="217.37" y2="265.89"/><path class="cls-4" d="M184.62,265.24a27.15,27.15,0,0,1,8.25-2.83,39.87,39.87,0,0,1,8.2-.66,39.22,39.22,0,0,1,8.17,1,26.89,26.89,0,0,1,8.13,3.16,26.91,26.91,0,0,1-8.25,2.84,39.17,39.17,0,0,1-8.2.65,39.83,39.83,0,0,1-8.17-1A27.12,27.12,0,0,1,184.62,265.24Z"/><line class="cls-3" x1="158.79" y1="246.92" x2="234.88" y2="248.45"/><path class="cls-4" d="M158.79,246.92a127.85,127.85,0,0,1,19.08-2.61c6.35-.43,12.7-.56,19-.44s12.68.51,19,1.2a124.21,124.21,0,0,1,19,3.38,125.45,125.45,0,0,1-19.09,2.62q-9.53.65-19,.43t-19-1.2A126.58,126.58,0,0,1,158.79,246.92Z"/><line class="cls-3" x1="174.32" y1="229.44" x2="254.48" y2="231.05"/><path class="cls-4" d="M174.32,229.44a140,140,0,0,1,20.1-2.59q10-.63,20.06-.42c6.68.13,13.35.52,20,1.22a138.6,138.6,0,0,1,20,3.4,137.23,137.23,0,0,1-20.1,2.6q-10,.63-20.06.41c-6.68-.14-13.35-.53-20-1.23A138.57,138.57,0,0,1,174.32,229.44Z"/><line class="cls-3" x1="191.41" y1="211.99" x2="276.62" y2="213.7"/><path class="cls-4" d="M191.41,212a155.93,155.93,0,0,1,21.36-2.56c7.11-.42,14.22-.54,21.32-.4s14.2.54,21.29,1.24a156,156,0,0,1,21.24,3.43,154.41,154.41,0,0,1-21.36,2.57q-10.66.63-21.32.39c-7.1-.15-14.2-.55-21.29-1.25A157.51,157.51,0,0,1,191.41,212Z"/><line class="cls-3" x1="210.28" y1="194.57" x2="301.91" y2="196.41"/><path class="cls-4" d="M210.28,194.57a183.33,183.33,0,0,1,23-2.53q11.48-.6,22.92-.36T279.06,193a179.7,179.7,0,0,1,22.85,3.46,179.72,179.72,0,0,1-23,2.55q-11.47.6-22.92.35c-7.64-.16-15.27-.57-22.89-1.28A181.78,181.78,0,0,1,210.28,194.57Z"/><line class="cls-3" x1="231.26" y1="177.2" x2="286.55" y2="178.31"/><path class="cls-4" d="M231.26,177.2a68.5,68.5,0,0,1,13.88-2.71,117,117,0,0,1,27.65.54,68.58,68.58,0,0,1,13.76,3.28A68.42,68.42,0,0,1,272.67,181a117.7,117.7,0,0,1-27.65-.57A68.54,68.54,0,0,1,231.26,177.2Z"/><line class="cls-3" x1="254.78" y1="159.88" x2="276.37" y2="160.31"/><path class="cls-4" d="M254.78,159.88a14.63,14.63,0,0,1,5.46-2.88,17.41,17.41,0,0,1,5.41-.72,17.72,17.72,0,0,1,5.38.92,14.82,14.82,0,0,1,5.34,3.11,14.77,14.77,0,0,1-5.46,2.9,17.39,17.39,0,0,1-5.41.7,17.69,17.69,0,0,1-5.38-.93A14.78,14.78,0,0,1,254.78,159.88Z"/><line class="cls-3" x1="120.48" y1="564.07" x2="127.96" y2="572.13"/><path class="cls-4" d="M120.48,564.07a8.22,8.22,0,0,1,4.06,0A5.19,5.19,0,0,1,127,565.5a5.08,5.08,0,0,1,1.27,2.57,8,8,0,0,1-.33,4.06,8.17,8.17,0,0,1-4.07,0,5.06,5.06,0,0,1-2.46-1.46,5.16,5.16,0,0,1-1.27-2.58A8.26,8.26,0,0,1,120.48,564.07Z"/><line class="cls-3" x1="121.53" y1="538.89" x2="153.27" y2="573.08"/><path class="cls-4" d="M121.53,538.89a50.45,50.45,0,0,1,10.13,6.51,82.88,82.88,0,0,1,8.54,8,80.89,80.89,0,0,1,7.34,9.1,49.53,49.53,0,0,1,5.73,10.59,49.46,49.46,0,0,1-10.13-6.51,79.85,79.85,0,0,1-8.54-8,83,83,0,0,1-7.33-9.11A50.62,50.62,0,0,1,121.53,538.89Z"/><line class="cls-3" x1="124.28" y1="515.54" x2="176.01" y2="571.26"/><path class="cls-4" d="M124.28,515.54a126.29,126.29,0,0,1,15.12,11.89q7.08,6.41,13.54,13.37t12.34,14.49a124.38,124.38,0,0,1,10.73,16,125.33,125.33,0,0,1-15.13-11.88Q153.8,553,147.35,546T135,531.5A125.38,125.38,0,0,1,124.28,515.54Z"/><line class="cls-3" x1="128.14" y1="493.4" x2="182.82" y2="552.29"/><path class="cls-4" d="M128.14,493.4A140.66,140.66,0,0,1,144,506.08q7.44,6.8,14.27,14.16t13.07,15.28a137.74,137.74,0,0,1,11.47,16.77A140.66,140.66,0,0,1,167,539.61c-5-4.53-9.71-9.26-14.27-14.17s-8.91-10-13.06-15.29A141.49,141.49,0,0,1,128.14,493.4Z"/><line class="cls-3" x1="132.45" y1="471.73" x2="185.24" y2="528.58"/><path class="cls-4" d="M132.45,471.73a131.34,131.34,0,0,1,15.39,12.17q7.22,6.54,13.8,13.66t12.6,14.76a130.51,130.51,0,0,1,11,16.26,128.58,128.58,0,0,1-15.4-12.17q-7.22-6.54-13.79-13.66T143.45,488A131.38,131.38,0,0,1,132.45,471.73Z"/><line class="cls-3" x1="143.47" y1="458.24" x2="189.01" y2="506.27"/><path class="cls-4" d="M143.47,458.24A96.87,96.87,0,0,1,157,468.19a164.17,164.17,0,0,1,12,11.44A162,162,0,0,1,179.8,492.2,94.72,94.72,0,0,1,189,506.27a95,95,0,0,1-13.56-9.94,160.11,160.11,0,0,1-12-11.45,164.18,164.18,0,0,1-10.79-12.57A95.52,95.52,0,0,1,143.47,458.24Z"/><line class="cls-3" x1="178.69" y1="468.92" x2="193.91" y2="485.31"/><path class="cls-4" d="M178.69,468.92a15.36,15.36,0,0,1,6,2.06,18.9,18.9,0,0,1,4.41,3.54,18.68,18.68,0,0,1,3.21,4.65,15.2,15.2,0,0,1,1.6,6.14,15.2,15.2,0,0,1-6-2.06,18.6,18.6,0,0,1-4.4-3.54,18.89,18.89,0,0,1-3.2-4.66A15.4,15.4,0,0,1,178.69,468.92Z"/><line class="cls-3" x1="64.93" y1="570.7" x2="90.24" y2="549.82"/><path class="cls-4" d="M64.93,570.7a27.24,27.24,0,0,1,4.42-7.53,41.28,41.28,0,0,1,5.81-5.86A39.76,39.76,0,0,1,82,552.72a26.82,26.82,0,0,1,8.23-2.9,26.73,26.73,0,0,1-4.41,7.53,41.27,41.27,0,0,1-12.67,10.43A27.3,27.3,0,0,1,64.93,570.7Z"/><line class="cls-3" x1="33.45" y1="573.64" x2="92.26" y2="525.13"/><path class="cls-4" d="M33.45,573.64a125.59,125.59,0,0,1,12.8-14.44q6.81-6.71,14.18-12.76t15.22-11.5a126.77,126.77,0,0,1,16.61-9.81,125.62,125.62,0,0,1-12.79,14.45q-6.82,6.7-14.19,12.75T50.06,563.82A126.38,126.38,0,0,1,33.45,573.64Z"/><line class="cls-3" x1="33.94" y1="550.21" x2="95.9" y2="499.11"/><path class="cls-4" d="M33.94,550.21a139.85,139.85,0,0,1,13.59-15.08q7.2-7,15-13.41t16-12.15a139.73,139.73,0,0,1,17.4-10.46A137.9,137.9,0,0,1,82.32,514.2q-7.21,7-15,13.41t-16,12.14A140.83,140.83,0,0,1,33.94,550.21Z"/><line class="cls-3" x1="35.63" y1="525.8" x2="101.5" y2="471.47"/><path class="cls-4" d="M35.63,525.8A157.51,157.51,0,0,1,50.2,509.91q7.69-7.44,15.94-14.22t17-12.95a155.08,155.08,0,0,1,18.37-11.27A155.22,155.22,0,0,1,87,487.37q-7.71,7.44-16,14.21c-5.5,4.52-11.15,8.85-17,12.94A157.83,157.83,0,0,1,35.63,525.8Z"/><line class="cls-3" x1="38.71" y1="500.24" x2="109.53" y2="441.83"/><path class="cls-4" d="M38.71,500.24a179.91,179.91,0,0,1,15.8-16.91q8.33-7.95,17.18-15.24t18.23-14a178.57,178.57,0,0,1,19.61-12.29,178.71,178.71,0,0,1-15.79,16.92q-8.33,8-17.19,15.23T58.32,488A182.63,182.63,0,0,1,38.71,500.24Z"/><line class="cls-3" x1="43.41" y1="473.34" x2="86.15" y2="438.1"/><path class="cls-4" d="M43.41,473.34a69,69,0,0,1,8.78-11.12,116,116,0,0,1,10.16-9.44,114.34,114.34,0,0,1,11.2-8.19,68.67,68.67,0,0,1,12.6-6.49,68,68,0,0,1-8.78,11.13,114.47,114.47,0,0,1-10.16,9.43A116,116,0,0,1,56,466.84,68.61,68.61,0,0,1,43.41,473.34Z"/><line class="cls-3" x1="50.07" y1="444.83" x2="66.76" y2="431.07"/><path class="cls-4" d="M50.07,444.83a14.93,14.93,0,0,1,2.27-5.75A17.89,17.89,0,0,1,56,435a17.4,17.4,0,0,1,4.69-2.81,14.7,14.7,0,0,1,6.08-1.12,14.77,14.77,0,0,1-2.26,5.75,18.15,18.15,0,0,1-8.35,6.87A14.73,14.73,0,0,1,50.07,444.83Z"/><line class="cls-5" x1="600.6" y1="579.86" x2="478.07" y2="579.86"/><line class="cls-4" x1="216.9" y1="560.38" x2="328.63" y2="566.7"/><path class="cls-3" d="M216.9,560.38A265.18,265.18,0,0,1,245,559q14,0,28,.76t27.88,2.39a262.58,262.58,0,0,1,27.77,4.58,265.2,265.2,0,0,1-28.1,1.42q-14,0-28-.77t-27.89-2.41A268,268,0,0,1,216.9,560.38Z"/><line class="cls-4" x1="219.27" y1="532.46" x2="330.47" y2="548.5"/><path class="cls-3" d="M219.27,532.46a270.38,270.38,0,0,1,28.23,1q14,1.17,27.91,3.19t27.69,4.82a265.18,265.18,0,0,1,27.37,7,267.66,267.66,0,0,1-28.23-1q-14-1.17-27.92-3.2t-27.68-4.83A270.34,270.34,0,0,1,219.27,532.46Z"/><line class="cls-4" x1="223.47" y1="504.69" x2="333.87" y2="530.52"/><path class="cls-3" d="M223.47,504.69a276.15,276.15,0,0,1,28.28,3.54q14,2.41,27.79,5.66T307,521.14a273.35,273.35,0,0,1,26.92,9.38A270.67,270.67,0,0,1,305.59,527q-14-2.41-27.79-5.67t-27.41-7.26A276.83,276.83,0,0,1,223.47,504.69Z"/><line class="cls-4" x1="511.06" y1="259.47" x2="521.29" y2="367.77"/><path class="cls-3" d="M511.06,259.47a252.24,252.24,0,0,1,5.54,26.79q2.11,13.46,3.38,27t1.74,27.15a250.19,250.19,0,0,1-.43,27.36,250.45,250.45,0,0,1-5.54-26.8q-2.12-13.46-3.37-27t-1.74-27.15A255.06,255.06,0,0,1,511.06,259.47Z"/><line class="cls-4" x1="539.31" y1="258.32" x2="539.49" y2="367.04"/><path class="cls-3" d="M539.31,258.32a253.71,253.71,0,0,1,3,27.17q.85,13.59.87,27.18t-.77,27.18a248.26,248.26,0,0,1-3,27.19,253.63,253.63,0,0,1-3-27.18q-.86-13.58-.86-27.17t.78-27.19A253.33,253.33,0,0,1,539.31,258.32Z"/><line class="cls-4" x1="567.55" y1="259.45" x2="557.69" y2="367.78"/><path class="cls-3" d="M567.55,259.45a252.62,252.62,0,0,1,.52,27.35q-.41,13.62-1.65,27.16t-3.27,27a250.25,250.25,0,0,1-5.46,26.81,250.22,250.22,0,0,1-.52-27.36q.39-13.6,1.65-27.15t3.29-27A255.16,255.16,0,0,1,567.55,259.45Z"/><line class="cls-4" x1="245.66" y1="446.37" x2="346.9" y2="491.94"/><path class="cls-3" d="M245.66,446.37A262,262,0,0,1,272.2,455q13,4.94,25.65,10.64t25,12.14a259.61,259.61,0,0,1,24.07,14.13,262,262,0,0,1-26.54-8.66q-13-4.93-25.64-10.65t-25-12.14A264.37,264.37,0,0,1,245.66,446.37Z"/><line class="cls-4" x1="258.34" y1="421.54" x2="355.1" y2="475.59"/><path class="cls-3" d="M258.34,421.54A261.09,261.09,0,0,1,284,432.44q12.5,6,24.59,12.79t23.79,14.23a260.93,260.93,0,0,1,22.73,16.13,258.81,258.81,0,0,1-25.66-10.89q-12.49-6-24.58-12.8t-23.79-14.24A264.52,264.52,0,0,1,258.34,421.54Z"/><line class="cls-4" x1="273.92" y1="398.48" x2="364.66" y2="460.02"/><path class="cls-3" d="M273.92,398.48a256.94,256.94,0,0,1,24.36,12.91q11.82,7,23.15,14.7t22.23,16.06a256.86,256.86,0,0,1,21,17.87,254.75,254.75,0,0,1-24.37-12.9q-11.82-7-23.14-14.71t-22.22-16.07A255.2,255.2,0,0,1,273.92,398.48Z"/><line class="cls-4" x1="627.28" y1="270.36" x2="597.59" y2="375.19"/><path class="cls-3" d="M627.28,270.36a254.67,254.67,0,0,1-4.54,27q-2.91,13.33-6.63,26.44t-8.21,26a251.81,251.81,0,0,1-10.31,25.39,249.65,249.65,0,0,1,4.53-27q2.91-13.34,6.64-26.43c2.48-8.74,5.2-17.4,8.22-26A253.64,253.64,0,0,1,627.28,270.36Z"/><line class="cls-4" x1="653.64" y1="278.6" x2="614.86" y2="380.99"/><path class="cls-3" d="M653.64,278.6a255.81,255.81,0,0,1-6.89,26.65q-4.07,13.11-8.93,25.89t-10.45,25.31A252.85,252.85,0,0,1,614.86,381a255.35,255.35,0,0,1,6.89-26.66q4.07-13.11,8.93-25.89t10.47-25.3A254.93,254.93,0,0,1,653.64,278.6Z"/><line class="cls-4" x1="679.07" y1="289.48" x2="631.58" y2="388.26"/><path class="cls-3" d="M679.07,289.48a258.85,258.85,0,0,1-9.18,26q-5.17,12.7-11.13,25t-12.6,24.34a255.8,255.8,0,0,1-14.58,23.4,254.79,254.79,0,0,1,9.17-26q5.18-12.7,11.13-25.05t12.62-24.34A255.54,255.54,0,0,1,679.07,289.48Z"/><line class="cls-4" x1="310.25" y1="356.24" x2="387.8" y2="431.45"/><path class="cls-3" d="M310.25,356.24a248.72,248.72,0,0,1,21.47,16.65q10.29,8.81,20,18.21t18.82,19.39a246.73,246.73,0,0,1,17.29,21,248.72,248.72,0,0,1-21.47-16.65q-10.29-8.81-20-18.22t-18.81-19.39A250.32,250.32,0,0,1,310.25,356.24Z"/><line class="cls-4" x1="329.72" y1="336.65" x2="401.04" y2="418.87"/><path class="cls-3" d="M329.72,336.65a253.34,253.34,0,0,1,20.09,18.59q9.56,9.74,18.45,20t17.22,21.09A251.9,251.9,0,0,1,401,418.87a249.91,249.91,0,0,1-20.1-18.59q-9.56-9.72-18.45-20t-17.2-21.1A254.75,254.75,0,0,1,329.72,336.65Z"/><line class="cls-4" x1="351.78" y1="320.05" x2="415.3" y2="407.49"/><path class="cls-3" d="M351.78,320.05a251,251,0,0,1,18.3,20.1q8.63,10.44,16.55,21.38t15.22,22.33a248.88,248.88,0,0,1,13.45,23.63A247.57,247.57,0,0,1,397,387.39Q388.37,377,380.45,366t-15.21-22.34A248.8,248.8,0,0,1,351.78,320.05Z"/><line class="cls-4" x1="728.51" y1="320.86" x2="664.64" y2="408.3"/><path class="cls-3" d="M728.51,320.86A254.15,254.15,0,0,1,715,344.49q-7.31,11.42-15.3,22.34T683,388.21a247,247,0,0,1-18.39,20.09,247.46,247.46,0,0,1,13.54-23.63q7.3-11.42,15.31-22.34T710.13,341A250.17,250.17,0,0,1,728.51,320.86Z"/><line class="cls-4" x1="751.14" y1="336.84" x2="678.83" y2="419.78"/><path class="cls-3" d="M751.14,336.84a258.74,258.74,0,0,1-15.82,22.7q-8.4,10.92-17.46,21.28T699.17,401a257,257,0,0,1-20.34,18.76,255.21,255.21,0,0,1,15.81-22.71q8.42-10.92,17.47-21.27t18.7-20.19A258.78,258.78,0,0,1,751.14,336.84Z"/><line class="cls-4" x1="771.65" y1="355.58" x2="691.97" y2="432.44"/><path class="cls-3" d="M771.65,355.58A260.82,260.82,0,0,1,753.81,377q-9.37,10.21-19.35,19.81T714,415.39a259.12,259.12,0,0,1-22,17.05,260.82,260.82,0,0,1,17.84-21.37q9.38-10.21,19.35-19.8t20.49-18.63A262.76,262.76,0,0,1,771.65,355.58Z"/><line class="cls-4" x1="401.96" y1="287.62" x2="449.15" y2="387.34"/><path class="cls-3" d="M402,287.62a261.52,261.52,0,0,1,14.5,23.65q6.66,12.11,12.55,24.58t11.06,25.27a260,260,0,0,1,9.08,26.22,256.67,256.67,0,0,1-14.51-23.65q-6.66-12.1-12.54-24.58t-11.05-25.28A259,259,0,0,1,402,287.62Z"/><line class="cls-4" x1="427.95" y1="278.06" x2="465.94" y2="380.24"/><path class="cls-3" d="M428,278.06a253.69,253.69,0,0,1,12.3,24.5q5.53,12.48,10.27,25.26t8.73,25.83a251.54,251.54,0,0,1,6.69,26.59,249.28,249.28,0,0,1-12.31-24.5q-5.53-12.48-10.26-25.26t-8.73-25.83A254,254,0,0,1,428,278.06Z"/><line class="cls-4" x1="453.65" y1="267.57" x2="483.27" y2="374.62"/><path class="cls-3" d="M453.65,267.57a263.21,263.21,0,0,1,10.29,26q4.51,13.16,8.2,26.54t6.62,27a260.11,260.11,0,0,1,4.51,27.57,260,260,0,0,1-10.29-26q-4.51-13.15-8.2-26.54t-6.61-27A268.3,268.3,0,0,1,453.65,267.57Z"/><line class="cls-4" x1="808.19" y1="401.9" x2="716.02" y2="462.82"/><path class="cls-3" d="M808.19,401.9a262.12,262.12,0,0,1-21.4,17.72q-11.06,8.33-22.58,15.92t-23.5,14.55A257.75,257.75,0,0,1,716,462.82a258.06,258.06,0,0,1,21.38-17.74q11.07-8.31,22.6-15.91t23.49-14.54A260.23,260.23,0,0,1,808.19,401.9Z"/><line class="cls-4" x1="822.4" y1="425.82" x2="725.33" y2="478.54"/><path class="cls-3" d="M822.4,425.82a263.94,263.94,0,0,1-22.83,15.81q-11.75,7.32-23.88,13.9T751,468a259.75,259.75,0,0,1-25.7,10.54,258.34,258.34,0,0,1,22.84-15.82q11.73-7.34,23.88-13.9t24.66-12.45A259.2,259.2,0,0,1,822.4,425.82Z"/><line class="cls-4" x1="835.51" y1="450.45" x2="733.27" y2="495.01"/><path class="cls-3" d="M835.51,450.45a266.54,266.54,0,0,1-24.36,13.88q-12.45,6.35-25.23,11.9T760,486.62A266.34,266.34,0,0,1,733.27,495a264.09,264.09,0,0,1,24.36-13.9q12.45-6.33,25.24-11.88t25.89-10.39A265.35,265.35,0,0,1,835.51,450.45Z"/><line class="cls-4" x1="855.29" y1="504.5" x2="744.99" y2="530.68"/><path class="cls-3" d="M855.29,504.5A276,276,0,0,1,828.4,514c-9.06,2.73-18.19,5.16-27.38,7.35s-18.44,4.11-27.76,5.75A270.61,270.61,0,0,1,745,530.68a273.3,273.3,0,0,1,26.88-9.47q13.59-4.08,27.39-7.33T827,508.14A276.1,276.1,0,0,1,855.29,504.5Z"/><line class="cls-4" x1="861.02" y1="532.05" x2="748.38" y2="548.66"/><path class="cls-3" d="M861,532.05a275.07,275.07,0,0,1-27.73,7.11q-13.95,2.91-28,5T777,547.48a274.39,274.39,0,0,1-28.59,1.18,271.62,271.62,0,0,1,27.72-7.12q13.95-2.91,28-5t28.28-3.34A277.36,277.36,0,0,1,861,532.05Z"/><line class="cls-4" x1="863.8" y1="560.07" x2="750.21" y2="566.86"/><path class="cls-3" d="M863.8,560.07a276.72,276.72,0,0,1-28.22,4.69q-14.15,1.68-28.35,2.52t-28.45.88a273.86,273.86,0,0,1-28.57-1.3,274,274,0,0,1,28.22-4.69q14.15-1.7,28.35-2.51c9.46-.56,19-.87,28.45-.88A279.44,279.44,0,0,1,863.8,560.07Z"/></svg>