<svg id="Layer_1" data-name="Layer 1" xmlns="http://www.w3.org/2000/svg" xmlns:xlink="http://www.w3.org/1999/xlink" viewBox="0 0 460 460"><defs><style>.cls-1,.cls-2,.cls-6,.cls-7,.cls-8,.cls-9{fill:none;}.cls-2{clip-path:url(#clip-path);}.cls-3{clip-path:url(#clip-path-2);}.cls-4{fill:url(#linear-gradient);}.cls-5{fill:#e25f5f;stroke:#fff;stroke-width:0.57px;}.cls-5,.cls-6,.cls-7,.cls-8,.cls-9{stroke-miterlimit:10;}.cls-6,.cls-7{stroke:#231f20;}.cls-6{stroke-width:1.54px;}.cls-7{stroke-width:1.39px;}.cls-8,.cls-9{stroke:#000;}.cls-8{stroke-width:0.31px;}.cls-9{stroke-width:0.33px;}</style><clipPath id="clip-path"><polygon id="SVGID" class="cls-1" points="230.16 345.23 229.77 344.84 230.55 344.84 230.16 345.23"/></clipPath><clipPath id="clip-path-2"><polygon id="SVGID-2" data-name="SVGID" class="cls-2" points="230.16 346.79 230.55 347.18 229.77 347.18 230.16 346.79"/></clipPath><linearGradient id="linear-gradient" x1="-2085.83" y1="-290.96" x2="-1911.78" y2="-290.96" gradientTransform="matrix(0, -0.95, -0.95, 0, -46.25, -1669.77)" gradientUnits="userSpaceOnUse"><stop offset="0" stop-color="#fff"/><stop offset="1" stop-color="#fff"/></linearGradient></defs><g class="cls-3"><rect class="cls-4" x="147.49" y="146.42" width="165.35" height="165.35" transform="translate(-94.58 229.85) rotate(-45)"/></g><rect class="cls-5" x="297.56" y="265.31" width="5.51" height="5.51" transform="translate(-101.59 290.87) rotate(-45)"/><rect class="cls-5" x="301.46" y="261.41" width="5.51" height="5.51" transform="translate(-97.7 292.48) rotate(-45)"/><rect class="cls-5" x="293.66" y="261.41" width="5.51" height="5.51" transform="translate(-99.98 286.97) rotate(-45)"/><rect class="cls-5" x="297.56" y="257.52" width="5.51" height="5.51" transform="translate(-96.08 288.59) rotate(-45)"/><rect class="cls-5" x="254.69" y="292.59" width="5.51" height="5.51" transform="translate(-133.44 268.55) rotate(-45)"/><rect class="cls-5" x="258.59" y="288.7" width="5.51" height="5.51" transform="translate(-129.54 270.16) rotate(-45)"/><rect class="cls-5" x="262.48" y="284.8" width="5.51" height="5.51" transform="translate(-125.64 271.77) rotate(-45)"/><rect class="cls-5" x="266.38" y="280.9" width="5.51" height="5.51" transform="translate(-121.75 273.39) rotate(-45)"/><rect class="cls-5" x="270.28" y="277" width="5.51" height="5.51" transform="translate(-117.85 275) rotate(-45)"/><rect class="cls-5" x="274.17" y="273.11" width="5.51" height="5.51" transform="translate(-113.95 276.62) rotate(-45)"/><rect class="cls-5" x="278.07" y="269.21" width="5.51" height="5.51" transform="translate(-110.06 278.23) rotate(-45)"/><rect class="cls-5" x="281.97" y="265.31" width="5.51" height="5.51" transform="translate(-106.16 279.85) rotate(-45)"/><rect class="cls-5" x="285.87" y="261.41" width="5.51" height="5.51" transform="translate(-102.26 281.46) rotate(-45)"/><rect class="cls-5" x="246.89" y="292.59" width="5.51" height="5.51" transform="translate(-135.72 263.03) rotate(-45)"/><rect class="cls-5" x="250.79" y="288.7" width="5.51" height="5.51" transform="translate(-131.82 264.65) rotate(-45)"/><rect class="cls-5" x="254.69" y="284.8" width="5.51" height="5.51" transform="translate(-127.93 266.26) rotate(-45)"/><rect class="cls-5" x="258.59" y="280.9" width="5.51" height="5.51" transform="translate(-124.03 267.88) rotate(-45)"/><rect class="cls-5" x="274.17" y="265.31" width="5.51" height="5.51" transform="translate(-108.44 274.33) rotate(-45)"/><rect class="cls-5" x="278.07" y="261.41" width="5.51" height="5.51" transform="translate(-104.54 275.95) rotate(-45)"/><rect class="cls-5" x="281.97" y="257.52" width="5.51" height="5.51" transform="translate(-100.65 277.56) rotate(-45)"/><rect class="cls-5" x="285.87" y="253.62" width="5.51" height="5.51" transform="translate(-96.75 279.18) rotate(-45)"/><rect class="cls-5" x="289.76" y="249.72" width="5.51" height="5.51" transform="translate(-92.85 280.79) rotate(-45)"/><rect class="cls-5" x="246.89" y="284.8" width="5.51" height="5.51" transform="translate(-130.21 260.75) rotate(-45)"/><rect class="cls-5" x="254.69" y="277" width="5.51" height="5.51" transform="translate(-122.42 263.98) rotate(-45)"/><rect class="cls-5" x="262.48" y="269.21" width="5.51" height="5.51" transform="translate(-114.62 267.21) rotate(-45)"/><rect class="cls-5" x="270.28" y="261.41" width="5.51" height="5.51" transform="translate(-106.83 270.44) rotate(-45)"/><rect class="cls-5" x="278.07" y="253.62" width="5.51" height="5.51" transform="translate(-99.03 273.67) rotate(-45)"/><rect class="cls-5" x="289.76" y="241.93" width="5.51" height="5.51" transform="translate(-87.34 278.51) rotate(-45)"/><rect class="cls-5" x="239.1" y="284.8" width="5.51" height="5.51" transform="translate(-132.49 255.24) rotate(-45)"/><rect class="cls-5" x="243" y="280.9" width="5.51" height="5.51" transform="translate(-128.6 256.85) rotate(-45)"/><rect class="cls-5" x="246.89" y="277" width="5.51" height="5.51" transform="translate(-124.7 258.47) rotate(-45)"/><rect class="cls-5" x="270.28" y="253.62" width="5.51" height="5.51" transform="translate(-101.32 268.15) rotate(-45)"/><rect class="cls-5" x="285.87" y="238.03" width="5.51" height="5.51" transform="translate(-85.73 274.61) rotate(-45)"/><rect class="cls-5" x="235.2" y="280.9" width="5.51" height="5.51" transform="translate(-130.88 251.34) rotate(-45)"/><rect class="cls-5" x="243" y="273.11" width="5.51" height="5.51" transform="translate(-123.08 254.57) rotate(-45)"/><rect class="cls-5" x="250.79" y="265.31" width="5.51" height="5.51" transform="translate(-115.29 257.8) rotate(-45)"/><rect class="cls-5" x="258.59" y="257.52" width="5.51" height="5.51" transform="translate(-107.5 261.03) rotate(-45)"/><rect class="cls-5" x="266.38" y="249.72" width="5.51" height="5.51" transform="translate(-99.7 264.26) rotate(-45)"/><rect class="cls-5" x="274.17" y="241.93" width="5.51" height="5.51" transform="translate(-91.91 267.49) rotate(-45)"/><rect class="cls-5" x="281.97" y="234.13" width="5.51" height="5.51" transform="translate(-84.11 270.71) rotate(-45)"/><rect class="cls-5" x="231.3" y="277" width="5.51" height="5.51" transform="translate(-129.26 247.45) rotate(-45)"/><rect class="cls-5" x="239.1" y="269.21" width="5.51" height="5.51" transform="translate(-121.47 250.67) rotate(-45)"/><rect class="cls-5" x="243" y="265.31" width="5.51" height="5.51" transform="translate(-117.57 252.29) rotate(-45)"/><rect class="cls-5" x="246.89" y="261.41" width="5.51" height="5.51" transform="translate(-113.68 253.9) rotate(-45)"/><rect class="cls-5" x="250.79" y="257.52" width="5.51" height="5.51" transform="translate(-109.78 255.52) rotate(-45)"/><rect class="cls-5" x="254.69" y="253.62" width="5.51" height="5.51" transform="translate(-105.88 257.13) rotate(-45)"/><rect class="cls-5" x="258.59" y="249.72" width="5.51" height="5.51" transform="translate(-101.98 258.75) rotate(-45)"/><rect class="cls-5" x="262.48" y="245.83" width="5.51" height="5.51" transform="translate(-98.09 260.36) rotate(-45)"/><rect class="cls-5" x="270.28" y="238.03" width="5.51" height="5.51" transform="translate(-90.29 263.59) rotate(-45)"/><rect class="cls-5" x="278.07" y="230.24" width="5.51" height="5.51" transform="translate(-82.5 266.82) rotate(-45)"/><rect class="cls-5" x="200.13" y="300.39" width="5.51" height="5.51" transform="translate(-154.93 232.25) rotate(-45)"/><rect class="cls-5" x="204.02" y="296.49" width="5.51" height="5.51" transform="translate(-151.03 233.86) rotate(-45)"/><rect class="cls-5" x="219.61" y="280.9" width="5.51" height="5.51" transform="translate(-135.45 240.32) rotate(-45)"/><rect class="cls-5" x="231.3" y="269.21" width="5.51" height="5.51" transform="translate(-123.75 245.16) rotate(-45)"/><rect class="cls-5" x="235.2" y="265.31" width="5.51" height="5.51" transform="translate(-119.86 246.78) rotate(-45)"/><rect class="cls-5" x="239.1" y="261.41" width="5.51" height="5.51" transform="translate(-115.96 248.39) rotate(-45)"/><rect class="cls-5" x="243" y="257.52" width="5.51" height="5.51" transform="translate(-112.06 250.01) rotate(-45)"/><rect class="cls-5" x="246.89" y="253.62" width="5.51" height="5.51" transform="translate(-108.16 251.62) rotate(-45)"/><rect class="cls-5" x="250.79" y="249.72" width="5.51" height="5.51" transform="translate(-104.27 253.23) rotate(-45)"/><rect class="cls-5" x="254.69" y="245.83" width="5.51" height="5.51" transform="translate(-100.37 254.85) rotate(-45)"/><rect class="cls-5" x="258.59" y="241.93" width="5.51" height="5.51" transform="translate(-96.47 256.46) rotate(-45)"/><rect class="cls-5" x="262.48" y="238.03" width="5.51" height="5.51" transform="translate(-92.58 258.08) rotate(-45)"/><rect class="cls-5" x="266.38" y="234.13" width="5.51" height="5.51" transform="translate(-88.68 259.69) rotate(-45)"/><rect class="cls-5" x="270.28" y="230.24" width="5.51" height="5.51" transform="translate(-84.78 261.31) rotate(-45)"/><rect class="cls-5" x="274.17" y="226.34" width="5.51" height="5.51" transform="translate(-80.88 262.92) rotate(-45)"/><rect class="cls-5" x="281.97" y="218.54" width="5.51" height="5.51" transform="translate(-73.09 266.15) rotate(-45)"/><rect class="cls-5" x="285.87" y="214.65" width="5.51" height="5.51" transform="translate(-69.19 267.76) rotate(-45)"/><rect class="cls-5" x="293.66" y="206.85" width="5.51" height="5.51" transform="translate(-61.4 270.99) rotate(-45)"/><rect class="cls-5" x="192.33" y="300.39" width="5.51" height="5.51" transform="translate(-157.21 226.74) rotate(-45)"/><rect class="cls-5" x="196.23" y="296.49" width="5.51" height="5.51" transform="translate(-153.32 228.35) rotate(-45)"/><rect class="cls-5" x="200.13" y="292.59" width="5.51" height="5.51" transform="translate(-149.42 229.96) rotate(-45)"/><rect class="cls-5" x="204.02" y="288.7" width="5.51" height="5.51" transform="translate(-145.52 231.58) rotate(-45)"/><rect class="cls-5" x="207.92" y="284.8" width="5.51" height="5.51" transform="translate(-141.63 233.19) rotate(-45)"/><rect class="cls-5" x="211.82" y="280.9" width="5.51" height="5.51" transform="translate(-137.73 234.81) rotate(-45)"/><rect class="cls-5" x="219.61" y="273.11" width="5.51" height="5.51" transform="translate(-129.93 238.04) rotate(-45)"/><rect class="cls-5" x="227.41" y="265.31" width="5.51" height="5.51" transform="translate(-122.14 241.26) rotate(-45)"/><rect class="cls-5" x="231.3" y="261.41" width="5.51" height="5.51" transform="translate(-118.24 242.88) rotate(-45)"/><rect class="cls-5" x="239.1" y="253.62" width="5.51" height="5.51" transform="translate(-110.45 246.11) rotate(-45)"/><rect class="cls-5" x="262.48" y="230.24" width="5.51" height="5.51" transform="translate(-87.06 255.79) rotate(-45)"/><rect class="cls-5" x="278.07" y="214.65" width="5.51" height="5.51" transform="translate(-71.47 262.25) rotate(-45)"/><rect class="cls-5" x="281.97" y="210.75" width="5.51" height="5.51" transform="translate(-67.58 263.87) rotate(-45)"/><rect class="cls-5" x="289.76" y="202.96" width="5.51" height="5.51" transform="translate(-59.78 267.09) rotate(-45)"/><rect class="cls-5" x="293.66" y="199.06" width="5.51" height="5.51" transform="translate(-55.89 268.71) rotate(-45)"/><rect class="cls-5" x="297.56" y="195.16" width="5.51" height="5.51" transform="translate(-51.99 270.32) rotate(-45)"/><rect class="cls-5" x="301.46" y="191.26" width="5.51" height="5.51" transform="translate(-48.09 271.94) rotate(-45)"/><rect class="cls-5" x="204.02" y="280.9" width="5.51" height="5.51" transform="translate(-140.01 229.3) rotate(-45)"/><rect class="cls-5" x="211.82" y="273.11" width="5.51" height="5.51" transform="translate(-132.22 232.52) rotate(-45)"/><rect class="cls-5" x="215.72" y="269.21" width="5.51" height="5.51" transform="translate(-128.32 234.14) rotate(-45)"/><rect class="cls-5" x="223.51" y="261.41" width="5.51" height="5.51" transform="translate(-120.52 237.37) rotate(-45)"/><rect class="cls-5" x="235.2" y="249.72" width="5.51" height="5.51" transform="translate(-108.83 242.21) rotate(-45)"/><rect class="cls-5" x="250.79" y="234.13" width="5.51" height="5.51" transform="translate(-93.24 248.67) rotate(-45)"/><rect class="cls-5" x="254.69" y="230.24" width="5.51" height="5.51" transform="translate(-89.35 250.28) rotate(-45)"/><rect class="cls-5" x="258.59" y="226.34" width="5.51" height="5.51" transform="translate(-85.45 251.9) rotate(-45)"/><rect class="cls-5" x="262.48" y="222.44" width="5.51" height="5.51" transform="translate(-81.55 253.51) rotate(-45)"/><rect class="cls-5" x="270.28" y="214.65" width="5.51" height="5.51" transform="translate(-73.76 256.74) rotate(-45)"/><rect class="cls-5" x="278.07" y="206.85" width="5.51" height="5.51" transform="translate(-65.96 259.97) rotate(-45)"/><rect class="cls-5" x="281.97" y="202.96" width="5.51" height="5.51" transform="translate(-62.07 261.58) rotate(-45)"/><rect class="cls-5" x="297.56" y="187.37" width="5.51" height="5.51" transform="translate(-46.48 268.04) rotate(-45)"/><rect class="cls-5" x="188.43" y="288.7" width="5.51" height="5.51" transform="translate(-150.09 220.56) rotate(-45)"/><rect class="cls-5" x="192.33" y="284.8" width="5.51" height="5.51" transform="translate(-146.19 222.17) rotate(-45)"/><rect class="cls-5" x="211.82" y="265.31" width="5.51" height="5.51" transform="translate(-126.71 230.24) rotate(-45)"/><rect class="cls-5" x="223.51" y="253.62" width="5.51" height="5.51" transform="translate(-115.01 235.08) rotate(-45)"/><rect class="cls-5" x="235.2" y="241.93" width="5.51" height="5.51" transform="translate(-103.32 239.93) rotate(-45)"/><rect class="cls-5" x="243" y="234.13" width="5.51" height="5.51" transform="translate(-95.53 243.16) rotate(-45)"/><rect class="cls-5" x="254.69" y="222.44" width="5.51" height="5.51" transform="translate(-83.84 248) rotate(-45)"/><rect class="cls-5" x="258.59" y="218.54" width="5.51" height="5.51" transform="translate(-79.94 249.61) rotate(-45)"/><rect class="cls-5" x="262.48" y="214.65" width="5.51" height="5.51" transform="translate(-76.04 251.23) rotate(-45)"/><rect class="cls-5" x="270.28" y="206.85" width="5.51" height="5.51" transform="translate(-68.25 254.46) rotate(-45)"/><rect class="cls-5" x="278.07" y="199.06" width="5.51" height="5.51" transform="translate(-60.45 257.68) rotate(-45)"/><rect class="cls-5" x="281.97" y="195.16" width="5.51" height="5.51" transform="translate(-56.55 259.3) rotate(-45)"/><rect class="cls-5" x="192.33" y="277" width="5.51" height="5.51" transform="translate(-140.68 219.89) rotate(-45)"/><rect class="cls-5" x="200.13" y="269.21" width="5.51" height="5.51" transform="translate(-132.89 223.12) rotate(-45)"/><rect class="cls-5" x="204.02" y="265.31" width="5.51" height="5.51" transform="translate(-128.99 224.73) rotate(-45)"/><rect class="cls-5" x="207.92" y="261.41" width="5.51" height="5.51" transform="translate(-125.09 226.34) rotate(-45)"/><rect class="cls-5" x="211.82" y="257.52" width="5.51" height="5.51" transform="translate(-121.19 227.96) rotate(-45)"/><rect class="cls-5" x="215.72" y="253.62" width="5.51" height="5.51" transform="translate(-117.3 229.57) rotate(-45)"/><rect class="cls-5" x="219.61" y="249.72" width="5.51" height="5.51" transform="translate(-113.4 231.19) rotate(-45)"/><rect class="cls-5" x="231.3" y="238.03" width="5.51" height="5.51" transform="translate(-101.71 236.03) rotate(-45)"/><rect class="cls-5" x="235.2" y="234.13" width="5.51" height="5.51" transform="translate(-97.81 237.64) rotate(-45)"/><rect class="cls-5" x="254.69" y="214.65" width="5.51" height="5.51" transform="translate(-78.32 245.72) rotate(-45)"/><rect class="cls-5" x="258.59" y="210.75" width="5.51" height="5.51" transform="translate(-74.43 247.33) rotate(-45)"/><rect class="cls-5" x="262.48" y="206.85" width="5.51" height="5.51" transform="translate(-70.53 248.94) rotate(-45)"/><rect class="cls-5" x="266.38" y="202.96" width="5.51" height="5.51" transform="translate(-66.63 250.56) rotate(-45)"/><rect class="cls-5" x="278.07" y="191.26" width="5.51" height="5.51" transform="translate(-54.94 255.4) rotate(-45)"/><rect class="cls-5" x="281.97" y="187.37" width="5.51" height="5.51" transform="translate(-51.04 257.02) rotate(-45)"/><rect class="cls-5" x="285.87" y="183.47" width="5.51" height="5.51" transform="translate(-47.15 258.63) rotate(-45)"/><rect class="cls-5" x="184.54" y="277" width="5.51" height="5.51" transform="translate(-142.96 214.38) rotate(-45)"/><rect class="cls-5" x="192.33" y="269.21" width="5.51" height="5.51" transform="translate(-135.17 217.6) rotate(-45)"/><rect class="cls-5" x="196.23" y="265.31" width="5.51" height="5.51" transform="translate(-131.27 219.22) rotate(-45)"/><rect class="cls-5" x="211.82" y="249.72" width="5.51" height="5.51" transform="translate(-115.68 225.68) rotate(-45)"/><rect class="cls-5" x="223.51" y="238.03" width="5.51" height="5.51" transform="translate(-103.99 230.52) rotate(-45)"/><rect class="cls-5" x="227.41" y="234.13" width="5.51" height="5.51" transform="translate(-100.09 232.13) rotate(-45)"/><rect class="cls-5" x="231.3" y="230.24" width="5.51" height="5.51" transform="translate(-96.2 233.75) rotate(-45)"/><rect class="cls-5" x="239.1" y="222.44" width="5.51" height="5.51" transform="translate(-88.4 236.98) rotate(-45)"/><rect class="cls-5" x="243" y="218.54" width="5.51" height="5.51" transform="translate(-84.5 238.59) rotate(-45)"/><rect class="cls-5" x="246.89" y="214.65" width="5.51" height="5.51" transform="translate(-80.61 240.2) rotate(-45)"/><rect class="cls-5" x="250.79" y="210.75" width="5.51" height="5.51" transform="translate(-76.71 241.82) rotate(-45)"/><rect class="cls-5" x="254.69" y="206.85" width="5.51" height="5.51" transform="translate(-72.81 243.43) rotate(-45)"/><rect class="cls-5" x="262.48" y="199.06" width="5.51" height="5.51" transform="translate(-65.02 246.66) rotate(-45)"/><rect class="cls-5" x="274.17" y="187.37" width="5.51" height="5.51" transform="translate(-53.33 251.5) rotate(-45)"/><rect class="cls-5" x="285.87" y="175.67" width="5.51" height="5.51" transform="translate(-41.63 256.35) rotate(-45)"/><rect class="cls-5" x="172.85" y="280.9" width="5.51" height="5.51" transform="translate(-149.14 207.25) rotate(-45)"/><rect class="cls-5" x="176.74" y="277" width="5.51" height="5.51" transform="translate(-145.25 208.86) rotate(-45)"/><rect class="cls-5" x="188.43" y="265.31" width="5.51" height="5.51" transform="translate(-133.55 213.71) rotate(-45)"/><rect class="cls-5" x="196.23" y="257.52" width="5.51" height="5.51" transform="translate(-125.76 216.94) rotate(-45)"/><rect class="cls-5" x="219.61" y="234.13" width="5.51" height="5.51" transform="translate(-102.38 226.62) rotate(-45)"/><rect class="cls-5" x="223.51" y="230.24" width="5.51" height="5.51" transform="translate(-98.48 228.24) rotate(-45)"/><rect class="cls-5" x="231.3" y="222.44" width="5.51" height="5.51" transform="translate(-90.68 231.46) rotate(-45)"/><rect class="cls-5" x="235.2" y="218.54" width="5.51" height="5.51" transform="translate(-86.79 233.08) rotate(-45)"/><rect class="cls-5" x="246.89" y="206.85" width="5.51" height="5.51" transform="translate(-75.09 237.92) rotate(-45)"/><rect class="cls-5" x="258.59" y="195.16" width="5.51" height="5.51" transform="translate(-63.4 242.76) rotate(-45)"/><rect class="cls-5" x="270.28" y="183.47" width="5.51" height="5.51" transform="translate(-51.71 247.61) rotate(-45)"/><rect class="cls-5" x="274.17" y="179.57" width="5.51" height="5.51" transform="translate(-47.81 249.22) rotate(-45)"/><rect class="cls-5" x="278.07" y="175.67" width="5.51" height="5.51" transform="translate(-43.92 250.84) rotate(-45)"/><rect class="cls-5" x="281.97" y="171.78" width="5.51" height="5.51" transform="translate(-40.02 252.45) rotate(-45)"/><rect class="cls-5" x="180.64" y="265.31" width="5.51" height="5.51" transform="translate(-135.84 208.2) rotate(-45)"/><rect class="cls-5" x="188.43" y="257.52" width="5.51" height="5.51" transform="translate(-128.04 211.42) rotate(-45)"/><rect class="cls-5" x="196.23" y="249.72" width="5.51" height="5.51" transform="translate(-120.25 214.65) rotate(-45)"/><rect class="cls-5" x="200.13" y="245.83" width="5.51" height="5.51" transform="translate(-116.35 216.27) rotate(-45)"/><rect class="cls-5" x="204.02" y="241.93" width="5.51" height="5.51" transform="translate(-112.45 217.88) rotate(-45)"/><rect class="cls-5" x="207.92" y="238.03" width="5.51" height="5.51" transform="translate(-108.56 219.5) rotate(-45)"/><rect class="cls-5" x="219.61" y="226.34" width="5.51" height="5.51" transform="translate(-96.86 224.34) rotate(-45)"/><rect class="cls-5" x="223.51" y="222.44" width="5.51" height="5.51" transform="translate(-92.97 225.95) rotate(-45)"/><rect class="cls-5" x="227.41" y="218.54" width="5.51" height="5.51" transform="translate(-89.07 227.57) rotate(-45)"/><rect class="cls-5" x="235.2" y="210.75" width="5.51" height="5.51" transform="translate(-81.28 230.8) rotate(-45)"/><rect class="cls-5" x="246.89" y="199.06" width="5.51" height="5.51" transform="translate(-69.58 235.64) rotate(-45)"/><rect class="cls-5" x="266.38" y="179.57" width="5.51" height="5.51" transform="translate(-50.1 243.71) rotate(-45)"/><rect class="cls-5" x="274.17" y="171.78" width="5.51" height="5.51" transform="translate(-42.3 246.94) rotate(-45)"/><rect class="cls-5" x="165.05" y="273.11" width="5.51" height="5.51" transform="translate(-145.91 199.46) rotate(-45)"/><rect class="cls-5" x="172.85" y="265.31" width="5.51" height="5.51" transform="translate(-138.12 202.68) rotate(-45)"/><rect class="cls-5" x="176.74" y="261.41" width="5.51" height="5.51" transform="translate(-134.22 204.3) rotate(-45)"/><rect class="cls-5" x="180.64" y="257.52" width="5.51" height="5.51" transform="translate(-130.33 205.91) rotate(-45)"/><rect class="cls-5" x="188.43" y="249.72" width="5.51" height="5.51" transform="translate(-122.53 209.14) rotate(-45)"/><rect class="cls-5" x="211.82" y="226.34" width="5.51" height="5.51" transform="translate(-99.15 218.83) rotate(-45)"/><rect class="cls-5" x="215.72" y="222.44" width="5.51" height="5.51" transform="translate(-95.25 220.44) rotate(-45)"/><rect class="cls-5" x="219.61" y="218.54" width="5.51" height="5.51" transform="translate(-91.35 222.06) rotate(-45)"/><rect class="cls-5" x="231.3" y="206.85" width="5.51" height="5.51" transform="translate(-79.66 226.9) rotate(-45)"/><rect class="cls-5" x="243" y="195.16" width="5.51" height="5.51" transform="translate(-67.97 231.74) rotate(-45)"/><rect class="cls-5" x="250.79" y="187.37" width="5.51" height="5.51" transform="translate(-60.17 234.97) rotate(-45)"/><rect class="cls-5" x="258.59" y="179.57" width="5.51" height="5.51" transform="translate(-52.38 238.2) rotate(-45)"/><rect class="cls-5" x="168.95" y="261.41" width="5.51" height="5.51" transform="translate(-136.51 198.79) rotate(-45)"/><rect class="cls-5" x="172.85" y="257.52" width="5.51" height="5.51" transform="translate(-132.61 200.4) rotate(-45)"/><rect class="cls-5" x="176.74" y="253.62" width="5.51" height="5.51" transform="translate(-128.71 202.02) rotate(-45)"/><rect class="cls-5" x="180.64" y="249.72" width="5.51" height="5.51" transform="translate(-124.81 203.63) rotate(-45)"/><rect class="cls-5" x="192.33" y="238.03" width="5.51" height="5.51" transform="translate(-113.12 208.47) rotate(-45)"/><rect class="cls-5" x="200.13" y="230.24" width="5.51" height="5.51" transform="translate(-105.33 211.7) rotate(-45)"/><rect class="cls-5" x="204.02" y="226.34" width="5.51" height="5.51" transform="translate(-101.43 213.32) rotate(-45)"/><rect class="cls-5" x="207.92" y="222.44" width="5.51" height="5.51" transform="translate(-97.53 214.93) rotate(-45)"/><rect class="cls-5" x="239.1" y="191.26" width="5.51" height="5.51" transform="translate(-66.35 227.84) rotate(-45)"/><rect class="cls-5" x="250.79" y="179.57" width="5.51" height="5.51" transform="translate(-54.66 232.69) rotate(-45)"/><rect class="cls-5" x="262.48" y="167.88" width="5.51" height="5.51" transform="translate(-42.97 237.53) rotate(-45)"/><rect class="cls-5" x="270.28" y="160.09" width="5.51" height="5.51" transform="translate(-35.18 240.76) rotate(-45)"/><rect class="cls-5" x="157.26" y="265.31" width="5.51" height="5.51" transform="translate(-142.69 191.66) rotate(-45)"/><rect class="cls-5" x="161.15" y="261.41" width="5.51" height="5.51" transform="translate(-138.79 193.28) rotate(-45)"/><rect class="cls-5" x="165.05" y="257.52" width="5.51" height="5.51" transform="translate(-134.89 194.89) rotate(-45)"/><rect class="cls-5" x="168.95" y="253.62" width="5.51" height="5.51" transform="translate(-130.99 196.5) rotate(-45)"/><rect class="cls-5" x="172.85" y="249.72" width="5.51" height="5.51" transform="translate(-127.1 198.12) rotate(-45)"/><rect class="cls-5" x="176.74" y="245.83" width="5.51" height="5.51" transform="translate(-123.2 199.73) rotate(-45)"/><rect class="cls-5" x="180.64" y="241.93" width="5.51" height="5.51" transform="translate(-119.3 201.35) rotate(-45)"/><rect class="cls-5" x="184.54" y="238.03" width="5.51" height="5.51" transform="translate(-115.4 202.96) rotate(-45)"/><rect class="cls-5" x="188.43" y="234.13" width="5.51" height="5.51" transform="translate(-111.51 204.58) rotate(-45)"/><rect class="cls-5" x="204.02" y="218.54" width="5.51" height="5.51" transform="translate(-95.92 211.03) rotate(-45)"/><rect class="cls-5" x="211.82" y="210.75" width="5.51" height="5.51" transform="translate(-88.12 214.26) rotate(-45)"/><rect class="cls-5" x="215.72" y="206.85" width="5.51" height="5.51" transform="translate(-84.23 215.88) rotate(-45)"/><rect class="cls-5" x="227.41" y="195.16" width="5.51" height="5.51" transform="translate(-72.53 220.72) rotate(-45)"/><rect class="cls-5" x="231.3" y="191.26" width="5.51" height="5.51" transform="translate(-68.64 222.33) rotate(-45)"/><rect class="cls-5" x="235.2" y="187.37" width="5.51" height="5.51" transform="translate(-64.74 223.95) rotate(-45)"/><rect class="cls-5" x="246.89" y="175.67" width="5.51" height="5.51" transform="translate(-53.05 228.79) rotate(-45)"/><rect class="cls-5" x="250.79" y="171.78" width="5.51" height="5.51" transform="translate(-49.15 230.4) rotate(-45)"/><rect class="cls-5" x="254.69" y="167.88" width="5.51" height="5.51" transform="translate(-45.25 232.02) rotate(-45)"/><rect class="cls-5" x="258.59" y="163.98" width="5.51" height="5.51" transform="translate(-41.36 233.63) rotate(-45)"/><rect class="cls-5" x="266.38" y="156.19" width="5.51" height="5.51" transform="translate(-33.56 236.86) rotate(-45)"/><rect class="cls-5" x="161.15" y="253.62" width="5.51" height="5.51" transform="translate(-133.28 190.99) rotate(-45)"/><rect class="cls-5" x="165.05" y="249.72" width="5.51" height="5.51" transform="translate(-129.38 192.61) rotate(-45)"/><rect class="cls-5" x="172.85" y="241.93" width="5.51" height="5.51" transform="translate(-121.59 195.84) rotate(-45)"/><rect class="cls-5" x="188.43" y="226.34" width="5.51" height="5.51" transform="translate(-106 202.29) rotate(-45)"/><rect class="cls-5" x="192.33" y="222.44" width="5.51" height="5.51" transform="translate(-102.1 203.91) rotate(-45)"/><rect class="cls-5" x="200.13" y="214.65" width="5.51" height="5.51" transform="translate(-94.3 207.14) rotate(-45)"/><rect class="cls-5" x="204.02" y="210.75" width="5.51" height="5.51" transform="translate(-90.41 208.75) rotate(-45)"/><rect class="cls-5" x="227.41" y="187.37" width="5.51" height="5.51" transform="translate(-67.02 218.44) rotate(-45)"/><rect class="cls-5" x="235.2" y="179.57" width="5.51" height="5.51" transform="translate(-59.23 221.66) rotate(-45)"/><rect class="cls-5" x="239.1" y="175.67" width="5.51" height="5.51" transform="translate(-55.33 223.28) rotate(-45)"/><rect class="cls-5" x="246.89" y="167.88" width="5.51" height="5.51" transform="translate(-47.54 226.51) rotate(-45)"/><rect class="cls-5" x="250.79" y="163.98" width="5.51" height="5.51" transform="translate(-43.64 228.12) rotate(-45)"/><rect class="cls-5" x="262.48" y="152.29" width="5.51" height="5.51" transform="translate(-31.95 232.96) rotate(-45)"/><rect class="cls-5" x="149.46" y="257.52" width="5.51" height="5.51" transform="translate(-139.46 183.87) rotate(-45)"/><rect class="cls-5" x="153.36" y="253.62" width="5.51" height="5.51" transform="translate(-135.56 185.48) rotate(-45)"/><rect class="cls-5" x="157.26" y="249.72" width="5.51" height="5.51" transform="translate(-131.66 187.09) rotate(-45)"/><rect class="cls-5" x="161.15" y="245.83" width="5.51" height="5.51" transform="translate(-127.77 188.71) rotate(-45)"/><rect class="cls-5" x="172.85" y="234.13" width="5.51" height="5.51" transform="translate(-116.07 193.55) rotate(-45)"/><rect class="cls-5" x="184.54" y="222.44" width="5.51" height="5.51" transform="translate(-104.38 198.39) rotate(-45)"/><rect class="cls-5" x="196.23" y="210.75" width="5.51" height="5.51" transform="translate(-92.69 203.24) rotate(-45)"/><rect class="cls-5" x="200.13" y="206.85" width="5.51" height="5.51" transform="translate(-88.79 204.85) rotate(-45)"/><rect class="cls-5" x="207.92" y="199.06" width="5.51" height="5.51" transform="translate(-81 208.08) rotate(-45)"/><rect class="cls-5" x="211.82" y="195.16" width="5.51" height="5.51" transform="translate(-77.1 209.7) rotate(-45)"/><rect class="cls-5" x="219.61" y="187.37" width="5.51" height="5.51" transform="translate(-69.31 212.92) rotate(-45)"/><rect class="cls-5" x="223.51" y="183.47" width="5.51" height="5.51" transform="translate(-65.41 214.54) rotate(-45)"/><rect class="cls-5" x="227.41" y="179.57" width="5.51" height="5.51" transform="translate(-61.51 216.15) rotate(-45)"/><rect class="cls-5" x="231.3" y="175.67" width="5.51" height="5.51" transform="translate(-57.61 217.77) rotate(-45)"/><rect class="cls-5" x="235.2" y="171.78" width="5.51" height="5.51" transform="translate(-53.72 219.38) rotate(-45)"/><rect class="cls-5" x="239.1" y="167.88" width="5.51" height="5.51" transform="translate(-49.82 221) rotate(-45)"/><rect class="cls-5" x="243" y="163.98" width="5.51" height="5.51" transform="translate(-45.92 222.61) rotate(-45)"/><rect class="cls-5" x="246.89" y="160.09" width="5.51" height="5.51" transform="translate(-42.03 224.22) rotate(-45)"/><rect class="cls-5" x="254.69" y="152.29" width="5.51" height="5.51" transform="translate(-34.23 227.45) rotate(-45)"/><rect class="cls-5" x="176.74" y="222.44" width="5.51" height="5.51" transform="translate(-106.66 192.88) rotate(-45)"/><rect class="cls-5" x="184.54" y="214.65" width="5.51" height="5.51" transform="translate(-98.87 196.11) rotate(-45)"/><rect class="cls-5" x="196.23" y="202.96" width="5.51" height="5.51" transform="translate(-87.18 200.95) rotate(-45)"/><rect class="cls-5" x="204.02" y="195.16" width="5.51" height="5.51" transform="translate(-79.38 204.18) rotate(-45)"/><rect class="cls-5" x="207.92" y="191.26" width="5.51" height="5.51" transform="translate(-75.49 205.8) rotate(-45)"/><rect class="cls-5" x="223.51" y="175.67" width="5.51" height="5.51" transform="translate(-59.9 212.26) rotate(-45)"/><rect class="cls-5" x="239.1" y="160.09" width="5.51" height="5.51" transform="translate(-44.31 218.71) rotate(-45)"/><rect class="cls-5" x="243" y="156.19" width="5.51" height="5.51" transform="translate(-40.41 220.33) rotate(-45)"/><rect class="cls-5" x="254.69" y="144.5" width="5.51" height="5.51" transform="translate(-28.72 225.17) rotate(-45)"/><rect class="cls-5" x="180.64" y="210.75" width="5.51" height="5.51" transform="translate(-97.26 192.21) rotate(-45)"/><rect class="cls-5" x="184.54" y="206.85" width="5.51" height="5.51" transform="translate(-93.36 193.83) rotate(-45)"/><rect class="cls-5" x="200.13" y="191.26" width="5.51" height="5.51" transform="translate(-77.77 200.29) rotate(-45)"/><rect class="cls-5" x="207.92" y="183.47" width="5.51" height="5.51" transform="translate(-69.97 203.51) rotate(-45)"/><rect class="cls-5" x="211.82" y="179.57" width="5.51" height="5.51" transform="translate(-66.08 205.13) rotate(-45)"/><rect class="cls-5" x="219.61" y="171.78" width="5.51" height="5.51" transform="translate(-58.28 208.36) rotate(-45)"/><rect class="cls-5" x="227.41" y="163.98" width="5.51" height="5.51" transform="translate(-50.49 211.59) rotate(-45)"/><rect class="cls-5" x="235.2" y="156.19" width="5.51" height="5.51" transform="translate(-42.69 214.82) rotate(-45)"/><rect class="cls-5" x="239.1" y="152.29" width="5.51" height="5.51" transform="translate(-38.8 216.43) rotate(-45)"/><rect class="cls-5" x="243" y="148.39" width="5.51" height="5.51" transform="translate(-34.9 218.04) rotate(-45)"/><rect class="cls-5" x="250.79" y="140.6" width="5.51" height="5.51" transform="translate(-27.11 221.27) rotate(-45)"/><rect class="cls-5" x="184.54" y="199.06" width="5.51" height="5.51" transform="translate(-87.85 191.55) rotate(-45)"/><rect class="cls-5" x="192.33" y="191.26" width="5.51" height="5.51" transform="translate(-80.05 194.77) rotate(-45)"/><rect class="cls-5" x="196.23" y="187.37" width="5.51" height="5.51" transform="translate(-76.16 196.39) rotate(-45)"/><rect class="cls-5" x="207.92" y="175.67" width="5.51" height="5.51" transform="translate(-64.46 201.23) rotate(-45)"/><rect class="cls-5" x="211.82" y="171.78" width="5.51" height="5.51" transform="translate(-60.57 202.85) rotate(-45)"/><rect class="cls-5" x="215.72" y="167.88" width="5.51" height="5.51" transform="translate(-56.67 204.46) rotate(-45)"/><rect class="cls-5" x="231.3" y="152.29" width="5.51" height="5.51" transform="translate(-41.08 210.92) rotate(-45)"/><rect class="cls-5" x="235.2" y="148.39" width="5.51" height="5.51" transform="translate(-37.18 212.53) rotate(-45)"/><rect class="cls-5" x="243" y="140.6" width="5.51" height="5.51" transform="translate(-29.39 215.76) rotate(-45)"/><rect class="cls-5" x="246.89" y="136.7" width="5.51" height="5.51" transform="translate(-25.49 217.37) rotate(-45)"/><rect class="cls-5" x="172.85" y="202.96" width="5.51" height="5.51" transform="translate(-94.03 184.42) rotate(-45)"/><rect class="cls-5" x="180.64" y="195.16" width="5.51" height="5.51" transform="translate(-86.23 187.65) rotate(-45)"/><rect class="cls-5" x="192.33" y="183.47" width="5.51" height="5.51" transform="translate(-74.54 192.49) rotate(-45)"/><rect class="cls-5" x="196.23" y="179.57" width="5.51" height="5.51" transform="translate(-70.64 194.11) rotate(-45)"/><rect class="cls-5" x="200.13" y="175.67" width="5.51" height="5.51" transform="translate(-66.75 195.72) rotate(-45)"/><rect class="cls-5" x="204.02" y="171.78" width="5.51" height="5.51" transform="translate(-62.85 197.33) rotate(-45)"/><rect class="cls-5" x="207.92" y="167.88" width="5.51" height="5.51" transform="translate(-58.95 198.95) rotate(-45)"/><rect class="cls-5" x="211.82" y="163.98" width="5.51" height="5.51" transform="translate(-55.05 200.56) rotate(-45)"/><rect class="cls-5" x="215.72" y="160.09" width="5.51" height="5.51" transform="translate(-51.16 202.18) rotate(-45)"/><rect class="cls-5" x="219.61" y="156.19" width="5.51" height="5.51" transform="translate(-47.26 203.79) rotate(-45)"/><rect class="cls-5" x="223.51" y="152.29" width="5.51" height="5.51" transform="translate(-43.36 205.41) rotate(-45)"/><rect class="cls-5" x="227.41" y="148.39" width="5.51" height="5.51" transform="translate(-39.47 207.02) rotate(-45)"/><rect class="cls-5" x="168.95" y="199.06" width="5.51" height="5.51" transform="translate(-92.41 180.52) rotate(-45)"/><rect class="cls-5" x="172.85" y="195.16" width="5.51" height="5.51" transform="translate(-88.52 182.14) rotate(-45)"/><rect class="cls-5" x="192.33" y="175.67" width="5.51" height="5.51" transform="translate(-69.03 190.21) rotate(-45)"/><rect class="cls-5" x="196.23" y="171.78" width="5.51" height="5.51" transform="translate(-65.13 191.82) rotate(-45)"/><rect class="cls-5" x="200.13" y="167.88" width="5.51" height="5.51" transform="translate(-61.23 193.44) rotate(-45)"/><rect class="cls-5" x="204.02" y="163.98" width="5.51" height="5.51" transform="translate(-57.34 195.05) rotate(-45)"/><rect class="cls-5" x="207.92" y="160.09" width="5.51" height="5.51" transform="translate(-53.44 196.67) rotate(-45)"/><rect class="cls-5" x="219.61" y="148.39" width="5.51" height="5.51" transform="translate(-41.75 201.51) rotate(-45)"/><rect class="cls-5" x="223.72" y="144.41" width="5.27" height="5.51" transform="translate(-37.76 203.16) rotate(-45)"/><rect class="cls-5" x="231.3" y="136.7" width="5.51" height="5.51" transform="translate(-30.06 206.35) rotate(-45)"/><rect class="cls-5" x="235.2" y="132.8" width="5.51" height="5.51" transform="translate(-26.16 207.97) rotate(-45)"/><rect class="cls-5" x="157.26" y="202.96" width="5.51" height="5.51" transform="translate(-98.59 173.4) rotate(-45)"/><rect class="cls-5" x="165.05" y="195.16" width="5.51" height="5.51" transform="translate(-90.8 176.63) rotate(-45)"/><rect class="cls-5" x="168.95" y="191.26" width="5.51" height="5.51" transform="translate(-86.9 178.24) rotate(-45)"/><rect class="cls-5" x="172.85" y="187.37" width="5.51" height="5.51" transform="translate(-83 179.85) rotate(-45)"/><rect class="cls-5" x="188.43" y="171.78" width="5.51" height="5.51" transform="translate(-67.42 186.31) rotate(-45)"/><rect class="cls-5" x="207.92" y="152.29" width="5.51" height="5.51" transform="translate(-47.93 194.38) rotate(-45)"/><rect class="cls-5" x="219.61" y="140.6" width="5.51" height="5.51" transform="translate(-36.24 199.23) rotate(-45)"/><rect class="cls-5" x="227.41" y="132.8" width="5.51" height="5.51" transform="translate(-28.44 202.45) rotate(-45)"/><rect class="cls-5" x="231.3" y="128.91" width="5.51" height="5.51" transform="translate(-24.55 204.07) rotate(-45)"/><rect class="cls-5" x="235.2" y="125.01" width="5.51" height="5.51" transform="translate(-20.65 205.68) rotate(-45)"/><rect class="cls-5" x="153.36" y="199.06" width="5.51" height="5.51" transform="translate(-96.98 169.5) rotate(-45)"/><rect class="cls-5" x="161.15" y="191.26" width="5.51" height="5.51" transform="translate(-89.18 172.73) rotate(-45)"/><rect class="cls-5" x="176.74" y="175.67" width="5.51" height="5.51" transform="translate(-73.6 179.19) rotate(-45)"/><rect class="cls-5" x="180.64" y="171.78" width="5.51" height="5.51" transform="translate(-69.7 180.8) rotate(-45)"/><rect class="cls-5" x="184.54" y="167.88" width="5.51" height="5.51" transform="translate(-65.8 182.41) rotate(-45)"/><rect class="cls-5" x="200.13" y="152.29" width="5.51" height="5.51" transform="translate(-50.21 188.87) rotate(-45)"/><rect class="cls-5" x="204.02" y="148.39" width="5.51" height="5.51" transform="translate(-46.31 190.49) rotate(-45)"/><rect class="cls-5" x="207.92" y="144.5" width="5.51" height="5.51" transform="translate(-42.42 192.1) rotate(-45)"/><rect class="cls-5" x="161.15" y="183.47" width="5.51" height="5.51" transform="translate(-83.67 170.45) rotate(-45)"/><rect class="cls-5" x="168.95" y="175.67" width="5.51" height="5.51" transform="translate(-75.88 173.67) rotate(-45)"/><rect class="cls-5" x="180.64" y="163.98" width="5.51" height="5.51" transform="translate(-64.19 178.52) rotate(-45)"/><rect class="cls-5" x="196.23" y="148.39" width="5.51" height="5.51" transform="translate(-48.6 184.97) rotate(-45)"/><rect class="cls-5" x="200.13" y="144.5" width="5.51" height="5.51" transform="translate(-44.7 186.59) rotate(-45)"/><rect class="cls-5" x="207.92" y="136.7" width="5.51" height="5.51" transform="translate(-36.91 189.82) rotate(-45)"/><rect class="cls-5" x="211.82" y="132.8" width="5.51" height="5.51" transform="translate(-33.01 191.43) rotate(-45)"/><rect class="cls-5" x="227.41" y="117.22" width="5.51" height="5.51" transform="translate(-17.42 197.89) rotate(-45)"/><path d="M230.16,342.12l27.28-27.29-27.28-27.28-27.28,27.28Zm0-7.8-19.48-19.49,19.48-19.48,19.49,19.48Z"/><rect x="221.9" y="306.57" width="16.53" height="16.53" transform="translate(-155.21 254.96) rotate(-45)"/><path d="M117.14,229.09l27.28,27.29,27.28-27.29-27.28-27.28Zm7.8,0,19.48-19.48,19.49,19.48-19.49,19.49Z"/><rect x="136.16" y="220.83" width="16.53" height="16.53" transform="translate(-119.69 169.22) rotate(-45)"/><path d="M343.18,229.09,315.9,201.81l-27.28,27.28,27.28,27.29Zm-7.79,0L315.9,248.58l-19.48-19.49,19.48-19.48Z"/><rect x="307.64" y="220.83" width="16.53" height="16.53" transform="translate(-69.47 290.48) rotate(-45)"/><polyline class="cls-6" points="205.6 127.8 103.12 230.28 205.6 332.77 230.17 357.34 254.74 332.77 357.21 230.28 254.72 127.8"/><polyline class="cls-6" points="254.74 332.77 265.63 343.68 230.17 379.15 194.69 343.68 205.6 332.77"/><polygon class="cls-6" points="265.63 116.89 254.72 127.8 230.17 103.23 205.6 127.8 194.69 116.89 230.17 81.42 265.63 116.89"/><rect x="361.47" y="222.56" width="15.44" height="15.44" transform="translate(270.97 -193.61) rotate(45)"/><rect x="373.76" y="226.32" width="7.92" height="7.92" transform="translate(273.47 -199.64) rotate(45)"/><rect x="384.87" y="228.06" width="4.46" height="4.46" transform="translate(276.21 -206.27) rotate(45)"/><rect x="83.42" y="222.56" width="15.44" height="15.44" transform="translate(-7.25 457.56) rotate(-135)"/><rect x="78.65" y="226.32" width="7.92" height="7.92" transform="translate(-21.81 451.54) rotate(-135)"/><rect x="71.01" y="228.06" width="4.46" height="4.46" transform="translate(-37.81 444.91) rotate(-135)"/><line class="cls-7" x1="258.78" y1="336.03" x2="332.35" y2="262.46"/><line class="cls-7" x1="272.84" y1="328.27" x2="319.99" y2="281.12"/><line class="cls-7" x1="201.35" y1="336.25" x2="127.77" y2="262.67"/><line class="cls-7" x1="188.14" y1="329.34" x2="140.99" y2="282.18"/><ellipse class="cls-8" cx="230.17" cy="230.3" rx="213.16" ry="212.79"/><circle class="cls-9" cx="230.17" cy="230.29" r="156.93"/></svg>