<svg id="Layer_1" data-name="Layer 1" xmlns="http://www.w3.org/2000/svg" viewBox="0 0 597.17 597.17"><defs><style>.cls-1,.cls-5{fill:none;}.cls-1,.cls-2,.cls-5{stroke:#000;stroke-miterlimit:10;}.cls-1,.cls-2{stroke-width:4.12px;}.cls-2{fill:#e25f5f;}.cls-3{fill:#a2a2a1;}.cls-4{fill:#231f20;}.cls-5{stroke-width:3.3px;}</style></defs><path class="cls-1" d="M530.49,298.85h7.08l39.79,0h7.11c0-1.16,0-2.31,0-3.47s0-2.41,0-3.63a287.31,287.31,0,0,0-15.75-90.65c-.12-.37-.27-.74-.39-1.11l-1.3-3.66c-.06-.18-.14-.37-.2-.55a.64.64,0,0,0-.08-.19l-.44-1.18a286.76,286.76,0,0,0-46-80.31c-.16-.21-.35-.44-.51-.66s-.37-.42-.54-.64c-.76-.93-1.5-1.84-2.26-2.73a4.71,4.71,0,0,0-.35-.41s-.06-.09-.1-.13a.53.53,0,0,1-.1-.12.6.6,0,0,1-.11-.12l0,0c-.08-.1-.18-.2-.26-.31a1.93,1.93,0,0,1-.15-.16.65.65,0,0,1-.12-.15,286.78,286.78,0,0,0-70.59-59.78c-.19-.13-.35-.21-.52-.33l-.51-.31s-.1-.07-.15-.09l-3-1.75c-.64-.37-1.27-.75-1.91-1.1a282.52,282.52,0,0,0-86.74-31.88c-.65-.15-1.31-.27-2-.38s-1.17-.22-1.79-.33c-1.05-.18-2.12-.37-3.19-.53a280,280,0,0,0-43.45-3.78c-1.06,0-2.13,0-3.2,0-1.55,0-3.09,0-4.63,0h-.16a285.94,285.94,0,0,0-40.82,3.59c-1.67.27-3.33.56-5,.85l-2,.37a282.51,282.51,0,0,0-86.8,31.54c-2,1.11-3.93,2.25-5.86,3.38a1.53,1.53,0,0,1-.27.17A287.08,287.08,0,0,0,82.39,107.7c-.7.8-1.4,1.61-2.08,2.43q-1.26,1.49-2.49,3a286.59,286.59,0,0,0-46.53,80.6l-.19.46a3.24,3.24,0,0,0-.16.47.15.15,0,0,0,0,.08l-1.63,4.49c-.1.24-.18.49-.27.74s-.1.29-.14.43a287.51,287.51,0,0,0-16,91.41c0,1.18,0,2.37,0,3.55s0,2.38,0,3.57H111.5Zm29.14-102-37.44,13.61a238.29,238.29,0,0,0-37.9-66.17l30.53-25.61A280.12,280.12,0,0,1,559.63,196.83Zm-436-54.23a233,233,0,0,1,56.4-47.36l22.27,38.89a189,189,0,0,0-44.5,37.38Zm29.61,34.34A187.83,187.83,0,0,0,124,227.64L82,212.28A232.57,232.57,0,0,1,119.09,148Zm32.92-85.25a228.82,228.82,0,0,1,69.17-25.13L263,110.77a185.35,185.35,0,0,0-54.55,19.83Zm76.16-26.35a232.88,232.88,0,0,1,73.52.14L328,109.68a184.6,184.6,0,0,0-26.16-2.27c-1.06,0-2.13,0-3.2,0-1.61,0-3.21,0-4.79.06A188.89,188.89,0,0,0,270,109.55Zm1.91,52.43L291.76,276,212,136.77A178,178,0,0,1,264.26,117.77Zm7-1.21a180.45,180.45,0,0,1,55.54.12l-28,158.13Zm62.51,1.36A176.9,176.9,0,0,1,386,137.15L305.7,276.24Zm1.23-7,7.84-44.2A229.53,229.53,0,0,1,412,92.14L389.55,131A184.62,184.62,0,0,0,335,110.92Zm83.08-15.2a232.71,232.71,0,0,1,56.26,47.64l-34.28,28.79a188.22,188.22,0,0,0-44.4-37.61Zm60.78,53.11a231.91,231.91,0,0,1,36.68,64l-42,15.26a187.45,187.45,0,0,0-28.95-50.52ZM441.58,55a280.77,280.77,0,0,1,68.7,58.18l-30.52,25.63a239.43,239.43,0,0,0-58.15-49.26ZM351,20.42a274.87,274.87,0,0,1,84.41,31L415.51,86a235,235,0,0,0-71.44-26.27Zm-52.37-5a278.61,278.61,0,0,1,45.4,3.7l-7,39.34a232.44,232.44,0,0,0-35.23-3.07c-1.06,0-2.13,0-3.2,0-1.61,0-3.21,0-4.79.07a232.17,232.17,0,0,0-32.74,2.89h0L254.29,19A278.8,278.8,0,0,1,298.67,15.46ZM247.3,20.21l6.85,39.37a234.79,234.79,0,0,0-71.48,26L162.83,50.9A276.1,276.1,0,0,1,247.3,20.21ZM156.7,54.43l19.84,34.66A239.2,239.2,0,0,0,118.25,138L87.84,112.3A280.92,280.92,0,0,1,156.7,54.43Zm-73.43,63.3,30.41,25.74a239.4,239.4,0,0,0-38.33,66.39L38,196.17A280.3,280.3,0,0,1,83.27,117.73ZM20,291.81a280.59,280.59,0,0,1,15.56-88.95l37.39,13.67a239.83,239.83,0,0,0-13.16,75.28Zm46.86,0A233.14,233.14,0,0,1,79.57,219l42,15.36a187.84,187.84,0,0,0-10.06,57.5Zm51.76,0a181.29,181.29,0,0,1,9.62-55.06l150.56,55.06Zm12.05-61.73a179.83,179.83,0,0,1,28-48.53L281.13,285.12Zm32.61-54a179.39,179.39,0,0,1,42.61-35.77l79.74,139.25ZM392.1,140.7a181.21,181.21,0,0,1,42.53,36L311.81,279.77Zm47,41.47a180,180,0,0,1,27.7,48.36L316.39,285.2ZM318.9,291.87l150.38-54.64a181.26,181.26,0,0,1,9.46,54.56Zm166.93-.1a188.86,188.86,0,0,0-9.87-57l42-15.26a232.5,232.5,0,0,1,12.54,72.22Zm51.74,0a239.6,239.6,0,0,0-13-74.64L562,203.52a280.79,280.79,0,0,1,15.32,88.21Z"/><path class="cls-2" d="M407.76,291.92H189.57c0-60.51,48.84-109.57,109.1-109.57S407.76,231.41,407.76,291.92Z"/><line class="cls-3" x1="521.71" y1="196.12" x2="535.05" y2="201.23"/><path class="cls-4" d="M521.71,196.12a10.76,10.76,0,0,1,3.91-.23,15.19,15.19,0,0,1,3.5.86,14.75,14.75,0,0,1,3.18,1.69,10.44,10.44,0,0,1,2.75,2.79,10.37,10.37,0,0,1-3.91.24,14.59,14.59,0,0,1-3.5-.87,14,14,0,0,1-3.17-1.69A10.33,10.33,0,0,1,521.71,196.12Z"/><line class="cls-3" x1="515.89" y1="183.63" x2="548.25" y2="196.01"/><path class="cls-4" d="M515.89,183.63a49.33,49.33,0,0,1,8.67,1.59,84.45,84.45,0,0,1,8.25,2.68,83.38,83.38,0,0,1,7.93,3.5,49.35,49.35,0,0,1,7.51,4.61,49.32,49.32,0,0,1-8.67-1.58,85.49,85.49,0,0,1-16.18-6.2A49.28,49.28,0,0,1,515.89,183.63Z"/><line class="cls-3" x1="508.91" y1="170.69" x2="550.54" y2="186.62"/><path class="cls-4" d="M508.91,170.69a79.83,79.83,0,0,1,11,2.47q5.37,1.58,10.57,3.57t10.25,4.39a79.3,79.3,0,0,1,9.83,5.5,79.83,79.83,0,0,1-11-2.47q-5.37-1.58-10.57-3.57t-10.25-4.4A80.54,80.54,0,0,1,508.91,170.69Z"/><line class="cls-3" x1="500.49" y1="157.2" x2="544.91" y2="174.2"/><path class="cls-4" d="M500.49,157.2a90.59,90.59,0,0,1,11.68,2.74c3.81,1.13,7.56,2.42,11.27,3.83s7.35,3,10.95,4.66a89.21,89.21,0,0,1,10.52,5.77,90.59,90.59,0,0,1-11.68-2.74c-3.81-1.13-7.57-2.42-11.27-3.84s-7.35-3-10.94-4.66A91.41,91.41,0,0,1,500.49,157.2Z"/><line class="cls-3" x1="491.37" y1="143.44" x2="538.29" y2="161.39"/><path class="cls-4" d="M491.37,143.44a102.74,102.74,0,0,1,12.31,3c4,1.21,8,2.58,11.88,4.07s7.77,3.12,11.58,4.9a101.77,101.77,0,0,1,11.15,6,100.39,100.39,0,0,1-12.31-3q-6-1.83-11.89-4.08c-3.91-1.5-7.77-3.12-11.57-4.9A102.57,102.57,0,0,1,491.37,143.44Z"/><line class="cls-3" x1="499.69" y1="136.35" x2="530.47" y2="148.13"/><path class="cls-4" d="M499.69,136.35a45.67,45.67,0,0,1,8.27,1.44,77.62,77.62,0,0,1,15.39,5.88,45,45,0,0,1,7.12,4.46,44.92,44.92,0,0,1-8.28-1.43,75.58,75.58,0,0,1-7.85-2.53,77.83,77.83,0,0,1-7.53-3.36A44.5,44.5,0,0,1,499.69,136.35Z"/><line class="cls-3" x1="507.51" y1="129.08" x2="521.17" y2="134.31"/><path class="cls-4" d="M507.51,129.08a10.94,10.94,0,0,1,4-.2,15.29,15.29,0,0,1,6.84,2.61,10.81,10.81,0,0,1,2.83,2.82,10.93,10.93,0,0,1-4,.2,14.59,14.59,0,0,1-3.57-.89,15.25,15.25,0,0,1-3.26-1.73A11.11,11.11,0,0,1,507.51,129.08Z"/><line class="cls-3" x1="501.47" y1="213.99" x2="504.04" y2="199.08"/><path class="cls-4" d="M501.47,214a11.51,11.51,0,0,1-1-4,16.59,16.59,0,0,1,1.28-7.46,11.5,11.5,0,0,1,2.24-3.45,11.32,11.32,0,0,1,1,4,16.66,16.66,0,0,1-.21,3.81,16.08,16.08,0,0,1-1.09,3.65A11.27,11.27,0,0,1,501.47,214Z"/><line class="cls-3" x1="491.15" y1="217.36" x2="496.79" y2="184.69"/><path class="cls-4" d="M491.15,217.36a46,46,0,0,1-.18-8.44,77.08,77.08,0,0,1,2.82-16.34,45.13,45.13,0,0,1,3-7.89,44.29,44.29,0,0,1,.19,8.44,73.39,73.39,0,0,1-1,8.25,75.67,75.67,0,0,1-1.85,8.09A45.43,45.43,0,0,1,491.15,217.36Z"/><line class="cls-3" x1="480.75" y1="221.2" x2="489.25" y2="171.99"/><path class="cls-4" d="M480.75,221.2a101.07,101.07,0,0,1,.54-12.58c.41-4.15,1-8.27,1.68-12.37s1.55-8.18,2.56-12.23a99.27,99.27,0,0,1,3.72-12,99.19,99.19,0,0,1-.53,12.58Q488.11,190.8,487,197t-2.56,12.22A98.73,98.73,0,0,1,480.75,221.2Z"/><line class="cls-3" x1="472.76" y1="211.13" x2="481.48" y2="160.62"/><path class="cls-4" d="M472.76,211.13a104.19,104.19,0,0,1,.59-12.9c.42-4.26,1-8.49,1.74-12.7s1.59-8.4,2.61-12.56a105,105,0,0,1,3.78-12.35,104.44,104.44,0,0,1-.59,12.91q-.64,6.39-1.74,12.7t-2.62,12.55A106.24,106.24,0,0,1,472.76,211.13Z"/><line class="cls-3" x1="465.45" y1="197.08" x2="471.81" y2="160.22"/><path class="cls-4" d="M465.45,197.08a56.74,56.74,0,0,1,0-9.49c.23-3.12.62-6.22,1.15-9.29a93.23,93.23,0,0,1,2-9.14,57.19,57.19,0,0,1,3.19-8.94,57.84,57.84,0,0,1,0,9.49c-.24,3.13-.63,6.22-1.16,9.29s-1.2,6.12-2,9.14A57.8,57.8,0,0,1,465.45,197.08Z"/><line class="cls-3" x1="457.82" y1="184.88" x2="460.47" y2="169.51"/><path class="cls-4" d="M457.82,184.88a12.09,12.09,0,0,1-.93-4.12,17.63,17.63,0,0,1,.22-3.92,17,17,0,0,1,1.1-3.76,11.88,11.88,0,0,1,2.26-3.57,11.86,11.86,0,0,1,.93,4.12,16.4,16.4,0,0,1-.23,3.91,17.08,17.08,0,0,1-1.1,3.77A12,12,0,0,1,457.82,184.88Z"/><line class="cls-3" x1="515.22" y1="229.65" x2="510.04" y2="226.76"/><path class="cls-4" d="M515.22,229.65a4.42,4.42,0,0,1-2.09.69,2.86,2.86,0,0,1-1.51-.34,2.7,2.7,0,0,1-1.07-1.1,4.45,4.45,0,0,1-.51-2.14,4.31,4.31,0,0,1,2.09-.69,2.75,2.75,0,0,1,1.51.34,2.8,2.8,0,0,1,1.07,1.11A4.43,4.43,0,0,1,515.22,229.65Z"/><line class="cls-3" x1="518.83" y1="242.76" x2="496.89" y2="230.48"/><path class="cls-4" d="M518.83,242.76a27.1,27.1,0,0,1-6.28-1.66,44.9,44.9,0,0,1-5.7-2.68,43.07,43.07,0,0,1-5.27-3.46,27.08,27.08,0,0,1-4.69-4.48,27,27,0,0,1,6.27,1.65,43.7,43.7,0,0,1,5.7,2.69,45.53,45.53,0,0,1,5.27,3.46A27.91,27.91,0,0,1,518.83,242.76Z"/><line class="cls-3" x1="521.26" y1="255.22" x2="485.5" y2="235.19"/><path class="cls-4" d="M521.26,255.22a68.75,68.75,0,0,1-9.72-3.6q-4.69-2.12-9.16-4.62c-3-1.67-5.9-3.46-8.73-5.39a67.78,67.78,0,0,1-8.15-6.42,67.75,67.75,0,0,1,9.74,3.59q4.68,2.11,9.15,4.62c3,1.68,5.89,3.47,8.72,5.4A67,67,0,0,1,521.26,255.22Z"/><line class="cls-3" x1="522.93" y1="267.23" x2="485.13" y2="246.07"/><path class="cls-4" d="M522.93,267.23a74.78,74.78,0,0,1-10.24-3.88q-5-2.25-9.67-4.9t-9.23-5.68a75.38,75.38,0,0,1-8.66-6.7A73.5,73.5,0,0,1,495.37,250q5,2.25,9.67,4.9c3.14,1.77,6.23,3.66,9.23,5.68A78.62,78.62,0,0,1,522.93,267.23Z"/><line class="cls-3" x1="524.28" y1="279.08" x2="487.8" y2="258.65"/><path class="cls-4" d="M524.28,279.08a70.77,70.77,0,0,1-9.91-3.7q-4.77-2.16-9.33-4.72c-3.05-1.7-6-3.52-8.91-5.49a69.62,69.62,0,0,1-8.33-6.52,69.81,69.81,0,0,1,9.91,3.69q4.79,2.16,9.34,4.73t8.9,5.49A70.65,70.65,0,0,1,524.28,279.08Z"/><line class="cls-3" x1="520.85" y1="287.84" x2="489.54" y2="270.74"/><path class="cls-4" d="M520.85,287.84a52.9,52.9,0,0,1-8.6-2.86,90,90,0,0,1-15.66-8.55,51.21,51.21,0,0,1-7-5.69,51,51,0,0,1,8.6,2.85,87.52,87.52,0,0,1,8,3.89,88.51,88.51,0,0,1,7.61,4.66A52,52,0,0,1,520.85,287.84Z"/><line class="cls-3" x1="500.99" y1="288.21" x2="490.47" y2="282.32"/><path class="cls-4" d="M501,288.21a8.46,8.46,0,0,1-3.42-.06,10.65,10.65,0,0,1-2.85-1.09,10.33,10.33,0,0,1-2.41-1.85,8.36,8.36,0,0,1-1.84-2.89,8.28,8.28,0,0,1,3.42.06,10.21,10.21,0,0,1,2.85,1.09,10.66,10.66,0,0,1,2.41,1.86A8.4,8.4,0,0,1,501,288.21Z"/><line class="cls-3" x1="543" y1="215.23" x2="533.44" y2="230.17"/><path class="cls-4" d="M543,215.23a14.89,14.89,0,0,1-1,4.61,22.07,22.07,0,0,1-2,4,21.52,21.52,0,0,1-2.77,3.5,14.63,14.63,0,0,1-3.75,2.86,14.54,14.54,0,0,1,1-4.61,21.47,21.47,0,0,1,2-4,22.4,22.4,0,0,1,2.76-3.49A15,15,0,0,1,543,215.23Z"/><line class="cls-3" x1="558.69" y1="208.49" x2="536.47" y2="243.18"/><path class="cls-4" d="M558.69,208.49A68.56,68.56,0,0,1,554.5,218c-1.6,3.06-3.34,6-5.19,8.92s-3.81,5.7-5.92,8.43a68.6,68.6,0,0,1-6.92,7.8,68.56,68.56,0,0,1,4.19-9.54q2.4-4.59,5.19-8.92c1.85-2.88,3.82-5.7,5.93-8.43A68.5,68.5,0,0,1,558.69,208.49Z"/><line class="cls-3" x1="562.3" y1="220.61" x2="538.89" y2="257.15"/><path class="cls-4" d="M562.3,220.61a75.77,75.77,0,0,1-4.49,10q-2.55,4.81-5.48,9.38t-6.23,8.9a73.78,73.78,0,0,1-7.21,8.26,75.19,75.19,0,0,1,4.49-10q2.54-4.81,5.48-9.37t6.23-8.9A75.74,75.74,0,0,1,562.3,220.61Z"/><line class="cls-3" x1="565.45" y1="233.43" x2="540.56" y2="272.28"/><path class="cls-4" d="M565.45,233.43A85.36,85.36,0,0,1,560.59,244q-2.73,5.1-5.85,10t-6.59,9.47a83.22,83.22,0,0,1-7.59,8.84,85.36,85.36,0,0,1,4.86-10.58c1.82-3.4,3.78-6.72,5.85-9.95s4.27-6.4,6.6-9.48A86.56,86.56,0,0,1,565.45,233.43Z"/><line class="cls-3" x1="568.08" y1="247.07" x2="541.32" y2="288.85"/><path class="cls-4" d="M568.08,247.07a96.64,96.64,0,0,1-5.33,11.31q-3,5.47-6.31,10.69t-7.06,10.21a99.57,99.57,0,0,1-8.06,9.57,98.43,98.43,0,0,1,5.33-11.32c2-3.65,4.09-7.2,6.32-10.68s4.58-6.89,7.06-10.21A100.93,100.93,0,0,1,568.08,247.07Z"/><line class="cls-3" x1="570.1" y1="261.67" x2="553.95" y2="286.88"/><path class="cls-4" d="M570.1,261.67a37.43,37.43,0,0,1-2.68,7.17,61.44,61.44,0,0,1-3.66,6.54,60.54,60.54,0,0,1-4.41,6.07,36.93,36.93,0,0,1-5.4,5.43,37.28,37.28,0,0,1,2.68-7.18,61.44,61.44,0,0,1,3.66-6.54,63.25,63.25,0,0,1,4.41-6.06A37.94,37.94,0,0,1,570.1,261.67Z"/><line class="cls-3" x1="571.38" y1="277.42" x2="565.07" y2="287.27"/><path class="cls-4" d="M571.38,277.42a8.05,8.05,0,0,1-.22,3.34,10,10,0,0,1-1.2,2.7,9.73,9.73,0,0,1-2,2.22,7.92,7.92,0,0,1-2.94,1.59,8,8,0,0,1,.21-3.34,9.91,9.91,0,0,1,3.16-4.92A8.06,8.06,0,0,1,571.38,277.42Z"/><line class="cls-3" x1="406.6" y1="75.53" x2="420.05" y2="70.7"/><path class="cls-4" d="M406.6,75.53a10.67,10.67,0,0,1,2.82-2.73,15.16,15.16,0,0,1,3.21-1.63,14.67,14.67,0,0,1,3.51-.79,10.47,10.47,0,0,1,3.91.32,10.49,10.49,0,0,1-2.81,2.73A14.1,14.1,0,0,1,414,75.05a14.67,14.67,0,0,1-3.51.79A10.66,10.66,0,0,1,406.6,75.53Z"/><line class="cls-3" x1="394.1" y1="69.83" x2="426.71" y2="58.12"/><path class="cls-4" d="M394.1,69.83a50.06,50.06,0,0,1,7.6-4.45,84.69,84.69,0,0,1,8-3.35,81.06,81.06,0,0,1,8.3-2.51,47.71,47.71,0,0,1,8.7-1.4,49.67,49.67,0,0,1-7.61,4.45,80.87,80.87,0,0,1-8,3.34,81.82,81.82,0,0,1-8.3,2.51A48.89,48.89,0,0,1,394.1,69.83Z"/><line class="cls-3" x1="380.42" y1="64.55" x2="422.37" y2="49.48"/><path class="cls-4" d="M380.42,64.55a79.05,79.05,0,0,1,9.94-5.28c3.39-1.55,6.84-2.93,10.34-4.19s7-2.38,10.63-3.36a80.54,80.54,0,0,1,11-2.24,77.84,77.84,0,0,1-9.94,5.29q-5.08,2.31-10.34,4.19T391.45,62.3A79,79,0,0,1,380.42,64.55Z"/><line class="cls-3" x1="365.29" y1="59.8" x2="410.05" y2="43.72"/><path class="cls-4" d="M365.29,59.8a91.18,91.18,0,0,1,10.64-5.54c3.63-1.63,7.31-3.1,11-4.44s7.51-2.55,11.34-3.61a89.63,89.63,0,0,1,11.74-2.49,91.18,91.18,0,0,1-10.64,5.54q-5.45,2.43-11,4.43C384.63,55,380.86,56.24,377,57.3A92.88,92.88,0,0,1,365.29,59.8Z"/><line class="cls-3" x1="349.46" y1="55.29" x2="396.73" y2="38.31"/><path class="cls-4" d="M349.46,55.29a101.39,101.39,0,0,1,11.27-5.76q5.76-2.55,11.67-4.67t12-3.83a99.72,99.72,0,0,1,12.37-2.72,99.79,99.79,0,0,1-11.27,5.77q-5.76,2.55-11.67,4.66c-3.94,1.41-7.93,2.7-12,3.83A103.32,103.32,0,0,1,349.46,55.29Z"/><line class="cls-3" x1="351.19" y1="44.48" x2="382.2" y2="33.34"/><path class="cls-4" d="M351.19,44.48a45.19,45.19,0,0,1,7.21-4.31A76.41,76.41,0,0,1,366,37a74.74,74.74,0,0,1,7.9-2.37,44.44,44.44,0,0,1,8.3-1.26,44.67,44.67,0,0,1-7.2,4.31,73.28,73.28,0,0,1-7.61,3.19,73.35,73.35,0,0,1-7.9,2.37A45.16,45.16,0,0,1,351.19,44.48Z"/><line class="cls-3" x1="352.43" y1="33.84" x2="366.19" y2="28.9"/><path class="cls-4" d="M352.43,33.84a11.23,11.23,0,0,1,2.9-2.76,15.13,15.13,0,0,1,3.29-1.65,14.32,14.32,0,0,1,3.59-.82,10.58,10.58,0,0,1,4,.29,10.72,10.72,0,0,1-2.89,2.76A15.13,15.13,0,0,1,360,33.31a15.35,15.35,0,0,1-3.59.81A11,11,0,0,1,352.43,33.84Z"/><line class="cls-3" x1="401.3" y1="101.08" x2="393.61" y2="88.06"/><path class="cls-4" d="M401.3,101.08A11.26,11.26,0,0,1,398,98.64a16.24,16.24,0,0,1-2.31-3,16,16,0,0,1-1.54-3.48,11.28,11.28,0,0,1-.53-4.08,11.6,11.6,0,0,1,3.32,2.43A16.39,16.39,0,0,1,400.77,97,11.8,11.8,0,0,1,401.3,101.08Z"/><line class="cls-3" x1="395.64" y1="110.37" x2="378.79" y2="81.86"/><path class="cls-4" d="M395.64,110.37a44.87,44.87,0,0,1-5.6-6.31,77.86,77.86,0,0,1-8.44-14.25,44.28,44.28,0,0,1-2.81-8,44.73,44.73,0,0,1,5.6,6.3,77.59,77.59,0,0,1,8.43,14.26A45.38,45.38,0,0,1,395.64,110.37Z"/><line class="cls-3" x1="390.22" y1="120.08" x2="364.84" y2="77.13"/><path class="cls-4" d="M390.22,120.08a98.65,98.65,0,0,1-7.73-9.92c-2.38-3.42-4.62-6.93-6.73-10.5s-4.12-7.23-6-11a98.16,98.16,0,0,1-5-11.57,100.23,100.23,0,0,1,7.74,9.92q3.56,5.13,6.72,10.51t6,11A99.72,99.72,0,0,1,390.22,120.08Z"/><line class="cls-3" x1="377.63" y1="117.64" x2="351.57" y2="73.57"/><path class="cls-4" d="M377.63,117.64a106.55,106.55,0,0,1-7.91-10.19q-3.64-5.28-6.89-10.8t-6.14-11.24a104.87,104.87,0,0,1-5.12-11.84,103.42,103.42,0,0,1,7.91,10.19q3.64,5.28,6.89,10.8t6.13,11.24A104.93,104.93,0,0,1,377.63,117.64Z"/><line class="cls-3" x1="362.98" y1="111.74" x2="343.97" y2="79.57"/><path class="cls-4" d="M363,111.74a57.09,57.09,0,0,1-6.14-7.22c-1.85-2.53-3.55-5.14-5.14-7.82a92.91,92.91,0,0,1-4.37-8.26A54.82,54.82,0,0,1,344,79.57a56.28,56.28,0,0,1,6.14,7.22q2.77,3.79,5.14,7.82t4.37,8.26A57.13,57.13,0,0,1,363,111.74Z"/><line class="cls-3" x1="349.29" y1="107.44" x2="341.36" y2="94.04"/><path class="cls-4" d="M349.29,107.44a12,12,0,0,1-3.38-2.53,17.27,17.27,0,0,1-4-6.7,11.83,11.83,0,0,1-.59-4.17,12.13,12.13,0,0,1,3.38,2.52,17.25,17.25,0,0,1,2.36,3.13,17.73,17.73,0,0,1,1.59,3.58A12.06,12.06,0,0,1,349.29,107.44Z"/><line class="cls-3" x1="423.5" y1="104.54" x2="417.69" y2="105.71"/><path class="cls-4" d="M423.5,104.54a4.59,4.59,0,0,1-1.13,1.88,2.89,2.89,0,0,1-1.36.73,2.76,2.76,0,0,1-1.54-.14,4.45,4.45,0,0,1-1.78-1.3,4.46,4.46,0,0,1,1.13-1.88,2.73,2.73,0,0,1,2.91-.58A4.49,4.49,0,0,1,423.5,104.54Z"/><line class="cls-3" x1="434.73" y1="112.14" x2="410.1" y2="117.13"/><path class="cls-4" d="M434.73,112.15a27,27,0,0,1-5.84,2.82,43.43,43.43,0,0,1-6.07,1.69,44.75,44.75,0,0,1-6.24.81,27.39,27.39,0,0,1-6.48-.34,26.88,26.88,0,0,1,5.84-2.84,45.19,45.19,0,0,1,12.31-2.48A26.88,26.88,0,0,1,434.73,112.15Z"/><line class="cls-3" x1="444.64" y1="120.02" x2="404.5" y2="128.14"/><path class="cls-4" d="M444.64,120a68.71,68.71,0,0,1-9.72,3.61Q430,125.09,425,126.1c-3.35.68-6.72,1.22-10.13,1.6a68.34,68.34,0,0,1-10.35.44,67,67,0,0,1,9.71-3.62q4.94-1.45,10-2.46c3.34-.67,6.72-1.21,10.12-1.59A67.19,67.19,0,0,1,444.64,120Z"/><line class="cls-3" x1="453.68" y1="128.07" x2="411.26" y2="136.65"/><path class="cls-4" d="M453.68,128.07a76.46,76.46,0,0,1-10.29,3.73c-3.47,1-7,1.86-10.51,2.58s-7.1,1.29-10.69,1.71a73.44,73.44,0,0,1-10.93.56,73.23,73.23,0,0,1,10.28-3.73c3.48-1,7-1.87,10.52-2.58s7.1-1.29,10.69-1.71A76.15,76.15,0,0,1,453.68,128.07Z"/><line class="cls-3" x1="462.38" y1="136.18" x2="421.42" y2="144.47"/><path class="cls-4" d="M462.38,136.18a70.17,70.17,0,0,1-9.92,3.66c-3.35,1-6.74,1.81-10.15,2.51S435.46,143.59,432,144a69.73,69.73,0,0,1-10.56.48,70.17,70.17,0,0,1,9.92-3.66q5-1.47,10.15-2.5c3.41-.69,6.86-1.24,10.33-1.64A72.42,72.42,0,0,1,462.38,136.18Z"/><line class="cls-3" x1="465.43" y1="145.08" x2="430.57" y2="152.52"/><path class="cls-4" d="M465.43,145.08a51.5,51.5,0,0,1-8.38,3.44,87,87,0,0,1-8.62,2.3c-2.91.62-5.84,1.1-8.81,1.43a51.36,51.36,0,0,1-9.05.27,51.4,51.4,0,0,1,8.37-3.44,84.41,84.41,0,0,1,8.63-2.29q4.35-.93,8.81-1.43A53.35,53.35,0,0,1,465.43,145.08Z"/><line class="cls-3" x1="450.58" y1="158.33" x2="438.77" y2="160.72"/><path class="cls-4" d="M450.58,158.33a8.33,8.33,0,0,1-2.63,2.18,10.53,10.53,0,0,1-5.9,1.2,8.29,8.29,0,0,1-3.28-1,8.35,8.35,0,0,1,2.63-2.19,10.47,10.47,0,0,1,5.91-1.19A8.37,8.37,0,0,1,450.58,158.33Z"/><line class="cls-3" x1="435.29" y1="75.44" x2="437.68" y2="93.03"/><path class="cls-4" d="M435.29,75.44a14.87,14.87,0,0,1,2.19,4.18,22.11,22.11,0,0,1,1,4.34,21.39,21.39,0,0,1,.17,4.46,14.85,14.85,0,0,1-1,4.61,14.52,14.52,0,0,1-2.2-4.18,22.34,22.34,0,0,1-1.2-8.79A14.91,14.91,0,0,1,435.29,75.44Z"/><line class="cls-3" x1="442.84" y1="60.08" x2="448.41" y2="100.95"/><path class="cls-4" d="M442.84,60.08a68.52,68.52,0,0,1,3,10c.77,3.36,1.37,6.75,1.84,10.15s.79,6.83.95,10.28a68.87,68.87,0,0,1-.21,10.44,67.72,67.72,0,0,1-3-10c-.76-3.37-1.37-6.75-1.83-10.16s-.78-6.83-.95-10.28A70.06,70.06,0,0,1,442.84,60.08Z"/><line class="cls-3" x1="453.43" y1="66.93" x2="459.29" y2="109.99"/><path class="cls-4" d="M453.43,66.93a75.8,75.8,0,0,1,3.06,10.55q1.18,5.31,1.91,10.7c.49,3.59.84,7.2,1,10.82a76.21,76.21,0,0,1-.14,11,74.51,74.51,0,0,1-3.07-10.55q-1.19-5.32-1.91-10.7c-.48-3.59-.83-7.2-1-10.83A76.07,76.07,0,0,1,453.43,66.93Z"/><line class="cls-3" x1="464.12" y1="74.62" x2="470.35" y2="120.39"/><path class="cls-4" d="M464.12,74.62a87.28,87.28,0,0,1,3.16,11.22q1.23,5.67,2,11.39t1.12,11.5a85.65,85.65,0,0,1,0,11.66,85.69,85.69,0,0,1-3.16-11.22q-1.23-5.67-2-11.39c-.51-3.81-.89-7.65-1.11-11.5A87.29,87.29,0,0,1,464.12,74.62Z"/><line class="cls-3" x1="474.95" y1="83.27" x2="481.65" y2="132.48"/><path class="cls-4" d="M475,83.27a98.62,98.62,0,0,1,3.27,12.08q1.29,6.09,2.12,12.25T481.58,120a100.52,100.52,0,0,1,.07,12.52,96.91,96.91,0,0,1-3.28-12.08q-1.29-6.09-2.11-12.25T475,95.79A100.52,100.52,0,0,1,475,83.27Z"/><line class="cls-3" x1="485.93" y1="93.04" x2="489.97" y2="122.74"/><path class="cls-4" d="M485.93,93a38.31,38.31,0,0,1,2.61,7.21,64.4,64.4,0,0,1,1.45,7.37,60,60,0,0,1,.57,7.48,36.82,36.82,0,0,1-.59,7.64,37.58,37.58,0,0,1-2.62-7.2,64.24,64.24,0,0,1-2-14.85A37.61,37.61,0,0,1,485.93,93Z"/><line class="cls-3" x1="497.09" y1="104.19" x2="498.67" y2="115.78"/><path class="cls-4" d="M497.09,104.19a8,8,0,0,1,2,2.68,9.72,9.72,0,0,1,.83,2.84,9.43,9.43,0,0,1,0,3,7.87,7.87,0,0,1-1.21,3.12,8,8,0,0,1-2-2.68,9.72,9.72,0,0,1-.83-2.84,9.82,9.82,0,0,1,.05-3A8,8,0,0,1,497.09,104.19Z"/><line class="cls-3" x1="240.16" y1="56.81" x2="247.25" y2="44.36"/><path class="cls-4" d="M240.16,56.81a10.71,10.71,0,0,1,.37-3.91,14.45,14.45,0,0,1,1.39-3.33,14.24,14.24,0,0,1,2.15-2.9,10.61,10.61,0,0,1,3.18-2.31,10.58,10.58,0,0,1-.36,3.92,14.82,14.82,0,0,1-1.39,3.33,15.33,15.33,0,0,1-2.16,2.89A10.61,10.61,0,0,1,240.16,56.81Z"/><line class="cls-3" x1="226.97" y1="60.64" x2="244.17" y2="30.46"/><path class="cls-4" d="M227,60.64a49.74,49.74,0,0,1,2.89-8.34,84.3,84.3,0,0,1,3.92-7.77,81.83,81.83,0,0,1,4.68-7.33,48.88,48.88,0,0,1,5.71-6.74,49.74,49.74,0,0,1-2.89,8.34,85.56,85.56,0,0,1-3.92,7.77,85.78,85.78,0,0,1-4.69,7.33A50.12,50.12,0,0,1,227,60.64Z"/><line class="cls-3" x1="213.15" y1="65.56" x2="235.28" y2="26.72"/><path class="cls-4" d="M213.15,65.56a82.8,82.8,0,0,1,4.13-10.51q2.39-5.07,5.15-9.93t5.91-9.49a80.23,80.23,0,0,1,6.94-8.91,78.11,78.11,0,0,1-4.12,10.52q-2.37,5.07-5.15,9.92c-1.85,3.24-3.81,6.4-5.92,9.49A79.32,79.32,0,0,1,213.15,65.56Z"/><line class="cls-3" x1="198.58" y1="71.82" x2="222.19" y2="30.38"/><path class="cls-4" d="M198.58,71.82a92.89,92.89,0,0,1,4.5-11.16c1.7-3.6,3.55-7.12,5.51-10.58s4.06-6.84,6.29-10.14a91,91,0,0,1,7.31-9.56,91.53,91.53,0,0,1-4.49,11.16q-2.56,5.41-5.53,10.58t-6.29,10.14A91.19,91.19,0,0,1,198.58,71.82Z"/><line class="cls-3" x1="183.63" y1="78.73" x2="208.57" y2="34.97"/><path class="cls-4" d="M183.63,78.73A102.55,102.55,0,0,1,188.46,67q2.73-5.68,5.85-11.16t6.62-10.72A100,100,0,0,1,208.57,35a100.78,100.78,0,0,1-4.83,11.74c-1.81,3.8-3.77,7.52-5.85,11.16s-4.28,7.22-6.62,10.72A103.05,103.05,0,0,1,183.63,78.73Z"/><line class="cls-3" x1="177.95" y1="69.38" x2="194.31" y2="40.67"/><path class="cls-4" d="M178,69.38a44.83,44.83,0,0,1,2.69-8,76,76,0,0,1,3.7-7.39,74.78,74.78,0,0,1,4.47-7,44.53,44.53,0,0,1,5.5-6.38,44.54,44.54,0,0,1-2.68,8,75.17,75.17,0,0,1-3.71,7.4,74,74,0,0,1-4.48,7A44.45,44.45,0,0,1,178,69.38Z"/><line class="cls-3" x1="172.01" y1="60.49" x2="179.27" y2="47.75"/><path class="cls-4" d="M172,60.49a10.91,10.91,0,0,1,.41-4,15.28,15.28,0,0,1,1.43-3.4,14.64,14.64,0,0,1,2.2-3,10.84,10.84,0,0,1,3.22-2.38,10.85,10.85,0,0,1-.41,4,14.72,14.72,0,0,1-1.43,3.41,15.68,15.68,0,0,1-2.2,3A11,11,0,0,1,172,60.49Z"/><line class="cls-3" x1="253.5" y1="80.75" x2="239.23" y2="75.88"/><path class="cls-4" d="M253.5,80.75a11.62,11.62,0,0,1-4.09.31,16.46,16.46,0,0,1-3.71-.8,15.75,15.75,0,0,1-3.42-1.63,11.49,11.49,0,0,1-3.05-2.75,11.42,11.42,0,0,1,4.09-.32,15.71,15.71,0,0,1,3.71.8A16.59,16.59,0,0,1,250.46,78,11.45,11.45,0,0,1,253.5,80.75Z"/><line class="cls-3" x1="255.21" y1="91.5" x2="223.96" y2="80.84"/><path class="cls-4" d="M255.21,91.5a45.54,45.54,0,0,1-8.33-1.13,76.24,76.24,0,0,1-8-2.25A73.49,73.49,0,0,1,231.25,85a44.06,44.06,0,0,1-7.29-4.2A44.58,44.58,0,0,1,232.29,82a73.87,73.87,0,0,1,8,2.25,75.37,75.37,0,0,1,7.67,3.09A45.57,45.57,0,0,1,255.21,91.5Z"/><line class="cls-3" x1="257.38" y1="102.42" x2="210.29" y2="86.35"/><path class="cls-4" d="M257.38,102.42a100.16,100.16,0,0,1-12.29-2.49c-4-1.05-8-2.26-11.92-3.6s-7.8-2.8-11.63-4.43a98.59,98.59,0,0,1-11.25-5.55,98.1,98.1,0,0,1,12.3,2.48q6,1.59,11.91,3.61t11.63,4.43A100.28,100.28,0,0,1,257.38,102.42Z"/><line class="cls-3" x1="246.23" y1="108.79" x2="197.91" y2="92.3"/><path class="cls-4" d="M246.23,108.79a105.36,105.36,0,0,1-12.6-2.59q-6.19-1.64-12.23-3.71c-4-1.37-8-2.87-11.94-4.53a104.5,104.5,0,0,1-11.55-5.66,103.43,103.43,0,0,1,12.6,2.59q6.19,1.64,12.22,3.7t11.94,4.55A103.66,103.66,0,0,1,246.23,108.79Z"/><line class="cls-3" x1="231.28" y1="113.86" x2="196.01" y2="101.83"/><path class="cls-4" d="M231.28,113.86a56.14,56.14,0,0,1-9.34-1.48c-3-.72-6-1.58-9-2.59s-5.83-2.13-8.67-3.42a56,56,0,0,1-8.3-4.54,56.13,56.13,0,0,1,9.34,1.47c3,.72,6,1.59,9,2.6s5.83,2.14,8.67,3.42A57.44,57.44,0,0,1,231.28,113.86Z"/><line class="cls-3" x1="218.09" y1="119.54" x2="203.39" y2="114.52"/><path class="cls-4" d="M218.09,119.54a11.93,11.93,0,0,1-4.2.27,17.18,17.18,0,0,1-7.35-2.5,12,12,0,0,1-3.15-2.79,12,12,0,0,1,4.2-.28,16.71,16.71,0,0,1,3.81.84,17.31,17.31,0,0,1,3.54,1.67A12,12,0,0,1,218.09,119.54Z"/><line class="cls-3" x1="271.11" y1="68.81" x2="267.46" y2="73.49"/><path class="cls-4" d="M271.11,68.81a4.3,4.3,0,0,1,.36,2.16,2.75,2.75,0,0,1-.56,1.45,2.84,2.84,0,0,1-1.26.9,4.43,4.43,0,0,1-2.19.17,4.35,4.35,0,0,1-.36-2.17,2.8,2.8,0,0,1,.56-1.44,2.93,2.93,0,0,1,1.27-.9A4.4,4.4,0,0,1,271.11,68.81Z"/><line class="cls-3" x1="284.57" y1="67.26" x2="269.08" y2="87.12"/><path class="cls-4" d="M284.57,67.26a27.36,27.36,0,0,1-2.6,6,44.74,44.74,0,0,1-7.74,9.93,27.31,27.31,0,0,1-5.15,4,26.86,26.86,0,0,1,2.59-6,45.18,45.18,0,0,1,7.75-9.93A27.64,27.64,0,0,1,284.57,67.26Z"/><line class="cls-3" x1="297.19" y1="66.77" x2="271.95" y2="99.15"/><path class="cls-4" d="M297.19,66.77a67.71,67.71,0,0,1-5,9.09q-2.81,4.32-6,8.37t-6.65,7.82a68.3,68.3,0,0,1-7.59,7.1,66.62,66.62,0,0,1,5-9.09c1.87-2.89,3.86-5.67,6-8.37s4.32-5.3,6.66-7.82A70.07,70.07,0,0,1,297.19,66.77Z"/><line class="cls-3" x1="309.27" y1="66.99" x2="282.59" y2="101.2"/><path class="cls-4" d="M309.27,67a76,76,0,0,1-5.39,9.55q-3,4.54-6.32,8.82t-7,8.29a75.91,75.91,0,0,1-8,7.55A76,76,0,0,1,288,91.65q3-4.55,6.33-8.82t7-8.28A76.94,76.94,0,0,1,309.27,67Z"/><line class="cls-3" x1="321.14" y1="67.48" x2="295.38" y2="100.51"/><path class="cls-4" d="M321.14,67.48A71,71,0,0,1,316,76.73q-2.87,4.41-6.09,8.53t-6.78,8a70,70,0,0,1-7.72,7.26,69.2,69.2,0,0,1,5.16-9.25q2.86-4.41,6.09-8.53c2.15-2.75,4.41-5.42,6.79-8A71.06,71.06,0,0,1,321.14,67.48Z"/><line class="cls-3" x1="329.22" y1="72.25" x2="307.54" y2="100.66"/><path class="cls-4" d="M329.22,72.25a52.5,52.5,0,0,1-4.14,8.08A89.21,89.21,0,0,1,320,87.71a85,85,0,0,1-5.77,6.83,52.19,52.19,0,0,1-6.7,6.12,50.74,50.74,0,0,1,4.13-8.08,85.1,85.1,0,0,1,5.07-7.37q2.72-3.55,5.77-6.84A52.34,52.34,0,0,1,329.22,72.25Z"/><line class="cls-3" x1="326.5" y1="92.01" x2="319.08" y2="101.53"/><path class="cls-4" d="M326.5,92a8.19,8.19,0,0,1-.58,3.37A10.53,10.53,0,0,1,324.41,98a10.28,10.28,0,0,1-2.2,2.11,8.18,8.18,0,0,1-3.13,1.38,8.33,8.33,0,0,1,.57-3.37,10.4,10.4,0,0,1,3.72-4.76A8.35,8.35,0,0,1,326.5,92Z"/><line class="cls-3" x1="261.93" y1="40.55" x2="275.13" y2="52.36"/><path class="cls-4" d="M261.93,40.55a15.15,15.15,0,0,1,4.38,1.75,22.33,22.33,0,0,1,3.59,2.62,21.35,21.35,0,0,1,3,3.28,14.48,14.48,0,0,1,2.22,4.16,14.75,14.75,0,0,1-4.38-1.74,22.74,22.74,0,0,1-6.6-5.91A15,15,0,0,1,261.93,40.55Z"/><line class="cls-3" x1="257.73" y1="23.94" x2="288.41" y2="51.37"/><path class="cls-4" d="M257.73,23.94a68.22,68.22,0,0,1,8.75,5.66q4.13,3.09,8,6.52t7.38,7.19a69,69,0,0,1,6.59,8.06,67.1,67.1,0,0,1-8.75-5.65q-4.14-3.09-8-6.53T264.32,32A69,69,0,0,1,257.73,23.94Z"/><line class="cls-3" x1="270.21" y1="22.24" x2="302.53" y2="51.14"/><path class="cls-4" d="M270.21,22.24a75.32,75.32,0,0,1,9.15,6q4.35,3.27,8.38,6.89t7.79,7.55a77.29,77.29,0,0,1,7,8.43,73.41,73.41,0,0,1-9.16-6Q289,41.85,285,38.23c-2.69-2.41-5.29-4.92-7.78-7.56A74.37,74.37,0,0,1,270.21,22.24Z"/><line class="cls-3" x1="283.31" y1="21.11" x2="317.67" y2="51.83"/><path class="cls-4" d="M283.31,21.11A87.08,87.08,0,0,1,293,27.58q4.59,3.51,8.88,7.35c2.87,2.56,5.64,5.22,8.3,8a85,85,0,0,1,7.51,8.89A86.15,86.15,0,0,1,308,45.36c-3.07-2.34-6-4.79-8.88-7.36s-5.63-5.22-8.3-8A87,87,0,0,1,283.31,21.11Z"/><line class="cls-3" x1="297.14" y1="20.61" x2="334.08" y2="53.64"/><path class="cls-4" d="M297.14,20.61a98.71,98.71,0,0,1,10.31,7.06c3.28,2.52,6.45,5.17,9.53,7.92s6.06,5.61,8.94,8.59a99,99,0,0,1,8.16,9.46,96.24,96.24,0,0,1-10.32-7q-4.92-3.78-9.53-7.93c-3.07-2.75-6.06-5.61-8.94-8.59A98.86,98.86,0,0,1,297.14,20.61Z"/><line class="cls-3" x1="311.81" y1="20.88" x2="334.1" y2="40.81"/><path class="cls-4" d="M311.81,20.88a36.6,36.6,0,0,1,6.65,3.78,63.34,63.34,0,0,1,11.15,10,37.71,37.71,0,0,1,4.49,6.19A36.6,36.6,0,0,1,327.45,37a61.45,61.45,0,0,1-5.87-4.65,60.15,60.15,0,0,1-5.27-5.32A37.51,37.51,0,0,1,311.81,20.88Z"/><line class="cls-3" x1="327.51" y1="22.06" x2="336.21" y2="29.84"/><path class="cls-4" d="M327.51,22.06a8,8,0,0,1,3.25.74,9.83,9.83,0,0,1,2.47,1.61,9.64,9.64,0,0,1,1.88,2.27,8,8,0,0,1,1.1,3.16A8,8,0,0,1,333,29.1a9.86,9.86,0,0,1-2.47-1.62,10.15,10.15,0,0,1-1.88-2.27A8,8,0,0,1,327.51,22.06Z"/><line class="cls-3" x1="101.22" y1="150.55" x2="98.56" y2="136.46"/><path class="cls-4" d="M101.22,150.55A10.84,10.84,0,0,1,99,147.33a14.91,14.91,0,0,1-1.34-7.05,10.56,10.56,0,0,1,.93-3.82,10.75,10.75,0,0,1,2.26,3.22,14.47,14.47,0,0,1,1.09,3.44,14,14,0,0,1,.23,3.61A10.54,10.54,0,0,1,101.22,150.55Z"/><line class="cls-3" x1="93.68" y1="162.07" x2="87.21" y2="127.9"/><path class="cls-4" d="M93.68,162.07a50.14,50.14,0,0,1-3.21-8.24,85.39,85.39,0,0,1-2-8.46,83.06,83.06,0,0,1-1.18-8.62,49.32,49.32,0,0,1,0-8.85,48.74,48.74,0,0,1,3.21,8.24,83.51,83.51,0,0,1,2,8.47,82.69,82.69,0,0,1,1.18,8.62A51.14,51.14,0,0,1,93.68,162.07Z"/><line class="cls-3" x1="86.36" y1="174.83" x2="78.05" y2="130.87"/><path class="cls-4" d="M86.36,174.83a80.31,80.31,0,0,1-3.66-10.69c-1-3.61-1.82-7.25-2.52-10.91s-1.25-7.35-1.65-11.07a79.91,79.91,0,0,1-.48-11.29,80.81,80.81,0,0,1,3.67,10.69q1.48,5.4,2.51,10.9t1.64,11.08A79.84,79.84,0,0,1,86.36,174.83Z"/><line class="cls-3" x1="79.33" y1="189.1" x2="70.46" y2="142.19"/><path class="cls-4" d="M79.33,189.1a92.22,92.22,0,0,1-3.8-11.43c-1-3.85-1.91-7.73-2.65-11.64s-1.35-7.84-1.79-11.81a92.32,92.32,0,0,1-.63-12,90.64,90.64,0,0,1,3.81,11.43q1.56,5.77,2.65,11.64t1.78,11.81A90.6,90.6,0,0,1,79.33,189.1Z"/><line class="cls-3" x1="72.45" y1="204.11" x2="63.08" y2="154.57"/><path class="cls-4" d="M72.45,204.11A100.8,100.8,0,0,1,68.52,192q-1.62-6.11-2.78-12.3t-1.91-12.46a100.79,100.79,0,0,1-.75-12.69A101.24,101.24,0,0,1,67,166.65q1.62,6.12,2.78,12.31t1.9,12.46A102.7,102.7,0,0,1,72.45,204.11Z"/><line class="cls-3" x1="62.08" y1="200.71" x2="55.93" y2="168.21"/><path class="cls-4" d="M62.08,200.71A45.68,45.68,0,0,1,59,192.88a79.85,79.85,0,0,1-2-8,75.12,75.12,0,0,1-1.1-8.2,44.84,44.84,0,0,1,0-8.43A44,44,0,0,1,59.06,176a75.54,75.54,0,0,1,2,8.05,77.64,77.64,0,0,1,1.1,8.2A45.7,45.7,0,0,1,62.08,200.71Z"/><line class="cls-3" x1="51.81" y1="197.83" x2="49.08" y2="183.41"/><path class="cls-4" d="M51.81,197.83a10.83,10.83,0,0,1-2.27-3.31A15.5,15.5,0,0,1,48.42,191a15.09,15.09,0,0,1-.25-3.69,10.91,10.91,0,0,1,.91-3.9,10.91,10.91,0,0,1,2.27,3.3,14.7,14.7,0,0,1,1.12,3.52,15.66,15.66,0,0,1,.24,3.69A10.94,10.94,0,0,1,51.81,197.83Z"/><line class="cls-3" x1="125.58" y1="159.3" x2="111.59" y2="164.91"/><path class="cls-4" d="M125.58,159.3a11.7,11.7,0,0,1-2.89,2.9,16.17,16.17,0,0,1-3.34,1.81,15.47,15.47,0,0,1-3.66,1,11.41,11.41,0,0,1-4.1-.1,11.42,11.42,0,0,1,2.89-2.91,16.36,16.36,0,0,1,7-2.8A11.4,11.4,0,0,1,125.58,159.3Z"/><line class="cls-3" x1="133.85" y1="166.36" x2="103.19" y2="178.65"/><path class="cls-4" d="M133.85,166.36a45.52,45.52,0,0,1-7.07,4.57,77.27,77.27,0,0,1-7.5,3.49,75.74,75.74,0,0,1-7.82,2.66,44.94,44.94,0,0,1-8.27,1.57,44.32,44.32,0,0,1,7.06-4.58,74.89,74.89,0,0,1,7.5-3.48,78.38,78.38,0,0,1,7.83-2.66A44.63,44.63,0,0,1,133.85,166.36Z"/><line class="cls-3" x1="142.56" y1="173.24" x2="96.37" y2="191.76"/><path class="cls-4" d="M142.56,173.24a100,100,0,0,1-10.95,6.13c-3.73,1.82-7.53,3.49-11.38,5s-7.75,3-11.71,4.22a98.35,98.35,0,0,1-12.15,3.13,96.82,96.82,0,0,1,10.95-6.13c3.73-1.83,7.53-3.5,11.38-5s7.75-3,11.71-4.22A98.35,98.35,0,0,1,142.56,173.24Z"/><line class="cls-3" x1="138.21" y1="185.36" x2="90.81" y2="204.37"/><path class="cls-4" d="M138.21,185.36A107.14,107.14,0,0,1,127,191.61q-5.76,2.79-11.69,5.16t-12,4.35a105.29,105.29,0,0,1-12.45,3.25,104.34,104.34,0,0,1,11.24-6.26q5.76-2.79,11.69-5.16c4-1.58,8-3,12-4.34A104,104,0,0,1,138.21,185.36Z"/><line class="cls-3" x1="130.12" y1="198.97" x2="95.54" y2="212.84"/><path class="cls-4" d="M130.12,199a56.24,56.24,0,0,1-8,5c-2.77,1.44-5.6,2.72-8.48,3.88s-5.82,2.18-8.82,3.06a56.14,56.14,0,0,1-9.24,2,55.69,55.69,0,0,1,8-5q4.15-2.15,8.48-3.87t8.81-3.06A57.33,57.33,0,0,1,130.12,199Z"/><line class="cls-3" x1="123.77" y1="211.89" x2="109.35" y2="217.68"/><path class="cls-4" d="M123.77,211.89a12,12,0,0,1-3,3,17.64,17.64,0,0,1-3.44,1.86,16.93,16.93,0,0,1-3.77,1,12,12,0,0,1-4.21,0,11.82,11.82,0,0,1,3-3,16.14,16.14,0,0,1,3.44-1.86,16.93,16.93,0,0,1,3.77-1A11.9,11.9,0,0,1,123.77,211.89Z"/><line class="cls-3" x1="132.4" y1="139.07" x2="132.66" y2="145.01"/><path class="cls-4" d="M132.4,139.07a4.5,4.5,0,0,1,1.68,1.42,2.7,2.7,0,0,1,.13,3,4.43,4.43,0,0,1-1.55,1.55A4.37,4.37,0,0,1,131,143.6a2.73,2.73,0,0,1-.12-3A4.45,4.45,0,0,1,132.4,139.07Z"/><line class="cls-3" x1="141.63" y1="129.11" x2="142.71" y2="154.32"/><path class="cls-4" d="M141.63,129.11a27.75,27.75,0,0,1,1.88,6.23,44.69,44.69,0,0,1,.71,6.29,41.78,41.78,0,0,1-.17,6.32,27.14,27.14,0,0,1-1.34,6.37,26.64,26.64,0,0,1-1.89-6.23,41.91,41.91,0,0,1-.71-6.29,44.56,44.56,0,0,1,.17-6.32A27.16,27.16,0,0,1,141.63,129.11Z"/><line class="cls-3" x1="150.91" y1="120.5" x2="152.67" y2="161.59"/><path class="cls-4" d="M150.91,120.5A67.75,67.75,0,0,1,153,130.7c.45,3.41.74,6.83.89,10.26s.15,6.85,0,10.29a67.82,67.82,0,0,1-1.18,10.34,66.69,66.69,0,0,1-2.06-10.21c-.45-3.41-.74-6.82-.88-10.25s-.15-6.85,0-10.29A69,69,0,0,1,150.91,120.5Z"/><line class="cls-3" x1="160.23" y1="112.78" x2="162.09" y2="156.2"/><path class="cls-4" d="M160.23,112.78a78.06,78.06,0,0,1,2.08,10.79q.67,5.4.91,10.83c.15,3.62.17,7.24,0,10.88a75.37,75.37,0,0,1-1.15,10.92A75.24,75.24,0,0,1,160,145.41q-.67-5.4-.9-10.83c-.15-3.62-.17-7.24,0-10.87A75.36,75.36,0,0,1,160.23,112.78Z"/><line class="cls-3" x1="169.56" y1="105.41" x2="171.36" y2="147.33"/><path class="cls-4" d="M169.56,105.41a70.44,70.44,0,0,1,2.06,10.41c.46,3.48.75,7,.9,10.46s.16,7,0,10.5a70.36,70.36,0,0,1-1.17,10.55,70.48,70.48,0,0,1-2.07-10.41c-.45-3.48-.74-7-.89-10.46s-.15-7,0-10.5A71.67,71.67,0,0,1,169.56,105.41Z"/><line class="cls-3" x1="178.79" y1="103.76" x2="180.7" y2="139.51"/><path class="cls-4" d="M178.79,103.76a52.83,52.83,0,0,1,2.09,8.85,91.06,91.06,0,0,1,1,17.87,53,53,0,0,1-1.14,9,52.13,52.13,0,0,1-2.1-8.85,86.67,86.67,0,0,1-.91-8.92,89.23,89.23,0,0,1,0-9A53,53,0,0,1,178.79,103.76Z"/><line class="cls-3" x1="189.51" y1="120.55" x2="190.03" y2="132.64"/><path class="cls-4" d="M189.51,120.55a8.48,8.48,0,0,1,1.75,3,10.6,10.6,0,0,1,.57,3,10.18,10.18,0,0,1-.31,3,8.47,8.47,0,0,1-1.49,3.1,8.28,8.28,0,0,1-1.75-3,10.48,10.48,0,0,1-.25-6A8.24,8.24,0,0,1,189.51,120.55Z"/><line class="cls-3" x1="107.18" y1="122.39" x2="124.86" y2="122.75"/><path class="cls-4" d="M107.18,122.39a14.87,14.87,0,0,1,4.45-1.52,22.9,22.9,0,0,1,4.43-.36,22.13,22.13,0,0,1,4.41.53,14.68,14.68,0,0,1,4.39,1.71,14.72,14.72,0,0,1-4.45,1.53,22.42,22.42,0,0,1-8.84-.18A14.68,14.68,0,0,1,107.18,122.39Z"/><line class="cls-3" x1="93.24" y1="112.51" x2="134.31" y2="113.34"/><path class="cls-4" d="M93.24,112.51a68.88,68.88,0,0,1,10.3-1.41c3.43-.23,6.85-.3,10.27-.24s6.85.28,10.26.65a67.73,67.73,0,0,1,10.24,1.83,67.61,67.61,0,0,1-10.3,1.41q-5.15.34-10.28.23c-3.42-.07-6.84-.28-10.26-.65A69.06,69.06,0,0,1,93.24,112.51Z"/><line class="cls-3" x1="101.62" y1="103.08" x2="144.89" y2="103.94"/><path class="cls-4" d="M101.62,103.08a76.36,76.36,0,0,1,10.85-1.4c3.61-.23,7.22-.3,10.83-.23s7.2.28,10.8.66a74.85,74.85,0,0,1,10.79,1.83A75,75,0,0,1,134,105.35q-5.41.34-10.83.22c-3.6-.08-7.2-.29-10.8-.66A76.26,76.26,0,0,1,101.62,103.08Z"/><line class="cls-3" x1="110.85" y1="93.66" x2="156.84" y2="94.58"/><path class="cls-4" d="M110.85,93.66a87.38,87.38,0,0,1,11.53-1.39q5.76-.33,11.5-.21t11.49.67a84.25,84.25,0,0,1,11.47,1.85A84.14,84.14,0,0,1,145.31,96c-3.84.23-7.68.29-11.51.21s-7.66-.3-11.49-.68A85.65,85.65,0,0,1,110.85,93.66Z"/><line class="cls-3" x1="121.03" y1="84.26" x2="170.48" y2="85.25"/><path class="cls-4" d="M121,84.26a98.78,98.78,0,0,1,12.4-1.37q6.19-.33,12.37-.2t12.35.69a98.47,98.47,0,0,1,12.33,1.87,96.6,96.6,0,0,1-12.39,1.37q-6.19.33-12.37.19c-4.12-.08-8.24-.3-12.36-.69A99,99,0,0,1,121,84.26Z"/><line class="cls-3" x1="132.36" y1="74.88" x2="162.19" y2="75.48"/><path class="cls-4" d="M132.36,74.88a37.41,37.41,0,0,1,7.49-1.46,60.2,60.2,0,0,1,7.47-.3,62.31,62.31,0,0,1,7.45.59,36.7,36.7,0,0,1,7.42,1.77A36.75,36.75,0,0,1,154.7,77a63.47,63.47,0,0,1-14.92-.3A37.55,37.55,0,0,1,132.36,74.88Z"/><line class="cls-3" x1="145.05" y1="65.53" x2="156.7" y2="65.77"/><path class="cls-4" d="M145.05,65.53A8.07,8.07,0,0,1,148,64a9.77,9.77,0,0,1,5.83.11,8,8,0,0,1,2.88,1.68,7.92,7.92,0,0,1-2.95,1.56,9.84,9.84,0,0,1-5.82-.12A8,8,0,0,1,145.05,65.53Z"/><line class="cls-3" x1="72.57" y1="283.68" x2="76.6" y2="288.03"/><path class="cls-4" d="M72.57,283.68a4.34,4.34,0,0,1,2.19,0,2.67,2.67,0,0,1,2,2.17A4.25,4.25,0,0,1,76.6,288a4.34,4.34,0,0,1-2.19,0,2.71,2.71,0,0,1-1.33-.78,2.89,2.89,0,0,1-.69-1.4A4.43,4.43,0,0,1,72.57,283.68Z"/><line class="cls-3" x1="73.13" y1="270.09" x2="90.26" y2="288.54"/><path class="cls-4" d="M73.13,270.09a27.5,27.5,0,0,1,5.47,3.51,44.86,44.86,0,0,1,4.61,4.31,43.93,43.93,0,0,1,4,4.92,26.71,26.71,0,0,1,3.09,5.71A27.06,27.06,0,0,1,84.79,285a42.72,42.72,0,0,1-4.6-4.31,44.86,44.86,0,0,1-4-4.92A27.44,27.44,0,0,1,73.13,270.09Z"/><line class="cls-3" x1="74.61" y1="257.49" x2="102.54" y2="287.56"/><path class="cls-4" d="M74.61,257.49a67,67,0,0,1,8.17,6.42q3.82,3.45,7.31,7.21c2.32,2.51,4.55,5.11,6.65,7.82a66.93,66.93,0,0,1,5.8,8.62,67,67,0,0,1-8.17-6.42q-3.83-3.45-7.3-7.22t-6.66-7.82A69.67,69.67,0,0,1,74.61,257.49Z"/><line class="cls-3" x1="76.7" y1="245.54" x2="106.21" y2="277.32"/><path class="cls-4" d="M76.7,245.54a74.38,74.38,0,0,1,8.56,6.84c2.68,2.45,5.24,5,7.71,7.65s4.81,5.39,7,8.24a74.44,74.44,0,0,1,6.19,9.05,74.46,74.46,0,0,1-8.56-6.85q-4-3.66-7.7-7.64c-2.46-2.65-4.82-5.4-7-8.25A77.18,77.18,0,0,1,76.7,245.54Z"/><line class="cls-3" x1="79.03" y1="233.84" x2="107.52" y2="264.52"/><path class="cls-4" d="M79,233.84a72.19,72.19,0,0,1,8.3,6.57c2.6,2.35,5.07,4.81,7.45,7.37s4.65,5.21,6.8,8a70.61,70.61,0,0,1,5.94,8.77A68.72,68.72,0,0,1,99.21,258q-3.9-3.54-7.45-7.38t-6.8-8A70.19,70.19,0,0,1,79,233.84Z"/><line class="cls-3" x1="84.97" y1="226.56" x2="109.55" y2="252.49"/><path class="cls-4" d="M85,226.56a52.83,52.83,0,0,1,7.32,5.37,87.89,87.89,0,0,1,6.47,6.18,85.85,85.85,0,0,1,5.82,6.78,50.74,50.74,0,0,1,5,7.6,52,52,0,0,1-7.32-5.37,85.79,85.79,0,0,1-6.46-6.18,88,88,0,0,1-5.83-6.79A52.25,52.25,0,0,1,85,226.56Z"/><line class="cls-3" x1="103.98" y1="232.32" x2="112.2" y2="241.17"/><path class="cls-4" d="M104,232.32a8.44,8.44,0,0,1,3.24,1.12,10.37,10.37,0,0,1,2.38,1.9,10.15,10.15,0,0,1,1.73,2.52,8.35,8.35,0,0,1,.87,3.31,8.27,8.27,0,0,1-3.24-1.11,10.14,10.14,0,0,1-2.38-1.91,10.72,10.72,0,0,1-1.73-2.52A8.35,8.35,0,0,1,104,232.32Z"/><line class="cls-3" x1="42.58" y1="287.25" x2="56.25" y2="275.99"/><path class="cls-4" d="M42.58,287.25A15.26,15.26,0,0,1,45,283.19,22.81,22.81,0,0,1,48.1,280a22.33,22.33,0,0,1,3.7-2.48A14.56,14.56,0,0,1,56.25,276a14.7,14.7,0,0,1-2.39,4.06,21.26,21.26,0,0,1-3.13,3.16,21.68,21.68,0,0,1-3.7,2.47A14.57,14.57,0,0,1,42.58,287.25Z"/><line class="cls-3" x1="25.59" y1="288.84" x2="57.34" y2="262.66"/><path class="cls-4" d="M25.59,288.84a69.74,69.74,0,0,1,6.91-7.79c2.45-2.41,5-4.7,7.65-6.89s5.38-4.25,8.22-6.2a67.15,67.15,0,0,1,9-5.3,68,68,0,0,1-6.91,7.8c-2.45,2.41-5,4.7-7.65,6.88s-5.39,4.26-8.22,6.2A67.79,67.79,0,0,1,25.59,288.84Z"/><line class="cls-3" x1="25.86" y1="276.2" x2="59.3" y2="248.62"/><path class="cls-4" d="M25.86,276.2a75,75,0,0,1,7.33-8.14q3.9-3.8,8.08-7.24t8.64-6.55a74.9,74.9,0,0,1,9.39-5.65A75,75,0,0,1,52,256.77c-2.59,2.53-5.29,4.93-8.08,7.23s-5.66,4.49-8.64,6.55A76.12,76.12,0,0,1,25.86,276.2Z"/><line class="cls-3" x1="26.77" y1="263.02" x2="62.32" y2="233.7"/><path class="cls-4" d="M26.77,263a86.72,86.72,0,0,1,7.86-8.57c2.77-2.68,5.65-5.23,8.61-7.68s6-4.78,9.16-7a86.54,86.54,0,0,1,9.92-6.08,84.46,84.46,0,0,1-7.85,8.58c-2.77,2.68-5.65,5.23-8.61,7.67s-6,4.78-9.17,7A85.68,85.68,0,0,1,26.77,263Z"/><line class="cls-3" x1="28.43" y1="249.23" x2="66.66" y2="217.71"/><path class="cls-4" d="M28.43,249.23A98.59,98.59,0,0,1,37,240.1c3-2.86,6.09-5.59,9.27-8.22s6.46-5.15,9.84-7.54a96.16,96.16,0,0,1,10.59-6.63,98.59,98.59,0,0,1-8.53,9.13c-3,2.86-6.09,5.59-9.27,8.22s-6.47,5.14-9.84,7.53A99.74,99.74,0,0,1,28.43,249.23Z"/><line class="cls-3" x1="30.97" y1="234.71" x2="54.04" y2="215.69"/><path class="cls-4" d="M31,234.71a37.5,37.5,0,0,1,4.74-6,62.78,62.78,0,0,1,5.48-5.1,60,60,0,0,1,6.05-4.41,36.67,36.67,0,0,1,6.8-3.51,37.15,37.15,0,0,1-4.74,6,61.38,61.38,0,0,1-5.49,5.09,61.58,61.58,0,0,1-6.05,4.41A37.52,37.52,0,0,1,31,234.71Z"/><line class="cls-3" x1="34.57" y1="219.32" x2="43.57" y2="211.9"/><path class="cls-4" d="M34.57,219.32a7.78,7.78,0,0,1,1.22-3.1,9.89,9.89,0,0,1,4.5-3.72,7.88,7.88,0,0,1,3.28-.6,7.78,7.78,0,0,1-1.22,3.1,9.79,9.79,0,0,1-4.5,3.71A8.07,8.07,0,0,1,34.57,219.32Z"/><line class="cls-5" x1="331.69" y1="292.2" x2="265.56" y2="292.2"/><line class="cls-4" x1="124.6" y1="281.69" x2="184.9" y2="285.1"/><path class="cls-3" d="M124.6,281.69a143.22,143.22,0,0,1,15.17-.76q7.56,0,15.1.4c5,.29,10,.71,15,1.3a142.57,142.57,0,0,1,15,2.47,142.9,142.9,0,0,1-15.16.76q-7.56,0-15.1-.41c-5-.29-10-.71-15-1.3A145.81,145.81,0,0,1,124.6,281.69Z"/><line class="cls-4" x1="125.88" y1="266.62" x2="185.9" y2="275.27"/><path class="cls-3" d="M125.88,266.62a145.66,145.66,0,0,1,15.24.57q7.56.63,15.06,1.72t14.95,2.6a146,146,0,0,1,14.77,3.76,143,143,0,0,1-15.24-.56q-7.56-.63-15.06-1.72c-5-.73-10-1.59-14.94-2.61A145.46,145.46,0,0,1,125.88,266.62Z"/><line class="cls-4" x1="128.15" y1="251.63" x2="187.73" y2="265.57"/><path class="cls-3" d="M128.15,251.63a151.43,151.43,0,0,1,15.26,1.91q7.56,1.31,15,3.06t14.8,3.91a147.74,147.74,0,0,1,14.52,5.06,145.88,145.88,0,0,1-15.26-1.91c-5-.86-10-1.89-15-3.05s-9.89-2.47-14.79-3.92A148.83,148.83,0,0,1,128.15,251.63Z"/><line class="cls-4" x1="283.37" y1="119.28" x2="288.89" y2="177.73"/><path class="cls-3" d="M283.37,119.28a140,140,0,0,1,3,14.46q1.14,7.26,1.82,14.57t.94,14.66a134.82,134.82,0,0,1-.23,14.76,137.49,137.49,0,0,1-3-14.46q-1.14-7.26-1.81-14.57t-.94-14.65A137.51,137.51,0,0,1,283.37,119.28Z"/><line class="cls-4" x1="298.61" y1="118.66" x2="298.71" y2="177.34"/><path class="cls-3" d="M298.61,118.66a138,138,0,0,1,1.64,14.67q.47,7.33.47,14.67t-.41,14.67a135.32,135.32,0,0,1-1.6,14.67,135.44,135.44,0,0,1-1.64-14.67q-.46-7.33-.47-14.67t.42-14.67A137.84,137.84,0,0,1,298.61,118.66Z"/><line class="cls-4" x1="313.86" y1="119.27" x2="308.53" y2="177.74"/><path class="cls-3" d="M313.86,119.27a137.42,137.42,0,0,1,.27,14.76q-.21,7.35-.88,14.66t-1.77,14.58a135.44,135.44,0,0,1-3,14.47,137.44,137.44,0,0,1-.28-14.76c.14-4.9.45-9.79.89-14.66s1-9.73,1.78-14.58A137.91,137.91,0,0,1,313.86,119.27Z"/><line class="cls-4" x1="140.13" y1="220.15" x2="194.77" y2="244.75"/><path class="cls-3" d="M140.13,220.15a145.17,145.17,0,0,1,14.32,4.68q7,2.65,13.84,5.74t13.48,6.55a142,142,0,0,1,13,7.63,144.45,144.45,0,0,1-14.33-4.67q-7-2.67-13.84-5.75t-13.47-6.56A144.17,144.17,0,0,1,140.13,220.15Z"/><line class="cls-4" x1="146.97" y1="206.75" x2="199.19" y2="235.93"/><path class="cls-3" d="M147,206.75a141.25,141.25,0,0,1,13.84,5.89q6.75,3.24,13.27,6.9t12.84,7.68a140,140,0,0,1,12.27,8.71,144.91,144.91,0,0,1-13.85-5.88q-6.74-3.26-13.26-6.91t-12.84-7.68A143.69,143.69,0,0,1,147,206.75Z"/><line class="cls-4" x1="155.38" y1="194.31" x2="204.35" y2="227.52"/><path class="cls-3" d="M155.38,194.31a140.85,140.85,0,0,1,13.15,7q6.38,3.76,12.49,7.93t12,8.67a137.72,137.72,0,0,1,11.33,9.64,137.24,137.24,0,0,1-13.15-7q-6.37-3.78-12.49-7.94t-12-8.67A139.54,139.54,0,0,1,155.38,194.31Z"/><line class="cls-4" x1="346.09" y1="125.16" x2="330.06" y2="181.74"/><path class="cls-3" d="M346.09,125.16a138.76,138.76,0,0,1-2.45,14.59q-1.58,7.19-3.58,14.26t-4.43,14a136.51,136.51,0,0,1-5.57,13.7,138.76,138.76,0,0,1,2.45-14.59q1.58-7.18,3.58-14.26t4.44-14A138,138,0,0,1,346.09,125.16Z"/><line class="cls-4" x1="360.32" y1="129.61" x2="339.39" y2="184.87"/><path class="cls-3" d="M360.32,129.61A141,141,0,0,1,356.6,144q-2.21,7.08-4.82,14t-5.64,13.66a139.74,139.74,0,0,1-6.75,13.24,138.61,138.61,0,0,1,3.72-14.39q2.19-7.06,4.82-14t5.65-13.66A138.45,138.45,0,0,1,360.32,129.61Z"/><line class="cls-4" x1="374.04" y1="135.48" x2="348.41" y2="188.79"/><path class="cls-3" d="M374,135.48a139.34,139.34,0,0,1-5,14q-2.79,6.87-6,13.53t-6.8,13.13a137.43,137.43,0,0,1-7.87,12.63,138.65,138.65,0,0,1,4.95-14q2.79-6.85,6-13.52t6.81-13.13A139.53,139.53,0,0,1,374,135.48Z"/><line class="cls-4" x1="174.99" y1="171.51" x2="216.84" y2="212.1"/><path class="cls-3" d="M175,171.51a137.77,137.77,0,0,1,11.59,9c3.69,3.16,7.28,6.45,10.77,9.83s6.88,6.86,10.16,10.46a134,134,0,0,1,9.33,11.31,136.07,136.07,0,0,1-11.59-9q-5.55-4.76-10.77-9.84t-10.15-10.46A136.12,136.12,0,0,1,175,171.51Z"/><line class="cls-4" x1="185.49" y1="160.94" x2="223.98" y2="205.31"/><path class="cls-3" d="M185.49,160.94a137.79,137.79,0,0,1,10.85,10q5.15,5.25,10,10.8t9.29,11.39A135.62,135.62,0,0,1,224,205.31a135.9,135.9,0,0,1-10.84-10q-5.16-5.25-10-10.81t-9.28-11.38A139.42,139.42,0,0,1,185.49,160.94Z"/><line class="cls-4" x1="197.4" y1="151.98" x2="231.68" y2="199.17"/><path class="cls-3" d="M197.4,152a138.33,138.33,0,0,1,9.88,10.85q4.65,5.63,8.93,11.53t8.21,12.06a132.81,132.81,0,0,1,7.26,12.75,136.39,136.39,0,0,1-9.88-10.85q-4.65-5.62-8.93-11.54t-8.21-12.05A136.24,136.24,0,0,1,197.4,152Z"/><line class="cls-4" x1="400.72" y1="152.42" x2="366.25" y2="199.61"/><path class="cls-3" d="M400.72,152.42a134.45,134.45,0,0,1-7.31,12.75q-3.95,6.17-8.26,12.06t-9,11.54a135.2,135.2,0,0,1-9.93,10.84,135.38,135.38,0,0,1,7.31-12.75q3.94-6.17,8.26-12.06t9-11.54A137,137,0,0,1,400.72,152.42Z"/><line class="cls-4" x1="412.94" y1="161.04" x2="373.91" y2="205.8"/><path class="cls-3" d="M412.94,161a138.65,138.65,0,0,1-8.54,12.25q-4.53,5.9-9.42,11.49t-10.09,10.9a140.74,140.74,0,0,1-11,10.12,138.65,138.65,0,0,1,8.54-12.25q4.53-5.9,9.42-11.48t10.1-10.9A142.7,142.7,0,0,1,412.94,161Z"/><line class="cls-4" x1="424.01" y1="171.16" x2="381.01" y2="212.64"/><path class="cls-3" d="M424,171.16a144.79,144.79,0,0,1-9.63,11.53q-5.06,5.51-10.44,10.69t-11.06,10.05A140.75,140.75,0,0,1,381,212.64a141,141,0,0,1,9.62-11.54q5.07-5.5,10.45-10.69t11.06-10A142.75,142.75,0,0,1,424,171.16Z"/><line class="cls-4" x1="224.48" y1="134.48" x2="249.95" y2="188.29"/><path class="cls-3" d="M224.48,134.48a142.62,142.62,0,0,1,7.83,12.76c2.4,4.36,4.64,8.78,6.77,13.27s4.12,9,6,13.64a138.78,138.78,0,0,1,4.9,14.14,139.84,139.84,0,0,1-7.83-12.76q-3.6-6.53-6.77-13.26t-6-13.65A143.87,143.87,0,0,1,224.48,134.48Z"/><line class="cls-4" x1="238.51" y1="129.32" x2="259.01" y2="184.46"/><path class="cls-3" d="M238.51,129.32a139.55,139.55,0,0,1,6.64,13.22q3,6.74,5.54,13.63t4.72,13.94a138.08,138.08,0,0,1,3.6,14.35,134.94,134.94,0,0,1-6.64-13.22q-3-6.74-5.54-13.63t-4.71-13.94A138.12,138.12,0,0,1,238.51,129.32Z"/><line class="cls-4" x1="252.38" y1="123.65" x2="268.37" y2="181.43"/><path class="cls-3" d="M252.38,123.65a141.75,141.75,0,0,1,5.55,14q2.44,7.1,4.43,14.32t3.57,14.56a141.12,141.12,0,0,1,2.44,14.88,142.64,142.64,0,0,1-5.56-14q-2.43-7.11-4.42-14.33t-3.57-14.56A146.5,146.5,0,0,1,252.38,123.65Z"/><line class="cls-4" x1="443.73" y1="196.15" x2="393.98" y2="229.03"/><path class="cls-3" d="M443.73,196.15a142.9,142.9,0,0,1-11.55,9.57q-6,4.49-12.19,8.59t-12.68,7.85A139.58,139.58,0,0,1,394,229a141.05,141.05,0,0,1,11.54-9.57q6-4.49,12.2-8.59c4.15-2.73,8.37-5.36,12.68-7.85A145.63,145.63,0,0,1,443.73,196.15Z"/><line class="cls-4" x1="451.4" y1="209.06" x2="399.01" y2="237.52"/><path class="cls-3" d="M451.4,209.06a141.81,141.81,0,0,1-12.33,8.53q-6.33,4-12.88,7.51t-13.31,6.73A143,143,0,0,1,399,237.52,141.92,141.92,0,0,1,411.34,229q6.33-4,12.88-7.5t13.31-6.72A142.61,142.61,0,0,1,451.4,209.06Z"/><line class="cls-4" x1="458.47" y1="222.36" x2="403.29" y2="246.4"/><path class="cls-3" d="M458.48,222.36a146.78,146.78,0,0,1-13.16,7.49c-4.47,2.28-9,4.41-13.61,6.42s-9.25,3.88-14,5.61a143.37,143.37,0,0,1-14.45,4.52,144.22,144.22,0,0,1,13.15-7.49q6.72-3.42,13.62-6.42c4.6-2,9.26-3.88,14-5.6A140.9,140.9,0,0,1,458.48,222.36Z"/><line class="cls-4" x1="469.15" y1="251.53" x2="409.62" y2="265.66"/><path class="cls-3" d="M469.15,251.53a148.77,148.77,0,0,1-14.51,5.1q-7.33,2.21-14.78,4t-15,3.1a148.68,148.68,0,0,1-15.26,2,145.35,145.35,0,0,1,14.51-5.11q7.33-2.21,14.78-4t15-3.1A148.68,148.68,0,0,1,469.15,251.53Z"/><line class="cls-4" x1="472.24" y1="266.4" x2="411.45" y2="275.36"/><path class="cls-3" d="M472.24,266.4c-4.94,1.59-9.94,2.76-15,3.84s-10.07,1.93-15.14,2.68-10.15,1.35-15.26,1.8a146.55,146.55,0,0,1-15.43.64,149.21,149.21,0,0,1,15-3.84q7.53-1.57,15.13-2.68c5.07-.74,10.16-1.35,15.27-1.8A152.14,152.14,0,0,1,472.24,266.4Z"/><line class="cls-4" x1="473.74" y1="281.52" x2="412.43" y2="285.19"/><path class="cls-3" d="M473.74,281.52a150.18,150.18,0,0,1-15.23,2.53c-5.09.61-10.19,1.05-15.3,1.36s-10.22.47-15.35.48a150.81,150.81,0,0,1-15.43-.7,148.11,148.11,0,0,1,15.24-2.54c5.09-.61,10.19-1,15.3-1.35s10.22-.47,15.35-.47A150.47,150.47,0,0,1,473.74,281.52Z"/><path class="cls-1" d="M66.84,298.74H59.77l-39.79,0H12.86c0,1.16,0,2.32,0,3.47s0,2.42,0,3.64a287.3,287.3,0,0,0,15.75,90.64c.13.37.27.74.39,1.11.44,1.22.87,2.44,1.3,3.66.06.19.14.37.21.56a.71.71,0,0,0,.08.18L31,403.2a286.82,286.82,0,0,0,46,80.32c.16.2.35.43.51.66a6.76,6.76,0,0,1,.54.64c.76.93,1.5,1.84,2.26,2.72.12.15.23.29.35.42l.1.12a.6.6,0,0,1,.11.12.91.91,0,0,1,.1.13l0,0,.27.31a1.77,1.77,0,0,1,.14.17.87.87,0,0,1,.12.14,287.27,287.27,0,0,0,70.6,59.79c.18.12.35.2.51.33s.33.2.52.31l.14.08,3,1.76,1.91,1.09A282.54,282.54,0,0,0,245,584.24c.66.14,1.31.27,2,.37s1.18.23,1.79.33c1.05.19,2.12.37,3.19.54a282.56,282.56,0,0,0,43.45,3.78c1.07,0,2.14,0,3.21,0,1.54,0,3.08,0,4.62,0h.17a286.06,286.06,0,0,0,40.82-3.6c1.66-.27,3.33-.56,5-.84l2-.38a282.79,282.79,0,0,0,86.79-31.53q3-1.68,5.86-3.39l.27-.16A287.34,287.34,0,0,0,515,489.9c.7-.81,1.4-1.61,2.07-2.44.85-1,1.67-2,2.49-3a287.05,287.05,0,0,0,46.54-80.61c.06-.14.12-.31.18-.45s.12-.31.17-.48a.15.15,0,0,0,0-.08l1.62-4.48q.15-.37.27-.75c0-.14.1-.28.14-.43a287.19,287.19,0,0,0,16-91.41c0-1.17,0-2.37,0-3.55s0-2.37,0-3.57H485.83Zm-29.14,102,37.45-13.61a237.9,237.9,0,0,0,37.9,66.17L82.51,478.93A280.08,280.08,0,0,1,37.7,400.76Zm436,54.24a233.25,233.25,0,0,1-56.41,47.35L395,463.46a188.8,188.8,0,0,0,44.5-37.38Zm-29.61-34.35A188.06,188.06,0,0,0,473.35,370l42,15.37a232.79,232.79,0,0,1-37.1,64.24ZM411.15,505.9A228.9,228.9,0,0,1,342,531l-7.67-44.22A185.4,185.4,0,0,0,388.86,467ZM335,532.26a232.43,232.43,0,0,1-73.51-.15l7.83-44.19a186.34,186.34,0,0,0,26.16,2.27c1.07,0,2.14,0,3.21,0,1.6,0,3.2,0,4.79-.06A188.73,188.73,0,0,0,327.31,488Zm-1.91-52.44L305.58,321.56l79.74,139.26A177.63,177.63,0,0,1,333.07,479.82Zm-7,1.22a179.75,179.75,0,0,1-27.41,2.08,177.58,177.58,0,0,1-28.13-2.21l28-158.13Zm-62.51-1.36a177.46,177.46,0,0,1-52.23-19.23l80.29-139.09Zm-1.24,7-7.83,44.19a229.16,229.16,0,0,1-69.13-25.42l22.41-38.83A184.74,184.74,0,0,0,262.33,486.68Zm-83.07,15.2A233,233,0,0,1,123,454.23l34.28-28.79a187.74,187.74,0,0,0,44.39,37.61Zm-60.79-53.12a231.71,231.71,0,0,1-36.68-64l42-15.26a187.39,187.39,0,0,0,29,50.51Zm37.28,93.82a280.55,280.55,0,0,1-68.7-58.18l30.52-25.62A239.39,239.39,0,0,0,175.72,508Zm90.54,34.59a274.71,274.71,0,0,1-84.41-31l20-34.55a234.78,234.78,0,0,0,71.43,26.27Zm52.38,5a278.65,278.65,0,0,1-45.41-3.7l7-39.34a233.74,233.74,0,0,0,35.23,3.08c1.07,0,2.14,0,3.21,0,1.6,0,3.2,0,4.79-.06a235.18,235.18,0,0,0,32.73-2.89h0L343,578.6A278.67,278.67,0,0,1,298.67,582.13ZM350,577.38,343.19,538a234.83,234.83,0,0,0,71.47-26l19.85,34.63A276.06,276.06,0,0,1,350,577.38Zm90.6-34.22-19.84-34.65a239.69,239.69,0,0,0,58.3-48.93l30.41,25.71A281.16,281.16,0,0,1,440.63,543.16Zm73.43-63.3-30.41-25.73A239.07,239.07,0,0,0,522,387.73l37.4,13.69A279.67,279.67,0,0,1,514.06,479.86Zm63.3-174.08a280.27,280.27,0,0,1-15.57,89l-37.38-13.67a240,240,0,0,0,13.16-75.28Zm-46.87,0a233.25,233.25,0,0,1-12.73,72.87l-42-15.37a187.84,187.84,0,0,0,10.06-57.5Zm-51.75,0a181.24,181.24,0,0,1-9.63,55.06L318.55,305.78Zm-12.05,61.73a180.33,180.33,0,0,1-28.05,48.54L316.21,312.48Zm-32.62,54a180,180,0,0,1-42.6,35.77L311.72,318ZM205.23,456.9a181.49,181.49,0,0,1-42.53-36L285.53,317.82Zm-47-41.47a180.29,180.29,0,0,1-27.7-48.37l150.46-54.67ZM278.43,305.72,128.06,360.37a181.26,181.26,0,0,1-9.46-54.56Zm-166.93.11a189.28,189.28,0,0,0,9.87,57l-42,15.26a232.61,232.61,0,0,1-12.54-72.22Zm-51.73,0a239.58,239.58,0,0,0,12.95,74.63L35.3,394.07A280.72,280.72,0,0,1,20,305.87Z"/><path class="cls-2" d="M189.57,305.67H407.76c0,60.52-48.84,109.57-109.09,109.57S189.57,366.19,189.57,305.67Z"/><line class="cls-3" x1="75.63" y1="401.47" x2="62.28" y2="396.36"/><path class="cls-4" d="M75.63,401.47a10.61,10.61,0,0,1-3.92.23,14,14,0,0,1-3.49-.86A13.9,13.9,0,0,1,65,399.15a10.47,10.47,0,0,1-2.76-2.79,10.61,10.61,0,0,1,3.92-.23,14,14,0,0,1,3.49.86,14.79,14.79,0,0,1,3.18,1.7A10.57,10.57,0,0,1,75.63,401.47Z"/><line class="cls-3" x1="81.44" y1="413.96" x2="49.08" y2="401.58"/><path class="cls-4" d="M81.44,414a49.2,49.2,0,0,1-8.66-1.58,82.73,82.73,0,0,1-8.25-2.68,81.17,81.17,0,0,1-7.94-3.51,48.56,48.56,0,0,1-7.51-4.61,49.32,49.32,0,0,1,8.67,1.58A81.07,81.07,0,0,1,66,405.85a84.6,84.6,0,0,1,7.93,3.51A50.09,50.09,0,0,1,81.44,414Z"/><line class="cls-3" x1="88.43" y1="426.9" x2="46.79" y2="410.98"/><path class="cls-4" d="M88.43,426.9a79.64,79.64,0,0,1-11-2.47c-3.58-1-7.1-2.24-10.57-3.57s-6.89-2.78-10.25-4.39A79.22,79.22,0,0,1,46.79,411a78.51,78.51,0,0,1,11,2.46Q63.15,415,68.34,417c3.47,1.33,6.89,2.78,10.25,4.39A81.41,81.41,0,0,1,88.43,426.9Z"/><line class="cls-3" x1="96.85" y1="440.4" x2="52.42" y2="423.4"/><path class="cls-4" d="M96.85,440.4a92.46,92.46,0,0,1-11.69-2.75Q79.44,436,73.9,433.82t-11-4.66a89.92,89.92,0,0,1-10.53-5.76,90.71,90.71,0,0,1,11.69,2.73q5.72,1.71,11.26,3.84t10.95,4.67A91.55,91.55,0,0,1,96.85,440.4Z"/><line class="cls-3" x1="105.96" y1="454.15" x2="59.05" y2="436.2"/><path class="cls-4" d="M106,454.15a100.7,100.7,0,0,1-12.3-3q-6-1.82-11.89-4.07T70.2,442.2a98.36,98.36,0,0,1-11.15-6,100.26,100.26,0,0,1,12.3,3q6,1.81,11.89,4.07t11.57,4.91A100.78,100.78,0,0,1,106,454.15Z"/><line class="cls-3" x1="97.65" y1="461.24" x2="66.87" y2="449.46"/><path class="cls-4" d="M97.65,461.24a44.93,44.93,0,0,1-8.28-1.44,78.82,78.82,0,0,1-7.85-2.52A75.64,75.64,0,0,1,74,453.92a43.72,43.72,0,0,1-7.11-4.46,44.81,44.81,0,0,1,8.27,1.43,77.69,77.69,0,0,1,15.39,5.9A44.88,44.88,0,0,1,97.65,461.24Z"/><line class="cls-3" x1="89.82" y1="468.51" x2="76.16" y2="463.29"/><path class="cls-4" d="M89.82,468.51a11,11,0,0,1-4,.21,15.56,15.56,0,0,1-3.57-.89A15.2,15.2,0,0,1,79,466.11a10.7,10.7,0,0,1-2.84-2.82,10.79,10.79,0,0,1,4-.21,15.32,15.32,0,0,1,3.57.9A14.7,14.7,0,0,1,87,465.7,10.8,10.8,0,0,1,89.82,468.51Z"/><line class="cls-3" x1="95.86" y1="383.6" x2="93.29" y2="398.51"/><path class="cls-4" d="M95.86,383.6a11.51,11.51,0,0,1,1,4,16.57,16.57,0,0,1-.2,3.8,16.06,16.06,0,0,1-1.08,3.65,11.38,11.38,0,0,1-2.24,3.45,11.2,11.2,0,0,1-1-4,15.52,15.52,0,0,1,.21-3.8,16.06,16.06,0,0,1,1.08-3.65A11.7,11.7,0,0,1,95.86,383.6Z"/><line class="cls-3" x1="106.18" y1="380.24" x2="100.54" y2="412.9"/><path class="cls-4" d="M106.18,380.24a45.07,45.07,0,0,1,.18,8.44A78,78,0,0,1,103.55,405a44.88,44.88,0,0,1-3,7.89,46,46,0,0,1-.19-8.44,78.16,78.16,0,0,1,1-8.24,75.67,75.67,0,0,1,1.85-8.09A44.83,44.83,0,0,1,106.18,380.24Z"/><line class="cls-3" x1="116.58" y1="376.39" x2="108.08" y2="425.6"/><path class="cls-4" d="M116.58,376.39a101.08,101.08,0,0,1-.53,12.58q-.61,6.22-1.69,12.38t-2.56,12.22a97,97,0,0,1-3.72,12,101.08,101.08,0,0,1,.53-12.58q.61-6.22,1.69-12.37t2.56-12.23A103.55,103.55,0,0,1,116.58,376.39Z"/><line class="cls-3" x1="124.58" y1="386.46" x2="115.86" y2="436.97"/><path class="cls-4" d="M124.58,386.46a106.43,106.43,0,0,1-.59,12.91c-.43,4.26-1,8.49-1.74,12.7s-1.59,8.39-2.62,12.55A104.34,104.34,0,0,1,115.86,437a104.19,104.19,0,0,1,.58-12.9q.65-6.39,1.75-12.7c.73-4.21,1.59-8.4,2.62-12.55A104.49,104.49,0,0,1,124.58,386.46Z"/><line class="cls-3" x1="131.89" y1="400.52" x2="125.52" y2="437.37"/><path class="cls-4" d="M131.89,400.52a57.7,57.7,0,0,1,0,9.48c-.24,3.13-.63,6.22-1.15,9.29s-1.2,6.12-2,9.14a55.83,55.83,0,0,1-3.19,8.94,56.74,56.74,0,0,1,0-9.49,93.16,93.16,0,0,1,1.16-9.29q.79-4.6,2-9.14A57.74,57.74,0,0,1,131.89,400.52Z"/><line class="cls-3" x1="139.52" y1="412.72" x2="136.86" y2="428.08"/><path class="cls-4" d="M139.52,412.72a12,12,0,0,1,.92,4.11,17.27,17.27,0,0,1-1.32,7.69,11.83,11.83,0,0,1-2.26,3.56,12,12,0,0,1-.93-4.12,16.43,16.43,0,0,1,.23-3.91,17.08,17.08,0,0,1,1.1-3.77A12,12,0,0,1,139.52,412.72Z"/><line class="cls-3" x1="82.12" y1="367.94" x2="87.29" y2="370.84"/><path class="cls-4" d="M82.12,367.94a4.32,4.32,0,0,1,2.08-.68,2.74,2.74,0,0,1,1.51.33,2.82,2.82,0,0,1,1.08,1.11,4.46,4.46,0,0,1,.5,2.14,4.53,4.53,0,0,1-2.09.69,2.7,2.7,0,0,1-2.58-1.46A4.41,4.41,0,0,1,82.12,367.94Z"/><line class="cls-3" x1="78.51" y1="354.83" x2="100.45" y2="367.12"/><path class="cls-4" d="M78.51,354.83a27.52,27.52,0,0,1,6.27,1.66,45.47,45.47,0,0,1,11,6.14,26.85,26.85,0,0,1,4.7,4.49,27,27,0,0,1-6.28-1.66,45.06,45.06,0,0,1-11-6.15A27.08,27.08,0,0,1,78.51,354.83Z"/><line class="cls-3" x1="76.07" y1="342.38" x2="111.83" y2="362.41"/><path class="cls-4" d="M76.07,342.38A67.66,67.66,0,0,1,85.8,346c3.13,1.4,6.17,2.95,9.16,4.61s5.89,3.46,8.72,5.39a67.09,67.09,0,0,1,8.15,6.43,67.22,67.22,0,0,1-9.73-3.6c-3.13-1.4-6.18-2.95-9.16-4.62s-5.89-3.46-8.72-5.4A67.69,67.69,0,0,1,76.07,342.38Z"/><line class="cls-3" x1="74.41" y1="330.36" x2="112.2" y2="351.52"/><path class="cls-4" d="M74.41,330.36a76.49,76.49,0,0,1,10.23,3.88q5,2.25,9.67,4.91c3.15,1.76,6.23,3.64,9.23,5.67a74.52,74.52,0,0,1,8.66,6.7A74.75,74.75,0,0,1,102,347.65q-5-2.25-9.66-4.91c-3.15-1.77-6.23-3.65-9.23-5.68A74.52,74.52,0,0,1,74.41,330.36Z"/><line class="cls-3" x1="73.05" y1="318.51" x2="109.53" y2="338.95"/><path class="cls-4" d="M73.05,318.51a71.57,71.57,0,0,1,9.91,3.7q4.79,2.16,9.34,4.72t8.9,5.49a68.7,68.7,0,0,1,8.33,6.53,70.31,70.31,0,0,1-9.91-3.7q-4.78-2.16-9.33-4.72c-3-1.71-6-3.53-8.91-5.5A70.43,70.43,0,0,1,73.05,318.51Z"/><line class="cls-3" x1="76.49" y1="309.76" x2="107.8" y2="326.86"/><path class="cls-4" d="M76.49,309.76a52.23,52.23,0,0,1,8.6,2.85c2.75,1.16,5.43,2.47,8,3.89a87.71,87.71,0,0,1,7.62,4.66,52.51,52.51,0,0,1,7,5.7A52,52,0,0,1,99.19,324q-4.12-1.75-8-3.89c-2.6-1.43-5.15-3-7.61-4.67A52.58,52.58,0,0,1,76.49,309.76Z"/><line class="cls-3" x1="96.34" y1="309.38" x2="106.86" y2="315.27"/><path class="cls-4" d="M96.34,309.38a8.27,8.27,0,0,1,3.42.07,10.31,10.31,0,0,1,2.85,1.08,10.17,10.17,0,0,1,2.41,1.86,8.31,8.31,0,0,1,1.84,2.88,8.3,8.3,0,0,1-3.42,0,10.5,10.5,0,0,1-5.26-3A8.31,8.31,0,0,1,96.34,309.38Z"/><line class="cls-3" x1="54.33" y1="382.36" x2="63.89" y2="367.43"/><path class="cls-4" d="M54.33,382.36a14.82,14.82,0,0,1,1-4.6,22.38,22.38,0,0,1,4.78-7.47,14.41,14.41,0,0,1,3.75-2.86,14.48,14.48,0,0,1-1,4.6,21.88,21.88,0,0,1-2,4,22.47,22.47,0,0,1-2.77,3.49A14.63,14.63,0,0,1,54.33,382.36Z"/><line class="cls-3" x1="38.64" y1="389.1" x2="60.86" y2="354.41"/><path class="cls-4" d="M38.64,389.1a69.8,69.8,0,0,1,4.2-9.54q2.4-4.57,5.18-8.91t5.92-8.44a68.6,68.6,0,0,1,6.92-7.8A67,67,0,0,1,56.67,364c-1.59,3.05-3.33,6-5.18,8.91s-3.83,5.7-5.93,8.43A68.6,68.6,0,0,1,38.64,389.1Z"/><line class="cls-3" x1="35.03" y1="376.99" x2="58.45" y2="340.44"/><path class="cls-4" d="M35,377a77.27,77.27,0,0,1,4.5-10c1.69-3.21,3.53-6.33,5.48-9.38s4-6,6.22-8.9a74.78,74.78,0,0,1,7.22-8.26,75.9,75.9,0,0,1-4.49,10q-2.55,4.82-5.48,9.38t-6.23,8.89A75.94,75.94,0,0,1,35,377Z"/><line class="cls-3" x1="31.88" y1="364.16" x2="56.77" y2="325.31"/><path class="cls-4" d="M31.88,364.16a87.54,87.54,0,0,1,4.86-10.58c1.82-3.4,3.78-6.71,5.85-9.95s4.26-6.41,6.59-9.48a85.42,85.42,0,0,1,7.59-8.84,86.17,86.17,0,0,1-4.86,10.59q-2.73,5.1-5.85,10c-2.08,3.24-4.27,6.4-6.6,9.47A85.32,85.32,0,0,1,31.88,364.16Z"/><line class="cls-3" x1="29.25" y1="350.52" x2="56.01" y2="308.75"/><path class="cls-4" d="M29.25,350.52a100.81,100.81,0,0,1,5.33-11.31q3-5.46,6.31-10.68T48,318.32A97.19,97.19,0,0,1,56,308.75a96.79,96.79,0,0,1-5.33,11.32q-3,5.46-6.32,10.68T37.3,341A98.49,98.49,0,0,1,29.25,350.52Z"/><line class="cls-3" x1="27.23" y1="335.93" x2="43.38" y2="310.72"/><path class="cls-4" d="M27.23,335.93a37.78,37.78,0,0,1,2.68-7.18,63.24,63.24,0,0,1,3.66-6.54A60.41,60.41,0,0,1,38,316.15a36.45,36.45,0,0,1,5.4-5.43,36.75,36.75,0,0,1-2.67,7.17A60.54,60.54,0,0,1,37,324.43a62,62,0,0,1-4.41,6.06A37,37,0,0,1,27.23,335.93Z"/><line class="cls-3" x1="25.96" y1="320.17" x2="32.26" y2="310.33"/><path class="cls-4" d="M26,320.17a8,8,0,0,1,.21-3.33,10.29,10.29,0,0,1,1.2-2.7,10,10,0,0,1,1.95-2.23,7.91,7.91,0,0,1,2.94-1.58,7.84,7.84,0,0,1-.21,3.33,9.91,9.91,0,0,1-3.16,4.92A8,8,0,0,1,26,320.17Z"/><line class="cls-3" x1="190.73" y1="522.06" x2="177.28" y2="526.9"/><path class="cls-4" d="M190.73,522.06a10.38,10.38,0,0,1-2.82,2.73,14.52,14.52,0,0,1-6.72,2.42,10.45,10.45,0,0,1-3.91-.31,10.42,10.42,0,0,1,2.82-2.74,14.44,14.44,0,0,1,3.21-1.62,14.67,14.67,0,0,1,3.51-.79A10.66,10.66,0,0,1,190.73,522.06Z"/><line class="cls-3" x1="203.23" y1="527.76" x2="170.63" y2="539.48"/><path class="cls-4" d="M203.23,527.76a48.32,48.32,0,0,1-7.6,4.45,85.62,85.62,0,0,1-8,3.35,81.82,81.82,0,0,1-8.3,2.51,48.89,48.89,0,0,1-8.7,1.41,48.39,48.39,0,0,1,7.6-4.46,85.54,85.54,0,0,1,8-3.34,84.64,84.64,0,0,1,8.31-2.51A50.5,50.5,0,0,1,203.23,527.76Z"/><line class="cls-3" x1="216.92" y1="533.04" x2="174.96" y2="548.11"/><path class="cls-4" d="M216.91,533a79.74,79.74,0,0,1-9.94,5.29q-5.08,2.31-10.33,4.19c-3.5,1.25-7,2.38-10.64,3.35a78.78,78.78,0,0,1-11,2.24,79.83,79.83,0,0,1,9.94-5.29q5.1-2.31,10.34-4.18t10.64-3.35A79.25,79.25,0,0,1,216.91,533Z"/><line class="cls-3" x1="232.05" y1="537.8" x2="187.28" y2="553.88"/><path class="cls-4" d="M232.05,537.8a91.31,91.31,0,0,1-10.65,5.54c-3.63,1.62-7.31,3.09-11,4.44s-7.51,2.55-11.34,3.6a89.65,89.65,0,0,1-11.74,2.5,91.39,91.39,0,0,1,10.65-5.55c3.62-1.62,7.31-3.09,11-4.43s7.51-2.55,11.34-3.6A91.31,91.31,0,0,1,232.05,537.8Z"/><line class="cls-3" x1="247.88" y1="542.3" x2="200.6" y2="559.28"/><path class="cls-4" d="M247.88,542.3a101.61,101.61,0,0,1-11.28,5.77c-3.83,1.7-7.72,3.24-11.66,4.66s-7.93,2.7-12,3.83a99.32,99.32,0,0,1-12.37,2.72,104.13,104.13,0,0,1,11.27-5.77c3.84-1.7,7.73-3.24,11.67-4.66s7.93-2.69,12-3.82A101.59,101.59,0,0,1,247.88,542.3Z"/><line class="cls-3" x1="246.14" y1="553.12" x2="215.13" y2="564.26"/><path class="cls-4" d="M246.14,553.12a44.69,44.69,0,0,1-7.21,4.3,73.26,73.26,0,0,1-7.6,3.21,75.69,75.69,0,0,1-7.9,2.37,44.32,44.32,0,0,1-8.3,1.26,44.38,44.38,0,0,1,7.2-4.31,74.28,74.28,0,0,1,7.61-3.2,76.42,76.42,0,0,1,7.9-2.37A44.32,44.32,0,0,1,246.14,553.12Z"/><line class="cls-3" x1="244.9" y1="563.75" x2="231.14" y2="568.7"/><path class="cls-4" d="M244.9,563.75a10.87,10.87,0,0,1-2.89,2.76,15.63,15.63,0,0,1-3.29,1.66,15.36,15.36,0,0,1-3.59.82,11.06,11.06,0,0,1-4-.29,10.87,10.87,0,0,1,2.89-2.76,15.13,15.13,0,0,1,3.29-1.65,15.45,15.45,0,0,1,3.6-.82A11,11,0,0,1,244.9,563.75Z"/><line class="cls-3" x1="196.03" y1="496.52" x2="203.72" y2="509.53"/><path class="cls-4" d="M196,496.52a11.6,11.6,0,0,1,3.32,2.43,15.93,15.93,0,0,1,2.3,3,15.5,15.5,0,0,1,1.55,3.47,11.57,11.57,0,0,1,.52,4.08,11.41,11.41,0,0,1-3.31-2.43,15.53,15.53,0,0,1-2.3-3,16,16,0,0,1-1.54-3.48A11.48,11.48,0,0,1,196,496.52Z"/><line class="cls-3" x1="201.69" y1="487.22" x2="218.55" y2="515.73"/><path class="cls-4" d="M201.69,487.22a46.1,46.1,0,0,1,5.61,6.31,76.48,76.48,0,0,1,4.59,6.9,75.33,75.33,0,0,1,3.84,7.35,45.38,45.38,0,0,1,2.82,8,44.8,44.8,0,0,1-5.61-6.3,77.4,77.4,0,0,1-8.42-14.26A45.4,45.4,0,0,1,201.69,487.22Z"/><line class="cls-3" x1="207.11" y1="477.51" x2="232.5" y2="520.46"/><path class="cls-4" d="M207.11,477.51a101.07,101.07,0,0,1,7.74,9.92q3.56,5.13,6.73,10.51t6,11a100.71,100.71,0,0,1,4.95,11.56,98.32,98.32,0,0,1-7.74-9.91Q221.19,505.41,218,500c-2.11-3.58-4.11-7.23-6-11A99,99,0,0,1,207.11,477.51Z"/><line class="cls-3" x1="219.71" y1="479.95" x2="245.76" y2="524.03"/><path class="cls-4" d="M219.71,480a105,105,0,0,1,7.9,10.2c2.43,3.52,4.72,7.12,6.9,10.79s4.22,7.42,6.13,11.24A104.25,104.25,0,0,1,245.76,524a105.09,105.09,0,0,1-7.91-10.2Q234.21,508.55,231,503c-2.17-3.68-4.22-7.42-6.13-11.25A104.87,104.87,0,0,1,219.71,480Z"/><line class="cls-3" x1="234.35" y1="485.86" x2="253.37" y2="518.02"/><path class="cls-4" d="M234.35,485.86a56.48,56.48,0,0,1,6.15,7.22q2.76,3.78,5.13,7.81t4.38,8.26a57.13,57.13,0,0,1,3.36,8.87,55.69,55.69,0,0,1-6.15-7.22,92.89,92.89,0,0,1-5.13-7.81q-2.39-4-4.37-8.27A57,57,0,0,1,234.35,485.86Z"/><line class="cls-3" x1="248.05" y1="490.15" x2="255.97" y2="503.56"/><path class="cls-4" d="M248.05,490.15a12.11,12.11,0,0,1,3.37,2.53,17.25,17.25,0,0,1,2.36,3.13,16.45,16.45,0,0,1,1.61,3.57,12.09,12.09,0,0,1,.58,4.18A11.78,11.78,0,0,1,252.6,501a17.46,17.46,0,0,1-4-6.7A11.89,11.89,0,0,1,248.05,490.15Z"/><line class="cls-3" x1="173.83" y1="493.06" x2="179.64" y2="491.88"/><path class="cls-4" d="M173.83,493.06a4.36,4.36,0,0,1,1.14-1.88,2.69,2.69,0,0,1,2.9-.59,1.62,1.62,0,0,1,.64,3.17,2.76,2.76,0,0,1-1.36.73,2.86,2.86,0,0,1-1.54-.15A4.46,4.46,0,0,1,173.83,493.06Z"/><line class="cls-3" x1="162.61" y1="485.45" x2="187.23" y2="480.47"/><path class="cls-4" d="M162.61,485.45a27.23,27.23,0,0,1,5.83-2.83,44.8,44.8,0,0,1,6.07-1.68,43.26,43.26,0,0,1,6.25-.82,26.83,26.83,0,0,1,6.47.35,27.23,27.23,0,0,1-5.83,2.83,44.68,44.68,0,0,1-12.32,2.49A27.34,27.34,0,0,1,162.61,485.45Z"/><line class="cls-3" x1="152.7" y1="477.58" x2="192.83" y2="469.45"/><path class="cls-4" d="M152.7,477.58a67,67,0,0,1,9.71-3.62q4.93-1.45,10-2.46c3.34-.68,6.71-1.22,10.12-1.6a67.11,67.11,0,0,1,10.35-.45,67,67,0,0,1-9.71,3.62c-3.28,1-6.6,1.79-10,2.46s-6.71,1.22-10.12,1.6A68.39,68.39,0,0,1,152.7,477.58Z"/><line class="cls-3" x1="143.66" y1="469.53" x2="186.07" y2="460.94"/><path class="cls-4" d="M143.66,469.53a75.83,75.83,0,0,1,10.28-3.73q5.22-1.51,10.52-2.58t10.69-1.72a76.09,76.09,0,0,1,10.92-.56,74.56,74.56,0,0,1-10.28,3.74q-5.21,1.51-10.52,2.57c-3.53.72-7.09,1.3-10.69,1.71A74.67,74.67,0,0,1,143.66,469.53Z"/><line class="cls-3" x1="134.96" y1="461.41" x2="175.91" y2="453.12"/><path class="cls-4" d="M135,461.41a70,70,0,0,1,9.91-3.65q5-1.49,10.15-2.51t10.33-1.64a69.85,69.85,0,0,1,10.56-.49,69.72,69.72,0,0,1-9.92,3.66q-5,1.49-10.15,2.51c-3.41.68-6.85,1.24-10.32,1.63A71.18,71.18,0,0,1,135,461.41Z"/><line class="cls-3" x1="131.9" y1="452.51" x2="166.77" y2="445.07"/><path class="cls-4" d="M131.9,452.51a52.41,52.41,0,0,1,8.38-3.44c2.84-.91,5.72-1.67,8.62-2.29a84.19,84.19,0,0,1,8.81-1.43,51.44,51.44,0,0,1,9.06-.28,52.47,52.47,0,0,1-8.38,3.45,89.15,89.15,0,0,1-8.63,2.29c-2.9.61-5.84,1.1-8.8,1.42A52.45,52.45,0,0,1,131.9,452.51Z"/><line class="cls-3" x1="146.75" y1="439.27" x2="158.56" y2="436.88"/><path class="cls-4" d="M146.75,439.27a8.31,8.31,0,0,1,2.63-2.18,10.37,10.37,0,0,1,5.91-1.2,8.09,8.09,0,0,1,3.27,1,8.2,8.2,0,0,1-2.63,2.18,10,10,0,0,1-2.87,1,10.24,10.24,0,0,1-3,.16A8.39,8.39,0,0,1,146.75,439.27Z"/><line class="cls-3" x1="162.05" y1="522.15" x2="159.65" y2="504.56"/><path class="cls-4" d="M162.05,522.15a14.65,14.65,0,0,1-2.2-4.18,22.41,22.41,0,0,1-1.2-8.79,14.6,14.6,0,0,1,1-4.62,15,15,0,0,1,2.21,4.18,21.24,21.24,0,0,1,1,4.34,22.07,22.07,0,0,1,.16,4.46A15.12,15.12,0,0,1,162.05,522.15Z"/><line class="cls-3" x1="154.49" y1="537.52" x2="148.93" y2="496.65"/><path class="cls-4" d="M154.49,537.52a68.89,68.89,0,0,1-3-10q-1.14-5.06-1.83-10.16c-.47-3.41-.79-6.83-1-10.28a67.48,67.48,0,0,1,.22-10.43,68.52,68.52,0,0,1,3,10c.77,3.36,1.37,6.75,1.83,10.15s.78,6.84.95,10.28A68.87,68.87,0,0,1,154.49,537.52Z"/><line class="cls-3" x1="143.91" y1="530.66" x2="138.05" y2="487.61"/><path class="cls-4" d="M143.91,530.66a76.12,76.12,0,0,1-3.07-10.54c-.79-3.55-1.41-7.12-1.9-10.71s-.84-7.19-1-10.82a74.66,74.66,0,0,1,.14-11,76.12,76.12,0,0,1,3.07,10.54c.79,3.55,1.41,7.12,1.9,10.71s.83,7.19,1,10.82A77.52,77.52,0,0,1,143.91,530.66Z"/><line class="cls-3" x1="133.21" y1="522.98" x2="126.98" y2="477.2"/><path class="cls-4" d="M133.21,523a87.42,87.42,0,0,1-3.16-11.23q-1.22-5.65-2-11.38t-1.13-11.51a87.31,87.31,0,0,1,0-11.66,85.88,85.88,0,0,1,3.17,11.23q1.22,5.65,2,11.38c.52,3.82.9,7.65,1.11,11.51A85.65,85.65,0,0,1,133.21,523Z"/><line class="cls-3" x1="122.39" y1="514.33" x2="115.69" y2="465.11"/><path class="cls-4" d="M122.39,514.33a100.65,100.65,0,0,1-3.28-12.09c-.86-4.06-1.55-8.14-2.11-12.24s-1-8.22-1.24-12.37a96.78,96.78,0,0,1-.07-12.52A98.82,98.82,0,0,1,119,477.2c.86,4.06,1.55,8.14,2.11,12.24s1,8.22,1.23,12.37A100.48,100.48,0,0,1,122.39,514.33Z"/><line class="cls-3" x1="111.41" y1="504.55" x2="107.36" y2="474.85"/><path class="cls-4" d="M111.41,504.55a37,37,0,0,1-2.61-7.21,62.67,62.67,0,0,1-2-14.85,37.57,37.57,0,0,1,.59-7.64,37,37,0,0,1,2.62,7.21,62.15,62.15,0,0,1,1.45,7.36,64.42,64.42,0,0,1,.57,7.49A38.3,38.3,0,0,1,111.41,504.55Z"/><line class="cls-3" x1="100.24" y1="493.41" x2="98.66" y2="481.81"/><path class="cls-4" d="M100.24,493.41a7.88,7.88,0,0,1-2-2.68,9.92,9.92,0,0,1-.84-2.84,9.5,9.5,0,0,1,0-3,7.87,7.87,0,0,1,1.21-3.12,7.91,7.91,0,0,1,2,2.68,9.9,9.9,0,0,1,.83,2.84,10.15,10.15,0,0,1,0,3A8.18,8.18,0,0,1,100.24,493.41Z"/><line class="cls-3" x1="357.17" y1="540.78" x2="350.08" y2="553.23"/><path class="cls-4" d="M357.17,540.78a10.5,10.5,0,0,1-.37,3.91,14.68,14.68,0,0,1-1.38,3.34,14.23,14.23,0,0,1-2.16,2.89,10.48,10.48,0,0,1-3.18,2.31,10.5,10.5,0,0,1,.37-3.91,14,14,0,0,1,1.39-3.33A14.33,14.33,0,0,1,354,543.1,10.76,10.76,0,0,1,357.17,540.78Z"/><line class="cls-3" x1="370.37" y1="536.95" x2="353.17" y2="567.14"/><path class="cls-4" d="M370.37,537a50.19,50.19,0,0,1-2.9,8.35,84,84,0,0,1-3.91,7.76,80.53,80.53,0,0,1-4.69,7.33,49.59,49.59,0,0,1-5.7,6.75,48.12,48.12,0,0,1,2.89-8.35A81.86,81.86,0,0,1,360,551a84,84,0,0,1,4.68-7.32A49,49,0,0,1,370.37,537Z"/><line class="cls-3" x1="384.18" y1="532.03" x2="362.05" y2="570.87"/><path class="cls-4" d="M384.18,532a79.37,79.37,0,0,1-4.13,10.51c-1.58,3.39-3.3,6.69-5.15,9.93s-3.8,6.41-5.91,9.49a79.32,79.32,0,0,1-6.94,8.91,80.73,80.73,0,0,1,4.12-10.51c1.59-3.39,3.31-6.69,5.15-9.93s3.82-6.4,5.92-9.49A81.44,81.44,0,0,1,384.18,532Z"/><line class="cls-3" x1="398.76" y1="525.77" x2="375.14" y2="567.21"/><path class="cls-4" d="M398.76,525.77a93.89,93.89,0,0,1-4.5,11.16c-1.71,3.6-3.56,7.13-5.52,10.58s-4.06,6.84-6.29,10.14a88.94,88.94,0,0,1-7.31,9.56,90,90,0,0,1,4.5-11.16c1.7-3.6,3.55-7.13,5.52-10.58s4.06-6.83,6.29-10.14A91,91,0,0,1,398.76,525.77Z"/><line class="cls-3" x1="413.7" y1="518.86" x2="388.77" y2="562.62"/><path class="cls-4" d="M413.7,518.86a102.55,102.55,0,0,1-4.83,11.74c-1.81,3.8-3.77,7.51-5.85,11.16s-4.27,7.23-6.61,10.73a102.54,102.54,0,0,1-7.64,10.13,100.72,100.72,0,0,1,4.82-11.74c1.82-3.8,3.77-7.51,5.85-11.16s4.28-7.22,6.63-10.72A102.56,102.56,0,0,1,413.7,518.86Z"/><line class="cls-3" x1="419.38" y1="528.21" x2="403.02" y2="556.92"/><path class="cls-4" d="M419.38,528.21a45.34,45.34,0,0,1-2.68,8,79.85,79.85,0,0,1-3.71,7.4,74.05,74.05,0,0,1-4.47,7,44.46,44.46,0,0,1-5.5,6.37,45.62,45.62,0,0,1,2.68-8,78.45,78.45,0,0,1,3.71-7.39,76.23,76.23,0,0,1,4.48-7A45.66,45.66,0,0,1,419.38,528.21Z"/><line class="cls-3" x1="425.32" y1="537.11" x2="418.06" y2="549.85"/><path class="cls-4" d="M425.32,537.11a10.87,10.87,0,0,1-.41,4,15.42,15.42,0,0,1-3.62,6.37,10.91,10.91,0,0,1-3.23,2.39,10.91,10.91,0,0,1,.41-4,15.33,15.33,0,0,1,3.64-6.37A11.1,11.1,0,0,1,425.32,537.11Z"/><line class="cls-3" x1="343.83" y1="516.85" x2="358.1" y2="521.72"/><path class="cls-4" d="M343.83,516.85a11.41,11.41,0,0,1,4.09-.31,16.33,16.33,0,0,1,3.71.79,16.09,16.09,0,0,1,3.43,1.64,11.29,11.29,0,0,1,3,2.75A11.41,11.41,0,0,1,354,522a16.2,16.2,0,0,1-7.13-2.44A11.44,11.44,0,0,1,343.83,516.85Z"/><line class="cls-3" x1="342.12" y1="506.09" x2="373.38" y2="516.76"/><path class="cls-4" d="M342.12,506.09a44.8,44.8,0,0,1,8.34,1.14,76.72,76.72,0,0,1,8,2.24,74.62,74.62,0,0,1,7.68,3.09,44.16,44.16,0,0,1,7.29,4.2,44.8,44.8,0,0,1-8.34-1.14,77,77,0,0,1-15.63-5.34A44.82,44.82,0,0,1,342.12,506.09Z"/><line class="cls-3" x1="339.95" y1="495.18" x2="387.04" y2="511.24"/><path class="cls-4" d="M340,495.18a99.92,99.92,0,0,1,12.3,2.48q6,1.59,11.91,3.6t11.63,4.43A100.28,100.28,0,0,1,387,511.24a98.46,98.46,0,0,1-12.3-2.48c-4-1.05-8-2.26-11.91-3.6s-7.8-2.81-11.63-4.44A101,101,0,0,1,340,495.18Z"/><line class="cls-3" x1="351.1" y1="488.8" x2="399.43" y2="505.29"/><path class="cls-4" d="M351.1,488.8a107.55,107.55,0,0,1,12.61,2.6q6.18,1.64,12.22,3.7t11.94,4.54a103.66,103.66,0,0,1,11.56,5.65,103.18,103.18,0,0,1-12.61-2.58q-6.18-1.63-12.22-3.71c-4-1.38-8-2.88-11.94-4.54A105.52,105.52,0,0,1,351.1,488.8Z"/><line class="cls-3" x1="366.06" y1="483.73" x2="401.32" y2="495.77"/><path class="cls-4" d="M366.06,483.73a57.25,57.25,0,0,1,9.33,1.48c3,.72,6,1.59,9,2.59s5.84,2.14,8.68,3.42a56.46,56.46,0,0,1,8.29,4.55,56.14,56.14,0,0,1-9.34-1.48c-3-.72-6-1.59-9-2.59s-5.83-2.14-8.67-3.43A57.34,57.34,0,0,1,366.06,483.73Z"/><line class="cls-3" x1="379.24" y1="478.06" x2="393.94" y2="483.07"/><path class="cls-4" d="M379.24,478.06a12.2,12.2,0,0,1,4.2-.28,17.47,17.47,0,0,1,3.82.84,16,16,0,0,1,3.53,1.67,11.64,11.64,0,0,1,3.15,2.78,11.68,11.68,0,0,1-4.19.28,16.66,16.66,0,0,1-3.82-.83,17.28,17.28,0,0,1-3.53-1.68A12.18,12.18,0,0,1,379.24,478.06Z"/><line class="cls-3" x1="326.22" y1="528.79" x2="329.87" y2="524.1"/><path class="cls-4" d="M326.22,528.79a4.47,4.47,0,0,1-.36-2.17,2.89,2.89,0,0,1,.56-1.44,2.77,2.77,0,0,1,1.26-.9,4.42,4.42,0,0,1,2.19-.18,4.51,4.51,0,0,1,.37,2.17,2.78,2.78,0,0,1-.57,1.44,2.84,2.84,0,0,1-1.26.9A4.54,4.54,0,0,1,326.22,528.79Z"/><line class="cls-3" x1="312.76" y1="530.34" x2="328.26" y2="510.47"/><path class="cls-4" d="M312.76,530.34a27.85,27.85,0,0,1,2.6-6,44.87,44.87,0,0,1,3.53-5.24,42.55,42.55,0,0,1,4.22-4.7,27,27,0,0,1,5.15-4,27.15,27.15,0,0,1-2.6,6,41.76,41.76,0,0,1-3.53,5.24,44.46,44.46,0,0,1-4.22,4.69A27.45,27.45,0,0,1,312.76,530.34Z"/><line class="cls-3" x1="300.14" y1="530.82" x2="325.39" y2="498.45"/><path class="cls-4" d="M300.14,530.82a69,69,0,0,1,5-9.09c1.86-2.88,3.86-5.66,6-8.36s4.32-5.31,6.66-7.83a67.35,67.35,0,0,1,7.59-7.09,67.88,67.88,0,0,1-5,9.09c-1.86,2.88-3.86,5.67-6,8.36s-4.32,5.31-6.67,7.82A68.2,68.2,0,0,1,300.14,530.82Z"/><line class="cls-3" x1="288.06" y1="530.6" x2="314.74" y2="496.39"/><path class="cls-4" d="M288.06,530.6a76,76,0,0,1,5.4-9.54c2-3,4.1-6,6.32-8.83s4.55-5.62,7-8.28a76,76,0,0,1,7.95-7.56,74.11,74.11,0,0,1-5.39,9.55q-3,4.56-6.32,8.83c-2.23,2.84-4.56,5.61-7,8.27A73.92,73.92,0,0,1,288.06,530.6Z"/><line class="cls-3" x1="276.2" y1="530.11" x2="301.96" y2="497.08"/><path class="cls-4" d="M276.2,530.11a71.64,71.64,0,0,1,5.16-9.25c1.91-2.94,3.95-5.77,6.09-8.53s4.4-5.42,6.79-8a71,71,0,0,1,7.72-7.26,70,70,0,0,1-5.17,9.26c-1.91,2.94-3.94,5.77-6.09,8.53s-4.41,5.41-6.79,8A72.82,72.82,0,0,1,276.2,530.11Z"/><line class="cls-3" x1="268.12" y1="525.34" x2="289.8" y2="496.93"/><path class="cls-4" d="M268.12,525.34a52,52,0,0,1,4.13-8.08,89,89,0,0,1,5.07-7.37,87,87,0,0,1,5.77-6.84,52.34,52.34,0,0,1,6.71-6.12,52.57,52.57,0,0,1-4.13,8.09,89.15,89.15,0,0,1-5.08,7.37,86.82,86.82,0,0,1-5.77,6.83A52.93,52.93,0,0,1,268.12,525.34Z"/><line class="cls-3" x1="270.83" y1="505.58" x2="278.26" y2="496.06"/><path class="cls-4" d="M270.83,505.58a8.57,8.57,0,0,1,.58-3.37,10.6,10.6,0,0,1,1.51-2.65,10.26,10.26,0,0,1,2.2-2.11,8.32,8.32,0,0,1,3.14-1.39,8.24,8.24,0,0,1-.58,3.38,10.3,10.3,0,0,1-1.51,2.65A10.57,10.57,0,0,1,274,504.2,8.34,8.34,0,0,1,270.83,505.58Z"/><line class="cls-3" x1="335.4" y1="557.04" x2="322.2" y2="545.23"/><path class="cls-4" d="M335.4,557a14.7,14.7,0,0,1-4.37-1.75,22.39,22.39,0,0,1-6.61-5.9,14.6,14.6,0,0,1-2.22-4.16,14.77,14.77,0,0,1,4.38,1.75,21.33,21.33,0,0,1,3.59,2.62,22.89,22.89,0,0,1,3,3.28A14.87,14.87,0,0,1,335.4,557Z"/><line class="cls-3" x1="339.6" y1="573.65" x2="308.93" y2="546.22"/><path class="cls-4" d="M339.6,573.65a69.85,69.85,0,0,1-8.74-5.65q-4.14-3.09-8-6.53t-7.37-7.18a67.16,67.16,0,0,1-6.59-8.07,68.16,68.16,0,0,1,8.75,5.65q4.13,3.09,8,6.53t7.37,7.19A69,69,0,0,1,339.6,573.65Z"/><line class="cls-3" x1="327.13" y1="575.35" x2="294.81" y2="546.45"/><path class="cls-4" d="M327.13,575.35a75.38,75.38,0,0,1-9.16-6c-2.89-2.18-5.68-4.49-8.38-6.89s-5.29-4.92-7.78-7.56a74.37,74.37,0,0,1-7-8.43,76.16,76.16,0,0,1,9.16,6q4.33,3.27,8.37,6.89t7.78,7.56A77.38,77.38,0,0,1,327.13,575.35Z"/><line class="cls-3" x1="314.02" y1="576.49" x2="279.67" y2="545.77"/><path class="cls-4" d="M314,576.49a85.65,85.65,0,0,1-9.66-6.48c-3.07-2.33-6-4.79-8.89-7.35s-5.63-5.22-8.3-8a84.57,84.57,0,0,1-7.5-8.88,85.26,85.26,0,0,1,9.67,6.47c3.06,2.33,6,4.79,8.88,7.35s5.63,5.23,8.29,8A87.07,87.07,0,0,1,314,576.49Z"/><line class="cls-3" x1="300.2" y1="576.98" x2="263.26" y2="543.95"/><path class="cls-4" d="M300.2,577a97.59,97.59,0,0,1-10.31-7.05q-4.92-3.79-9.54-7.93t-8.94-8.58a97.58,97.58,0,0,1-8.15-9.47,97.59,97.59,0,0,1,10.31,7q4.92,3.79,9.53,7.93t8.94,8.59A100.19,100.19,0,0,1,300.2,577Z"/><line class="cls-3" x1="285.52" y1="576.72" x2="263.23" y2="556.78"/><path class="cls-4" d="M285.52,576.72a38.09,38.09,0,0,1-6.64-3.78,63.07,63.07,0,0,1-5.87-4.65,61.54,61.54,0,0,1-5.28-5.31,36.86,36.86,0,0,1-4.5-6.2,37.91,37.91,0,0,1,6.66,3.78,60.19,60.19,0,0,1,5.86,4.66,61.54,61.54,0,0,1,5.28,5.31A37.13,37.13,0,0,1,285.52,576.72Z"/><line class="cls-3" x1="269.83" y1="575.54" x2="261.13" y2="567.76"/><path class="cls-4" d="M269.83,575.54a8.07,8.07,0,0,1-3.25-.74,9.87,9.87,0,0,1-4.36-3.89,8,8,0,0,1-1.09-3.15,7.82,7.82,0,0,1,3.25.73,9.78,9.78,0,0,1,2.47,1.62,10.21,10.21,0,0,1,1.88,2.28A8.09,8.09,0,0,1,269.83,575.54Z"/><line class="cls-3" x1="496.11" y1="447.04" x2="498.78" y2="461.14"/><path class="cls-4" d="M496.11,447a10.57,10.57,0,0,1,2.25,3.23,14.58,14.58,0,0,1,1.34,7,10.59,10.59,0,0,1-.92,3.83,10.44,10.44,0,0,1-2.26-3.23,14.22,14.22,0,0,1-1.1-3.44,14.85,14.85,0,0,1-.23-3.6A10.8,10.8,0,0,1,496.11,447Z"/><line class="cls-3" x1="503.66" y1="435.52" x2="510.12" y2="469.69"/><path class="cls-4" d="M503.66,435.52a50.09,50.09,0,0,1,3.2,8.24,83.32,83.32,0,0,1,2.05,8.46,85.67,85.67,0,0,1,1.19,8.63,50.16,50.16,0,0,1,0,8.84,49.27,49.27,0,0,1-3.21-8.24,84.58,84.58,0,0,1-3.22-17.09A49.21,49.21,0,0,1,503.66,435.52Z"/><line class="cls-3" x1="510.97" y1="422.77" x2="519.28" y2="466.73"/><path class="cls-4" d="M511,422.77a80.81,80.81,0,0,1,3.67,10.69q1.49,5.4,2.51,10.9t1.65,11.08a78.38,78.38,0,0,1,.48,11.29A81.82,81.82,0,0,1,515.61,456q-1.47-5.42-2.51-10.91t-1.64-11.07A81.42,81.42,0,0,1,511,422.77Z"/><line class="cls-3" x1="518" y1="408.49" x2="526.87" y2="455.4"/><path class="cls-4" d="M518,408.49a92.22,92.22,0,0,1,3.8,11.43c1,3.85,1.92,7.74,2.66,11.64s1.34,7.85,1.78,11.81a90.6,90.6,0,0,1,.63,12A91,91,0,0,1,523.06,444c-1-3.86-1.91-7.74-2.65-11.65s-1.34-7.85-1.78-11.81A90.6,90.6,0,0,1,518,408.49Z"/><line class="cls-3" x1="524.89" y1="393.49" x2="534.25" y2="443.02"/><path class="cls-4" d="M524.89,393.49a103.74,103.74,0,0,1,3.93,12.08q1.6,6.1,2.77,12.3t1.91,12.47a100.63,100.63,0,0,1,.75,12.68,100.65,100.65,0,0,1-3.93-12.08q-1.62-6.1-2.77-12.3t-1.91-12.47A100.74,100.74,0,0,1,524.89,393.49Z"/><line class="cls-3" x1="535.26" y1="396.89" x2="541.4" y2="429.38"/><path class="cls-4" d="M535.26,396.89a45.21,45.21,0,0,1,3.12,7.82A78.23,78.23,0,0,1,541.46,421a44.74,44.74,0,0,1-.06,8.42,45.26,45.26,0,0,1-3.13-7.82,74.78,74.78,0,0,1-2-8,77.83,77.83,0,0,1-1.1-8.21A45.6,45.6,0,0,1,535.26,396.89Z"/><line class="cls-3" x1="545.53" y1="399.77" x2="548.25" y2="414.19"/><path class="cls-4" d="M545.53,399.77a11.06,11.06,0,0,1,2.26,3.3,14.7,14.7,0,0,1,1.12,3.52,15.09,15.09,0,0,1,.25,3.69,10.75,10.75,0,0,1-.91,3.91,10.83,10.83,0,0,1-2.27-3.31,15.24,15.24,0,0,1-1.36-7.21A10.91,10.91,0,0,1,545.53,399.77Z"/><line class="cls-3" x1="471.75" y1="438.3" x2="485.74" y2="432.69"/><path class="cls-4" d="M471.75,438.3a11.4,11.4,0,0,1,2.9-2.9,16.29,16.29,0,0,1,7-2.82,11.41,11.41,0,0,1,4.1.11,11.22,11.22,0,0,1-2.89,2.9,15.71,15.71,0,0,1-3.34,1.81,15.45,15.45,0,0,1-3.66,1A11.39,11.39,0,0,1,471.75,438.3Z"/><line class="cls-3" x1="463.49" y1="431.24" x2="494.14" y2="418.94"/><path class="cls-4" d="M463.49,431.24a44.26,44.26,0,0,1,7.06-4.57,72.81,72.81,0,0,1,7.5-3.49,75.16,75.16,0,0,1,7.83-2.67,44.68,44.68,0,0,1,8.26-1.57,44.32,44.32,0,0,1-7.06,4.58,77.35,77.35,0,0,1-15.33,6.14A45.53,45.53,0,0,1,463.49,431.24Z"/><line class="cls-3" x1="454.78" y1="424.36" x2="500.96" y2="405.83"/><path class="cls-4" d="M454.78,424.36a100.84,100.84,0,0,1,10.94-6.13c3.74-1.83,7.53-3.5,11.38-5.05s7.75-3,11.71-4.22A100.16,100.16,0,0,1,501,405.83,99.26,99.26,0,0,1,490,412q-5.61,2.73-11.38,5t-11.72,4.22A101.88,101.88,0,0,1,454.78,424.36Z"/><line class="cls-3" x1="459.13" y1="412.24" x2="506.53" y2="393.23"/><path class="cls-4" d="M459.13,412.24A105.16,105.16,0,0,1,470.38,406c3.83-1.87,7.73-3.58,11.68-5.17s7.95-3,12-4.34a103.06,103.06,0,0,1,12.46-3.25,103.44,103.44,0,0,1-11.25,6.25c-3.84,1.87-7.74,3.58-11.69,5.17s-7.95,3-12,4.33A105.32,105.32,0,0,1,459.13,412.24Z"/><line class="cls-3" x1="467.21" y1="398.62" x2="501.8" y2="384.75"/><path class="cls-4" d="M467.21,398.62a56.26,56.26,0,0,1,8.05-5q4.15-2.16,8.48-3.89c2.88-1.16,5.81-2.18,8.81-3.06a56.26,56.26,0,0,1,9.25-2,56.24,56.24,0,0,1-8,5,92.66,92.66,0,0,1-8.49,3.88c-2.88,1.15-5.82,2.18-8.81,3A56.28,56.28,0,0,1,467.21,398.62Z"/><line class="cls-3" x1="473.56" y1="385.7" x2="487.98" y2="379.92"/><path class="cls-4" d="M473.56,385.7a11.94,11.94,0,0,1,3-2.94A16.32,16.32,0,0,1,480,380.9a16.57,16.57,0,0,1,3.77-1,11.73,11.73,0,0,1,4.21.06,12,12,0,0,1-3,2.95,17.27,17.27,0,0,1-7.21,2.88A12,12,0,0,1,473.56,385.7Z"/><line class="cls-3" x1="464.93" y1="458.52" x2="464.68" y2="452.58"/><path class="cls-4" d="M464.93,458.52a4.57,4.57,0,0,1-1.68-1.41,2.88,2.88,0,0,1-.5-1.47,2.7,2.7,0,0,1,.37-1.5,4.4,4.4,0,0,1,1.56-1.56,4.34,4.34,0,0,1,1.68,1.42,2.73,2.73,0,0,1,.5,1.46,2.85,2.85,0,0,1-.38,1.51A4.43,4.43,0,0,1,464.93,458.52Z"/><line class="cls-3" x1="455.71" y1="468.48" x2="454.63" y2="443.27"/><path class="cls-4" d="M455.71,468.48a27.48,27.48,0,0,1-1.89-6.23,45.36,45.36,0,0,1-.54-12.6,27.14,27.14,0,0,1,1.35-6.38,27.2,27.2,0,0,1,1.89,6.24,44.39,44.39,0,0,1,.71,6.28,46.07,46.07,0,0,1-.18,6.32A27.43,27.43,0,0,1,455.71,468.48Z"/><line class="cls-3" x1="446.43" y1="477.09" x2="444.67" y2="436.01"/><path class="cls-4" d="M446.43,477.09a68.79,68.79,0,0,1-2.06-10.2c-.45-3.41-.73-6.83-.88-10.25s-.16-6.86,0-10.29A67.67,67.67,0,0,1,444.67,436a68.79,68.79,0,0,1,2.06,10.2q.66,5.12.87,10.25t0,10.29A68.93,68.93,0,0,1,446.43,477.09Z"/><line class="cls-3" x1="437.11" y1="484.81" x2="435.25" y2="441.39"/><path class="cls-4" d="M437.11,484.81A75.34,75.34,0,0,1,435,474c-.46-3.61-.75-7.22-.91-10.84s-.17-7.24,0-10.87a74.16,74.16,0,0,1,1.16-10.93,75.74,75.74,0,0,1,2.08,10.79c.46,3.6.75,7.22.9,10.84s.17,7.24,0,10.87A76.63,76.63,0,0,1,437.11,484.81Z"/><line class="cls-3" x1="427.77" y1="492.18" x2="425.98" y2="450.27"/><path class="cls-4" d="M427.77,492.18a71.5,71.5,0,0,1-2.06-10.41c-.45-3.48-.74-7-.9-10.46s-.16-7,0-10.49A69.08,69.08,0,0,1,426,450.27,70.19,70.19,0,0,1,428,460.68c.45,3.48.75,7,.89,10.46s.16,7,0,10.5A71.71,71.71,0,0,1,427.77,492.18Z"/><line class="cls-3" x1="418.54" y1="493.83" x2="416.64" y2="458.09"/><path class="cls-4" d="M418.54,493.83a52.83,52.83,0,0,1-2.09-8.85,89.07,89.07,0,0,1-.92-8.91,86.37,86.37,0,0,1,0-9,50.83,50.83,0,0,1,1.14-9,51.87,51.87,0,0,1,2.09,8.85,89.07,89.07,0,0,1,.92,8.91c.15,3,.17,6,0,9A51.77,51.77,0,0,1,418.54,493.83Z"/><line class="cls-3" x1="407.82" y1="477.04" x2="407.3" y2="464.96"/><path class="cls-4" d="M407.82,477a8.35,8.35,0,0,1-1.74-3,10.49,10.49,0,0,1-.58-3,10.88,10.88,0,0,1,.31-3A8.43,8.43,0,0,1,407.3,465a8.33,8.33,0,0,1,1.75,3,10.2,10.2,0,0,1,.57,3,10.88,10.88,0,0,1-.31,3A8.43,8.43,0,0,1,407.82,477Z"/><line class="cls-3" x1="490.15" y1="475.2" x2="472.48" y2="474.84"/><path class="cls-4" d="M490.15,475.2a14.6,14.6,0,0,1-4.45,1.52,22.18,22.18,0,0,1-8.84-.17,14.37,14.37,0,0,1-4.38-1.71,14.63,14.63,0,0,1,4.45-1.53,22.07,22.07,0,0,1,4.43-.35,21.44,21.44,0,0,1,4.41.54A14.59,14.59,0,0,1,490.15,475.2Z"/><line class="cls-3" x1="504.09" y1="485.08" x2="463.03" y2="484.26"/><path class="cls-4" d="M504.09,485.08a67.61,67.61,0,0,1-10.3,1.41c-3.42.23-6.85.31-10.27.24s-6.84-.28-10.26-.65A67.57,67.57,0,0,1,463,484.26a67.63,67.63,0,0,1,10.3-1.42c3.42-.23,6.85-.3,10.27-.23s6.84.28,10.26.65A68.83,68.83,0,0,1,504.09,485.08Z"/><line class="cls-3" x1="495.71" y1="494.52" x2="452.45" y2="493.65"/><path class="cls-4" d="M495.71,494.52a76.18,76.18,0,0,1-10.85,1.4c-3.61.23-7.22.29-10.82.22s-7.21-.28-10.81-.65a74.52,74.52,0,0,1-10.78-1.84,73.24,73.24,0,0,1,10.85-1.4c3.61-.23,7.21-.3,10.82-.23s7.21.29,10.81.67A74.72,74.72,0,0,1,495.71,494.52Z"/><line class="cls-3" x1="486.49" y1="503.94" x2="440.5" y2="503.01"/><path class="cls-4" d="M486.49,503.94A85.7,85.7,0,0,1,475,505.32c-3.84.23-7.68.29-11.51.21s-7.66-.29-11.49-.67A84.11,84.11,0,0,1,440.5,503,85.73,85.73,0,0,1,452,501.62q5.76-.33,11.5-.2t11.49.67A85.83,85.83,0,0,1,486.49,503.94Z"/><line class="cls-3" x1="476.3" y1="513.34" x2="426.85" y2="512.34"/><path class="cls-4" d="M476.3,513.34a98.8,98.8,0,0,1-12.39,1.36q-6.2.33-12.38.2c-4.12-.08-8.24-.3-12.35-.69a96.93,96.93,0,0,1-12.33-1.87,97,97,0,0,1,12.4-1.37q6.18-.33,12.37-.19t12.35.69A98.75,98.75,0,0,1,476.3,513.34Z"/><line class="cls-3" x1="464.98" y1="522.71" x2="435.14" y2="522.11"/><path class="cls-4" d="M465,522.71a37,37,0,0,1-7.49,1.47,62.36,62.36,0,0,1-7.47.29,60.15,60.15,0,0,1-7.45-.59,37,37,0,0,1-7.43-1.77,36.88,36.88,0,0,1,7.49-1.47,62.2,62.2,0,0,1,7.47-.29,64.29,64.29,0,0,1,7.45.6A37.61,37.61,0,0,1,465,522.71Z"/><line class="cls-3" x1="452.28" y1="532.06" x2="440.64" y2="531.83"/><path class="cls-4" d="M452.28,532.06a8,8,0,0,1-2.94,1.56,9.81,9.81,0,0,1-2.92.38,9.44,9.44,0,0,1-2.9-.49,8,8,0,0,1-2.88-1.68,7.67,7.67,0,0,1,2.94-1.56,9.51,9.51,0,0,1,2.92-.39,9.78,9.78,0,0,1,2.9.51A8,8,0,0,1,452.28,532.06Z"/><line class="cls-3" x1="524.77" y1="313.92" x2="520.73" y2="309.57"/><path class="cls-4" d="M524.77,313.92a4.62,4.62,0,0,1-2.2,0,2.91,2.91,0,0,1-1.33-.79,2.82,2.82,0,0,1-.69-1.38,4.47,4.47,0,0,1,.18-2.19,4.28,4.28,0,0,1,2.2,0,2.71,2.71,0,0,1,2,2.18A4.45,4.45,0,0,1,524.77,313.92Z"/><line class="cls-3" x1="524.2" y1="327.51" x2="507.07" y2="309.05"/><path class="cls-4" d="M524.2,327.51a27.46,27.46,0,0,1-5.46-3.52,43.78,43.78,0,0,1-4.61-4.31,42.72,42.72,0,0,1-4-4.91,27.06,27.06,0,0,1-3.1-5.72,27.22,27.22,0,0,1,5.47,3.51,45,45,0,0,1,8.56,9.23A27.06,27.06,0,0,1,524.2,327.51Z"/><line class="cls-3" x1="522.72" y1="340.11" x2="494.8" y2="310.03"/><path class="cls-4" d="M522.72,340.11a68.66,68.66,0,0,1-8.16-6.42q-3.82-3.45-7.31-7.22t-6.66-7.82A66.86,66.86,0,0,1,494.8,310a68.66,68.66,0,0,1,8.16,6.42q3.82,3.45,7.31,7.22c2.32,2.51,4.55,5.11,6.65,7.82A66.93,66.93,0,0,1,522.72,340.11Z"/><line class="cls-3" x1="520.63" y1="352.06" x2="491.12" y2="320.28"/><path class="cls-4" d="M520.63,352.06a76.45,76.45,0,0,1-8.56-6.85q-4-3.66-7.7-7.64c-2.46-2.65-4.82-5.39-7.06-8.25a75.47,75.47,0,0,1-6.19-9,74.49,74.49,0,0,1,8.57,6.84q4,3.66,7.7,7.65c2.45,2.65,4.81,5.39,7.05,8.24A76.4,76.4,0,0,1,520.63,352.06Z"/><line class="cls-3" x1="518.31" y1="363.75" x2="489.82" y2="333.07"/><path class="cls-4" d="M518.31,363.75a70.4,70.4,0,0,1-8.31-6.57q-3.88-3.53-7.45-7.37t-6.8-8a69.46,69.46,0,0,1-5.93-8.77,70.4,70.4,0,0,1,8.31,6.57q3.89,3.53,7.44,7.37c2.37,2.56,4.65,5.21,6.8,8A72.13,72.13,0,0,1,518.31,363.75Z"/><line class="cls-3" x1="512.36" y1="371.03" x2="487.78" y2="345.11"/><path class="cls-4" d="M512.36,371a51.93,51.93,0,0,1-7.31-5.37,89.8,89.8,0,0,1-12.3-13,51.43,51.43,0,0,1-5-7.59,52,52,0,0,1,7.32,5.36q3.4,2.94,6.47,6.18c2,2.16,4,4.42,5.82,6.79A52,52,0,0,1,512.36,371Z"/><line class="cls-3" x1="493.35" y1="365.27" x2="485.13" y2="356.42"/><path class="cls-4" d="M493.35,365.27a8.44,8.44,0,0,1-3.24-1.11,10.57,10.57,0,0,1-2.38-1.91,10.28,10.28,0,0,1-1.73-2.51,8.44,8.44,0,0,1-.87-3.32,8.43,8.43,0,0,1,3.25,1.11,10.34,10.34,0,0,1,2.37,1.92,10.1,10.1,0,0,1,1.73,2.51A8.35,8.35,0,0,1,493.35,365.27Z"/><line class="cls-3" x1="554.75" y1="310.34" x2="541.09" y2="321.61"/><path class="cls-4" d="M554.75,310.34a14.7,14.7,0,0,1-2.39,4.06,22.33,22.33,0,0,1-6.83,5.64,14.87,14.87,0,0,1-4.44,1.57,14.5,14.5,0,0,1,2.38-4.07,22.34,22.34,0,0,1,3.14-3.16,22.92,22.92,0,0,1,3.7-2.47A14.87,14.87,0,0,1,554.75,310.34Z"/><line class="cls-3" x1="571.74" y1="308.75" x2="540" y2="334.93"/><path class="cls-4" d="M571.74,308.75a68.76,68.76,0,0,1-6.91,7.79c-2.45,2.42-5,4.71-7.65,6.89s-5.38,4.26-8.22,6.21a68.06,68.06,0,0,1-9,5.29,68.78,68.78,0,0,1,6.9-7.8q3.69-3.61,7.66-6.88t8.22-6.2A69.92,69.92,0,0,1,571.74,308.75Z"/><line class="cls-3" x1="571.48" y1="321.39" x2="538.03" y2="348.97"/><path class="cls-4" d="M571.48,321.39a76.18,76.18,0,0,1-7.34,8.15c-2.59,2.53-5.29,4.93-8.08,7.23s-5.66,4.49-8.64,6.56A73.43,73.43,0,0,1,538,349a75,75,0,0,1,7.33-8.14q3.9-3.79,8.08-7.24t8.65-6.55A76.12,76.12,0,0,1,571.48,321.39Z"/><line class="cls-3" x1="570.56" y1="334.57" x2="535.01" y2="363.89"/><path class="cls-4" d="M570.56,334.57a86.84,86.84,0,0,1-7.86,8.58q-4.16,4-8.6,7.67t-9.17,7a85.68,85.68,0,0,1-9.92,6.08,84.45,84.45,0,0,1,7.86-8.58q4.15-4,8.6-7.67c3-2.44,6-4.77,9.18-7A85.62,85.62,0,0,1,570.56,334.57Z"/><line class="cls-3" x1="568.9" y1="348.37" x2="530.68" y2="379.89"/><path class="cls-4" d="M568.9,348.37a99.76,99.76,0,0,1-8.53,9.12c-3,2.86-6.09,5.6-9.27,8.23s-6.46,5.14-9.84,7.54a98.52,98.52,0,0,1-10.58,6.63,97.15,97.15,0,0,1,8.52-9.13q4.49-4.29,9.28-8.22t9.84-7.54A98.52,98.52,0,0,1,568.9,348.37Z"/><line class="cls-3" x1="566.36" y1="362.88" x2="543.3" y2="381.9"/><path class="cls-4" d="M566.36,362.88a37.06,37.06,0,0,1-4.74,6,63.6,63.6,0,0,1-11.52,9.52,37,37,0,0,1-6.8,3.5,36.9,36.9,0,0,1,4.73-6,63.13,63.13,0,0,1,11.54-9.51A37.52,37.52,0,0,1,566.36,362.88Z"/><line class="cls-3" x1="562.77" y1="378.27" x2="553.76" y2="385.7"/><path class="cls-4" d="M562.77,378.27a7.93,7.93,0,0,1-1.23,3.1,10,10,0,0,1-2,2.21,9.49,9.49,0,0,1-2.54,1.51,7.84,7.84,0,0,1-3.28.61,8,8,0,0,1,1.22-3.11,9.64,9.64,0,0,1,2-2.19,10,10,0,0,1,2.54-1.52A8,8,0,0,1,562.77,378.27Z"/><line class="cls-5" x1="265.64" y1="305.39" x2="331.77" y2="305.39"/><line class="cls-4" x1="472.73" y1="315.91" x2="412.43" y2="312.5"/><path class="cls-3" d="M472.73,315.91a148.46,148.46,0,0,1-15.17.76c-5,0-10.07-.13-15.1-.41s-10-.71-15-1.29a146.12,146.12,0,0,1-15-2.47,143,143,0,0,1,15.17-.77c5,0,10.07.13,15.1.42s10,.71,15.05,1.29A148.9,148.9,0,0,1,472.73,315.91Z"/><line class="cls-4" x1="471.45" y1="330.97" x2="411.43" y2="322.32"/><path class="cls-3" d="M471.45,331a148.25,148.25,0,0,1-15.23-.56q-7.58-.63-15.07-1.72t-14.94-2.6a145.51,145.51,0,0,1-14.78-3.77,145.66,145.66,0,0,1,15.24.56q7.56.63,15.07,1.73t14.94,2.6A148.66,148.66,0,0,1,471.45,331Z"/><line class="cls-4" x1="469.18" y1="345.96" x2="409.6" y2="332.02"/><path class="cls-3" d="M469.18,346a148.6,148.6,0,0,1-15.26-1.91q-7.56-1.31-15-3.05t-14.79-3.92A146.23,146.23,0,0,1,409.6,332a148.26,148.26,0,0,1,15.26,1.91q7.56,1.31,15,3.06t14.79,3.92A151.45,151.45,0,0,1,469.18,346Z"/><line class="cls-4" x1="313.97" y1="478.31" x2="308.45" y2="419.86"/><path class="cls-3" d="M314,478.31a137.45,137.45,0,0,1-3-14.46c-.76-4.84-1.36-9.7-1.83-14.57s-.78-9.75-.94-14.65a137.57,137.57,0,0,1,.24-14.77,137.45,137.45,0,0,1,3,14.46q1.14,7.28,1.82,14.57c.45,4.88.77,9.76.93,14.66A137.35,137.35,0,0,1,314,478.31Z"/><line class="cls-4" x1="298.72" y1="478.93" x2="298.62" y2="420.25"/><path class="cls-3" d="M298.72,478.93a140.76,140.76,0,0,1-1.64-14.66q-.46-7.33-.47-14.67c0-4.89.12-9.78.42-14.67a138.31,138.31,0,0,1,1.59-14.68,138,138,0,0,1,1.65,14.67q.47,7.33.46,14.67c0,4.89-.12,9.78-.42,14.67A137.84,137.84,0,0,1,298.72,478.93Z"/><line class="cls-4" x1="283.48" y1="478.32" x2="288.8" y2="419.86"/><path class="cls-3" d="M283.48,478.32a137.44,137.44,0,0,1-.28-14.76c.14-4.9.45-9.79.89-14.66s1-9.73,1.77-14.57a134.4,134.4,0,0,1,2.94-14.47,134.89,134.89,0,0,1,.28,14.76q-.21,7.35-.89,14.66c-.45,4.87-1,9.73-1.77,14.57A137.39,137.39,0,0,1,283.48,478.32Z"/><line class="cls-4" x1="457.21" y1="377.44" x2="402.57" y2="352.85"/><path class="cls-3" d="M457.2,377.44a145.12,145.12,0,0,1-14.32-4.67q-7-2.67-13.84-5.75t-13.48-6.55a140.36,140.36,0,0,1-13-7.62,142.53,142.53,0,0,1,14.32,4.67q7,2.66,13.84,5.75t13.48,6.55A144,144,0,0,1,457.2,377.44Z"/><line class="cls-4" x1="450.36" y1="390.84" x2="398.14" y2="361.67"/><path class="cls-3" d="M450.36,390.84A143.65,143.65,0,0,1,436.52,385q-6.75-3.25-13.27-6.91t-12.84-7.68a141.38,141.38,0,0,1-12.27-8.7A138,138,0,0,1,412,367.55q6.75,3.24,13.27,6.91t12.84,7.68A143.42,143.42,0,0,1,450.36,390.84Z"/><line class="cls-4" x1="441.96" y1="403.29" x2="392.98" y2="370.07"/><path class="cls-3" d="M442,403.29a140.7,140.7,0,0,1-13.15-7q-6.39-3.78-12.5-7.94t-12-8.66A139.67,139.67,0,0,1,393,370.07a138.3,138.3,0,0,1,13.15,7q6.39,3.78,12.49,7.94t12,8.68A139.54,139.54,0,0,1,442,403.29Z"/><line class="cls-4" x1="251.24" y1="472.43" x2="267.27" y2="415.86"/><path class="cls-3" d="M251.24,472.43a138.16,138.16,0,0,1,2.46-14.58c1-4.8,2.24-9.55,3.57-14.27s2.81-9.39,4.43-14a134.62,134.62,0,0,1,5.57-13.7,138.14,138.14,0,0,1-2.45,14.58q-1.56,7.2-3.58,14.27t-4.44,14A138.84,138.84,0,0,1,251.24,472.43Z"/><line class="cls-4" x1="237.01" y1="467.99" x2="257.94" y2="412.73"/><path class="cls-3" d="M237,468a141.21,141.21,0,0,1,3.73-14.39q2.19-7.07,4.81-14T251.2,426a138.45,138.45,0,0,1,6.74-13.24,136.1,136.1,0,0,1-3.71,14.39c-1.46,4.71-3.08,9.36-4.82,14s-3.63,9.16-5.65,13.65A138.71,138.71,0,0,1,237,468Z"/><line class="cls-4" x1="223.29" y1="462.12" x2="248.92" y2="408.8"/><path class="cls-3" d="M223.29,462.12a141.2,141.2,0,0,1,5-14q2.79-6.85,6-13.52t6.8-13.14a139.64,139.64,0,0,1,7.87-12.63,136.24,136.24,0,0,1-4.95,14q-2.79,6.87-6,13.52t-6.8,13.14A141.91,141.91,0,0,1,223.29,462.12Z"/><line class="cls-4" x1="422.35" y1="426.08" x2="380.49" y2="385.49"/><path class="cls-3" d="M422.35,426.08a136.07,136.07,0,0,1-11.59-9q-5.55-4.75-10.78-9.83T389.83,396.8a132.91,132.91,0,0,1-9.34-11.31,134.61,134.61,0,0,1,11.59,9q5.55,4.74,10.77,9.83T413,414.78A136,136,0,0,1,422.35,426.08Z"/><line class="cls-4" x1="411.84" y1="436.66" x2="373.35" y2="392.28"/><path class="cls-3" d="M411.84,436.66a136,136,0,0,1-10.84-10q-5.16-5.25-10-10.8t-9.29-11.38a135.87,135.87,0,0,1-8.4-12.16,137.79,137.79,0,0,1,10.85,10q5.15,5.25,9.95,10.81t9.29,11.39A137.82,137.82,0,0,1,411.84,436.66Z"/><line class="cls-4" x1="399.93" y1="445.62" x2="365.65" y2="398.42"/><path class="cls-3" d="M399.93,445.62a136.26,136.26,0,0,1-9.87-10.85q-4.67-5.64-8.93-11.54t-8.22-12.06a135,135,0,0,1-7.26-12.75,134.5,134.5,0,0,1,9.88,10.85q4.65,5.64,8.93,11.54c2.85,3.93,5.6,7.95,8.21,12.06A135,135,0,0,1,399.93,445.62Z"/><line class="cls-4" x1="196.61" y1="445.18" x2="231.08" y2="397.98"/><path class="cls-3" d="M196.61,445.18a137.62,137.62,0,0,1,7.31-12.75q3.95-6.17,8.26-12.06t9-11.54A137.06,137.06,0,0,1,231.08,398a133.38,133.38,0,0,1-7.31,12.76q-3.95,6.17-8.26,12.06c-2.88,3.93-5.86,7.78-9,11.53A138.87,138.87,0,0,1,196.61,445.18Z"/><line class="cls-4" x1="184.39" y1="436.55" x2="223.42" y2="391.79"/><path class="cls-3" d="M184.39,436.55a144.6,144.6,0,0,1,8.54-12.25q4.55-5.9,9.43-11.48t10.08-10.9a138.94,138.94,0,0,1,11-10.13,140.86,140.86,0,0,1-8.53,12.26q-4.54,5.88-9.43,11.48t-10.09,10.89A138.94,138.94,0,0,1,184.39,436.55Z"/><line class="cls-4" x1="173.33" y1="426.44" x2="216.33" y2="384.96"/><path class="cls-3" d="M173.33,426.44A140.86,140.86,0,0,1,183,414.91q5.07-5.52,10.45-10.7t11-10a139.21,139.21,0,0,1,11.88-9.2,142.69,142.69,0,0,1-9.63,11.53c-3.37,3.68-6.86,7.23-10.44,10.69S189,414,185.2,417.23A146.26,146.26,0,0,1,173.33,426.44Z"/><line class="cls-4" x1="372.85" y1="463.12" x2="347.38" y2="409.3"/><path class="cls-3" d="M372.85,463.12A141.37,141.37,0,0,1,365,450.35q-3.58-6.53-6.77-13.26t-6-13.64a142.31,142.31,0,0,1-4.9-14.15,138.14,138.14,0,0,1,7.83,12.76q3.6,6.54,6.77,13.27t6,13.64A141.49,141.49,0,0,1,372.85,463.12Z"/><line class="cls-4" x1="358.82" y1="468.28" x2="338.32" y2="413.13"/><path class="cls-3" d="M358.82,468.28a139.71,139.71,0,0,1-6.64-13.23q-3-6.74-5.54-13.63t-4.71-13.94a137.48,137.48,0,0,1-3.61-14.35A138.46,138.46,0,0,1,345,426.35q3,6.73,5.53,13.64t4.71,13.94A137.48,137.48,0,0,1,358.82,468.28Z"/><line class="cls-4" x1="344.95" y1="473.94" x2="328.96" y2="416.17"/><path class="cls-3" d="M345,473.94a144.08,144.08,0,0,1-5.55-14c-1.63-4.74-3.09-9.51-4.43-14.33s-2.53-9.66-3.57-14.56A141.36,141.36,0,0,1,329,416.17a138.31,138.31,0,0,1,5.56,14c1.63,4.73,3.09,9.51,4.42,14.32s2.53,9.67,3.57,14.57A141.36,141.36,0,0,1,345,473.94Z"/><line class="cls-4" x1="153.61" y1="401.44" x2="203.35" y2="368.56"/><path class="cls-3" d="M153.61,401.44a145.26,145.26,0,0,1,11.54-9.57c4-3,8-5.84,12.19-8.59s8.37-5.36,12.68-7.85a140.78,140.78,0,0,1,13.33-6.87,141.05,141.05,0,0,1-11.54,9.57c-4,3-8.05,5.85-12.2,8.59s-8.36,5.36-12.68,7.85A141.75,141.75,0,0,1,153.61,401.44Z"/><line class="cls-4" x1="145.93" y1="388.53" x2="198.32" y2="360.08"/><path class="cls-3" d="M145.93,388.53A144,144,0,0,1,158.26,380c4.22-2.64,8.52-5.13,12.88-7.51s8.8-4.62,13.31-6.72a138.13,138.13,0,0,1,13.87-5.69A140.27,140.27,0,0,1,186,368.62q-6.33,3.94-12.89,7.5t-13.31,6.72A140.52,140.52,0,0,1,145.93,388.53Z"/><line class="cls-4" x1="138.86" y1="375.24" x2="194.04" y2="351.19"/><path class="cls-3" d="M138.86,375.24A142.88,142.88,0,0,1,152,367.75q6.72-3.44,13.62-6.42t14-5.61A141.5,141.5,0,0,1,194,351.19a145.34,145.34,0,0,1-13.15,7.5q-6.72,3.42-13.62,6.41t-14,5.61A146.67,146.67,0,0,1,138.86,375.24Z"/><line class="cls-4" x1="128.19" y1="346.06" x2="187.71" y2="331.94"/><path class="cls-3" d="M128.19,346.06a151.28,151.28,0,0,1,14.5-5.1q7.35-2.2,14.78-4t15-3.11a145.41,145.41,0,0,1,15.25-1.95,148.59,148.59,0,0,1-14.5,5.1q-7.35,2.22-14.78,4t-15,3.1A148.84,148.84,0,0,1,128.19,346.06Z"/><line class="cls-4" x1="125.09" y1="331.2" x2="185.89" y2="322.23"/><path class="cls-3" d="M125.09,331.2a149.4,149.4,0,0,1,15-3.84c5-1.05,10.06-1.93,15.13-2.68s10.15-1.36,15.26-1.81a152.34,152.34,0,0,1,15.44-.64,149.46,149.46,0,0,1-15,3.85q-7.53,1.56-15.13,2.67t-15.26,1.8A152.46,152.46,0,0,1,125.09,331.2Z"/><line class="cls-4" x1="123.59" y1="316.07" x2="184.9" y2="312.41"/><path class="cls-3" d="M123.59,316.07a153.51,153.51,0,0,1,15.23-2.53q7.63-.9,15.3-1.36c5.11-.3,10.23-.47,15.35-.47a147.89,147.89,0,0,1,15.43.7,147.88,147.88,0,0,1-15.23,2.53q-7.63.92-15.3,1.36c-5.11.3-10.23.47-15.36.47A150.49,150.49,0,0,1,123.59,316.07Z"/></svg>