<svg id="Layer_1" data-name="Layer 1" xmlns="http://www.w3.org/2000/svg" viewBox="0 0 211 316"><defs><style>.cls-1{fill:#e25f5f;}.cls-2,.cls-3{fill:none;stroke:#e25f5f;stroke-miterlimit:10;}.cls-2{stroke-width:3.49px;}.cls-3{stroke-width:2.57px;}</style></defs><rect class="cls-1" x="79.26" y="178.82" width="54.22" height="54.22" transform="translate(327.2 276.32) rotate(135)"/><rect class="cls-2" x="174.94" y="274.49" width="19.72" height="19.72" transform="translate(516.54 354.75) rotate(135)"/><rect class="cls-1" x="15.32" y="212.48" width="14.79" height="14.79" transform="translate(194.25 359.28) rotate(135)"/><rect class="cls-1" x="153.3" y="134.35" width="24.65" height="24.65" transform="translate(386.46 133.27) rotate(135)"/><rect class="cls-1" x="94.05" y="68.12" width="24.65" height="24.65" transform="translate(238.47 62.11) rotate(135)"/><rect class="cls-1" x="51.82" y="57.73" width="69.01" height="12.32" transform="translate(192.55 48.02) rotate(135)"/><rect class="cls-1" x="91.65" y="58.34" width="67.78" height="11.09" transform="translate(169.14 197.84) rotate(-135)"/><rect class="cls-1" x="94.05" y="92.52" width="24.65" height="24.65" transform="translate(255.72 103.76) rotate(135)"/><rect class="cls-2" x="59.54" y="37.1" width="93.66" height="93.66" transform="translate(240.94 68.06) rotate(135)"/><rect class="cls-3" x="71.87" y="49.42" width="69.01" height="69.01" transform="translate(240.94 68.06) rotate(135)"/><rect class="cls-3" x="71.87" y="66.85" width="69.01" height="69.01" transform="translate(253.26 97.81) rotate(135)"/></svg>