<svg id="Layer_1" data-name="Layer 1" xmlns="http://www.w3.org/2000/svg" xmlns:xlink="http://www.w3.org/1999/xlink" viewBox="0 0 1080 1080"><defs><style>.cls-1{mask:url(#mask);}.cls-2,.cls-4{fill:#fff;}.cls-3{fill:#0f0f10;}.cls-3,.cls-4{stroke:#000;stroke-miterlimit:10;stroke-width:9.67px;}</style><mask id="mask" x="-424.74" y="-564.78" width="2149.18" height="2112.81" maskUnits="userSpaceOnUse"><image width="1280" height="853" transform="translate(-424.74 659.51) rotate(-42.56) scale(1.41)" xlink:href="../../../free-templates-all/free-templates/15%20Grunge%20Textures/Grunge%20Textures/Texture1.png"/></mask></defs><g class="cls-1"><path class="cls-2" d="M47.47,573.86l141.37,304a14.5,14.5,0,0,0,16.29,8l240.39-53.44a14.5,14.5,0,0,0,5-26.18L206.66,642a14.51,14.51,0,0,1-6.35-13.22L212.54,481a14.5,14.5,0,0,0-22.26-13.41L52.8,555.53A14.51,14.51,0,0,0,47.47,573.86Z"/><path class="cls-3" d="M78.57,581.35l138.13,297a14.19,14.19,0,0,0,15.93,7.86L467.51,834a14.17,14.17,0,0,0,4.84-25.58L234.12,647.92a14.12,14.12,0,0,1-6.2-12.91l12-144.39a14.17,14.17,0,0,0-21.76-13.1L83.79,563.44A14.17,14.17,0,0,0,78.57,581.35Z"/><path class="cls-3" d="M302.08,634,537.8,705.21a6.78,6.78,0,0,0,8.33-8.81L401.24,298.28a6.78,6.78,0,0,0-12.9.5L297.51,625.69A6.77,6.77,0,0,0,302.08,634Z"/><path class="cls-3" d="M555.69,355l41.5-11.12a17.4,17.4,0,0,1,20.41,9.72l98.08,219.93a17.41,17.41,0,0,0,18.43,10.13l108.1-15.86a17.42,17.42,0,0,1,19.62,13.9l10.93,56.13a17.41,17.41,0,0,1-10.89,19.6L627.18,746.79a17.42,17.42,0,0,1-23.36-13.36L543,374.77A17.41,17.41,0,0,1,555.69,355Z"/><path class="cls-2" d="M865.88,248.34l164.46,235.5a11.46,11.46,0,0,1-8,17.94L760.28,534.45a11.47,11.47,0,0,1-12.2-15.3L845.71,251A11.46,11.46,0,0,1,865.88,248.34Z"/><path class="cls-3" d="M859.38,281.2,990.23,468.56a9.13,9.13,0,0,1-6.36,14.28l-208.51,26a9.12,9.12,0,0,1-9.7-12.17L843.33,283.3A9.12,9.12,0,0,1,859.38,281.2Z"/><polygon class="cls-4" points="113 298.33 786.8 117.74 823.2 253.55 840.28 248.97 799.31 96.09 91.41 285.81 144.6 484.28 161.62 479.72 113 298.33"/><polygon class="cls-4" points="896.96 528.74 965.6 784.88 291.8 965.46 275.85 905.95 258.83 910.51 279.35 987.03 987.24 797.31 914.03 524.16 896.96 528.74"/></g></svg>