<svg id="Layer_1" data-name="Layer 1" xmlns="http://www.w3.org/2000/svg" viewBox="0 0 702 1080"><defs><style>.cls-1,.cls-3{fill:#dcdbda;}.cls-1,.cls-10,.cls-12,.cls-13,.cls-14,.cls-16,.cls-9{stroke:#231f20;}.cls-1,.cls-10,.cls-12,.cls-13,.cls-14,.cls-16,.cls-17,.cls-18,.cls-2,.cls-22,.cls-23,.cls-24,.cls-28,.cls-5,.cls-6,.cls-7,.cls-8,.cls-9{stroke-miterlimit:10;}.cls-1,.cls-14,.cls-18,.cls-24,.cls-5,.cls-7,.cls-8,.cls-9{stroke-width:3.58px;}.cls-10,.cls-14,.cls-16,.cls-2,.cls-22,.cls-23,.cls-28,.cls-5,.cls-6{fill:none;}.cls-2{stroke:#efefef;}.cls-10,.cls-13,.cls-2,.cls-22,.cls-23,.cls-28{stroke-width:2.24px;}.cls-4{fill:#e15f5f;}.cls-17,.cls-18,.cls-24,.cls-28,.cls-5,.cls-6,.cls-7,.cls-8{stroke:#000;}.cls-17,.cls-6{stroke-width:4.47px;}.cls-29,.cls-8{fill:#050505;}.cls-17,.cls-9{fill:#e25f5f;}.cls-11{fill:#231f20;}.cls-12{stroke-width:1.68px;}.cls-15,.cls-18,.cls-25{fill:#fff;}.cls-16{stroke-width:1.12px;}.cls-19{fill:#a2a2a1;}.cls-20{opacity:0.49;}.cls-21{fill:#b7b7b7;}.cls-22{stroke:#232323;}.cls-23{stroke:#353535;}.cls-24{fill:#0f0f10;}.cls-25{font-size:52.61px;font-family:Naluka-Regular, Naluka;}.cls-26{letter-spacing:-0.02em;}.cls-27{letter-spacing:0em;}</style></defs><path class="cls-1" d="M204.36,649.2l292,.69,0,78.59s-7.18-41.28-20-47.52c-21.46-10.42-55.84,38.69-108.95,49.41,0,0-28.53-50.1-73.26-65,0,0,9.75,13.8,14.54,26.28,0,0-18-10-32.18-13.67,0,0,5.78,8.45,7.64,15.91,0,0-23-16.56-38.24-19.07,0,0,9.41,10.73,11.46,15.52,0,0-30.7-12-52.95-8.25Z"/><line class="cls-2" x1="496.36" y1="654.55" x2="453" y2="654.55"/><line class="cls-2" x1="360.51" y1="679.22" x2="344.46" y2="679.18"/><line class="cls-2" x1="445.58" y1="654.55" x2="406.56" y2="654.55"/><line class="cls-2" x1="402.95" y1="654.59" x2="335.28" y2="654.55"/><line class="cls-2" x1="326.14" y1="654.57" x2="293.59" y2="654.6"/><line class="cls-2" x1="289.36" y1="654.6" x2="273.58" y2="654.6"/><line class="cls-2" x1="328.08" y1="674.33" x2="314.28" y2="674.29"/><line class="cls-2" x1="337.95" y1="679.25" x2="321.9" y2="679.21"/><line class="cls-2" x1="496.36" y1="659.48" x2="474.28" y2="659.48"/><line class="cls-2" x1="469.56" y1="659.48" x2="432.1" y2="659.48"/><line class="cls-2" x1="428.66" y1="659.52" x2="360.99" y2="659.48"/><line class="cls-2" x1="357.27" y1="659.48" x2="324.71" y2="659.52"/><line class="cls-2" x1="254.49" y1="654.59" x2="245.42" y2="654.59"/><line class="cls-2" x1="232.53" y1="659.52" x2="219.13" y2="659.52"/><line class="cls-2" x1="241.76" y1="664.54" x2="232.69" y2="664.54"/><line class="cls-2" x1="228.89" y1="664.54" x2="219.82" y2="664.54"/><line class="cls-2" x1="216.74" y1="664.54" x2="207.67" y2="664.54"/><line class="cls-2" x1="496.36" y1="664.41" x2="462.94" y2="664.41"/><line class="cls-2" x1="458.65" y1="664.41" x2="399.02" y2="664.41"/><line class="cls-2" x1="396.92" y1="664.45" x2="329.25" y2="664.41"/><line class="cls-2" x1="319.89" y1="659.45" x2="281.47" y2="659.5"/><line class="cls-2" x1="269.98" y1="654.59" x2="260.91" y2="654.59"/><line class="cls-2" x1="496.36" y1="669.34" x2="453" y2="669.34"/><line class="cls-2" x1="450.55" y1="669.34" x2="391.37" y2="669.34"/><line class="cls-2" x1="388.59" y1="669.38" x2="320.92" y2="669.34"/><line class="cls-2" x1="318.07" y1="669.38" x2="304.26" y2="669.34"/><line class="cls-2" x1="294.58" y1="669.4" x2="280.78" y2="669.36"/><line class="cls-2" x1="287.39" y1="674.35" x2="273.58" y2="674.31"/><line class="cls-2" x1="273.32" y1="679.26" x2="259.51" y2="679.22"/><line class="cls-2" x1="253.21" y1="674.29" x2="239.4" y2="674.25"/><line class="cls-2" x1="277.25" y1="659.44" x2="253.21" y2="659.46"/><line class="cls-2" x1="250.85" y1="659.44" x2="235.42" y2="659.46"/><line class="cls-2" x1="221.15" y1="654.59" x2="203.26" y2="654.59"/><line class="cls-2" x1="496.36" y1="674.27" x2="457.4" y2="674.27"/><line class="cls-2" x1="452.81" y1="674.27" x2="413.8" y2="674.27"/><line class="cls-2" x1="409.47" y1="674.31" x2="331.55" y2="674.27"/><line class="cls-2" x1="325.64" y1="664.44" x2="292.1" y2="664.48"/><line class="cls-2" x1="496.36" y1="679.2" x2="453" y2="679.2"/><line class="cls-2" x1="497.28" y1="679.2" x2="480.93" y2="679.2"/><line class="cls-2" x1="497.28" y1="684.13" x2="480.93" y2="684.13"/><line class="cls-2" x1="497.28" y1="689.06" x2="484.01" y2="689.06"/><line class="cls-2" x1="497.28" y1="693.99" x2="485.69" y2="693.99"/><line class="cls-2" x1="497.28" y1="698.92" x2="488.16" y2="698.92"/><line class="cls-2" x1="497.28" y1="703.85" x2="489.1" y2="703.85"/><line class="cls-2" x1="497.28" y1="708.78" x2="491.61" y2="708.78"/><line class="cls-2" x1="450.64" y1="679.2" x2="400.82" y2="679.2"/><line class="cls-2" x1="396.79" y1="679.24" x2="362.64" y2="679.2"/><line class="cls-2" x1="289.86" y1="664.46" x2="272.72" y2="664.51"/><line class="cls-2" x1="269.67" y1="664.47" x2="261.26" y2="664.51"/><line class="cls-2" x1="276.97" y1="669.37" x2="264.3" y2="669.4"/><line class="cls-2" x1="454.74" y1="684.13" x2="415.73" y2="684.13"/><line class="cls-2" x1="412.32" y1="684.17" x2="378.7" y2="684.13"/><line class="cls-2" x1="446.91" y1="689.06" x2="407.9" y2="689.06"/><line class="cls-2" x1="404.99" y1="689.1" x2="386.53" y2="689.06"/><line class="cls-2" x1="439.21" y1="693.99" x2="388.59" y2="693.99"/><line class="cls-2" x1="430.67" y1="698.92" x2="392.62" y2="698.92"/><line class="cls-2" x1="423.86" y1="703.85" x2="392.62" y2="703.85"/><line class="cls-2" x1="417.49" y1="708.78" x2="401.81" y2="708.78"/><line class="cls-2" x1="241.22" y1="654.6" x2="224.35" y2="654.6"/><line class="cls-2" x1="256.26" y1="664.5" x2="245.08" y2="664.54"/><line class="cls-2" x1="261.23" y1="669.37" x2="248.56" y2="669.41"/><line class="cls-2" x1="233.18" y1="669.32" x2="220.51" y2="669.36"/><line class="cls-2" x1="228.98" y1="673.84" x2="216.31" y2="673.88"/><line class="cls-2" x1="218.54" y1="669.3" x2="205.87" y2="669.34"/><line class="cls-2" x1="216.31" y1="659.44" x2="205.12" y2="659.44"/><line class="cls-2" x1="245.85" y1="669.34" x2="236.78" y2="669.34"/><line class="cls-2" x1="270.08" y1="674.35" x2="256.27" y2="674.32"/><path class="cls-3" d="M301.76,677.93c-1.67-.37-8.41-1-9,4.44l-16.4-2.86a64.85,64.85,0,0,1-29.2-5.59l-2.36-.5s-11.43-11-19.13,2.24-10.44-17-20.51-13.67l-.76,19.52s45.48,3.67,52.32,7.55h0l-10.84-13s22.58,4.77,36.69,15.43l-4.43-10.86s6.67-.8,17.48,3.41,11.68,6,11.68,6Z"/><polygon class="cls-4" points="578.35 772.43 659.21 717.6 608.77 717.57 578.35 738.2 578.35 772.43"/><path class="cls-3" d="M329.47,684.73l-3.07-2.83c2.86-2.1,14.67-9.78,20.64,1,6.81,12.3,29.55-11.56,40.48,8.07s21.87,21.25,21.87,21.25-36.9,18.41-41.31,18.58c0,0-27.19-38.61-38.61-46"/><polygon class="cls-4" points="122.05 772.43 41.19 717.6 91.63 717.57 122.05 738.2 122.05 772.43"/><rect class="cls-4" x="554.09" y="352.68" width="48.58" height="65.29"/><polygon class="cls-4" points="637.29 663.62 578.34 703.59 578.35 492.8 637.29 492.8 637.29 663.62"/><polygon class="cls-4" points="63.1 663.62 122.05 703.59 122.04 492.8 63.1 492.8 63.1 663.62"/><rect class="cls-4" x="98.37" y="351.9" width="48.58" height="66.14"/><polygon class="cls-4" points="88.75 492.54 41.8 492.54 72.29 453.58 119.24 453.58 88.75 492.54"/><polygon class="cls-4" points="611.64 492.54 658.59 492.54 628.1 453.58 581.15 453.58 611.64 492.54"/><line class="cls-5" x1="578.34" y1="418.59" x2="578.34" y2="649.2"/><line class="cls-5" x1="122.64" y1="418.59" x2="122.64" y2="649.2"/><path class="cls-5" d="M122.66,812.35c0,.54,0,1,0,1.59v-1.59Z"/><line class="cls-5" x1="576.09" y1="845.99" x2="508.21" y2="836.32"/><line class="cls-5" x1="569.69" y1="876.36" x2="503.74" y2="857.57"/><line class="cls-5" x1="559.16" y1="905.56" x2="496.36" y2="877.99"/><line class="cls-5" x1="544.75" y1="933.07" x2="486.29" y2="897.22"/><line class="cls-5" x1="526.73" y1="958.37" x2="473.68" y2="914.89"/><line class="cls-5" x1="505.44" y1="980.96" x2="458.8" y2="930.68"/><line class="cls-5" x1="481.3" y1="1000.5" x2="441.92" y2="944.35"/><polyline class="cls-5" points="454.76 1016.61 454.74 1016.61 423.36 955.57"/><line class="cls-5" x1="426.22" y1="1028.88" x2="403.43" y2="964.18"/><line class="cls-5" x1="396.3" y1="1037.18" x2="382.5" y2="969.98"/><line class="cls-5" x1="365.52" y1="1041.27" x2="360.98" y2="972.84"/><line class="cls-5" x1="339.29" y1="972.79" x2="334.46" y2="1041.21"/><line class="cls-5" x1="317.8" y1="969.82" x2="303.71" y2="1036.98"/><line class="cls-5" x1="296.91" y1="963.94" x2="273.8" y2="1028.55"/><line class="cls-5" x1="277" y1="955.26" x2="245.36" y2="1016.14"/><line class="cls-5" x1="258.48" y1="943.94" x2="218.85" y2="999.94"/><line class="cls-5" x1="241.69" y1="930.21" x2="194.81" y2="980.29"/><line class="cls-5" x1="241.69" y1="930.21" x2="194.81" y2="980.29"/><line class="cls-5" x1="226.88" y1="914.35" x2="173.65" y2="957.63"/><line class="cls-5" x1="226.88" y1="914.35" x2="173.65" y2="957.63"/><line class="cls-5" x1="226.88" y1="914.35" x2="173.65" y2="957.63"/><line class="cls-5" x1="214.34" y1="896.62" x2="155.72" y2="932.22"/><line class="cls-5" x1="204.36" y1="877.32" x2="141.4" y2="904.63"/><line class="cls-5" x1="197.09" y1="856.88" x2="131.03" y2="875.35"/><line class="cls-5" x1="192.71" y1="835.61" x2="124.74" y2="844.96"/><path class="cls-5" d="M578.34,813.94a229.84,229.84,0,0,1-8.65,62.42,220.94,220.94,0,0,1-10.53,29.2,227.9,227.9,0,0,1-32.43,52.81A222,222,0,0,1,505.44,981a224.27,224.27,0,0,1-24.14,19.54,227.58,227.58,0,0,1-26.54,16.11h0a228.76,228.76,0,0,1-58.43,20.57,219.35,219.35,0,0,1-30.78,4.09c-5,.36-10,.52-15,.52-5.39,0-10.73-.18-16-.58a221.8,221.8,0,0,1-30.75-4.23,228.1,228.1,0,0,1-29.91-8.43,223.15,223.15,0,0,1-28.44-12.41,229.82,229.82,0,0,1-71.71-58.51,225.23,225.23,0,0,1-17.93-25.41,226.89,226.89,0,0,1-31-87.26,230.33,230.33,0,0,1-2.1-31h68.59a158.16,158.16,0,0,0,1.48,21.67,152.44,152.44,0,0,0,4.38,21.27,154.45,154.45,0,0,0,7.27,20.44,158.52,158.52,0,0,0,10,19.3,162,162,0,0,0,12.54,17.73,153.33,153.33,0,0,0,14.81,15.86,158.69,158.69,0,0,0,35.31,25,156.86,156.86,0,0,0,19.91,8.68,153.27,153.27,0,0,0,20.89,5.88,154.81,154.81,0,0,0,21.49,3c3.69.27,7.45.41,11.2.41,3.54,0,7-.12,10.49-.36a159.65,159.65,0,0,0,112.7-58,158.23,158.23,0,0,0,12.61-17.67A156.11,156.11,0,0,0,496.36,878a158.84,158.84,0,0,0,13.41-64Z"/><rect class="cls-5" x="122.64" y="649.2" width="68.59" height="27.2"/><rect class="cls-5" x="122.64" y="676.39" width="68.59" height="27.2"/><rect class="cls-5" x="122.64" y="703.59" width="68.59" height="27.2"/><rect class="cls-5" x="122.64" y="730.78" width="68.59" height="27.2"/><rect class="cls-5" x="122.64" y="757.98" width="68.59" height="27.17"/><path class="cls-5" d="M191.23,785.15v28.79H122.64c0-.54,0-1.05,0-1.59h0v-27.2Z"/><rect class="cls-5" x="509.77" y="649.2" width="68.57" height="27.2"/><rect class="cls-5" x="509.77" y="676.39" width="68.57" height="27.2"/><rect class="cls-5" x="509.77" y="703.59" width="68.57" height="27.2"/><rect class="cls-5" x="509.77" y="730.78" width="68.57" height="27.2"/><rect class="cls-5" x="509.77" y="757.98" width="68.57" height="27.17"/><path class="cls-5" d="M578.34,812.35h0c0,.54,0,1,0,1.59H509.77V785.15h68.57Z"/><polygon points="454.78 1016.62 454.76 1016.62 423.38 955.58 454.78 1016.62"/><path d="M388.36,1031.51a121.4,121.4,0,0,1-16.87,2.25l-4.74-54.36a86.18,86.18,0,0,0,11.79-1.57Z"/><path d="M356.68,980.21l2.88,54.14c-3.05.22-6.13.32-9.24.32-3.31,0-6.6-.11-9.85-.36l2.88-54.13c2.26.17,4.57.25,6.88.25S354.55,980.36,356.68,980.21Z"/><path d="M417.93,1024a129.4,129.4,0,0,1-17.49,4.84l-11.5-53.07a91.29,91.29,0,0,0,12.23-3.39Z"/><path d="M445.7,1013.23A122.14,122.14,0,0,1,430,1020l-19.29-50.71A91,91,0,0,0,422,964.53Z"/><path d="M472.3,997.8a128.11,128.11,0,0,1-15.2,9.22l-25.81-47a88,88,0,0,0,10.63-6.42Z"/><polygon points="423.38 955.58 454.78 1016.62 454.76 1016.62 423.38 955.58"/><path d="M496.2,979.26a129.63,129.63,0,0,1-14.08,11.4l-31.63-43.2a92.08,92.08,0,0,0,9.86-8Z"/><path d="M516.93,958.37a127.37,127.37,0,0,1-12.24,13l-36.81-38.63a89.68,89.68,0,0,0,8.6-9.15Z"/><path d="M535,934.11a126.44,126.44,0,0,1-10.24,14.37l-42.05-32.77a89.52,89.52,0,0,0,7.16-10Z"/><path d="M549.67,908.27a127.6,127.6,0,0,1-8.08,15.42l-46.27-27.08A86.18,86.18,0,0,0,501,885.83Z"/><path d="M560.94,880.34a122.53,122.53,0,0,1-5.87,16.27l-49.83-21.15A83.9,83.9,0,0,0,509,864.27Z"/><path d="M568.72,849.88a125.46,125.46,0,0,1-4.24,18.38l-53.24-12.8c1.29-4.19,1.7-8.62,2.36-13Z"/><path d="M573,819.68a93.65,93.65,0,0,1-1.89,18.82l-56-5.6a107.77,107.77,0,0,0,.58-13.22Z"/><path d="M311.67,1031.49a120,120,0,0,0,16.86,2.24l4.74-54.36a83.37,83.37,0,0,1-11.79-1.57Z"/><path d="M343.35,980.18l-2.88,54.15c3,.22,6.13.32,9.23.32,3.32,0,6.6-.11,9.86-.36l-2.88-54.13c-2.27.16-4.58.24-6.89.24S345.48,980.34,343.35,980.18Z"/><path d="M282.1,1024a131.18,131.18,0,0,0,17.48,4.85l11.51-53.08a91.26,91.26,0,0,1-12.23-3.38Z"/><path d="M254.32,1013.2A122.8,122.8,0,0,0,270,1020l19.29-50.71A91,91,0,0,1,278,964.51Z"/><path d="M227.72,997.78a130.28,130.28,0,0,0,15.2,9.22l25.81-47a89.25,89.25,0,0,1-10.62-6.43Z"/><path d="M203.82,979.23a130.46,130.46,0,0,0,14.08,11.41l31.63-43.2a89.9,89.9,0,0,1-9.85-8Z"/><path d="M183.1,958.34a126.44,126.44,0,0,0,12.24,13l36.81-38.64a90.79,90.79,0,0,1-8.61-9.14Z"/><path d="M165,934.08a128.19,128.19,0,0,0,10.24,14.38l42.06-32.77a89.73,89.73,0,0,1-7.17-10Z"/><path d="M150.36,908.24a125.41,125.41,0,0,0,8.07,15.42l46.28-27.07a87.66,87.66,0,0,1-5.65-10.78Z"/><path d="M139.08,880.31A125.56,125.56,0,0,0,145,896.59l49.84-21.15a84.08,84.08,0,0,1-3.74-11.2Z"/><path d="M131.3,849a121.31,121.31,0,0,0,4.24,18.06l53.24-12.58c-1.29-4.11-1.69-8.47-2.36-12.78Z"/><path d="M128.07,819.12a100.73,100.73,0,0,0,1.87,19.38l55.47-5.77a116.26,116.26,0,0,1-.58-13.61Z"/><rect x="515.22" y="654.55" width="57.74" height="16.49"/><rect x="515.22" y="681.76" width="57.74" height="16.46"/><rect x="515.22" y="708.91" width="57.74" height="16.56"/><rect x="515.22" y="736.11" width="57.74" height="16.54"/><rect x="515.22" y="763.21" width="57.74" height="16.72"/><path d="M573,807.57h0c0,.34,0,.66,0,1H515.22V790.52H573Z"/><rect x="128.07" y="654.59" width="57.74" height="16.49"/><rect x="128.07" y="681.8" width="57.74" height="16.46"/><rect x="128.07" y="708.95" width="57.74" height="16.56"/><rect x="128.07" y="736.15" width="57.74" height="16.54"/><rect x="128.07" y="763.34" width="57.74" height="16.53"/><path d="M185.41,807.37h0c0,.33,0,.64,0,1H128.07V790.83h57.34Z"/><path class="cls-5" d="M578.34,812.35v1.59c0-.54,0-1.05,0-1.59Z"/><polygon class="cls-5" points="147.02 418.47 98.44 418.47 98.36 352 146.94 352 147.02 418.47"/><rect class="cls-5" x="554.06" y="352" width="48.58" height="66.49"/><path class="cls-6" d="M602.64,351.86h7.69l43.28,0h7.74c0-1.25,0-2.51,0-3.76s0-2.62,0-3.93A310.1,310.1,0,0,0,644.22,246c-.14-.41-.29-.81-.43-1.21l-1.41-4c-.06-.2-.15-.4-.22-.6a.72.72,0,0,0-.09-.2l-.47-1.28a310.28,310.28,0,0,0-50.08-87c-.17-.22-.38-.47-.55-.71a7.8,7.8,0,0,1-.59-.7c-.82-1-1.63-2-2.46-2.95a5.46,5.46,0,0,0-.38-.44,1.34,1.34,0,0,0-.11-.14.63.63,0,0,1-.11-.13.67.67,0,0,1-.11-.14l-.05,0-.29-.34a2,2,0,0,1-.15-.18,1,1,0,0,1-.14-.15A311.49,311.49,0,0,0,509.8,81.09c-.2-.13-.38-.22-.56-.36s-.35-.22-.55-.33l-.16-.09c-1.1-.63-2.19-1.28-3.29-1.9-.69-.4-1.38-.81-2.08-1.19a308.34,308.34,0,0,0-94.33-34.53c-.72-.16-1.43-.29-2.17-.4s-1.28-.25-2-.36c-1.14-.2-2.3-.4-3.46-.58A306.53,306.53,0,0,0,354,37.26c-1.16,0-2.33,0-3.49,0-1.68,0-3.35,0-5,0h-.18a310.74,310.74,0,0,0-44.39,3.89c-1.82.29-3.63.6-5.42.91l-2.19.41a308.42,308.42,0,0,0-94.4,34.15c-2.15,1.21-4.27,2.44-6.37,3.67l-.3.18a312,312,0,0,0-76.95,64.38c-.76.88-1.52,1.75-2.26,2.64-.92,1.08-1.81,2.15-2.71,3.25A310.53,310.53,0,0,0,59.69,238c-.07.16-.13.34-.2.5a3.38,3.38,0,0,0-.18.51.18.18,0,0,0,0,.09L57.5,244c-.11.27-.2.54-.29.81s-.11.31-.16.47a310.14,310.14,0,0,0-17.4,99c0,1.28,0,2.58,0,3.85s0,2.57,0,3.87H146.94M634.33,241.38,593.6,256.12a257.58,257.58,0,0,0-41.21-71.66l33.21-27.73A303,303,0,0,1,634.33,241.38ZM160.15,182.65a253.32,253.32,0,0,1,61.35-51.28l24.22,42.11A205.36,205.36,0,0,0,197.32,214Zm32.21,37.19a203.17,203.17,0,0,0-31.85,54.91l-45.67-16.64a252,252,0,0,1,40.35-69.58Zm35.8-92.32A249.83,249.83,0,0,1,303.4,100.3l8.34,47.89a201.83,201.83,0,0,0-59.33,21.47ZM311,99a254.53,254.53,0,0,1,80,.16L382.44,147A201.91,201.91,0,0,0,354,144.54c-1.16,0-2.33,0-3.49,0-1.74,0-3.49,0-5.21.06a206.48,206.48,0,0,0-25.94,2.31Zm2.08,56.79L343,327.15,256.25,176.34A193.71,193.71,0,0,1,313.08,155.77Zm7.61-1.32a197.34,197.34,0,0,1,60.4.13L350.61,325.83Zm68,1.47a193.14,193.14,0,0,1,56.8,20.83L358.15,327.37Zm1.34-7.58,8.52-47.86A250.25,250.25,0,0,1,473.73,128l-24.38,42.05A201.53,201.53,0,0,0,390,148.34Zm90.35-16.46a252.88,252.88,0,0,1,61.19,51.6l-37.28,31.17A204.33,204.33,0,0,0,456,173.93Zm66.11,57.52a250.67,250.67,0,0,1,39.9,69.33l-45.69,16.53a202.82,202.82,0,0,0-31.49-54.7ZM505.93,87.8a304.92,304.92,0,0,1,74.73,63l-33.19,27.76a260,260,0,0,0-63.25-53.34ZM407.46,50.34A299.8,299.8,0,0,1,499.27,84l-21.69,37.42a256.11,256.11,0,0,0-77.7-28.45ZM350.5,45a304.49,304.49,0,0,1,49.38,4l-7.58,42.6A253.18,253.18,0,0,0,354,88.25c-1.16,0-2.33,0-3.49,0-1.74,0-3.49,0-5.21.07a256.15,256.15,0,0,0-35.61,3.13h0l-7.42-42.6A303.57,303.57,0,0,1,350.5,45Zm-55.87,5.15,7.45,42.62a256.13,256.13,0,0,0-77.74,28.12L202.76,83.35A301.08,301.08,0,0,1,294.63,50.12ZM196.09,87.17l21.59,37.53a260.27,260.27,0,0,0-63.41,53l-33.08-27.84A305.83,305.83,0,0,1,196.09,87.17Zm-79.86,68.55,33.08,27.87a258.81,258.81,0,0,0-41.69,71.9L66.94,240.66A303.08,303.08,0,0,1,116.23,155.72ZM47.39,344.23a302.57,302.57,0,0,1,16.93-96.32L105,262.72a258.74,258.74,0,0,0-14.31,81.51Zm51,0a251.85,251.85,0,0,1,13.84-78.9L157.87,282a202.61,202.61,0,0,0-10.93,62.26Zm56.29,0a195.36,195.36,0,0,1,10.47-59.62l163.75,59.62Zm13.11-66.84a194.94,194.94,0,0,1,30.5-52.56L331.42,337Zm35.47-58.46a195.2,195.2,0,0,1,46.34-38.74L336.3,331Zm248.9-38.34a197.29,197.29,0,0,1,46.25,39L364.79,331.2ZM503.3,225.5a194.89,194.89,0,0,1,30.12,52.38l-163.64,59.2ZM372.51,344.3l163.55-59.18a195.46,195.46,0,0,1,10.29,59.09Zm181.55-.11a204,204,0,0,0-10.73-61.7L589,266a250.88,250.88,0,0,1,13.64,78.21Zm56.27,0a258.34,258.34,0,0,0-14.09-80.83L637,248.63a302.92,302.92,0,0,1,16.66,95.52Z"/><polyline class="cls-5" points="578.35 703.59 659.21 648.75 659.21 492.54 628.72 454.13 578.34 454.13 578.34 492.54 613.19 492.54 580.53 453.58"/><polyline class="cls-5" points="578.35 738.2 659.21 683.36 608.77 683.34"/><polygon class="cls-7" points="578.94 726.35 627.17 693.65 593.03 693.63 578.94 703.18 578.94 726.35"/><polygon class="cls-8" points="578.34 793.8 627.17 762.06 593.67 762.04 578.35 772.43 578.34 793.8"/><polygon class="cls-7" points="121.66 727.02 73.43 694.31 107.56 694.3 121.66 703.85 121.66 727.02"/><polygon class="cls-8" points="122.26 794.47 73.43 762.73 106.93 762.71 122.25 773.1 122.26 794.47"/><polyline class="cls-5" points="578.35 772.43 659.21 717.6 608.77 717.57"/><polyline class="cls-5" points="578.35 806.67 659.21 751.83 608.77 751.81"/><polyline class="cls-5" points="637.29 492.54 659.21 492.54 578.34 492.54"/><polyline class="cls-5" points="122.66 703.59 41.8 648.75 41.8 492.54 72.29 454.13 122.66 454.13 122.66 492.54 87.82 492.54 120.48 453.58"/><polyline class="cls-5" points="122.66 738.2 41.8 683.36 92.23 683.34"/><polyline class="cls-5" points="122.66 772.43 41.8 717.6 92.23 717.57"/><polyline class="cls-5" points="122.66 806.67 41.8 751.83 92.23 751.81"/><line class="cls-5" x1="122.66" y1="492.54" x2="41.8" y2="492.54"/><line class="cls-5" x1="628.72" y1="454.13" x2="628.72" y2="352.06"/><line class="cls-5" x1="72.29" y1="454.13" x2="72.29" y2="352"/><path class="cls-9" d="M458.72,707.86l6.59-10.6h12.95s4.19,17.06-3,22.84-66.85,40.44-66.85,40.44-42.87,5.84-53.92,2.73-23-9.94-23-9.94,18.39,24.6,23.48,26.47,58.77-2,58.77-2l45.88-24.48,2.17-13,1.28-1.37,19.13-.5.5,15.41-57.15,33.3L358.2,798.81c-32.18,5.71-90.26-7.38-90.26-7.38l25.3-7c-18.5,5.55-37,1.86-37,1.86,7.64,0,17.95-7.19,17.95-7.19-18.13,9.08-36.31-.26-36.31-.26,14.81,2.66,21.65-5.39,21.65-5.39-22.83,1.07-31.16-6.54-31.16-6.54,10.3-.74,19.79-7.25,19.79-7.25-43.76,13.91-43.76-17.52-43.76-17.52,5.43,8.57,42.39,18.26,42.52-8.95S207,692.7,207,692.7c58.77-4.35,71.69,44,71.69,44,2.49-21.24-16.4-37.4-16.4-37.4,18.33,6.22,45.6,31.5,45.6,31.5l-11.24-28.67c12.21.37,33.08,13.61,38.48,18S352.21,744,352.21,744l3.45-4.07,1.48,4.18c2.73,6.24,12.09,7.5,12.09,7.5l6-10.53c2.71,5.28,7.16,6.46,11.93,7.27s3.36-10.62,3.36-10.62,12.58,5.68,16.21,3.26.84-11.65.84-11.65,8.63,5.58,11.09,3.82c3.26-2.33,3.07-12.11,3.07-12.11s4.82,5.18,10.88,4.35l1.36-5.6,7.58,4.1-5-17.39,11.09-7.73c7.74,1.65,9,8.89,12,13.23Z"/><line class="cls-10" x1="457.4" y1="754.52" x2="450.45" y2="735.72"/><line class="cls-10" x1="450.45" y1="736.87" x2="443.59" y2="761.28"/><line class="cls-10" x1="435.78" y1="745.37" x2="442.7" y2="762.36"/><line class="cls-10" x1="434.34" y1="746.34" x2="428.49" y2="769.94"/><line class="cls-10" x1="423.81" y1="751.98" x2="427.26" y2="771.04"/><line class="cls-10" x1="422.5" y1="752.29" x2="413.74" y2="777.81"/><line class="cls-10" x1="408.4" y1="760.54" x2="412.88" y2="777.27"/><line class="cls-10" x1="407.33" y1="761.08" x2="400.43" y2="777.65"/><line class="cls-10" x1="392.19" y1="763.38" x2="399.3" y2="778.76"/><line class="cls-10" x1="390.75" y1="763.47" x2="382.51" y2="779"/><line class="cls-10" x1="376" y1="764.53" x2="381.14" y2="778.81"/><line class="cls-10" x1="374.82" y1="763.97" x2="366.12" y2="779.57"/><line class="cls-10" x1="362.5" y1="765.03" x2="364.51" y2="779.01"/><line class="cls-10" x1="360.62" y1="765.21" x2="352.67" y2="777.37"/><line class="cls-10" x1="349.75" y1="762.71" x2="351.66" y2="776.7"/><polygon class="cls-11" points="498.86 721.63 497.19 742.53 493.28 721.93 498.86 721.63"/><path class="cls-9" d="M503.14,803.12s-16.85,80.18-67.28,102.44c-50,22.1-122.39,11.41-141.52,8.86s-39.77-7.94-58.65-27.15c-16.84-17.14-14.48,2.49-14.48,2.49s25.11,65.5,115.66,75.79C431.9,976.35,505.44,897.22,503.14,803.12Z"/><path class="cls-12" d="M321.88,710.63l-2-13.19,19,12.09,2.83,1.79,17.89,27.31,3.23-4.63,4.72,8.79L371,740l3.23,3.69s-3.6,10.23-9.44,6.81S353,737.81,353,737.81l-.65,3.6-13-20.6-3.6-3.36Z"/><path class="cls-13" d="M468.12,705.33a1.84,1.84,0,0,1,1.71-1.19h2.05l-.89,8.43a2.66,2.66,0,0,1-1.85,2.25l-1.6.49a1.83,1.83,0,0,1-2.25-2.38Z"/><path class="cls-13" d="M445.14,710.15l1.58-1.45,8.6,8a2.61,2.61,0,0,1,0,3.79l-1.57,1.5a2.6,2.6,0,0,1-4.21-.9Z"/><path class="cls-13" d="M311.11,714.44s15.78,6.84,19.63,11.06,12.79,25.72,12.79,25.72-20.61-12.74-22.85-15.5S311.11,714.44,311.11,714.44Z"/><path class="cls-11" d="M337.83,793.33c-1.36.28-2.72.46-4.07.69s-2.71.37-4.07.51-2.71.61-4.06.33a10,10,0,0,1-2-.54,7.8,7.8,0,0,1-2-1.1v-.35a7.43,7.43,0,0,1,2-1.07,9.93,9.93,0,0,1,2-.52c1.36-.26,2.71.23,4.06.39s2.71.34,4.06.56,2.71.45,4.06.75Z"/><path class="cls-11" d="M330,760.94c-.7,0-1.37-.05-2-.09s-1.34-.14-2-.25-1.42.07-1.92-.41a3.07,3.07,0,0,1-.72-.82,3.78,3.78,0,0,1-.52-1.3l.12-.31a4,4,0,0,1,1.28-.58,2.93,2.93,0,0,1,1.08-.1c.69,0,1.13.66,1.67,1s1.09.77,1.62,1.19,1,.85,1.55,1.34Z"/><path class="cls-14" d="M497.5,751.47l4.35,6.51s-2.36,21.94-4.35,25.73l-3.1-24.79Z"/><rect class="cls-15" x="498.12" y="715.87" width="3.67" height="18.55"/><circle class="cls-16" cx="255.45" cy="912.8" r="3.03"/><circle class="cls-16" cx="257.29" cy="906.5" r="3.03"/><circle class="cls-16" cx="259.71" cy="917.06" r="3.03"/><circle class="cls-16" cx="253.89" cy="918.87" r="3.03"/><circle class="cls-16" cx="258.31" cy="923.13" r="3.03"/><circle class="cls-16" cx="256.67" cy="929.2" r="3.03"/><circle class="cls-16" cx="260.84" cy="933.66" r="3.03"/><circle class="cls-16" cx="265.04" cy="937.96" r="3.03"/><circle class="cls-16" cx="252.24" cy="924.94" r="3.03"/><circle class="cls-16" cx="264.21" cy="921.57" r="3.03"/><circle class="cls-16" cx="261.18" cy="910.99" r="3.03"/><circle class="cls-16" cx="265.68" cy="915.5" r="3.03"/><path class="cls-16" d="M270.15,909.65a3,3,0,0,1-3,3,3.06,3.06,0,0,1-3-3C264,906.12,270.15,908,270.15,909.65Z"/><circle class="cls-16" cx="271.75" cy="913.68" r="3.03"/><circle class="cls-16" cx="268.47" cy="925.82" r="3.03"/><circle class="cls-16" cx="270.35" cy="919.63" r="3.03"/><circle class="cls-16" cx="262.65" cy="927.53" r="3.03"/><circle class="cls-16" cx="266.91" cy="931.89" r="3.03"/><circle class="cls-16" cx="271.11" cy="936.18" r="3.03"/><path class="cls-16" d="M272.34,943.43c-.68,1.54-6.23-.9-5.56-2.43a3,3,0,1,1,5.56,2.43Z"/><path class="cls-16" d="M277.28,946.85c-.53,1.22-6.09-1.21-5.55-2.43s2.21-1.67,3.74-1S277.82,945.63,277.28,946.85Z"/><circle class="cls-16" cx="275.31" cy="940.48" r="3.03"/><circle class="cls-16" cx="274.48" cy="924.09" r="3.03"/><circle class="cls-16" cx="275.96" cy="918.02" r="3.03"/><path class="cls-16" d="M280.43,912.17a3,3,0,0,1-3,3,3.07,3.07,0,0,1-3-3C274.25,908.64,280.43,910.49,280.43,912.17Z"/><circle class="cls-16" cx="282.02" cy="916.21" r="3.03"/><circle class="cls-16" cx="278.74" cy="928.34" r="3.03"/><circle class="cls-16" cx="280.63" cy="922.15" r="3.03"/><circle class="cls-16" cx="272.92" cy="930.05" r="3.03"/><circle class="cls-16" cx="277.18" cy="934.41" r="3.03"/><polyline class="cls-10" points="325.78 917.98 331.27 925.82 323.85 931.89 330.5 940.37 322.39 947.01 330.54 957.4 321.96 964.42"/><polyline class="cls-10" points="330.85 918.2 336.34 926.04 328.92 932.12 335.57 940.59 327.46 947.24 335.61 957.62 327.03 964.65"/><polyline class="cls-10" points="335.92 918.43 341.41 926.26 333.99 932.34 340.64 940.82 332.53 947.46 340.68 957.85 332.1 964.87"/><polyline class="cls-10" points="340.99 918.65 346.48 926.48 339.06 932.56 345.71 941.04 337.6 947.68 345.75 958.07 337.17 965.09"/><polyline class="cls-10" points="346.06 918.87 351.55 926.71 344.13 932.78 350.78 941.26 342.67 947.9 350.81 958.29 342.24 965.31"/><polyline class="cls-10" points="351.13 919.09 356.61 926.93 349.2 933 355.85 941.48 347.74 948.12 355.88 958.51 347.31 965.54"/><polyline class="cls-10" points="356.19 919.31 361.68 927.15 354.27 933.23 360.92 941.7 352.81 948.35 360.95 958.73 352.38 965.76"/><polyline class="cls-10" points="361.26 919.54 366.75 927.37 359.34 933.45 365.99 941.93 357.88 948.57 366.02 958.96 357.45 965.98"/><polyline class="cls-10" points="366.33 919.76 371.82 927.59 364.41 933.67 371.06 942.15 362.95 948.79 371.09 959.18 362.52 966.2"/><line class="cls-10" x1="410.92" y1="914.32" x2="401.99" y2="958.94"/><line class="cls-10" x1="403.34" y1="915.18" x2="395.05" y2="961.7"/><line class="cls-10" x1="396.74" y1="915.18" x2="390.57" y2="949.79"/><line class="cls-10" x1="418.46" y1="911.36" x2="409.53" y2="954.79"/><line class="cls-10" x1="425.13" y1="909.17" x2="416.2" y2="952.36"/><line class="cls-10" x1="432.86" y1="906.64" x2="424.56" y2="948.12"/><line class="cls-10" x1="440.97" y1="903.53" x2="431.72" y2="943.86"/><line class="cls-10" x1="447.89" y1="900.09" x2="440.21" y2="938.44"/><line class="cls-10" x1="455.27" y1="894" x2="447.6" y2="932.35"/><path class="cls-10" d="M389.1,917.45c.53,1,8,22.19,28,33.65"/><path class="cls-10" d="M383.05,919.1c.54,1,7.35,23.62,27.37,35.08"/><path class="cls-10" d="M381.87,926.41c-.26,1.37,4.57,19.53,24.58,31"/><path class="cls-10" d="M395.8,916s10.07,20.67,30.08,32.14"/><path class="cls-10" d="M402,914.85c.41,2.1,10.23,17.55,30.24,29"/><path class="cls-10" d="M411.42,913.59s5,14.81,25,26.27"/><path class="cls-10" d="M417.77,910.7s6.79,12.74,24.31,26.52"/><path class="cls-10" d="M426.22,909.17s5.35,8.51,22.46,23.15"/><path class="cls-10" d="M432.86,906.64s3.73,7.1,23,19.49"/><path class="cls-10" d="M440.21,904.7s2.73,3.07,19.41,16.68"/><path d="M210,769.18s48.37,42.7,109.86,43.17c0,0-38.58,26.84-67.41,37.27,0,0,17.93,26.19,50.18,24v28.51s-75.11,6.9-92.63-72.5l22.37-11.37L210,801.54Z"/><path d="M333.15,812.35H376v76.16h16.16v13.82H310.93V864.66s-27.77,4.72-43.93-12C267,852.61,297.73,840.3,333.15,812.35Z"/><path d="M383.5,812.35s45.09-2.56,105-43.17l-.59,51.12s-28.31,20.25-45.84,27.46l36.52-1.24s-30.19,55.81-78.4,55.81v-21.4s15-1.36,26.84-8.32l-43.37-.12V852.11l46.26-25.22a267,267,0,0,1-46.18,4.84Z"/><path class="cls-17" d="M469.16,344.35H231.84a118.66,118.66,0,0,1,237.32,0Z"/><line class="cls-18" x1="637.29" y1="662.8" x2="637.29" y2="494.42"/><line class="cls-18" x1="63.1" y1="662.8" x2="63.1" y2="494.42"/><line class="cls-14" x1="463.71" y1="727.65" x2="459.86" y2="751.81"/><path class="cls-14" d="M325.15,758.8s-16.15-5.42-27.21-12.46c0,0,6.34,14.07,18.89,19.54,0,0-22-2.36-36-10.93,0,0,2.23,9.69,17.89,13.79L263.53,765s9.63,23.85,40,19.07l-10.06,5s26.68,4.35,33,4.09"/><line class="cls-19" x1="593.08" y1="240.61" x2="607.6" y2="246.14"/><path class="cls-11" d="M593.08,240.61a11.59,11.59,0,0,1,4.26-.25,15.92,15.92,0,0,1,7.26,2.76,11.48,11.48,0,0,1,3,3,11.62,11.62,0,0,1-4.26.27,15.94,15.94,0,0,1-3.79-.94,15.57,15.57,0,0,1-3.46-1.84A11.37,11.37,0,0,1,593.08,240.61Z"/><line class="cls-19" x1="586.76" y1="227.08" x2="621.96" y2="240.49"/><path class="cls-11" d="M586.76,227.08a55,55,0,0,1,9.42,1.72,89.32,89.32,0,0,1,9,2.9,85.91,85.91,0,0,1,8.63,3.8,53.45,53.45,0,0,1,8.18,5,52.13,52.13,0,0,1-9.43-1.71,89.32,89.32,0,0,1-9-2.9,90.5,90.5,0,0,1-8.63-3.81A52.88,52.88,0,0,1,586.76,227.08Z"/><line class="cls-19" x1="579.16" y1="213.07" x2="624.45" y2="230.32"/><path class="cls-11" d="M579.16,213.07a85.92,85.92,0,0,1,12,2.68q5.83,1.69,11.49,3.86t11.15,4.76a85.85,85.85,0,0,1,10.7,5.95,85.9,85.9,0,0,1-12-2.67Q606.67,226,601,223.79c-3.77-1.44-7.49-3-11.15-4.77A87.89,87.89,0,0,1,579.16,213.07Z"/><line class="cls-19" x1="570" y1="198.46" x2="618.32" y2="216.87"/><path class="cls-11" d="M570,198.46a99.08,99.08,0,0,1,12.71,3q6.21,1.85,12.25,4.16c4,1.53,8,3.2,11.91,5a97.34,97.34,0,0,1,11.45,6.25,99.32,99.32,0,0,1-12.7-3q-6.23-1.84-12.25-4.16t-11.91-5.05A99.7,99.7,0,0,1,570,198.46Z"/><line class="cls-19" x1="560.09" y1="183.56" x2="611.12" y2="203"/><path class="cls-11" d="M560.09,183.56a110.54,110.54,0,0,1,13.38,3.23c4.37,1.31,8.68,2.79,12.93,4.4s8.45,3.38,12.59,5.31a109.09,109.09,0,0,1,12.13,6.5,110.19,110.19,0,0,1-13.39-3.21q-6.56-2-12.92-4.42c-4.25-1.62-8.45-3.38-12.59-5.31A108.21,108.21,0,0,1,560.09,183.56Z"/><line class="cls-19" x1="569.14" y1="175.89" x2="602.61" y2="188.64"/><path class="cls-11" d="M569.14,175.89a49.1,49.1,0,0,1,9,1.55,84,84,0,0,1,8.54,2.74,78.63,78.63,0,0,1,8.2,3.63,48.13,48.13,0,0,1,7.74,4.83,48.12,48.12,0,0,1-9-1.54,84.49,84.49,0,0,1-16.74-6.39A48.06,48.06,0,0,1,569.14,175.89Z"/><line class="cls-19" x1="577.65" y1="168.01" x2="592.5" y2="173.67"/><path class="cls-11" d="M577.65,168a11.92,11.92,0,0,1,4.33-.22,16.59,16.59,0,0,1,7.43,2.82,11.64,11.64,0,0,1,3.09,3.06,11.78,11.78,0,0,1-4.34.23,16.71,16.71,0,0,1-3.88-1,16.24,16.24,0,0,1-3.54-1.87A11.59,11.59,0,0,1,577.65,168Z"/><line class="cls-19" x1="571.07" y1="259.96" x2="573.87" y2="243.82"/><path class="cls-11" d="M571.07,260a12.26,12.26,0,0,1-1-4.33,17.61,17.61,0,0,1,.22-4.12,17.1,17.1,0,0,1,1.17-4,12.18,12.18,0,0,1,2.43-3.73,12.31,12.31,0,0,1,1,4.33,17.7,17.7,0,0,1-1.41,8.08A12.3,12.3,0,0,1,571.07,260Z"/><line class="cls-19" x1="559.85" y1="263.61" x2="565.99" y2="228.23"/><path class="cls-11" d="M559.85,263.61a49.18,49.18,0,0,1-.19-9.14,83,83,0,0,1,1.06-8.93,80.38,80.38,0,0,1,2-8.76,48.47,48.47,0,0,1,3.27-8.55,49.29,49.29,0,0,1,.2,9.15,84.93,84.93,0,0,1-3.08,17.69A48.63,48.63,0,0,1,559.85,263.61Z"/><line class="cls-19" x1="548.54" y1="267.77" x2="557.78" y2="214.48"/><path class="cls-11" d="M548.54,267.77a108.07,108.07,0,0,1,.59-13.62c.44-4.5,1.06-9,1.83-13.41s1.69-8.85,2.78-13.24a106.26,106.26,0,0,1,4-13,106.15,106.15,0,0,1-.58,13.62c-.44,4.5-1.06,9-1.83,13.41s-1.7,8.85-2.79,13.24A108,108,0,0,1,548.54,267.77Z"/><line class="cls-19" x1="539.84" y1="256.86" x2="549.33" y2="202.17"/><path class="cls-11" d="M539.84,256.86a115.78,115.78,0,0,1,.65-14c.47-4.61,1.11-9.2,1.89-13.75s1.73-9.09,2.84-13.6a112.39,112.39,0,0,1,4.11-13.37,113.59,113.59,0,0,1-.64,14q-.71,6.93-1.9,13.76c-.79,4.56-1.73,9.09-2.85,13.59A113,113,0,0,1,539.84,256.86Z"/><line class="cls-19" x1="531.89" y1="241.65" x2="538.81" y2="201.74"/><path class="cls-11" d="M531.89,241.65a61.89,61.89,0,0,1,0-10.28c.25-3.38.68-6.73,1.25-10.06s1.3-6.62,2.2-9.89a61.86,61.86,0,0,1,3.46-9.68,60.85,60.85,0,0,1,0,10.28q-.39,5.07-1.26,10.06T535.35,232A61.86,61.86,0,0,1,531.89,241.65Z"/><line class="cls-19" x1="523.6" y1="228.43" x2="526.48" y2="211.8"/><path class="cls-11" d="M523.6,228.43a12.86,12.86,0,0,1-1-4.46,18.71,18.71,0,0,1,.25-4.24,17.67,17.67,0,0,1,1.19-4.07,12.79,12.79,0,0,1,2.45-3.86,12.86,12.86,0,0,1,1,4.46,17.63,17.63,0,0,1-.25,4.24,18.21,18.21,0,0,1-1.2,4.07A12.94,12.94,0,0,1,523.6,228.43Z"/><line class="cls-19" x1="586.02" y1="276.93" x2="580.4" y2="273.79"/><path class="cls-11" d="M586,276.93a4.81,4.81,0,0,1-2.25.74,3,3,0,0,1-1.65-.36,3,3,0,0,1-1.17-1.2,4.73,4.73,0,0,1-.55-2.32,4.8,4.8,0,0,1,2.26-.75,3,3,0,0,1,1.64.36,3.1,3.1,0,0,1,1.17,1.21A4.73,4.73,0,0,1,586,276.93Z"/><line class="cls-19" x1="589.95" y1="291.12" x2="566.09" y2="277.82"/><path class="cls-11" d="M590,291.12a30,30,0,0,1-6.82-1.79,48.7,48.7,0,0,1-6.2-2.91,47.31,47.31,0,0,1-5.73-3.74,29.21,29.21,0,0,1-5.11-4.86,29,29,0,0,1,6.82,1.79,46.11,46.11,0,0,1,6.2,2.91,48.54,48.54,0,0,1,5.73,3.74A29.59,29.59,0,0,1,590,291.12Z"/><line class="cls-19" x1="592.6" y1="304.61" x2="553.71" y2="282.92"/><path class="cls-11" d="M592.6,304.61A74.82,74.82,0,0,1,582,300.72c-3.41-1.53-6.72-3.2-10-5s-6.41-3.75-9.49-5.84a73.13,73.13,0,0,1-8.87-7,73.69,73.69,0,0,1,10.58,3.88q5.1,2.29,10,5t9.49,5.84A73.13,73.13,0,0,1,592.6,304.61Z"/><line class="cls-19" x1="594.41" y1="317.62" x2="553.31" y2="294.7"/><path class="cls-11" d="M594.41,317.62a81.5,81.5,0,0,1-11.13-4.2c-3.58-1.62-7.08-3.4-10.51-5.31s-6.78-3.95-10-6.14a80.26,80.26,0,0,1-9.42-7.27,81.5,81.5,0,0,1,11.13,4.2c3.58,1.62,7.08,3.4,10.51,5.31s6.77,4,10,6.15A82.12,82.12,0,0,1,594.41,317.62Z"/><line class="cls-19" x1="595.89" y1="330.45" x2="556.2" y2="308.32"/><path class="cls-11" d="M595.89,330.45a76.67,76.67,0,0,1-10.78-4q-5.19-2.34-10.15-5.11t-9.69-5.95a75.82,75.82,0,0,1-9.07-7.07,75.76,75.76,0,0,1,10.78,4q5.21,2.34,10.16,5.12t9.68,5.95A77.83,77.83,0,0,1,595.89,330.45Z"/><line class="cls-19" x1="592.15" y1="339.93" x2="558.1" y2="321.41"/><path class="cls-11" d="M592.15,339.93a56.6,56.6,0,0,1-9.35-3.09,96.92,96.92,0,0,1-17-9.25,56.56,56.56,0,0,1-7.67-6.18,56.6,56.6,0,0,1,9.35,3.09,93.6,93.6,0,0,1,8.74,4.21c2.84,1.55,5.6,3.22,8.28,5.05A57.34,57.34,0,0,1,592.15,339.93Z"/><line class="cls-19" x1="570.55" y1="340.34" x2="559.11" y2="333.96"/><path class="cls-11" d="M570.55,340.34a9,9,0,0,1-3.71-.07,11.35,11.35,0,0,1-3.1-1.17,11.16,11.16,0,0,1-2.62-2,9,9,0,0,1-2-3.13,9,9,0,0,1,3.72.06,10.87,10.87,0,0,1,3.09,1.18,11.71,11.71,0,0,1,2.63,2A9.17,9.17,0,0,1,570.55,340.34Z"/><line class="cls-19" x1="616.25" y1="261.31" x2="605.84" y2="277.48"/><path class="cls-11" d="M616.25,261.31a16,16,0,0,1-1.13,5,24.19,24.19,0,0,1-5.2,8.09,15.77,15.77,0,0,1-4.08,3.09,16,16,0,0,1,1.13-5,23.22,23.22,0,0,1,2.2-4.3,23.57,23.57,0,0,1,3-3.79A16.17,16.17,0,0,1,616.25,261.31Z"/><line class="cls-19" x1="633.31" y1="254.01" x2="609.14" y2="291.58"/><path class="cls-11" d="M633.31,254a75.59,75.59,0,0,1-4.57,10.34q-2.61,4.95-5.64,9.65t-6.44,9.13a72.86,72.86,0,0,1-7.52,8.45,74,74,0,0,1,4.56-10.35c1.74-3.31,3.63-6.52,5.64-9.65s4.16-6.18,6.45-9.13A75.54,75.54,0,0,1,633.31,254Z"/><line class="cls-19" x1="637.23" y1="267.13" x2="611.77" y2="306.71"/><path class="cls-11" d="M637.23,267.13A82.8,82.8,0,0,1,632.34,278c-1.84,3.47-3.84,6.86-6,10.16s-4.37,6.51-6.76,9.63a82.58,82.58,0,0,1-7.85,8.95,81.18,81.18,0,0,1,4.89-10.85c1.84-3.48,3.84-6.86,6-10.15s4.38-6.52,6.77-9.64A82.52,82.52,0,0,1,637.23,267.13Z"/><line class="cls-19" x1="640.66" y1="281.01" x2="613.59" y2="323.09"/><path class="cls-11" d="M640.66,281a92,92,0,0,1-5.29,11.47c-2,3.68-4.11,7.27-6.36,10.78s-4.64,6.93-7.17,10.26a91.85,91.85,0,0,1-8.25,9.57,93.42,93.42,0,0,1,5.29-11.47q3-5.52,6.37-10.78c2.26-3.5,4.64-6.93,7.17-10.26A95.12,95.12,0,0,1,640.66,281Z"/><line class="cls-19" x1="643.52" y1="295.78" x2="614.42" y2="341.03"/><path class="cls-11" d="M643.52,295.78a103.49,103.49,0,0,1-5.8,12.26q-3.22,5.93-6.87,11.57t-7.67,11.06A106.94,106.94,0,0,1,614.42,341a104.39,104.39,0,0,1,5.8-12.27q3.22-5.91,6.87-11.56t7.68-11.05A107.16,107.16,0,0,1,643.52,295.78Z"/><line class="cls-19" x1="645.72" y1="311.59" x2="628.16" y2="338.89"/><path class="cls-11" d="M645.72,311.59a41.07,41.07,0,0,1-2.92,7.78A69,69,0,0,1,634,333a40.71,40.71,0,0,1-5.87,5.87,39.64,39.64,0,0,1,2.91-7.77,66.46,66.46,0,0,1,4-7.09,67.44,67.44,0,0,1,4.79-6.56A41.28,41.28,0,0,1,645.72,311.59Z"/><line class="cls-19" x1="647.11" y1="328.66" x2="640.25" y2="339.32"/><path class="cls-11" d="M647.11,328.66a9,9,0,0,1-.24,3.61,10.93,10.93,0,0,1-1.31,2.93,10.45,10.45,0,0,1-2.12,2.4,8.73,8.73,0,0,1-3.19,1.72,8.66,8.66,0,0,1,.23-3.62,10.33,10.33,0,0,1,1.32-2.92,10.49,10.49,0,0,1,2.12-2.41A8.57,8.57,0,0,1,647.11,328.66Z"/><line class="cls-19" x1="467.9" y1="110.02" x2="482.52" y2="104.79"/><path class="cls-11" d="M467.9,110a11.39,11.39,0,0,1,3.06-3,16.17,16.17,0,0,1,3.5-1.76,15.53,15.53,0,0,1,3.81-.86,11.46,11.46,0,0,1,4.25.35,11.39,11.39,0,0,1-3.06,3,15.32,15.32,0,0,1-3.5,1.76,16.18,16.18,0,0,1-3.82.85A11.41,11.41,0,0,1,467.9,110Z"/><line class="cls-19" x1="454.29" y1="103.85" x2="489.76" y2="91.16"/><path class="cls-11" d="M454.29,103.85A53.7,53.7,0,0,1,462.57,99a91.84,91.84,0,0,1,17.73-6.35,53.34,53.34,0,0,1,9.46-1.52A52.51,52.51,0,0,1,481.48,96a89.13,89.13,0,0,1-8.7,3.62,93,93,0,0,1-9,2.72A54.27,54.27,0,0,1,454.29,103.85Z"/><line class="cls-19" x1="439.42" y1="98.13" x2="485.04" y2="81.81"/><path class="cls-11" d="M439.42,98.13a88.24,88.24,0,0,1,10.81-5.73c3.69-1.67,7.44-3.17,11.25-4.53s7.65-2.58,11.56-3.63a86.74,86.74,0,0,1,12-2.43,87,87,0,0,1-10.81,5.74c-3.69,1.67-7.44,3.17-11.25,4.53s-7.66,2.57-11.57,3.62A86.6,86.6,0,0,1,439.42,98.13Z"/><line class="cls-19" x1="422.96" y1="92.98" x2="471.64" y2="75.57"/><path class="cls-11" d="M423,93a99.32,99.32,0,0,1,11.58-6q5.93-2.64,12-4.81t12.33-3.9a96.33,96.33,0,0,1,12.76-2.7,97.75,97.75,0,0,1-11.57,6c-3.95,1.76-8,3.35-12,4.8s-8.16,2.76-12.33,3.9A99.63,99.63,0,0,1,423,93Z"/><line class="cls-19" x1="405.74" y1="88.1" x2="457.15" y2="69.71"/><path class="cls-11" d="M405.74,88.1A109.56,109.56,0,0,1,418,81.86c4.18-1.85,8.41-3.52,12.7-5.06s8.61-2.92,13-4.14a109.31,109.31,0,0,1,13.44-3A108.86,108.86,0,0,1,444.89,76c-4.17,1.84-8.4,3.51-12.69,5s-8.62,2.92-13,4.15A111.32,111.32,0,0,1,405.74,88.1Z"/><line class="cls-19" x1="407.63" y1="76.39" x2="441.36" y2="64.33"/><path class="cls-11" d="M407.63,76.39a48.76,48.76,0,0,1,7.84-4.66,82.57,82.57,0,0,1,16.86-6,48.56,48.56,0,0,1,9-1.36A48.82,48.82,0,0,1,433.52,69a81.62,81.62,0,0,1-8.27,3.46,82.53,82.53,0,0,1-8.6,2.57A49.43,49.43,0,0,1,407.63,76.39Z"/><line class="cls-19" x1="408.98" y1="64.87" x2="423.94" y2="59.52"/><path class="cls-11" d="M409,64.87a12,12,0,0,1,3.15-3,16.64,16.64,0,0,1,3.58-1.79,16.28,16.28,0,0,1,3.9-.89,11.85,11.85,0,0,1,4.33.32,11.65,11.65,0,0,1-3.15,3,15.77,15.77,0,0,1-3.58,1.79,16.37,16.37,0,0,1-3.9.88A11.6,11.6,0,0,1,409,64.87Z"/><line class="cls-19" x1="462.13" y1="137.68" x2="453.76" y2="123.59"/><path class="cls-11" d="M462.13,137.68a12.44,12.44,0,0,1-3.6-2.62,17.85,17.85,0,0,1-2.51-3.28,17.32,17.32,0,0,1-1.68-3.77,12.47,12.47,0,0,1-.58-4.42,12.28,12.28,0,0,1,3.6,2.63,17.51,17.51,0,0,1,4.18,7.05A12.44,12.44,0,0,1,462.13,137.68Z"/><line class="cls-19" x1="455.97" y1="147.75" x2="437.64" y2="116.88"/><path class="cls-11" d="M456,147.75a50,50,0,0,1-6.09-6.82,84.33,84.33,0,0,1-9.17-15.44,49.11,49.11,0,0,1-3.07-8.61,47.59,47.59,0,0,1,6.09,6.82,82.36,82.36,0,0,1,5,7.47,83.67,83.67,0,0,1,4.16,8A48.85,48.85,0,0,1,456,147.75Z"/><line class="cls-19" x1="450.08" y1="158.26" x2="422.47" y2="111.76"/><path class="cls-11" d="M450.08,158.26a107.18,107.18,0,0,1-8.41-10.73q-3.87-5.57-7.32-11.38t-6.49-11.87a105.61,105.61,0,0,1-5.39-12.52,107.18,107.18,0,0,1,8.41,10.73q3.89,5.55,7.32,11.38t6.48,11.87A108.07,108.07,0,0,1,450.08,158.26Z"/><line class="cls-19" x1="436.38" y1="155.63" x2="408.04" y2="107.9"/><path class="cls-11" d="M436.38,155.63a116.85,116.85,0,0,1-8.59-11q-4-5.72-7.5-11.69t-6.68-12.17A115.53,115.53,0,0,1,408,107.9a111.59,111.59,0,0,1,8.6,11q4,5.71,7.49,11.69t6.67,12.18A113,113,0,0,1,436.38,155.63Z"/><line class="cls-19" x1="420.45" y1="149.23" x2="399.77" y2="114.4"/><path class="cls-11" d="M420.45,149.23a62,62,0,0,1-6.68-7.81q-3-4.11-5.58-8.46t-4.76-9a60.53,60.53,0,0,1-3.66-9.61,61.34,61.34,0,0,1,6.68,7.81c2,2.73,3.86,5.56,5.58,8.46s3.31,5.89,4.76,9A62.41,62.41,0,0,1,420.45,149.23Z"/><line class="cls-19" x1="405.55" y1="144.58" x2="396.93" y2="130.06"/><path class="cls-11" d="M405.55,144.58a13.14,13.14,0,0,1-3.66-2.74,18.51,18.51,0,0,1-2.57-3.38,18.24,18.24,0,0,1-1.74-3.87,12.84,12.84,0,0,1-.65-4.53,12.88,12.88,0,0,1,3.67,2.73,18.57,18.57,0,0,1,2.57,3.39,19.3,19.3,0,0,1,1.74,3.87A13.11,13.11,0,0,1,405.55,144.58Z"/><line class="cls-19" x1="486.27" y1="141.43" x2="479.96" y2="142.71"/><path class="cls-11" d="M486.27,141.43a4.75,4.75,0,0,1-1.23,2,2.94,2.94,0,0,1-3.16.64,4.81,4.81,0,0,1-1.92-1.4,4.69,4.69,0,0,1,1.23-2,3,3,0,0,1,1.48-.79,3.08,3.08,0,0,1,1.68.15A4.91,4.91,0,0,1,486.27,141.43Z"/><line class="cls-19" x1="498.48" y1="149.67" x2="471.7" y2="155.07"/><path class="cls-11" d="M498.48,149.67a29.43,29.43,0,0,1-6.35,3.07,48.88,48.88,0,0,1-13.39,2.7,29,29,0,0,1-7-.37,28.53,28.53,0,0,1,6.35-3.07,45.17,45.17,0,0,1,6.6-1.82,47.94,47.94,0,0,1,6.79-.88A29.5,29.5,0,0,1,498.48,149.67Z"/><line class="cls-19" x1="509.26" y1="158.2" x2="465.61" y2="166.99"/><path class="cls-11" d="M509.26,158.2a73.58,73.58,0,0,1-10.57,3.91c-3.57,1.06-7.18,1.94-10.81,2.68s-7.31,1.32-11,1.73a73.85,73.85,0,0,1-11.26.47,73.51,73.51,0,0,1,10.56-3.92q5.37-1.57,10.82-2.67t11-1.72A73.85,73.85,0,0,1,509.26,158.2Z"/><line class="cls-19" x1="519.09" y1="166.91" x2="472.96" y2="176.21"/><path class="cls-11" d="M519.09,166.91A82.3,82.3,0,0,1,507.91,171q-5.67,1.64-11.44,2.79c-3.85.78-7.72,1.41-11.63,1.86a80.69,80.69,0,0,1-11.88.6,80.63,80.63,0,0,1,11.19-4.05c3.77-1.09,7.59-2,11.43-2.79s7.72-1.4,11.63-1.85A82.23,82.23,0,0,1,519.09,166.91Z"/><line class="cls-19" x1="528.55" y1="175.7" x2="484.01" y2="184.68"/><path class="cls-11" d="M528.55,175.7a76.43,76.43,0,0,1-10.78,4c-3.65,1.07-7.33,2-11,2.71s-7.46,1.35-11.23,1.78a76.82,76.82,0,0,1-11.49.52,77,77,0,0,1,10.79-4q5.47-1.61,11-2.71t11.23-1.77A78.09,78.09,0,0,1,528.55,175.7Z"/><line class="cls-19" x1="531.88" y1="185.34" x2="493.96" y2="193.4"/><path class="cls-11" d="M531.88,185.34a56.58,56.58,0,0,1-9.12,3.73c-3.09,1-6.22,1.81-9.38,2.49a96,96,0,0,1-9.58,1.54,55.48,55.48,0,0,1-9.84.3,56.16,56.16,0,0,1,9.11-3.74,98,98,0,0,1,19-4A57.53,57.53,0,0,1,531.88,185.34Z"/><line class="cls-19" x1="515.73" y1="199.68" x2="502.88" y2="202.27"/><path class="cls-11" d="M515.73,199.68a9.13,9.13,0,0,1-2.87,2.37,11.61,11.61,0,0,1-3.11,1.12,11.39,11.39,0,0,1-3.31.18,8.94,8.94,0,0,1-3.56-1.08,9,9,0,0,1,2.87-2.37,10.93,10.93,0,0,1,3.11-1.11,11.39,11.39,0,0,1,3.31-.18A9.25,9.25,0,0,1,515.73,199.68Z"/><line class="cls-19" x1="499.09" y1="109.92" x2="501.69" y2="128.98"/><path class="cls-11" d="M499.09,109.92a16.11,16.11,0,0,1,2.39,4.53,24.35,24.35,0,0,1,1.31,9.52,16.05,16.05,0,0,1-1.1,5,16.11,16.11,0,0,1-2.39-4.53,24.35,24.35,0,0,1-1.29-9.53A16,16,0,0,1,499.09,109.92Z"/><line class="cls-19" x1="507.31" y1="93.29" x2="513.36" y2="137.55"/><path class="cls-11" d="M507.31,93.29a74.89,74.89,0,0,1,3.25,10.82c.83,3.65,1.48,7.31,2,11s.86,7.4,1,11.13a73.87,73.87,0,0,1-.23,11.31,72.93,72.93,0,0,1-3.25-10.83q-1.25-5.48-2-11t-1-11.13A75,75,0,0,1,507.31,93.29Z"/><line class="cls-19" x1="518.82" y1="100.71" x2="525.19" y2="147.34"/><path class="cls-11" d="M518.82,100.71a81.54,81.54,0,0,1,3.33,11.42c.86,3.84,1.54,7.7,2.07,11.59s.92,7.79,1.12,11.72a81.67,81.67,0,0,1-.15,11.9,81.54,81.54,0,0,1-3.33-11.42c-.86-3.85-1.54-7.71-2.07-11.6s-.91-7.79-1.11-11.72A81.5,81.5,0,0,1,518.82,100.71Z"/><line class="cls-19" x1="530.45" y1="109.03" x2="537.23" y2="158.6"/><path class="cls-11" d="M530.45,109a91.86,91.86,0,0,1,3.43,12.16q1.33,6.12,2.18,12.32c.56,4.13,1,8.29,1.22,12.46a91.83,91.83,0,0,1,0,12.63,91.77,91.77,0,0,1-3.44-12.15c-.89-4.09-1.6-8.2-2.16-12.33s-1-8.28-1.22-12.46A93.43,93.43,0,0,1,530.45,109Z"/><line class="cls-19" x1="542.23" y1="118.4" x2="549.51" y2="171.7"/><path class="cls-11" d="M542.23,118.4a108.87,108.87,0,0,1,3.56,13.09q1.4,6.58,2.3,13.25t1.34,13.39a104.07,104.07,0,0,1,.08,13.57A106.22,106.22,0,0,1,546,158.61q-1.4-6.6-2.3-13.26c-.6-4.44-1.06-8.9-1.34-13.39A107.56,107.56,0,0,1,542.23,118.4Z"/><line class="cls-19" x1="554.17" y1="128.99" x2="558.57" y2="161.15"/><path class="cls-11" d="M554.17,129a40.9,40.9,0,0,1,2.84,7.8,68.6,68.6,0,0,1,1.57,8,66.16,66.16,0,0,1,.63,8.1,41,41,0,0,1-.64,8.28,40.52,40.52,0,0,1-2.85-7.8,69,69,0,0,1-2.19-16.09A40.9,40.9,0,0,1,554.17,129Z"/><line class="cls-19" x1="566.31" y1="141.05" x2="568.03" y2="153.61"/><path class="cls-11" d="M566.31,141.05a8.77,8.77,0,0,1,2.17,2.91,10.58,10.58,0,0,1,.86,6.27,8.57,8.57,0,0,1-1.31,3.38,8.47,8.47,0,0,1-2.17-2.9,10.73,10.73,0,0,1-.85-6.28A8.81,8.81,0,0,1,566.31,141.05Z"/><line class="cls-19" x1="286.87" y1="89.75" x2="294.58" y2="76.27"/><path class="cls-11" d="M286.87,89.75a11.38,11.38,0,0,1,.4-4.24,15.82,15.82,0,0,1,1.51-3.61,15.41,15.41,0,0,1,2.35-3.14,11.39,11.39,0,0,1,3.45-2.49,11.38,11.38,0,0,1-.4,4.24,15.41,15.41,0,0,1-1.52,3.61,16,16,0,0,1-2.34,3.13A11.66,11.66,0,0,1,286.87,89.75Z"/><line class="cls-19" x1="272.52" y1="93.9" x2="291.23" y2="61.21"/><path class="cls-11" d="M272.52,93.9a52.75,52.75,0,0,1,3.15-9A92.26,92.26,0,0,1,285,68.51a52.64,52.64,0,0,1,6.21-7.3,54,54,0,0,1-3.16,9,88.36,88.36,0,0,1-4.26,8.41,92.12,92.12,0,0,1-5.09,7.94A54.47,54.47,0,0,1,272.52,93.9Z"/><line class="cls-19" x1="257.49" y1="99.23" x2="281.56" y2="57.17"/><path class="cls-11" d="M257.49,99.22A89.46,89.46,0,0,1,262,87.84c1.72-3.67,3.6-7.25,5.6-10.75s4.14-6.94,6.43-10.28a86.39,86.39,0,0,1,7.54-9.64,85.31,85.31,0,0,1-4.49,11.39q-2.58,5.49-5.6,10.75T265,89.58A86.13,86.13,0,0,1,257.49,99.22Z"/><line class="cls-19" x1="241.64" y1="106.01" x2="267.32" y2="61.13"/><path class="cls-11" d="M241.64,106a99.22,99.22,0,0,1,4.9-12.09c1.86-3.91,3.86-7.72,6-11.46s4.41-7.41,6.84-11a98.63,98.63,0,0,1,7.94-10.34,97.6,97.6,0,0,1-4.89,12.09q-2.79,5.85-6,11.46c-2.14,3.74-4.41,7.4-6.84,11A99.06,99.06,0,0,1,241.64,106Z"/><line class="cls-19" x1="225.38" y1="113.49" x2="252.51" y2="66.1"/><path class="cls-11" d="M225.38,113.49a110.35,110.35,0,0,1,5.26-12.72q3-6.17,6.36-12.09t7.2-11.61a107.54,107.54,0,0,1,8.31-11,110.35,110.35,0,0,1-5.26,12.72q-3,6.17-6.36,12.08t-7.2,11.61A110.28,110.28,0,0,1,225.38,113.49Z"/><line class="cls-19" x1="219.21" y1="103.36" x2="237" y2="72.27"/><path class="cls-11" d="M219.21,103.36a49,49,0,0,1,2.92-8.64,83.45,83.45,0,0,1,4-8A81.19,81.19,0,0,1,231,79.17a48.33,48.33,0,0,1,6-6.9,48.61,48.61,0,0,1-2.92,8.65,81.12,81.12,0,0,1-4,8,83.2,83.2,0,0,1-4.86,7.53A49.63,49.63,0,0,1,219.21,103.36Z"/><line class="cls-19" x1="212.74" y1="93.73" x2="220.64" y2="79.93"/><path class="cls-11" d="M212.74,93.73a12,12,0,0,1,.46-4.32,16.56,16.56,0,0,1,3.94-6.9,11.84,11.84,0,0,1,3.5-2.58,11.84,11.84,0,0,1-.45,4.33,16.23,16.23,0,0,1-1.56,3.68,16.43,16.43,0,0,1-2.39,3.21A11.84,11.84,0,0,1,212.74,93.73Z"/><line class="cls-19" x1="301.38" y1="115.67" x2="285.86" y2="110.4"/><path class="cls-11" d="M301.38,115.67a12.5,12.5,0,0,1-4.45.34,17.76,17.76,0,0,1-7.76-2.63,12.42,12.42,0,0,1-3.31-3,12.25,12.25,0,0,1,4.44-.35,17,17,0,0,1,4,.87,17.58,17.58,0,0,1,3.72,1.77A12.61,12.61,0,0,1,301.38,115.67Z"/><line class="cls-19" x1="303.24" y1="127.32" x2="269.24" y2="115.77"/><path class="cls-11" d="M303.24,127.32a48.94,48.94,0,0,1-9.06-1.23,82.91,82.91,0,0,1-8.66-2.43,81.92,81.92,0,0,1-8.34-3.34,48.93,48.93,0,0,1-7.94-4.55,49,49,0,0,1,9.07,1.22,79.76,79.76,0,0,1,8.65,2.44,81.92,81.92,0,0,1,8.34,3.34A49.36,49.36,0,0,1,303.24,127.32Z"/><line class="cls-19" x1="305.59" y1="139.14" x2="254.38" y2="121.74"/><path class="cls-11" d="M305.59,139.14a107.83,107.83,0,0,1-13.36-2.69c-4.37-1.14-8.69-2.45-13-3.89s-8.49-3.05-12.65-4.81a105.8,105.8,0,0,1-12.24-6,107.6,107.6,0,0,1,13.37,2.68c4.38,1.14,8.69,2.45,13,3.9s8.48,3.05,12.65,4.81A108.13,108.13,0,0,1,305.59,139.14Z"/><line class="cls-19" x1="293.47" y1="146.04" x2="240.91" y2="128.18"/><path class="cls-11" d="M293.47,146a115.05,115.05,0,0,1-13.7-2.81c-4.49-1.17-8.92-2.52-13.3-4s-8.71-3.12-13-4.92a112.08,112.08,0,0,1-12.57-6.13,113.64,113.64,0,0,1,13.71,2.8q6.72,1.77,13.29,4t13,4.92A114.9,114.9,0,0,1,293.47,146Z"/><line class="cls-19" x1="277.2" y1="151.53" x2="238.85" y2="138.5"/><path class="cls-11" d="M277.2,151.53a61.71,61.71,0,0,1-10.15-1.6q-4.95-1.16-9.74-2.8t-9.44-3.71a61,61,0,0,1-9-4.92A60.61,60.61,0,0,1,249,140.09q5,1.17,9.74,2.81t9.43,3.71A62.38,62.38,0,0,1,277.2,151.53Z"/><line class="cls-19" x1="262.86" y1="157.68" x2="246.87" y2="152.24"/><path class="cls-11" d="M262.86,157.68a13.31,13.31,0,0,1-4.56.3,18.85,18.85,0,0,1-8-2.71,13,13,0,0,1-3.43-3,12.88,12.88,0,0,1,4.57-.3,18.6,18.6,0,0,1,4.15.9,19.23,19.23,0,0,1,3.84,1.82A13,13,0,0,1,262.86,157.68Z"/><line class="cls-19" x1="320.53" y1="102.74" x2="316.56" y2="107.81"/><path class="cls-11" d="M320.53,102.74a4.76,4.76,0,0,1,.39,2.35,3,3,0,0,1-.61,1.56,3,3,0,0,1-1.37,1,4.81,4.81,0,0,1-2.38.18,4.79,4.79,0,0,1-.39-2.35,2.92,2.92,0,0,1,.62-1.56,3,3,0,0,1,1.37-1A4.75,4.75,0,0,1,320.53,102.74Z"/><line class="cls-19" x1="335.17" y1="101.06" x2="318.32" y2="122.57"/><path class="cls-11" d="M335.17,101.06a29.22,29.22,0,0,1-2.84,6.46,47.85,47.85,0,0,1-3.83,5.68,46.78,46.78,0,0,1-4.59,5.08,28.65,28.65,0,0,1-5.59,4.29,29.14,29.14,0,0,1,2.83-6.46,47.73,47.73,0,0,1,3.83-5.67,49,49,0,0,1,4.59-5.08A29.47,29.47,0,0,1,335.17,101.06Z"/><line class="cls-19" x1="348.9" y1="100.54" x2="321.44" y2="135.6"/><path class="cls-11" d="M348.9,100.54a73.44,73.44,0,0,1-5.49,9.84c-2,3.13-4.2,6.14-6.48,9.07s-4.7,5.75-7.24,8.47a74.45,74.45,0,0,1-8.25,7.68,71.82,71.82,0,0,1,5.48-9.85c2-3.13,4.2-6.14,6.49-9.06s4.7-5.75,7.24-8.47A74.38,74.38,0,0,1,348.9,100.54Z"/><line class="cls-19" x1="362.04" y1="100.77" x2="333.02" y2="137.82"/><path class="cls-11" d="M362,100.77a82.56,82.56,0,0,1-5.88,10.35c-2.16,3.28-4.46,6.47-6.87,9.56s-5,6.08-7.63,9a80.78,80.78,0,0,1-8.64,8.18,80.58,80.58,0,0,1,5.87-10.35q3.24-4.93,6.88-9.55c2.42-3.09,5-6.08,7.63-9A82.83,82.83,0,0,1,362,100.77Z"/><line class="cls-19" x1="374.94" y1="101.3" x2="346.92" y2="137.07"/><path class="cls-11" d="M374.94,101.3a77.6,77.6,0,0,1-5.62,10c-2.08,3.18-4.3,6.25-6.63,9.24s-4.79,5.87-7.38,8.64a75.48,75.48,0,0,1-8.39,7.86,76.31,76.31,0,0,1,5.62-10c2.08-3.19,4.29-6.26,6.63-9.24s4.79-5.87,7.39-8.64A76.41,76.41,0,0,1,374.94,101.3Z"/><line class="cls-19" x1="383.73" y1="106.47" x2="360.15" y2="137.24"/><path class="cls-11" d="M383.73,106.47a57,57,0,0,1-4.51,8.76,95.75,95.75,0,0,1-5.51,8,93.91,93.91,0,0,1-6.27,7.4,56.31,56.31,0,0,1-7.29,6.63,55.3,55.3,0,0,1,4.5-8.77,93.41,93.41,0,0,1,5.51-8q3-3.84,6.28-7.4A57,57,0,0,1,383.73,106.47Z"/><line class="cls-19" x1="380.78" y1="127.87" x2="372.7" y2="138.18"/><path class="cls-11" d="M380.78,127.87a9.12,9.12,0,0,1-.64,3.65,11.43,11.43,0,0,1-4,5.17,9.16,9.16,0,0,1-3.4,1.49,9,9,0,0,1,.63-3.66,11.19,11.19,0,0,1,1.65-2.88,11.33,11.33,0,0,1,2.4-2.28A8.93,8.93,0,0,1,380.78,127.87Z"/><line class="cls-19" x1="310.54" y1="72.14" x2="324.9" y2="84.93"/><path class="cls-11" d="M310.54,72.14A16.17,16.17,0,0,1,315.3,74a24,24,0,0,1,3.91,2.84,23,23,0,0,1,3.27,3.55,15.67,15.67,0,0,1,2.42,4.51,15.83,15.83,0,0,1-4.75-1.88,23.13,23.13,0,0,1-3.91-2.84A24.07,24.07,0,0,1,313,76.65,15.94,15.94,0,0,1,310.54,72.14Z"/><line class="cls-19" x1="305.98" y1="54.16" x2="339.34" y2="83.86"/><path class="cls-11" d="M306,54.16a75.08,75.08,0,0,1,9.5,6.11c3,2.23,5.88,4.59,8.67,7.07s5.46,5.06,8,7.78a73.48,73.48,0,0,1,7.17,8.74,73.41,73.41,0,0,1-9.51-6.11q-4.5-3.34-8.66-7.07t-8-7.79A74.18,74.18,0,0,1,306,54.16Z"/><line class="cls-19" x1="319.55" y1="52.32" x2="354.7" y2="83.61"/><path class="cls-11" d="M319.55,52.32a81.89,81.89,0,0,1,9.95,6.51c3.15,2.36,6.18,4.86,9.11,7.46s5.76,5.33,8.47,8.18a82.21,82.21,0,0,1,7.62,9.14,81.24,81.24,0,0,1-10-6.51c-3.15-2.36-6.18-4.86-9.1-7.47s-5.76-5.33-8.47-8.18A83,83,0,0,1,319.55,52.32Z"/><line class="cls-19" x1="333.8" y1="51.08" x2="371.17" y2="84.35"/><path class="cls-11" d="M333.8,51.08a93.67,93.67,0,0,1,10.51,7c3.33,2.53,6.54,5.19,9.66,8s6.13,5.65,9,8.67a91.53,91.53,0,0,1,8.18,9.63,91.5,91.5,0,0,1-10.52-7q-5-3.8-9.65-8c-3.12-2.78-6.13-5.66-9-8.68A91.53,91.53,0,0,1,333.8,51.08Z"/><line class="cls-19" x1="348.84" y1="50.55" x2="389.01" y2="86.32"/><path class="cls-11" d="M348.84,50.55a107.77,107.77,0,0,1,11.21,7.63q5.34,4.11,10.36,8.58t9.73,9.3A105.32,105.32,0,0,1,389,86.32a106.72,106.72,0,0,1-11.21-7.63q-5.35-4.11-10.36-8.59t-9.73-9.3A107.8,107.8,0,0,1,348.84,50.55Z"/><line class="cls-19" x1="364.79" y1="50.83" x2="389.04" y2="72.42"/><path class="cls-11" d="M364.79,50.83A40.72,40.72,0,0,1,372,54.92a69.65,69.65,0,0,1,12.13,10.79A40.53,40.53,0,0,1,389,72.42a40.07,40.07,0,0,1-7.23-4.08,68.63,68.63,0,0,1-12.12-10.8A41.16,41.16,0,0,1,364.79,50.83Z"/><line class="cls-19" x1="381.87" y1="52.11" x2="391.33" y2="60.54"/><path class="cls-11" d="M381.87,52.11a8.74,8.74,0,0,1,3.53.8,10.42,10.42,0,0,1,2.68,1.75,10.21,10.21,0,0,1,2.05,2.46,8.59,8.59,0,0,1,1.2,3.42,8.75,8.75,0,0,1-3.54-.79,10.64,10.64,0,0,1-4.72-4.22A8.59,8.59,0,0,1,381.87,52.11Z"/><line class="cls-19" x1="135.75" y1="191.26" x2="132.86" y2="176"/><path class="cls-11" d="M135.75,191.26a11.48,11.48,0,0,1-2.44-3.49,16,16,0,0,1-1.46-7.63,11.39,11.39,0,0,1,1-4.14,11.52,11.52,0,0,1,2.45,3.49,16,16,0,0,1,1.44,7.63A11.48,11.48,0,0,1,135.75,191.26Z"/><line class="cls-19" x1="127.55" y1="203.74" x2="120.52" y2="166.74"/><path class="cls-11" d="M127.55,203.74a52.76,52.76,0,0,1-3.48-8.92,92.88,92.88,0,0,1-3.52-18.5,52.82,52.82,0,0,1,0-9.58,52.76,52.76,0,0,1,3.48,8.92,88.54,88.54,0,0,1,2.23,9.16,91.54,91.54,0,0,1,1.28,9.34A53.73,53.73,0,0,1,127.55,203.74Z"/><line class="cls-19" x1="119.59" y1="217.55" x2="110.55" y2="169.94"/><path class="cls-11" d="M119.59,217.55a86.92,86.92,0,0,1-4-11.57c-1.08-3.91-2-7.85-2.74-11.81s-1.36-8-1.79-12a87,87,0,0,1-.53-12.23,86.18,86.18,0,0,1,4,11.58q1.6,5.85,2.73,11.81t1.78,12A85.67,85.67,0,0,1,119.59,217.55Z"/><line class="cls-19" x1="111.95" y1="233.01" x2="102.3" y2="182.21"/><path class="cls-11" d="M112,233a98.61,98.61,0,0,1-4.13-12.37c-1.13-4.17-2.08-8.38-2.89-12.61s-1.46-8.5-1.94-12.79a97.12,97.12,0,0,1-.69-13,97.08,97.08,0,0,1,4.14,12.37c1.13,4.17,2.08,8.38,2.88,12.61s1.46,8.5,1.94,12.79A100.54,100.54,0,0,1,112,233Z"/><line class="cls-19" x1="104.46" y1="249.26" x2="94.27" y2="195.62"/><path class="cls-11" d="M104.46,249.26a110.26,110.26,0,0,1-4.27-13.08q-1.75-6.62-3-13.32t-2.08-13.5a108.08,108.08,0,0,1-.82-13.74,107.32,107.32,0,0,1,4.27,13.08c1.18,4.41,2.17,8.85,3,13.32s1.55,9,2.07,13.5A110,110,0,0,1,104.46,249.26Z"/><line class="cls-19" x1="93.18" y1="245.58" x2="86.5" y2="210.39"/><path class="cls-11" d="M93.18,245.58a48.77,48.77,0,0,1-3.39-8.47,82.6,82.6,0,0,1-2.15-8.71,79.8,79.8,0,0,1-1.2-8.89,48,48,0,0,1,.06-9.12,48.51,48.51,0,0,1,3.4,8.47A81.9,81.9,0,0,1,92,227.57a79.94,79.94,0,0,1,1.2,8.88A48.9,48.9,0,0,1,93.18,245.58Z"/><line class="cls-19" x1="82.01" y1="242.46" x2="79.04" y2="226.84"/><path class="cls-11" d="M82,242.46a11.72,11.72,0,0,1-2.46-3.58,16.57,16.57,0,0,1-1.22-3.81,16.1,16.1,0,0,1-.27-4,12,12,0,0,1,1-4.23,11.59,11.59,0,0,1,2.47,3.58A16.71,16.71,0,0,1,83,238.23,11.88,11.88,0,0,1,82,242.46Z"/><line class="cls-19" x1="162.25" y1="200.73" x2="147.03" y2="206.81"/><path class="cls-11" d="M162.25,200.73a12.59,12.59,0,0,1-3.16,3.15,17.45,17.45,0,0,1-3.62,2,17.19,17.19,0,0,1-4,1.07,12.27,12.27,0,0,1-4.46-.11,12.23,12.23,0,0,1,3.15-3.15,17.26,17.26,0,0,1,3.63-2,17.87,17.87,0,0,1,4-1.08A12.73,12.73,0,0,1,162.25,200.73Z"/><line class="cls-19" x1="171.24" y1="208.38" x2="137.89" y2="221.69"/><path class="cls-11" d="M171.24,208.38a49.21,49.21,0,0,1-7.69,5,81.33,81.33,0,0,1-8.16,3.78,80.35,80.35,0,0,1-8.51,2.89,48.1,48.1,0,0,1-9,1.69,49.28,49.28,0,0,1,7.69-5,82.46,82.46,0,0,1,8.16-3.77,81.07,81.07,0,0,1,8.51-2.88A49.09,49.09,0,0,1,171.24,208.38Z"/><line class="cls-19" x1="180.71" y1="215.83" x2="130.48" y2="235.89"/><path class="cls-11" d="M180.71,215.83a107.19,107.19,0,0,1-11.91,6.64c-4.06,2-8.19,3.79-12.38,5.47s-8.42,3.2-12.73,4.57a107.39,107.39,0,0,1-13.21,3.38,105.69,105.69,0,0,1,11.91-6.65c4.06-2,8.19-3.79,12.38-5.46s8.43-3.2,12.73-4.56A107.88,107.88,0,0,1,180.71,215.83Z"/><line class="cls-19" x1="175.98" y1="228.95" x2="124.43" y2="249.54"/><path class="cls-11" d="M176,229a115.53,115.53,0,0,1-12.24,6.78q-6.26,3-12.71,5.59c-4.29,1.72-8.65,3.3-13.06,4.71a115.38,115.38,0,0,1-13.54,3.51,113.64,113.64,0,0,1,12.23-6.78q6.27-3,12.71-5.59c4.3-1.71,8.65-3.29,13.07-4.7A115.41,115.41,0,0,1,176,229Z"/><line class="cls-19" x1="167.19" y1="243.7" x2="129.57" y2="258.72"/><path class="cls-11" d="M167.19,243.7a61.9,61.9,0,0,1-8.76,5.38c-3,1.56-6.09,2.95-9.22,4.21s-6.33,2.36-9.58,3.31a61.73,61.73,0,0,1-10.06,2.12,60.42,60.42,0,0,1,8.75-5.39q4.52-2.33,9.23-4.2c3.13-1.25,6.33-2.36,9.58-3.3A61.52,61.52,0,0,1,167.19,243.7Z"/><line class="cls-19" x1="160.28" y1="257.69" x2="144.6" y2="263.95"/><path class="cls-11" d="M160.28,257.69a13,13,0,0,1-3.27,3.19,19.1,19.1,0,0,1-3.74,2,18.82,18.82,0,0,1-4.1,1.12,12.82,12.82,0,0,1-4.57-.07,13.18,13.18,0,0,1,3.27-3.2,18,18,0,0,1,3.74-2,18.82,18.82,0,0,1,4.1-1.12A13,13,0,0,1,160.28,257.69Z"/><line class="cls-19" x1="169.67" y1="178.83" x2="169.94" y2="185.27"/><path class="cls-11" d="M169.67,178.83a4.92,4.92,0,0,1,1.82,1.53A3.17,3.17,0,0,1,172,182a3,3,0,0,1-.41,1.63,4.79,4.79,0,0,1-1.69,1.69,4.77,4.77,0,0,1-1.82-1.54,3,3,0,0,1-.55-1.59,3.16,3.16,0,0,1,.41-1.63A4.87,4.87,0,0,1,169.67,178.83Z"/><line class="cls-19" x1="179.7" y1="168.05" x2="180.87" y2="195.34"/><path class="cls-11" d="M179.7,168.05a29.42,29.42,0,0,1,2,6.74,48.84,48.84,0,0,1,.6,13.65,29.06,29.06,0,0,1-1.47,6.9,29,29,0,0,1-2.05-6.75,48.74,48.74,0,0,1-.58-13.64A29.53,29.53,0,0,1,179.7,168.05Z"/><line class="cls-19" x1="189.79" y1="158.72" x2="191.71" y2="203.21"/><path class="cls-11" d="M189.79,158.72A72.85,72.85,0,0,1,192,169.77c.49,3.69.8,7.39,1,11.1s.17,7.42,0,11.14a73.76,73.76,0,0,1-1.28,11.2,73.75,73.75,0,0,1-2.24-11q-.74-5.55-.95-11.11c-.16-3.7-.17-7.42,0-11.14A75.33,75.33,0,0,1,189.79,158.72Z"/><line class="cls-19" x1="199.93" y1="150.36" x2="201.95" y2="197.38"/><path class="cls-11" d="M199.93,150.36A83.84,83.84,0,0,1,202.19,162c.49,3.9.81,7.82,1,11.73s.18,7.85,0,11.78A80.94,80.94,0,0,1,202,197.38a81,81,0,0,1-2.26-11.68c-.5-3.9-.82-7.82-1-11.73s-.18-7.85,0-11.78A82.34,82.34,0,0,1,199.93,150.36Z"/><line class="cls-19" x1="210.08" y1="142.38" x2="212.04" y2="187.77"/><path class="cls-11" d="M210.08,142.38a76.68,76.68,0,0,1,2.24,11.27q.74,5.65,1,11.33c.17,3.78.18,7.57,0,11.37A76.72,76.72,0,0,1,212,187.77a75.43,75.43,0,0,1-2.25-11.27q-.73-5.66-1-11.33c-.16-3.78-.17-7.57,0-11.37A76.72,76.72,0,0,1,210.08,142.38Z"/><line class="cls-19" x1="220.12" y1="140.59" x2="222.19" y2="179.3"/><path class="cls-11" d="M220.12,140.59a56.77,56.77,0,0,1,2.27,9.59c.5,3.2.82,6.42,1,9.65s.19,6.46,0,9.7a55.7,55.7,0,0,1-1.24,9.77,56.43,56.43,0,0,1-2.27-9.58,96.94,96.94,0,0,1-1-19.36A56.76,56.76,0,0,1,220.12,140.59Z"/><line class="cls-19" x1="231.78" y1="158.77" x2="232.34" y2="171.86"/><path class="cls-11" d="M231.78,158.77a9,9,0,0,1,1.89,3.2,11.28,11.28,0,0,1,.29,6.54,8.91,8.91,0,0,1-1.62,3.35,9,9,0,0,1-1.89-3.2,10.87,10.87,0,0,1-.62-3.25,11.24,11.24,0,0,1,.34-3.29A9,9,0,0,1,231.78,158.77Z"/><line class="cls-19" x1="142.24" y1="160.77" x2="161.46" y2="161.16"/><path class="cls-11" d="M142.24,160.77a16.06,16.06,0,0,1,4.84-1.65,24.3,24.3,0,0,1,9.61.18,15.88,15.88,0,0,1,4.77,1.86,15.82,15.82,0,0,1-4.84,1.66,24.29,24.29,0,0,1-9.61-.2A16,16,0,0,1,142.24,160.77Z"/><line class="cls-19" x1="127.07" y1="150.07" x2="171.74" y2="150.96"/><path class="cls-11" d="M127.07,150.07a74.57,74.57,0,0,1,11.2-1.53c3.73-.25,7.46-.33,11.18-.26s7.44.3,11.16.7a74.7,74.7,0,0,1,11.13,2,73.34,73.34,0,0,1-11.2,1.54q-5.59.38-11.18.25c-3.72-.08-7.44-.3-11.16-.71A74.67,74.67,0,0,1,127.07,150.07Z"/><line class="cls-19" x1="136.19" y1="139.85" x2="183.24" y2="140.79"/><path class="cls-11" d="M136.19,139.85a82.31,82.31,0,0,1,11.8-1.52c3.93-.25,7.85-.32,11.77-.24s7.84.3,11.76.71a80.86,80.86,0,0,1,11.72,2,81,81,0,0,1-11.79,1.52q-5.89.38-11.78.25c-3.92-.09-7.84-.32-11.75-.72A83.82,83.82,0,0,1,136.19,139.85Z"/><line class="cls-19" x1="146.22" y1="129.65" x2="196.24" y2="130.65"/><path class="cls-11" d="M146.22,129.65a92.81,92.81,0,0,1,12.54-1.5q6.27-.37,12.52-.23c4.17.08,8.33.31,12.49.72a92.72,92.72,0,0,1,12.47,2,90.89,90.89,0,0,1-12.54,1.51q-6.25.36-12.51.23t-12.5-.74A92.69,92.69,0,0,1,146.22,129.65Z"/><line class="cls-19" x1="157.3" y1="119.47" x2="211.08" y2="120.55"/><path class="cls-11" d="M157.3,119.47A108.5,108.5,0,0,1,170.78,118c4.49-.24,9-.3,13.46-.22s9,.33,13.43.75a106.47,106.47,0,0,1,13.41,2A106.66,106.66,0,0,1,197.6,122q-6.72.34-13.45.21c-4.48-.1-9-.34-13.44-.76A104.92,104.92,0,0,1,157.3,119.47Z"/><line class="cls-19" x1="169.62" y1="109.32" x2="202.07" y2="109.97"/><path class="cls-11" d="M169.62,109.32a40.52,40.52,0,0,1,8.14-1.59,67.06,67.06,0,0,1,8.13-.32,65,65,0,0,1,8.1.64,40,40,0,0,1,8.08,1.92,39.92,39.92,0,0,1-8.15,1.59,64.93,64.93,0,0,1-8.12.32,69.06,69.06,0,0,1-8.11-.65A40.55,40.55,0,0,1,169.62,109.32Z"/><line class="cls-19" x1="183.42" y1="99.19" x2="196.09" y2="99.45"/><path class="cls-11" d="M183.42,99.19a8.7,8.7,0,0,1,3.2-1.68,10.5,10.5,0,0,1,6.34.12,8.55,8.55,0,0,1,3.13,1.82,8.51,8.51,0,0,1-3.2,1.69,10.54,10.54,0,0,1-3.18.42,10.94,10.94,0,0,1-3.16-.55A8.69,8.69,0,0,1,183.42,99.19Z"/><line class="cls-19" x1="104.59" y1="335.43" x2="108.98" y2="340.14"/><path class="cls-11" d="M104.59,335.43a4.87,4.87,0,0,1,2.38,0,3.13,3.13,0,0,1,1.45.85,3,3,0,0,1,.75,1.5,4.9,4.9,0,0,1-.19,2.38,4.75,4.75,0,0,1-2.38,0,2.95,2.95,0,0,1-2.2-2.36A4.85,4.85,0,0,1,104.59,335.43Z"/><line class="cls-19" x1="105.2" y1="320.71" x2="123.84" y2="340.7"/><path class="cls-11" d="M105.2,320.71a29.68,29.68,0,0,1,5.94,3.8,48.24,48.24,0,0,1,5,4.67,46.15,46.15,0,0,1,4.31,5.32,29.52,29.52,0,0,1,3.38,6.2,29.32,29.32,0,0,1-6-3.8,47.18,47.18,0,0,1-5-4.67,48.17,48.17,0,0,1-4.3-5.33A29.69,29.69,0,0,1,105.2,320.71Z"/><line class="cls-19" x1="106.81" y1="307.06" x2="137.18" y2="339.63"/><path class="cls-11" d="M106.81,307.06a75,75,0,0,1,8.88,6.95q4.16,3.74,7.94,7.81t7.25,8.47a72.69,72.69,0,0,1,6.3,9.34,72,72,0,0,1-8.87-6.94q-4.16-3.74-8-7.82t-7.24-8.47A75.24,75.24,0,0,1,106.81,307.06Z"/><line class="cls-19" x1="109.09" y1="294.12" x2="141.18" y2="328.54"/><path class="cls-11" d="M109.09,294.12a83.27,83.27,0,0,1,9.3,7.41q4.36,4,8.38,8.28c2.67,2.86,5.24,5.84,7.67,8.93a81.27,81.27,0,0,1,6.74,9.8,81.29,81.29,0,0,1-9.31-7.4q-4.36-4-8.37-8.28c-2.68-2.87-5.24-5.84-7.67-8.94A81.27,81.27,0,0,1,109.09,294.12Z"/><line class="cls-19" x1="111.61" y1="281.46" x2="142.6" y2="314.69"/><path class="cls-11" d="M111.61,281.46a77,77,0,0,1,9,7.11q4.23,3.82,8.1,8t7.4,8.63a76,76,0,0,1,6.46,9.51,77,77,0,0,1-9-7.11c-2.83-2.55-5.52-5.21-8.1-8s-5-5.65-7.39-8.64A77.82,77.82,0,0,1,111.61,281.46Z"/><line class="cls-19" x1="118.08" y1="273.58" x2="144.81" y2="301.65"/><path class="cls-11" d="M118.08,273.58a56.73,56.73,0,0,1,8,5.81,96.43,96.43,0,0,1,13.37,14,56,56,0,0,1,5.41,8.23,55.38,55.38,0,0,1-7.95-5.81,92.55,92.55,0,0,1-7-6.68,96.72,96.72,0,0,1-6.34-7.36A56.94,56.94,0,0,1,118.08,273.58Z"/><line class="cls-19" x1="138.76" y1="279.82" x2="147.69" y2="289.4"/><path class="cls-11" d="M138.76,279.82a8.78,8.78,0,0,1,3.51,1.2,10.94,10.94,0,0,1,2.59,2.06,11.39,11.39,0,0,1,1.89,2.72,9,9,0,0,1,.94,3.6,9.2,9.2,0,0,1-3.52-1.2,11.13,11.13,0,0,1-2.58-2.07,11.65,11.65,0,0,1-1.88-2.72A9.16,9.16,0,0,1,138.76,279.82Z"/><line class="cls-19" x1="71.98" y1="339.3" x2="86.84" y2="327.1"/><path class="cls-11" d="M72,339.3a16,16,0,0,1,2.6-4.4A24.17,24.17,0,0,1,82,328.79a16,16,0,0,1,4.83-1.69,15.91,15.91,0,0,1-2.6,4.41,23.46,23.46,0,0,1-3.41,3.42,24.76,24.76,0,0,1-4,2.68A16,16,0,0,1,72,339.3Z"/><line class="cls-19" x1="53.5" y1="341.02" x2="88.02" y2="312.67"/><path class="cls-11" d="M53.5,341A74.1,74.1,0,0,1,61,332.58q4-3.93,8.32-7.46c2.88-2.37,5.85-4.61,8.94-6.72A74.53,74.53,0,0,1,88,312.67a72.36,72.36,0,0,1-7.51,8.45q-4,3.93-8.33,7.46c-2.88,2.36-5.85,4.6-8.94,6.71A75.87,75.87,0,0,1,53.5,341Z"/><line class="cls-19" x1="53.79" y1="327.33" x2="90.16" y2="297.46"/><path class="cls-11" d="M53.79,327.33a82.9,82.9,0,0,1,8-8.82q4.23-4.11,8.78-7.84t9.4-7.1a82,82,0,0,1,10.21-6.11,82,82,0,0,1-8,8.83c-2.82,2.74-5.76,5.35-8.79,7.84S67.23,319,64,321.22A82.63,82.63,0,0,1,53.79,327.33Z"/><line class="cls-19" x1="54.78" y1="313.06" x2="93.45" y2="281.31"/><path class="cls-11" d="M54.78,313.06a92.29,92.29,0,0,1,8.56-9.29c3-2.9,6.13-5.66,9.36-8.31s6.53-5.18,10-7.57a92.4,92.4,0,0,1,10.79-6.58,92.31,92.31,0,0,1-8.55,9.3q-4.53,4.35-9.37,8.3t-10,7.57A93.66,93.66,0,0,1,54.78,313.06Z"/><line class="cls-19" x1="56.59" y1="298.12" x2="98.16" y2="263.99"/><path class="cls-11" d="M56.59,298.12a106.15,106.15,0,0,1,9.28-9.89q4.88-4.64,10.08-8.9t10.7-8.17A104.7,104.7,0,0,1,98.16,264a104.91,104.91,0,0,1-9.28,9.89q-4.87,4.65-10.09,8.9t-10.7,8.16A106.17,106.17,0,0,1,56.59,298.12Z"/><line class="cls-19" x1="59.35" y1="282.4" x2="84.43" y2="261.8"/><path class="cls-11" d="M59.35,282.4a39.87,39.87,0,0,1,5.16-6.5,66,66,0,0,1,6-5.52,67.85,67.85,0,0,1,6.58-4.79,40.08,40.08,0,0,1,7.38-3.79,40,40,0,0,1-5.15,6.51,69,69,0,0,1-12.55,10.3A40.73,40.73,0,0,1,59.35,282.4Z"/><line class="cls-19" x1="63.26" y1="265.74" x2="73.05" y2="257.69"/><path class="cls-11" d="M63.26,265.74a8.81,8.81,0,0,1,1.33-3.37A10.66,10.66,0,0,1,66.74,260a10,10,0,0,1,2.75-1.64,8.45,8.45,0,0,1,3.56-.66,8.45,8.45,0,0,1-1.33,3.37,10.24,10.24,0,0,1-2.15,2.38,10.66,10.66,0,0,1-2.75,1.64A8.84,8.84,0,0,1,63.26,265.74Z"/><line class="cls-5" x1="386.42" y1="344.66" x2="314.49" y2="344.66"/><g class="cls-20"><path class="cls-15" d="M281.59,943.19c2.86,1.24,5.54,2.56,8.24,3.78,1.37.58,2.68,1.24,4.05,1.77s2.7,1.15,4.08,1.66,2.73,1.05,4.11,1.54,2.78.95,4.18,1.45c2.82.93,5.68,1.78,8.63,2.8l0,.22a59.11,59.11,0,0,1-33.41-13Z"/></g><g class="cls-20"><path class="cls-15" d="M378.56,959.19a14.36,14.36,0,0,1,3.21-2A20.7,20.7,0,0,1,385,956a21.59,21.59,0,0,1,3.37-.64,14.27,14.27,0,0,1,3.78.09l.09.2a39.14,39.14,0,0,1-6.65,2.5,39.65,39.65,0,0,1-7,1.24Z"/></g><g class="cls-20"><path class="cls-15" d="M410,950.35c2.37-1.89,4.78-3.52,7.18-5.14l7.18-4.8,7.23-4.72c2.43-1.58,4.88-3.16,7.54-4.6l.16.16a94.2,94.2,0,0,1-29.2,19.31Z"/></g><g class="cls-20"><path class="cls-15" d="M466.74,901.23c1.94-2.92,3.89-5.67,5.71-8.47.88-1.43,1.82-2.8,2.65-4.24s1.7-2.84,2.48-4.31,1.58-2.91,2.32-4.39,1.43-3,2.17-4.51c1.39-3,2.68-6.15,4.11-9.35l.22,0a66.52,66.52,0,0,1-6.86,19.29,65.62,65.62,0,0,1-12.65,16.1Z"/></g><path class="cls-15" d="M311.15,786.15a16.64,16.64,0,0,1,4.07-.47,29,29,0,0,1,3.75.2l1.84.29c.61.15,1.23.22,1.85.42A16.91,16.91,0,0,1,326.5,788v.22a37.66,37.66,0,0,1-15.43-1.87Z"/><path class="cls-15" d="M273.24,769.71a53.09,53.09,0,0,0,5,4.25,31.49,31.49,0,0,0,2.68,1.74,25,25,0,0,0,2.81,1.47,35.14,35.14,0,0,0,6,2.17,63.65,63.65,0,0,0,6.46,1.27,18.61,18.61,0,0,1-6.78.45,21.44,21.44,0,0,1-6.63-1.86,21.2,21.2,0,0,1-5.67-3.92A17.46,17.46,0,0,1,273.24,769.71Z"/><path class="cls-21" d="M326.85,736.13c-1.18.69-5.31-4.86-7.08-7.92s-2.24-6.1-1.06-6.79,2,3.1,5.34,4.32C327,726.81,328,735.45,326.85,736.13Z"/><line class="cls-21" x1="324.7" y1="729.12" x2="325.99" y2="737.27"/><path class="cls-11" d="M324.88,729.1c.39.63.7,1.28,1,1.92s.6,1.3.85,2,.83,1.26.68,2a3.38,3.38,0,0,1-.37,1.11,4.15,4.15,0,0,1-.9,1.18l-.36.06a4.06,4.06,0,0,1-1.22-.85,3.29,3.29,0,0,1-.69-.94c-.37-.63,0-1.39,0-2.09s.11-1.41.21-2.12.21-1.42.39-2.15Z"/><line class="cls-22" x1="606.29" y1="357.16" x2="625.04" y2="357.16"/><line class="cls-22" x1="606.29" y1="358.47" x2="625.04" y2="358.47"/><line class="cls-22" x1="606.29" y1="359.78" x2="625.04" y2="359.78"/><line class="cls-22" x1="606.29" y1="365.9" x2="625.04" y2="365.9"/><line class="cls-22" x1="606.29" y1="364.58" x2="625.04" y2="364.58"/><line class="cls-22" x1="606.29" y1="367.2" x2="625.04" y2="367.2"/><line class="cls-22" x1="606.29" y1="372.01" x2="625.04" y2="372.01"/><line class="cls-22" x1="606.29" y1="373.32" x2="625.04" y2="373.32"/><line class="cls-22" x1="606.29" y1="374.63" x2="625.04" y2="374.63"/><line class="cls-22" x1="606.29" y1="379.43" x2="625.04" y2="379.43"/><line class="cls-22" x1="606.29" y1="380.74" x2="625.04" y2="380.74"/><line class="cls-22" x1="606.29" y1="382.05" x2="625.04" y2="382.05"/><line class="cls-22" x1="606.29" y1="386.85" x2="625.04" y2="386.85"/><line class="cls-22" x1="606.29" y1="388.16" x2="625.04" y2="388.16"/><line class="cls-22" x1="606.29" y1="389.47" x2="625.04" y2="389.47"/><line class="cls-22" x1="606.29" y1="394.27" x2="625.04" y2="394.27"/><line class="cls-22" x1="606.29" y1="395.58" x2="625.04" y2="395.58"/><line class="cls-22" x1="606.29" y1="396.89" x2="625.04" y2="396.89"/><line class="cls-22" x1="606.29" y1="401.69" x2="625.04" y2="401.69"/><line class="cls-22" x1="606.29" y1="403" x2="625.04" y2="403"/><line class="cls-22" x1="606.29" y1="404.32" x2="625.04" y2="404.32"/><line class="cls-22" x1="606.29" y1="409.12" x2="625.04" y2="409.12"/><line class="cls-22" x1="606.29" y1="410.43" x2="625.04" y2="410.43"/><line class="cls-22" x1="606.29" y1="411.74" x2="625.04" y2="411.74"/><line class="cls-22" x1="606.29" y1="416.54" x2="625.04" y2="416.54"/><line class="cls-22" x1="606.29" y1="417.85" x2="625.04" y2="417.85"/><line class="cls-22" x1="606.29" y1="419.16" x2="625.04" y2="419.16"/><line class="cls-22" x1="581.94" y1="423.96" x2="625.04" y2="423.96"/><line class="cls-22" x1="581.94" y1="425.27" x2="625.04" y2="425.27"/><line class="cls-22" x1="581.94" y1="426.58" x2="625.04" y2="426.58"/><line class="cls-22" x1="581.94" y1="431.38" x2="625.04" y2="431.38"/><line class="cls-22" x1="581.94" y1="432.69" x2="625.04" y2="432.69"/><line class="cls-22" x1="581.94" y1="434" x2="625.04" y2="434"/><line class="cls-22" x1="581.94" y1="438.81" x2="625.04" y2="438.81"/><line class="cls-22" x1="581.94" y1="440.12" x2="625.04" y2="440.12"/><line class="cls-22" x1="581.94" y1="441.43" x2="625.04" y2="441.43"/><line class="cls-22" x1="581.94" y1="446.23" x2="625.04" y2="446.23"/><line class="cls-22" x1="581.94" y1="447.54" x2="625.04" y2="447.54"/><line class="cls-22" x1="581.94" y1="448.85" x2="625.04" y2="448.85"/><line class="cls-23" x1="94.39" y1="357.16" x2="75.64" y2="357.16"/><line class="cls-23" x1="94.39" y1="358.47" x2="75.64" y2="358.47"/><line class="cls-23" x1="94.39" y1="359.78" x2="75.64" y2="359.78"/><line class="cls-23" x1="94.39" y1="364.58" x2="75.64" y2="364.58"/><line class="cls-23" x1="94.39" y1="365.89" x2="75.64" y2="365.89"/><line class="cls-23" x1="94.39" y1="367.2" x2="75.64" y2="367.2"/><line class="cls-23" x1="94.39" y1="372" x2="75.64" y2="372"/><line class="cls-23" x1="94.39" y1="373.32" x2="75.64" y2="373.32"/><line class="cls-23" x1="94.39" y1="374.63" x2="75.64" y2="374.63"/><line class="cls-23" x1="94.39" y1="379.43" x2="75.64" y2="379.43"/><line class="cls-23" x1="94.39" y1="380.74" x2="75.64" y2="380.74"/><line class="cls-23" x1="94.39" y1="382.05" x2="75.64" y2="382.05"/><line class="cls-23" x1="94.39" y1="386.85" x2="75.64" y2="386.85"/><line class="cls-23" x1="94.39" y1="388.16" x2="75.64" y2="388.16"/><line class="cls-23" x1="94.39" y1="389.47" x2="75.64" y2="389.47"/><line class="cls-23" x1="94.39" y1="394.27" x2="75.64" y2="394.27"/><line class="cls-23" x1="94.39" y1="395.58" x2="75.64" y2="395.58"/><line class="cls-23" x1="94.39" y1="396.89" x2="75.64" y2="396.89"/><line class="cls-23" x1="94.39" y1="401.69" x2="75.64" y2="401.69"/><line class="cls-23" x1="94.39" y1="403" x2="75.64" y2="403"/><line class="cls-23" x1="94.39" y1="404.31" x2="75.64" y2="404.31"/><line class="cls-23" x1="94.39" y1="409.11" x2="75.64" y2="409.11"/><line class="cls-23" x1="94.39" y1="410.42" x2="75.64" y2="410.42"/><line class="cls-23" x1="94.39" y1="411.73" x2="75.64" y2="411.73"/><line class="cls-23" x1="94.39" y1="416.53" x2="75.64" y2="416.53"/><line class="cls-23" x1="94.39" y1="417.85" x2="75.64" y2="417.85"/><line class="cls-23" x1="94.39" y1="419.16" x2="75.64" y2="419.16"/><line class="cls-23" x1="118.75" y1="423.96" x2="75.64" y2="423.96"/><line class="cls-23" x1="118.75" y1="425.27" x2="75.64" y2="425.27"/><line class="cls-23" x1="118.75" y1="426.58" x2="75.64" y2="426.58"/><line class="cls-23" x1="118.75" y1="431.38" x2="75.64" y2="431.38"/><line class="cls-23" x1="118.75" y1="432.69" x2="75.64" y2="432.69"/><line class="cls-23" x1="118.75" y1="434" x2="75.64" y2="434"/><line class="cls-23" x1="118.75" y1="438.8" x2="75.64" y2="438.8"/><line class="cls-23" x1="118.75" y1="440.11" x2="75.64" y2="440.11"/><line class="cls-23" x1="118.75" y1="441.42" x2="75.64" y2="441.42"/><line class="cls-23" x1="118.75" y1="446.22" x2="75.64" y2="446.22"/><line class="cls-23" x1="118.75" y1="447.53" x2="75.64" y2="447.53"/><line class="cls-23" x1="118.75" y1="448.84" x2="75.64" y2="448.84"/><line class="cls-11" x1="161.19" y1="333.27" x2="226.77" y2="336.97"/><path class="cls-19" d="M161.19,333.27a157.23,157.23,0,0,1,16.49-.82q8.22,0,16.42.44t16.37,1.4a154.62,154.62,0,0,1,16.3,2.68,160.34,160.34,0,0,1-16.5.83c-5.48,0-11-.14-16.42-.45s-10.92-.77-16.37-1.41A157.47,157.47,0,0,1,161.19,333.27Z"/><line class="cls-11" x1="162.58" y1="316.96" x2="227.85" y2="326.33"/><path class="cls-19" d="M162.58,317a162.82,162.82,0,0,1,16.56.6q8.24.69,16.39,1.87t16.25,2.81a160.31,160.31,0,0,1,16.07,4.09,160.17,160.17,0,0,1-16.57-.6q-8.22-.69-16.38-1.87c-5.44-.79-10.86-1.72-16.25-2.83A159.51,159.51,0,0,1,162.58,317Z"/><line class="cls-11" x1="165.04" y1="300.72" x2="229.85" y2="315.82"/><path class="cls-19" d="M165,300.72a163.25,163.25,0,0,1,16.6,2.07q8.22,1.41,16.31,3.31T214,310.33a163.43,163.43,0,0,1,15.81,5.49,160.11,160.11,0,0,1-16.6-2.06q-8.22-1.41-16.31-3.31t-16.09-4.24A163.43,163.43,0,0,1,165,300.72Z"/><line class="cls-11" x1="333.86" y1="157.4" x2="339.86" y2="220.7"/><path class="cls-19" d="M333.86,157.4a150.15,150.15,0,0,1,3.25,15.66q1.23,7.86,2,15.78c.5,5.27.85,10.56,1,15.87a144.88,144.88,0,0,1-.25,16A150.15,150.15,0,0,1,336.61,205q-1.23-7.87-2-15.78c-.5-5.28-.85-10.57-1-15.87A147.29,147.29,0,0,1,333.86,157.4Z"/><line class="cls-11" x1="350.44" y1="156.73" x2="350.55" y2="220.27"/><path class="cls-19" d="M350.44,156.73a150.36,150.36,0,0,1,1.78,15.88c.34,5.3.5,10.59.51,15.89s-.13,10.59-.45,15.88a147.53,147.53,0,0,1-1.73,15.89,147.81,147.81,0,0,1-1.79-15.88q-.5-7.95-.5-15.89t.45-15.88A150.39,150.39,0,0,1,350.44,156.73Z"/><line class="cls-11" x1="367.02" y1="157.39" x2="361.23" y2="220.7"/><path class="cls-19" d="M367,157.39a150,150,0,0,1,.3,16q-.24,8-1,15.87c-.48,5.28-1.11,10.54-1.92,15.79a147.37,147.37,0,0,1-3.2,15.66,147.23,147.23,0,0,1-.3-16q.22-8,1-15.88c.48-5.27,1.12-10.54,1.93-15.78A147,147,0,0,1,367,157.39Z"/><line class="cls-11" x1="178.07" y1="266.64" x2="237.5" y2="293.27"/><path class="cls-19" d="M178.07,266.64a154.62,154.62,0,0,1,15.57,5.06q7.63,2.88,15.06,6.21t14.66,7.1a154.57,154.57,0,0,1,14.14,8.26,154.75,154.75,0,0,1-15.58-5q-7.63-2.88-15-6.23t-14.66-7.1A154.47,154.47,0,0,1,178.07,266.64Z"/><line class="cls-11" x1="185.51" y1="252.13" x2="242.31" y2="283.72"/><path class="cls-19" d="M185.51,252.13a152.83,152.83,0,0,1,15.05,6.36Q207.9,262,215,266t14,8.31a156.47,156.47,0,0,1,13.35,9.44,156.52,156.52,0,0,1-15.06-6.36q-7.33-3.53-14.43-7.48t-14-8.32A158.62,158.62,0,0,1,185.51,252.13Z"/><line class="cls-11" x1="194.66" y1="238.65" x2="247.92" y2="274.62"/><path class="cls-19" d="M194.66,238.65A151.74,151.74,0,0,1,209,246.19q6.93,4.08,13.59,8.59t13.05,9.39a148.41,148.41,0,0,1,12.33,10.45,149.61,149.61,0,0,1-14.3-7.54Q226.69,263,220,258.49t-13-9.4A150.23,150.23,0,0,1,194.66,238.65Z"/><line class="cls-11" x1="402.08" y1="163.77" x2="384.65" y2="225.04"/><path class="cls-19" d="M402.08,163.77a150.35,150.35,0,0,1-2.67,15.79q-1.71,7.8-3.9,15.45T390.7,210.2A150.38,150.38,0,0,1,384.65,225a147.53,147.53,0,0,1,2.66-15.8q1.71-7.8,3.9-15.45T396,178.6A148.69,148.69,0,0,1,402.08,163.77Z"/><line class="cls-11" x1="417.55" y1="168.58" x2="394.79" y2="228.42"/><path class="cls-19" d="M417.55,168.58a150.21,150.21,0,0,1-4.05,15.58q-2.38,7.67-5.24,15.14t-6.13,14.79a150,150,0,0,1-7.34,14.33,147.73,147.73,0,0,1,4-15.58q2.39-7.67,5.24-15.13t6.15-14.79A153.58,153.58,0,0,1,417.55,168.58Z"/><line class="cls-11" x1="432.48" y1="174.94" x2="404.6" y2="232.67"/><path class="cls-19" d="M432.48,174.94a153.58,153.58,0,0,1-5.39,15.19q-3,7.44-6.54,14.65T413.16,219a150,150,0,0,1-8.56,13.67,151.24,151.24,0,0,1,5.39-15.2q3-7.42,6.54-14.64t7.4-14.22A152.07,152.07,0,0,1,432.48,174.94Z"/><line class="cls-11" x1="215.98" y1="213.96" x2="261.51" y2="257.92"/><path class="cls-19" d="M216,214a146.54,146.54,0,0,1,12.6,9.73q6,5.15,11.72,10.64t11,11.33a148.82,148.82,0,0,1,10.16,12.26,145.16,145.16,0,0,1-12.61-9.73q-6-5.15-11.71-10.64t-11-11.34A148.44,148.44,0,0,1,216,214Z"/><line class="cls-11" x1="227.41" y1="202.51" x2="269.27" y2="250.57"/><path class="cls-19" d="M227.41,202.51a150.15,150.15,0,0,1,11.79,10.86q5.6,5.69,10.83,11.7t10.1,12.33a144.8,144.8,0,0,1,9.14,13.17,150.15,150.15,0,0,1-11.79-10.86q-5.6-5.69-10.82-11.7t-10.11-12.34A154,154,0,0,1,227.41,202.51Z"/><line class="cls-11" x1="240.36" y1="192.81" x2="277.65" y2="243.91"/><path class="cls-19" d="M240.36,192.81a148.45,148.45,0,0,1,10.74,11.74q5.05,6.1,9.71,12.49t8.93,13.06a144.31,144.31,0,0,1,7.91,13.81,145,145,0,0,1-10.75-11.74q-5.06-6.09-9.7-12.49t-8.93-13.06A146.47,146.47,0,0,1,240.36,192.81Z"/><line class="cls-11" x1="461.5" y1="193.28" x2="424.01" y2="244.39"/><path class="cls-19" d="M461.5,193.28a147.06,147.06,0,0,1-8,13.82q-4.29,6.68-9,13.06t-9.76,12.49A145.51,145.51,0,0,1,424,244.39,147,147,0,0,1,432,230.57q4.29-6.67,9-13.06T450.71,205A152.91,152.91,0,0,1,461.5,193.28Z"/><line class="cls-11" x1="474.79" y1="202.62" x2="432.34" y2="251.1"/><path class="cls-19" d="M474.79,202.62a153.6,153.6,0,0,1-9.3,13.27q-4.94,6.39-10.25,12.44t-11,11.81a151.59,151.59,0,0,1-11.93,11,147.93,147.93,0,0,1,9.29-13.28q4.94-6.39,10.25-12.43t11-11.8A151.71,151.71,0,0,1,474.79,202.62Z"/><line class="cls-11" x1="486.82" y1="213.58" x2="440.06" y2="258.5"/><path class="cls-19" d="M486.82,213.58a155.46,155.46,0,0,1-10.47,12.49c-3.67,4-7.47,7.83-11.36,11.58s-7.9,7.38-12,10.89a157.56,157.56,0,0,1-12.91,10A151.86,151.86,0,0,1,450.53,246q5.5-6,11.36-11.57t12-10.89A155.71,155.71,0,0,1,486.82,213.58Z"/><line class="cls-11" x1="269.82" y1="173.86" x2="297.52" y2="232.14"/><path class="cls-19" d="M269.82,173.86a152.85,152.85,0,0,1,8.5,13.81c2.61,4.72,5.05,9.51,7.37,14.37s4.48,9.77,6.49,14.77a153.33,153.33,0,0,1,5.34,15.33A151,151,0,0,1,289,218.32q-3.9-7.08-7.35-14.36t-6.49-14.78A151.52,151.52,0,0,1,269.82,173.86Z"/><line class="cls-11" x1="285.07" y1="168.27" x2="307.37" y2="227.99"/><path class="cls-19" d="M285.07,168.27a149.76,149.76,0,0,1,7.22,14.31q3.24,7.3,6,14.76t5.12,15.1A146.77,146.77,0,0,1,307.37,228a147.63,147.63,0,0,1-7.22-14.32q-3.25-7.29-6-14.76T289,183.81A152.27,152.27,0,0,1,285.07,168.27Z"/><line class="cls-11" x1="300.16" y1="162.13" x2="317.55" y2="224.7"/><path class="cls-19" d="M300.16,162.13a154.55,154.55,0,0,1,6,15.18q2.65,7.68,4.82,15.51t3.88,15.77a154.14,154.14,0,0,1,2.66,16.11,153.47,153.47,0,0,1-6-15.17q-2.65-7.69-4.81-15.51t-3.88-15.78A153.27,153.27,0,0,1,300.16,162.13Z"/><line class="cls-11" x1="508.27" y1="240.65" x2="454.17" y2="276.25"/><path class="cls-19" d="M508.27,240.65A155.8,155.8,0,0,1,495.71,251q-6.49,4.86-13.26,9.31t-13.79,8.5a152,152,0,0,1-14.49,7.43,150.51,150.51,0,0,1,12.56-10.37q6.5-4.86,13.26-9.3t13.79-8.5A153.17,153.17,0,0,1,508.27,240.65Z"/><line class="cls-11" x1="516.62" y1="254.63" x2="459.64" y2="285.44"/><path class="cls-19" d="M516.62,254.63a158.18,158.18,0,0,1-13.41,9.24q-6.9,4.29-14,8.13t-14.47,7.28a151.7,151.7,0,0,1-15.08,6.16,153,153,0,0,1,13.41-9.25q6.88-4.29,14-8.12t14.48-7.28A151.7,151.7,0,0,1,516.62,254.63Z"/><line class="cls-11" x1="524.31" y1="269.02" x2="464.29" y2="295.07"/><path class="cls-19" d="M524.31,269a158.38,158.38,0,0,1-14.3,8.12q-7.32,3.71-14.82,6.95T480,290.17a159.07,159.07,0,0,1-15.71,4.9,157.29,157.29,0,0,1,14.31-8.13q7.31-3.7,14.81-6.95t15.2-6.07A159.72,159.72,0,0,1,524.31,269Z"/><line class="cls-11" x1="535.92" y1="300.62" x2="471.18" y2="315.91"/><path class="cls-19" d="M535.92,300.62a165.92,165.92,0,0,1-15.78,5.53q-8,2.39-16.08,4.29t-16.29,3.36a160.33,160.33,0,0,1-16.59,2.11A162.25,162.25,0,0,1,487,310.38q8-2.4,16.07-4.29t16.3-3.36A163.11,163.11,0,0,1,535.92,300.62Z"/><line class="cls-11" x1="539.28" y1="316.72" x2="473.16" y2="326.42"/><path class="cls-19" d="M539.28,316.72A163.73,163.73,0,0,1,523,320.88q-8.21,1.69-16.46,2.9t-16.6,2a164.32,164.32,0,0,1-16.79.68,164.62,164.62,0,0,1,16.28-4.16q8.19-1.71,16.46-2.9t16.6-1.95A161.42,161.42,0,0,1,539.28,316.72Z"/><line class="cls-11" x1="540.92" y1="333.09" x2="474.24" y2="337.06"/><path class="cls-19" d="M540.92,333.09a162.57,162.57,0,0,1-16.57,2.74q-8.29,1-16.64,1.48c-5.56.33-11.12.51-16.7.51a159.86,159.86,0,0,1-16.77-.76,165.71,165.71,0,0,1,16.56-2.75q8.31-1,16.65-1.46c5.55-.33,11.12-.51,16.69-.51A162.79,162.79,0,0,1,540.92,333.09Z"/><path class="cls-15" d="M170.39,461.1,191.8,583.34a5.37,5.37,0,0,0,5.06,4.44l91.07,3.93a5.37,5.37,0,0,0,4.28-8.89l-71.43-82.11a5.33,5.33,0,0,1-1-5.33l18.53-51.66a5.36,5.36,0,0,0-6.67-6.93l-57.58,18.27A5.36,5.36,0,0,0,170.39,461.1Z"/><path class="cls-24" d="M180.79,466.76,201.72,586.2a5.24,5.24,0,0,0,4.94,4.34l89,3.84a5.24,5.24,0,0,0,4.19-8.68L230,505.47a5.25,5.25,0,0,1-1-5.22l18.11-50.48a5.24,5.24,0,0,0-6.52-6.77l-56.27,17.85A5.26,5.26,0,0,0,180.79,466.76Z"/><path class="cls-24" d="M255.66,507l77.46,48a2.51,2.51,0,0,0,3.82-2.35L323.29,396.47a2.51,2.51,0,0,0-4.66-1.06l-63.8,108.18A2.5,2.5,0,0,0,255.66,507Z"/><path class="cls-24" d="M373.07,431.56H389a6.43,6.43,0,0,1,6.36,5.43l14,88a6.45,6.45,0,0,0,5.62,5.39l40.17,4.68a6.45,6.45,0,0,1,5.68,6.85l-1.47,21.12a6.45,6.45,0,0,1-5.77,6l-92.47,9.44a6.44,6.44,0,0,1-7.07-7L366.66,437.4A6.44,6.44,0,0,1,373.07,431.56Z"/><path class="cls-15" d="M494.21,423.13l36.23,100a4.24,4.24,0,0,1-4.57,5.65L429,515.31a4.24,4.24,0,0,1-2.89-6.64l60.6-86.53A4.25,4.25,0,0,1,494.21,423.13Z"/><path class="cls-24" d="M488.73,434.26l28.83,79.53a3.38,3.38,0,0,1-3.63,4.5l-77-10.69a3.38,3.38,0,0,1-2.3-5.28l48.21-68.85A3.38,3.38,0,0,1,488.73,434.26Z"/><polygon class="cls-18" points="220.22 368.86 478.45 368.86 478.45 420.91 484.99 420.91 484.99 362.32 213.71 362.32 213.71 438.38 220.22 438.38 220.22 368.86"/><polygon class="cls-18" points="478.45 526.37 478.45 624.53 220.22 624.53 220.22 601.72 213.71 601.72 213.71 631.05 484.99 631.05 484.99 526.37 478.45 526.37"/><text class="cls-25" transform="translate(275.82 322.7)">A<tspan class="cls-26" x="27.78" y="0">R</tspan><tspan class="cls-27" x="53.56" y="0">T </tspan><tspan class="cls-26" x="93.8" y="0">B</tspan><tspan x="121.74" y="0">Y</tspan></text><path class="cls-28" d="M301.76,677.55c.05-.19-7.25-.23-10.12,5.07"/><path class="cls-28" d="M298.89,673.86s-6.38-.26-12.34,6.7"/><path class="cls-28" d="M296.24,669.82s-3.76-.3-8.47,3.53c-1.57,1.27-5.36,5.12-8.47,5.9"/><path class="cls-28" d="M303.53,682.38s-5.47-2.48-6.77,2.24"/><path class="cls-28" d="M276.32,679.52s-12.29,2.22-27.58-4.61"/><path class="cls-28" d="M279.55,684.62a43.73,43.73,0,0,1-11.13-.62"/><path class="cls-28" d="M245.84,675.07s-12.51-12.69-20.21.6-10.44-17-20.51-13.67"/><path class="cls-28" d="M248.74,677.76s-17.06-8.68-20.54,4.25"/><path class="cls-28" d="M251.08,680.82c1.55.56-17.29-4.84-14.91,3.09"/><path class="cls-28" d="M254.8,685.33s-8.36-3.6-13.17,0"/><path class="cls-28" d="M204.36,666.1s7.6,1.27,9.83,14.49"/><path class="cls-28" d="M203.51,672.07s5.45-.88,5.77,9.44"/><path class="cls-28" d="M345.15,702.19s18.36-6.9,27.68,0,11.27,17.65,21.8,18.86"/><path class="cls-28" d="M351.05,705.62s18.52-7,25.54,8.51,19.71,6.33,19.71,6.33"/><path class="cls-28" d="M353.73,710.21s15.15-8.63,24.55,17.36"/><path class="cls-28" d="M357,713.6s12.94-1.55,15,15.73"/><path class="cls-28" d="M326.76,682.13s13.46-11.55,20.28.75,29.55-11.56,40.48,8.07,22.13,21.56,22.13,21.56"/><path class="cls-28" d="M327.93,685.81s11.28-9.39,18.09,2.91,26.34-12.3,37.28,7.33c7,12.53,16.15,17.14,21.88,18.84"/><path class="cls-28" d="M330.86,688.1s8.39-3.36,12.67,4.32c6.85,12.28,27-9.32,37.93,10.31A36.68,36.68,0,0,0,399,719"/><path class="cls-14" d="M204.36,649.2l292,.69,0,78.59s-7.18-41.28-20-47.52c-21.46-10.42-55.84,38.69-108.95,49.41,0,0-28.53-50.1-73.26-65,0,0,9.75,13.8,14.54,26.28,0,0-18-10-32.18-13.67,0,0,5.78,8.45,7.64,15.91,0,0-23-16.56-38.24-19.07,0,0,9.41,10.73,11.46,15.52,0,0-30.7-12-52.95-8.25Z"/><polygon class="cls-29" points="654.34 652.25 642.05 660.49 642.05 581.83 648.2 591.32 654.34 581.83 654.34 652.25"/><polygon class="cls-29" points="45.99 652.25 58.28 660.49 58.28 580.71 52.13 592.21 45.99 580.71 45.99 652.25"/></svg>