<svg id="Layer_1" data-name="Layer 1" xmlns="http://www.w3.org/2000/svg" viewBox="0 0 211 316"><defs><style>.cls-1{fill:#e25f5f;}.cls-2,.cls-3{fill:none;stroke:#e25f5f;stroke-miterlimit:10;}.cls-2{stroke-width:3.49px;}.cls-3{stroke-width:2.57px;}</style></defs><rect class="cls-1" x="77.52" y="97.38" width="54.22" height="54.22" transform="translate(-57.38 110.45) rotate(-45)"/><rect class="cls-1" x="137.02" y="13.54" width="30.19" height="30.19" transform="translate(24.31 115.95) rotate(-45)"/><rect class="cls-2" x="16.34" y="36.21" width="19.72" height="19.72" transform="translate(-24.9 32.02) rotate(-45)"/><rect class="cls-1" x="180.89" y="103.15" width="14.79" height="14.79" transform="translate(-23.02 165.52) rotate(-45)"/><rect class="cls-1" x="33.05" y="171.42" width="24.65" height="24.65" transform="translate(-116.64 85.9) rotate(-45)"/><rect class="cls-1" x="92.31" y="237.65" width="24.65" height="24.65" transform="translate(-146.11 147.2) rotate(-45)"/><rect class="cls-1" x="90.17" y="260.37" width="69.01" height="12.32" transform="translate(-151.95 166.22) rotate(-45)"/><rect class="cls-1" x="51.57" y="260.98" width="67.78" height="11.09" transform="translate(213.49 17.64) rotate(45)"/><rect class="cls-1" x="92.31" y="213.25" width="24.65" height="24.65" transform="translate(-128.86 140.05) rotate(-45)"/><rect class="cls-2" x="57.8" y="199.66" width="93.66" height="93.66" transform="translate(-143.65 146.18) rotate(-45)"/><rect class="cls-3" x="70.12" y="211.98" width="69.01" height="69.01" transform="translate(-143.65 146.18) rotate(-45)"/><rect class="cls-3" x="70.12" y="194.55" width="69.01" height="69.01" transform="translate(-131.32 141.07) rotate(-45)"/></svg>